<svg xmlns="http://www.w3.org/2000/svg" width="56.836" height="55.407" viewBox="0 0 56.836 55.407"><g id="Group_6152" data-name="Group 6152" transform="translate(-362.557 -402.667)"><path id="Path_14017" fill="#fff" d="M712.582,443.706H742.66a13.379,13.379,0,0,1,13.378,13.378v28.65a13.379,13.379,0,0,1-13.378,13.378H712.582a13.38,13.38,0,0,1-13.38-13.378v-28.65a13.38,13.38,0,0,1,13.38-13.378" data-name="Path 14017" transform="translate(-336.645 -41.039)"/><path id="Path_14018" fill="#ff276a" d="M721.242,463.263a.864.864,0,0,0-.167-.017,2.14,2.14,0,1,1,2.14-2.14.958.958,0,0,0,.95.911h3.244a.908.908,0,0,0,.906-.9,7.214,7.214,0,0,0-6.328-7.18v-1.47a8.746,8.746,0,0,1,7.79,8.648.905.905,0,0,0,1.81,0,10.541,10.541,0,0,0-10.5-10.509c-.031,0-.066,0-.1,0a.9.9,0,0,0-.816.9.465.465,0,0,0,0,.068v3.109a.845.845,0,0,0,0,.091.908.908,0,0,0,.906.908,5.429,5.429,0,0,1,5.352,4.52h-1.519a3.948,3.948,0,1,0-4.024,4.845,1.016,1.016,0,0,0,.183.019,8.738,8.738,0,0,1,8.65,7.8h-1.472a7.208,7.208,0,0,0-7.177-6.342,5.442,5.442,0,0,1-5.42-5.436.912.912,0,0,0-.908-.911h-3.225a.89.89,0,0,0-.361.077.908.908,0,0,0-.588.846,10.568,10.568,0,0,0,10.337,10.506.775.775,0,0,0,.17.016,2.14,2.14,0,1,1-2.141,2.141.907.907,0,0,0-.9-.906h-3.285a.907.907,0,0,0-.906.906,7.212,7.212,0,0,0,6.331,7.175v1.472a8.748,8.748,0,0,1-7.795-8.65.905.905,0,1,0-1.81,0,10.537,10.537,0,0,0,10.5,10.516.9.9,0,0,0,.9-.8.848.848,0,0,0,.009-.128V480.1a.907.907,0,0,0-.906-.9,5.432,5.432,0,0,1-5.352-4.52h1.5a3.949,3.949,0,1,0,4.026-4.845.789.789,0,0,0-.181-.019,8.739,8.739,0,0,1-8.653-7.8h1.473a7.209,7.209,0,0,0,7.177,6.343,5.437,5.437,0,0,1,5.422,5.439.907.907,0,0,0,.906.9h3.239a.963.963,0,0,0,.944-.922,10.569,10.569,0,0,0-10.339-10.506" data-name="Path 14018" transform="translate(-330.102 -37.07)"/></g></svg>