<svg xmlns="http://www.w3.org/2000/svg" width="32" height="32" viewBox="0 0 32 32">
  <g id="Group_4772" data-name="Group 4772" transform="translate(-3338.617 -375.916)">
    <g id="Group_4376" data-name="Group 4376" transform="translate(3337.449 374.794)">
      <g id="Path_12374" data-name="Path 12374" transform="translate(1.168 1.122)" fill="#fff">
        <path d="M 28 31 L 4 31 C 2.345789909362793 31 1 29.65420913696289 1 28 L 1 4 C 1 2.345789909362793 2.345789909362793 1 4 1 L 28 1 C 29.65420913696289 1 31 2.345789909362793 31 4 L 31 28 C 31 29.65420913696289 29.65420913696289 31 28 31 Z" stroke="none"/>
        <path d="M 4 2 C 2.897199630737305 2 2 2.897199630737305 2 4 L 2 28 C 2 29.1028003692627 2.897199630737305 30 4 30 L 28 30 C 29.1028003692627 30 30 29.1028003692627 30 28 L 30 4 C 30 2.897199630737305 29.1028003692627 2 28 2 L 4 2 M 4 0 L 28 0 C 30.20914077758789 0 32 1.790859222412109 32 4 L 32 28 C 32 30.20914077758789 30.20914077758789 32 28 32 L 4 32 C 1.790859222412109 32 0 30.20914077758789 0 28 L 0 4 C 0 1.790859222412109 1.790859222412109 0 4 0 Z" stroke="none" fill="#fff"/>
      </g>
      <g id="Path_12338" data-name="Path 12338" transform="translate(9.191 4.416)">
        <path id="Path_12340" data-name="Path 12340" d="M3350.3,386.659a.637.637,0,0,0-.122-.011,1.68,1.68,0,1,1,1.679-1.682v0a.628.628,0,0,0,.6.625h2.5a.626.626,0,0,0,.623-.625,5.4,5.4,0,0,0-4.782-5.372v-1.236a6.675,6.675,0,0,1,6.018,6.6.629.629,0,0,0,.582.661.687.687,0,0,0,.45-.154.6.6,0,0,0,.211-.423.264.264,0,0,0,0-.076,7.911,7.911,0,0,0-7.881-7.887h-.068a.618.618,0,0,0-.558.621v2.468a.624.624,0,0,0,.62.623,4.175,4.175,0,0,1,4.118,3.544h-1.265a2.923,2.923,0,1,0-3,3.536.62.62,0,0,0,.146.017,6.68,6.68,0,0,1,6.615,6.033h-1.236a5.394,5.394,0,0,0-5.38-4.795,4.176,4.176,0,0,1-4.165-4.176.624.624,0,0,0-.623-.625h-2.445a.553.553,0,0,0-.25.055.625.625,0,0,0-.406.569,7.922,7.922,0,0,0,7.752,7.883.673.673,0,0,0,.137.015,1.678,1.678,0,1,1-1.68,1.678.623.623,0,0,0-.623-.623h-2.485a.624.624,0,0,0-.623.623,5.4,5.4,0,0,0,4.792,5.376v1.238a6.684,6.684,0,0,1-6.025-6.6.624.624,0,0,0-.583-.661.644.644,0,0,0-.451.156.627.627,0,0,0-.211.436v.059a7.913,7.913,0,0,0,7.887,7.889h0a.622.622,0,0,0,.621-.569.519.519,0,0,0,0-.078v-2.363a.412.412,0,0,0,0-.095.623.623,0,0,0-.622-.623,4.179,4.179,0,0,1-4.119-3.546h1.264a2.921,2.921,0,1,0,3-3.538.624.624,0,0,0-.144-.017,6.674,6.674,0,0,1-6.614-6.033h1.238a5.39,5.39,0,0,0,5.376,4.8,4.177,4.177,0,0,1,4.176,4.176.622.622,0,0,0,.622.623h2.451a.664.664,0,0,0,.652-.634A7.934,7.934,0,0,0,3350.3,386.659Z" transform="translate(-3342.291 -377.08)" fill="#ff276a"/>
      </g>
    </g>
  </g>
</svg>
