<svg xmlns="http://www.w3.org/2000/svg" width="30.498" height="24.369" viewBox="0 0 30.498 24.369"><path id="Path_12341" fill="#ff276a" d="M221.965,9.173h-4.757a3.2,3.2,0,0,0,.33-2.024c-.223-.994-1.11-2.179-4.066-2.179a7.255,7.255,0,0,0-5.463,2.152,2.692,2.692,0,0,0-.892-.024A7.488,7.488,0,0,0,201.7,4.97c-2.966,0-3.854,1.187-4.078,2.2a3.177,3.177,0,0,0,.327,2H193.2a.868.868,0,0,0-.865.866v4.005a.869.869,0,0,0,.866.865h.691V28.468a.871.871,0,0,0,.866.865h25.654a.871.871,0,0,0,.865-.866V14.91h.691a.868.868,0,0,0,.865-.866v-4A.868.868,0,0,0,221.965,9.173Zm-.867,1.733v2.272h-10.36V10.906Zm-16.678,0v2.272H194.062V10.906Zm5.13-2.865A5.709,5.709,0,0,1,213.457,6.7c1.359,0,2.273.316,2.378.766a1.894,1.894,0,0,1-.93,1.7h-4.769A2.884,2.884,0,0,0,209.55,8.041Zm-4.713,1.132h-4.608a1.875,1.875,0,0,1-.913-1.644c.113-.509,1.027-.825,2.384-.825h.009A5.778,5.778,0,0,1,205.5,7.96,2.85,2.85,0,0,0,204.836,9.173ZM209,21.86l-.974-.622a.86.86,0,0,0-.465-.136.875.875,0,0,0-.471.138l-.938.608V10.906h2.849Zm-13.386-6.95h8.8v8.528a.867.867,0,0,0,1.337.727l1.807-1.171,1.84,1.177a.881.881,0,0,0,.878.028.863.863,0,0,0,.45-.761V14.91h8.805V27.6H195.612Zm11.1-5.737a.982.982,0,0,1,.995-.343.967.967,0,0,1,.541.343Z" data-name="Path 12341" transform="translate(-192.332 -4.964)"/></svg>