<svg xmlns="http://www.w3.org/2000/svg" width="17.855" height="18" viewBox="0 0 17.855 18"><g id="Group_4608" data-name="Group 4608" transform="translate(-494.883 -470.368)"><path id="Path_12288" fill="#ff276a" d="M511.9,576.775a.835.835,0,0,1-.83-.962V572.46a2.446,2.446,0,0,0-2.424-2.467h-9.659a2.45,2.45,0,0,0-2.422,2.468v3.373h0l0,.066s0,.029,0,.036a.84.84,0,0,1-1.681,0,.83.83,0,0,1,.009-.115v-3.36a4.13,4.13,0,0,1,4.092-4.138h9.661a4.129,4.129,0,0,1,4.092,4.137v3.373h0v.082c0,.007,0,.013,0,.02A.841.841,0,0,1,511.9,576.775Z" data-name="Path 12288" transform="translate(0 -88.407)"/><path id="Path_12289" fill="#ff276a" d="M548.62,478.552a4.092,4.092,0,1,1,4.092-4.092A4.1,4.1,0,0,1,548.62,478.552Zm0-6.514a2.422,2.422,0,1,0,2.423,2.422,2.425,2.425,0,0,0-2.423-2.422Z" data-name="Path 12289" transform="translate(-44.806 0)"/></g></svg>