<svg xmlns="http://www.w3.org/2000/svg" id="noun_transactions_1157134" width="21.328" height="24.008" viewBox="0 0 21.328 24.008"><path id="Path_1485" fill="#ff276a" d="M27.054,6.722a1.2,1.2,0,0,0-1.2-1.2H10.193l2.619-2.668a1.226,1.226,0,0,0,0-1.713A1.162,1.162,0,0,0,11.955.8a1.267,1.267,0,0,0-.857.343L6.424,5.866a1.2,1.2,0,0,0,0,1.689l4.7,4.748a1.246,1.246,0,0,0,.857.367,1.267,1.267,0,0,0,.857-.343,1.246,1.246,0,0,0,.367-.857,1.223,1.223,0,0,0-.343-.857L10.144,7.922H25.831A1.207,1.207,0,0,0,27.054,6.722Z" data-name="Path 1485" transform="translate(-6.075 -0.8)"/><path id="Path_1486" fill="#ff276a" d="M22.575,62.326a1.148,1.148,0,0,0,.857-.367l4.7-4.748a1.2,1.2,0,0,0,0-1.689l-4.7-4.7a1.211,1.211,0,0,0-1.713,1.713l2.643,2.643H8.7a1.2,1.2,0,0,0,0,2.4H24.386L21.719,60.27a1.223,1.223,0,0,0-.343.857,1.187,1.187,0,0,0,.367.857A1.165,1.165,0,0,0,22.575,62.326Z" data-name="Path 1486" transform="translate(-7.151 -38.318)"/></svg>