<svg xmlns="http://www.w3.org/2000/svg" width="58.884" height="58.695" viewBox="0 0 58.884 58.695"><defs><style>.a{fill:#006fd5;}</style></defs><path class="a" d="M1867.281,218.049a5.985,5.985,0,0,1-.433.987,1.984,1.984,0,0,1-1.677.856c-1.277.034-2.556.01-3.85.01v-1.56h.264c1.108,0,2.216,0,3.325,0a.557.557,0,0,0,.6-.54.572.572,0,0,0-.548-.577,2.509,2.509,0,0,0-.269-.008c-.538,0-1.077.019-1.613,0a1.856,1.856,0,0,1-1.814-1.13,2.1,2.1,0,0,1,1.7-3.037,39.069,39.069,0,0,1,4.168-.029c-.213.478-.417.954-.643,1.419-.031.063-.169.1-.258.105-.913.008-1.826,0-2.738.006-.456,0-.717.3-.623.692a.527.527,0,0,0,.554.419c.513.006,1.027-.016,1.54.008a4.505,4.505,0,0,1,1.057.145,1.644,1.644,0,0,1,1.208,1.392,1.592,1.592,0,0,0,.045.162Z" transform="translate(-1808.397 -180.154)"/><path class="a" d="M830.73-437.725v2.756l-.048.011-.56-1.31c-.182-.426-.367-.85-.544-1.278a.247.247,0,0,0-.267-.183c-2.234.006-4.468-.006-6.7.009a4.371,4.371,0,0,0-2.746.93c-.042.033-.088.062-.17.119v-1.054h-.287q-10.335,0-20.67-.006a.317.317,0,0,0-.369.269c-.173.55-.377,1.09-.57,1.633-.018.052-.043.1-.079.185-.23-.659-.45-1.284-.667-1.911-.037-.106-.076-.175-.216-.174-1.508.007-3.017,0-4.525.006a.381.381,0,0,0-.07.018v2.724l-.055.017c-.04-.087-.083-.174-.12-.262-.329-.77-.662-1.538-.982-2.311a.275.275,0,0,0-.309-.192q-1.675.011-3.351,0a.273.273,0,0,0-.3.2c-.669,1.579-1.348,3.154-2.025,4.729-.024.056-.055.11-.1.208v-24.73h58.694v31.688h-.331q-17.4,0-34.808-.005a.5.5,0,0,0-.462.233c-.281.387-.58.761-.888,1.161-.33-.429-.642-.844-.968-1.249a.379.379,0,0,0-.255-.135q-4.733-.009-9.466,0a.5.5,0,0,0-.067.012v9.186h.251q4.574,0,9.148,0a.438.438,0,0,0,.4-.2c.29-.4.6-.792.906-1.2.33.431.642.847.967,1.253a.379.379,0,0,0,.255.134c1.843.008,3.685.006,5.528.005.039,0,.078-.005.139-.01v-2.1a6.886,6.886,0,0,0,3-.365v2.466h3.843v-1.422a1.981,1.981,0,0,1,.16.151c.3.372.611.743.906,1.122a.391.391,0,0,0,.349.165q2.789-.008,5.577,0c4.362,0,8.725-.008,13.087.006a4.352,4.352,0,0,0,2.723-.671v18.473H784.993v-29.892h.257c.734,0,1.468-.009,2.2.006a.319.319,0,0,0,.364-.257c.116-.337.265-.663.392-1a.224.224,0,0,1,.248-.174c.416.01.832.011,1.247,0a.225.225,0,0,1,.246.178c.127.325.275.643.388.973a.352.352,0,0,0,.4.279q6.458-.013,12.915-.007h8.883v-1.364l.062-.027.593.715a1.32,1.32,0,0,1,.151.191.993.993,0,0,0,1.025.5c1.671-.031,3.343-.012,5.014-.012h.3v-.956a.683.683,0,0,1,.136.056,4.289,4.289,0,0,0,2.7.9c1.166.007,2.332,0,3.5.006a.254.254,0,0,0,.28-.2c.129-.35.277-.694.407-1.043a.239.239,0,0,1,.266-.184q.6.017,1.2,0a.257.257,0,0,1,.289.19c.14.364.286.726.445,1.081a.28.28,0,0,0,.2.145c1.851.007,3.7.006,5.553,0a.711.711,0,0,0,.1-.02v-1.539l.057-.016c.283.441.577.874.843,1.325a.461.461,0,0,0,.464.256c1.125-.012,2.25-.005,3.376-.005h.283v-9.191h-3.965v1.56l-.042.021c-.064-.093-.13-.184-.191-.279-.252-.389-.5-.782-.758-1.168a.31.31,0,0,0-.195-.143C833.341-437.727,832.054-437.725,830.73-437.725Z" transform="translate(-784.992 457.321)"/><path class="a" d="M961.122-29.634l.547-1.56c.3-.867.612-1.731.9-2.6a.3.3,0,0,1,.344-.239c.83.013,1.66.005,2.5.005v6.923h-1.738v-4.931l-.047-.009q-.325.911-.649,1.823c-.345.972-.693,1.943-1.031,2.917a.269.269,0,0,1-.311.22c-.366-.016-.734-.015-1.1,0a.253.253,0,0,1-.293-.207q-.8-2.276-1.613-4.547a.5.5,0,0,0-.135-.223v4.96h-1.711V-34.03h.225c.775,0,1.549.006,2.324,0a.273.273,0,0,1,.311.221c.456,1.32.921,2.638,1.384,3.956C961.056-29.8,961.079-29.745,961.122-29.634Z" transform="translate(-948.38 54.76)"/><path class="a" d="M1744.716-31.838v4.331h-1.748v-6.928c.411,0,.816,0,1.221,0a2.315,2.315,0,0,1,.982.051c.252.135.375.513.551.786q1.012,1.568,2.023,3.138a.753.753,0,0,0,.2.228v-4.192h1.722v6.915c-.063,0-.133.011-.2.011-.546,0-1.093-.011-1.638.006a.425.425,0,0,1-.423-.24c-.839-1.327-1.689-2.646-2.536-3.968-.034-.053-.069-.1-.1-.156Z" transform="translate(-1696.065 55.164)"/><path class="a" d="M1294.4-29.477v2.439h-1.749v-6.908c.077-.006.147-.015.217-.015,1.2,0,2.4-.007,3.594,0a2.485,2.485,0,0,1,1.7.557,2.169,2.169,0,0,1,.667,2.2,2.061,2.061,0,0,1-1.472,1.582c-.076.026-.153.046-.264.079l2.235,2.518h-.7c-.432,0-.864.009-1.3-.006a.465.465,0,0,1-.3-.135c-.576-.665-1.149-1.333-1.7-2.016a.65.65,0,0,0-.657-.3A1.881,1.881,0,0,1,1294.4-29.477Zm0-1.516c.689,0,1.354.013,2.019-.005a.665.665,0,0,0,.658-.487c.139-.5-.2-.9-.781-.911s-1.171,0-1.757,0a.809.809,0,0,0-.14.025Z" transform="translate(-1267.793 54.692)"/><path class="a" d="M1463.295,213.285c1.386,0,2.748-.033,4.107.01a2.089,2.089,0,0,1,2.1,1.808,2.182,2.182,0,0,1-1.6,2.53l-.167.047,2.231,2.514c-.733,0-1.415.005-2.1-.007-.077,0-.166-.088-.225-.156-.556-.65-1.118-1.3-1.653-1.963a.671.671,0,0,0-.693-.322,1.462,1.462,0,0,1-.243,0v2.43h-1.763Zm1.758,2.945c.683,0,1.342.013,2,0a.683.683,0,0,0,.681-.862.739.739,0,0,0-.781-.531c-.537,0-1.074,0-1.611,0h-.288Z" transform="translate(-1430.085 -180.441)"/><path class="a" d="M1157.3-33.667h5.613v1.541h-3.84V-31h3.744v1.525h-3.75v1.16h3.845v1.56H1157.3Z" transform="translate(-1139.068 54.409)"/><path class="a" d="M1042.619,213.534h5.607v1.539h-3.841v1.113h3.741v1.522h-3.744v1.16h3.843v1.56h-5.606Z" transform="translate(-1030.006 -180.689)"/><path class="a" d="M1610.742,216.368v1.508h-3.754v1.178h3.855V220.6h-5.623V213.72h5.619v1.532h-3.854v1.116Z" transform="translate(-1565.062 -180.866)"/><path class="a" d="M1579.606-27.084c-.639,0-1.242.006-1.845-.008a.31.31,0,0,1-.213-.169c-.176-.4-.334-.811-.508-1.242h-.624c-.758,0-1.516.007-2.274-.005a.289.289,0,0,0-.329.231c-.124.352-.27.7-.42,1.039a.263.263,0,0,1-.176.147c-.594.011-1.189.007-1.822.007.137-.328.261-.633.391-.936q1.241-2.9,2.481-5.8a.278.278,0,0,1,.3-.207c.627.013,1.255.009,1.883,0a.245.245,0,0,1,.27.176q1.417,3.327,2.843,6.65C1579.577-27.173,1579.585-27.144,1579.606-27.084Zm-4.133-5.277-.939,2.331h1.881Z" transform="translate(-1532.893 54.753)"/><path class="a" d="M784.988-27.088c.251-.59.484-1.142.719-1.693.715-1.673,1.434-3.343,2.143-5.019a.322.322,0,0,1,.359-.233c.619.014,1.238.007,1.858,0a.214.214,0,0,1,.24.145q1.429,3.352,2.867,6.7a.462.462,0,0,1,.013.1c-.632,0-1.256,0-1.879-.007-.053,0-.127-.085-.154-.146-.154-.358-.3-.718-.441-1.082a.234.234,0,0,0-.259-.187q-1.381.012-2.762,0a.238.238,0,0,0-.264.183c-.137.364-.28.727-.436,1.084a.282.282,0,0,1-.2.15C786.208-27.083,785.621-27.088,784.988-27.088Zm4.082-5.276-.938,2.329h1.88Z" transform="translate(-784.988 54.757)"/><path class="a" d="M1737.931,213.164c-.221.494-.431.977-.658,1.451-.024.051-.151.073-.23.073-.913,0-1.826,0-2.739,0-.418,0-.674.234-.656.585a.552.552,0,0,0,.589.527c.684.013,1.37,0,2.052.04a1.8,1.8,0,0,1,1.774,1.91,2.144,2.144,0,0,1-2.288,2.3c-1.149.015-2.3,0-3.448,0-.072,0-.143-.006-.224-.01v-1.554h.26c1.109,0,2.218,0,3.326,0a.552.552,0,0,0,.6-.674.574.574,0,0,0-.618-.447c-.6-.008-1.207,0-1.81-.005a1.885,1.885,0,0,1-1.931-1.563,2.122,2.122,0,0,1,2.138-2.653c1.246-.04,2.494-.009,3.742-.008A.717.717,0,0,1,1737.931,213.164Z" transform="translate(-1685.527 -180.299)"/><path class="a" d="M1321.045,220.216h-1.765V213.35c.018-.013.03-.03.042-.03,1.393,0,2.787-.033,4.178.015a2.1,2.1,0,0,1,2.053,2.03,2.281,2.281,0,0,1-2.4,2.613c-.7.005-1.4,0-2.11,0Zm0-3.8h1.924a1.416,1.416,0,0,0,.147,0,.772.772,0,0,0,.081-1.516.59.59,0,0,0-.12-.023c-.674,0-1.349,0-2.032,0Z" transform="translate(-1293.121 -180.474)"/><path class="a" d="M1160.051,213.328c.756,0,1.44,0,2.124.006a.334.334,0,0,1,.2.138c.475.61.944,1.226,1.416,1.839.024.031.052.06.1.115.335-.434.66-.856.984-1.278.174-.226.339-.459.521-.678a.368.368,0,0,1,.233-.137c.66-.011,1.319-.006,2.04-.006l-1.379,1.716-1.375,1.71,2.78,3.49c-.749,0-1.454,0-2.158-.006-.06,0-.131-.083-.177-.142-.5-.651-1-1.3-1.519-1.981-.335.439-.661.863-.985,1.289-.178.233-.349.471-.533.7a.34.34,0,0,1-.207.136c-.673.01-1.347.006-2.066.006l2.761-3.452Z" transform="translate(-1141.688 -180.491)"/><path class="a" d="M1491.444-29.06c-.235.506-.456.991-.688,1.471a.221.221,0,0,1-.169.091,2.946,2.946,0,0,1-3.156-2.553,4.745,4.745,0,0,1,.02-1.893,2.87,2.87,0,0,1,2.569-2.416c.873-.114,1.767-.071,2.669-.1v1.639c-.091,0-.184,0-.278,0-.619.008-1.242-.026-1.855.037a1.476,1.476,0,0,0-1.393,1.315,2.606,2.606,0,0,0,.059,1.279,1.55,1.55,0,0,0,1.536,1.128C1490.976-29.054,1491.194-29.06,1491.444-29.06Z" transform="translate(-1452.958 55.163)"/><path class="a" d="M1436.28-26.627h-1.734v-6.91h1.734Z" transform="translate(-1402.744 54.286)"/></svg>