<svg xmlns="http://www.w3.org/2000/svg" id="Group_3536" width="16.894" height="16.832" data-name="Group 3536" viewBox="0 0 16.894 16.832"><path id="Path_12063" fill="#016fd5" d="M1606.841,382.387a1.736,1.736,0,0,1-.124.283.57.57,0,0,1-.481.246c-.366.01-.733,0-1.1,0v-.447h1.029a.16.16,0,0,0,.173-.155.164.164,0,0,0-.157-.165.718.718,0,0,0-.077,0c-.154,0-.309.005-.463,0a.533.533,0,0,1-.521-.324.6.6,0,0,1,.489-.871,11.183,11.183,0,0,1,1.2-.008c-.061.137-.119.273-.184.407-.009.018-.048.03-.074.03-.262,0-.524,0-.785,0-.131,0-.206.085-.179.2a.151.151,0,0,0,.159.12c.147,0,.295,0,.441,0a1.3,1.3,0,0,1,.3.042.471.471,0,0,1,.347.4.477.477,0,0,0,.013.046Z" data-name="Path 12063" transform="translate(-1589.948 -371.52)"/><path id="Path_12064" fill="#006fd5" d="M545.65-272.3H528.919l-.105,0c0-.028,0-.056,0-.084q0-4.192,0-8.384v-.1h.08c.215,0,.43,0,.646,0a.072.072,0,0,0,.081-.055c.038-.1.082-.2.12-.306a.064.064,0,0,1,.073-.048c.119,0,.239,0,.358,0a.09.09,0,0,1,.064.044c.047.1.086.211.134.315.009.021.041.032.064.045s.023,0,.035,0h6.252v-.392l.017-.007a1.823,1.823,0,0,1,.169.208.4.4,0,0,0,.4.2c.458-.015.917-.005,1.375-.005h.085v-.274a.152.152,0,0,1,.033.013,1.236,1.236,0,0,0,.789.261c.33,0,.659,0,.989,0a.077.077,0,0,0,.086-.059c.036-.1.079-.194.115-.293a.071.071,0,0,1,.08-.058c.115,0,.229,0,.344,0a.074.074,0,0,1,.082.056c.041.1.082.208.128.31a.074.074,0,0,0,.052.04c.535,0,1.071,0,1.607,0,0,0,.008,0,.019-.008v-.437l.015-.007c.012.017.025.034.036.052.077.12.153.24.232.359a.094.094,0,0,0,.063.041c.36,0,.72,0,1.08,0a.067.067,0,0,0,.017-.006v-2.629h-1.137v.449l-.014.005c-.023-.035-.047-.07-.07-.105-.053-.082-.112-.162-.158-.248a.182.182,0,0,0-.192-.107c-.313.007-.627,0-.94,0h-.082v.789l-.016,0-.078-.178c-.081-.188-.162-.377-.241-.566a.071.071,0,0,0-.078-.051c-.638,0-1.277,0-1.915,0a1.285,1.285,0,0,0-.84.3v-.3h-.086q-2.964,0-5.929,0a.088.088,0,0,0-.1.072c-.05.16-.109.317-.165.475-.005.015-.013.029-.023.049-.065-.185-.128-.363-.19-.541-.011-.033-.021-.055-.065-.055-.428,0-.856,0-1.284,0a.281.281,0,0,0-.033,0v.784l-.015,0-.117-.271c-.068-.159-.137-.317-.2-.476a.066.066,0,0,0-.073-.047q-.491,0-.982,0a.07.07,0,0,0-.076.053q-.293.688-.589,1.376c0,.011-.01.021-.022.043v-7.089h16.834v9.086H535.57a.137.137,0,0,0-.128.062c-.08.112-.167.219-.257.337l-.142-.181a.907.907,0,0,1-.084-.112.207.207,0,0,0-.211-.107c-.854,0-1.707,0-2.561,0H532.1v2.635c.022,0,.045,0,.067,0q1.316,0,2.631,0a.126.126,0,0,0,.115-.059c.083-.115.171-.226.259-.342.1.124.185.244.278.361a.109.109,0,0,0,.074.037c.531,0,1.062,0,1.593,0l.03,0v-.6a1.99,1.99,0,0,0,.859-.1v.707h1.1v-.395l.014-.007c.026.03.053.061.078.092.07.085.141.169.207.256a.129.129,0,0,0,.117.057q1.4,0,2.806,0,1.34,0,2.68,0a1.083,1.083,0,0,0,.6-.168l.039-.022v.084q0,2.568,0,5.136C545.655-272.354,545.652-272.329,545.65-272.3Z" data-name="Path 12064" transform="translate(-528.812 289.135)"/><path id="Path_12065" fill="#016fd5" d="M702.761,134.512l-.2.557c-.1.268-.191.535-.284.8a.077.077,0,0,1-.09.061c-.1,0-.206,0-.309,0-.055,0-.075-.019-.092-.068-.157-.446-.316-.891-.475-1.337,0-.008-.007-.016-.02-.043v1.441h-.5v-1.985h.067c.22,0,.44,0,.659,0,.059,0,.08.021.1.072.135.392.274.783.416,1.188.014-.034.024-.055.032-.078.13-.372.26-.743.388-1.115a.081.081,0,0,1,.093-.067c.217,0,.435,0,.653,0h.072v1.986h-.5v-1.413Z" data-name="Path 12065" transform="translate(-698.383 -127.999)"/><path id="Path_12066" fill="#016fd5" d="M1488.993,134.072v1.985c-.162,0-.323-.007-.483,0a.189.189,0,0,1-.193-.106c-.24-.384-.486-.764-.738-1.16v1.259h-.507v-1.985c.205,0,.408,0,.611,0,.02,0,.043.03.058.052q.348.538.694,1.076c.017.026.035.052.063.1v-1.222Z" data-name="Path 12066" transform="translate(-1473.614 -128.124)"/><path id="Path_12067" fill="#0270d5" d="M1038.58,135.948c-.209,0-.4,0-.588,0a.114.114,0,0,1-.073-.04c-.164-.191-.329-.383-.488-.578a.178.178,0,0,0-.182-.084.5.5,0,0,1-.083,0v.7h-.5v-1.982c.024,0,.044,0,.064,0,.341,0,.683-.005,1.024,0a1,1,0,0,1,.333.063.589.589,0,0,1,.369.61.615.615,0,0,1-.434.568l-.081.024Zm-1.413-1.139c.2,0,.391,0,.584,0a.185.185,0,0,0,.183-.137c.041-.142-.058-.26-.223-.263s-.336,0-.5,0a.279.279,0,0,0-.041.006Z" data-name="Path 12067" transform="translate(-1029.532 -128.014)"/><path id="Path_12068" fill="#016fd5" d="M1209.21,383.2c-.211,0-.407,0-.6,0-.022,0-.048-.025-.065-.045-.158-.185-.318-.368-.469-.558a.2.2,0,0,0-.211-.1.4.4,0,0,1-.063,0v.7h-.505v-1.971c.007,0,.01-.006.014-.006.388,0,.777-.009,1.164,0a.6.6,0,0,1,.6.519.626.626,0,0,1-.459.725l-.048.013Zm-1.409-1.138c.2,0,.391,0,.584,0a.186.186,0,0,0,.188-.188.191.191,0,0,0-.177-.2.811.811,0,0,0-.125-.006h-.47Z" data-name="Path 12068" transform="translate(-1197.767 -371.798)"/><path id="Path_12069" fill="#016fd5" d="M902.838,134.351v.443h-1.1v.321h1.073v.437h-1.075v.333h1.1v.448h-1.611v-1.982Z" data-name="Path 12069" transform="translate(-895.996 -128.404)"/><path id="Path_12070" fill="#006fd5" d="M788.229,381.989h-1.1v.317H788.2v.432h-1.073v.338h1.1v.447H786.62v-1.977h1.609Z" data-name="Path 12070" transform="translate(-782.999 -372.125)"/><path id="Path_12071" fill="#006fd5" d="M1350.807,382.441v.432h-1.077v.338h1.105v.445h-1.613v-1.974h1.612v.439h-1.106v.32Z" data-name="Path 12071" transform="translate(-1337.701 -372.261)"/><path id="Path_12072" fill="#016fd5" d="M1317.744,135.957c-.18,0-.353,0-.526,0a.089.089,0,0,1-.061-.049c-.051-.115-.1-.233-.146-.356h-.207c-.206,0-.411,0-.617,0-.053,0-.083.009-.1.066-.033.1-.077.2-.12.3a.076.076,0,0,1-.051.042c-.17,0-.341,0-.522,0,.039-.094.075-.182.112-.269q.356-.832.712-1.664a.08.08,0,0,1,.087-.059c.18,0,.36,0,.54,0a.066.066,0,0,1,.075.044q.409.961.822,1.92A.136.136,0,0,1,1317.744,135.957Zm-1.182-1.513-.269.668h.539Z" data-name="Path 12072" transform="translate(-1304.346 -128.023)"/><path id="Path_12073" fill="#016fd5" d="M531.619,135.969c-.181,0-.36,0-.539,0-.015,0-.036-.024-.044-.042-.044-.1-.087-.206-.126-.311a.067.067,0,0,0-.075-.053q-.4,0-.792,0a.068.068,0,0,0-.075.053c-.039.1-.08.208-.125.311a.08.08,0,0,1-.057.043c-.168,0-.336,0-.515,0,.01-.027.016-.048.025-.068q.4-.935.8-1.87a.071.071,0,0,1,.076-.054c.185,0,.369,0,.554,0a.061.061,0,0,1,.068.042q.41.961.823,1.922A.115.115,0,0,1,531.619,135.969Zm-.91-.844-.271-.668-.269.668Z" data-name="Path 12073" transform="translate(-529.264 -128.035)"/><path id="Path_12074" fill="#016fd5" d="M1477.473,381.1c-.062.14-.121.276-.186.41-.008.016-.046.026-.07.026-.255,0-.51,0-.764,0a.446.446,0,0,0-.063,0,.159.159,0,0,0,.018.317c.138,0,.276,0,.414,0a1.533,1.533,0,0,1,.332.042.488.488,0,0,1,.356.468.68.68,0,0,1-.125.47.613.613,0,0,1-.489.234c-.362.008-.724,0-1.092,0v-.448h1.028a.155.155,0,0,0,.173-.153.161.161,0,0,0-.181-.169c-.171,0-.342,0-.512,0a.548.548,0,0,1-.557-.429.611.611,0,0,1,.605-.78c.362-.013.725,0,1.087,0A.152.152,0,0,1,1477.473,381.1Z" data-name="Path 12074" transform="translate(-1462.439 -371.677)"/><path id="Path_12075" fill="#006fd5" d="M1063.415,381.108c.4,0,.792-.01,1.184,0a.615.615,0,0,1,.619.658.629.629,0,0,1-.571.665,2.083,2.083,0,0,1-.259.012c-.154,0-.308,0-.469,0v.641h-.505Zm.505.888c.2,0,.4,0,.593,0a.2.2,0,0,0,.193-.2c.007-.132-.054-.23-.175-.237-.2-.011-.405,0-.611,0Z" data-name="Path 12075" transform="translate(-1055.907 -371.691)"/><path id="Path_12076" fill="#016fd5" d="M905.581,382.171l.4.5.4.5c-.023,0-.04.005-.057.005-.173,0-.346,0-.519,0a.1.1,0,0,1-.093-.045c-.127-.17-.258-.338-.387-.507l-.047-.059c-.141.186-.281.366-.417.55a.131.131,0,0,1-.121.061c-.178,0-.355,0-.547,0l.792-.99-.788-.987c.029,0,.048-.007.067-.007.171,0,.341,0,.512,0a.126.126,0,0,1,.085.042c.136.172.269.347.4.521.008.011.018.021.031.036l.276-.357c.044-.057.093-.112.131-.173a.145.145,0,0,1,.144-.073c.172,0,.345,0,.533,0Z" data-name="Path 12076" transform="translate(-898.914 -371.772)"/><path id="Path_12077" fill="#0270d5" d="M1233.148,133.841v.464c-.069,0-.136,0-.2,0-.14,0-.281,0-.42.012a.428.428,0,0,0-.393.384.731.731,0,0,0,.031.393.44.44,0,0,0,.423.288c.063,0,.126,0,.2,0-.031.069-.059.133-.088.2s-.058.112-.078.171a.109.109,0,0,1-.129.082.871.871,0,0,1-.874-.931,1.223,1.223,0,0,1,.1-.566.811.811,0,0,1,.548-.453A4.177,4.177,0,0,1,1233.148,133.841Z" data-name="Path 12077" transform="translate(-1221.747 -127.899)"/><path id="Path_12078" fill="#0270d6" d="M1179.056,136.436h-.5v-1.982h.5Z" data-name="Path 12078" transform="translate(-1169.433 -128.505)"/></svg>