<svg xmlns="http://www.w3.org/2000/svg" width="171" height="49" viewBox="0 0 171 49"><defs><style>.a{fill:#fff;}</style></defs><g transform="translate(0 0)"><path d="M10.431,49.156c-.385,0-.76,0-1.141-.014a16.015,16.015,0,0,1-2.359-.206,7.427,7.427,0,0,1-2.091-.692,6.823,6.823,0,0,1-1.763-1.283A6.716,6.716,0,0,1,1.787,45.2,7.222,7.222,0,0,1,1.1,43.107a15.669,15.669,0,0,1-.21-2.367c-.008-.266-.018-1.153-.018-1.153V10.429S.884,9.557.892,9.3A15.614,15.614,0,0,1,1.1,6.937a7.265,7.265,0,0,1,.686-2.1A6.783,6.783,0,0,1,3.068,3.075a7.025,7.025,0,0,1,1.77-1.291A7.35,7.35,0,0,1,6.925,1.1,15.887,15.887,0,0,1,9.292.89L10.431.875H140.15L141.3.891a15.633,15.633,0,0,1,2.346.205,7.5,7.5,0,0,1,2.109.692,7.061,7.061,0,0,1,3.048,3.055,7.274,7.274,0,0,1,.676,2.081,16.406,16.406,0,0,1,.219,2.382c0,.357,0,.741,0,1.124.01.473.01.924.01,1.378V38.225c0,.459,0,.906-.01,1.357,0,.41,0,.787,0,1.174a16.071,16.071,0,0,1-.216,2.34A7.244,7.244,0,0,1,148.8,45.2a6.917,6.917,0,0,1-1.282,1.749,6.832,6.832,0,0,1-1.766,1.291,7.4,7.4,0,0,1-2.105.694,15.831,15.831,0,0,1-2.359.206c-.37.009-.757.014-1.133.014l-1.368,0Z" transform="translate(-0.873 -0.875)"/><g transform="translate(11.485 9.903)"><path class="a" d="M28.649,21.96a6.247,6.247,0,0,1,2.975-5.241A6.394,6.394,0,0,0,26.586,14c-2.12-.222-4.174,1.268-5.255,1.268-1.1,0-2.764-1.246-4.555-1.209A6.709,6.709,0,0,0,11.131,17.5c-2.441,4.227-.62,10.438,1.718,13.855,1.17,1.673,2.537,3.542,4.327,3.475,1.751-.073,2.4-1.116,4.518-1.116,2.094,0,2.707,1.116,4.533,1.074,1.879-.03,3.062-1.68,4.191-3.369a13.836,13.836,0,0,0,1.917-3.9A6.036,6.036,0,0,1,28.649,21.96Z" transform="translate(-9.972 -7.343)"/><path class="a" d="M22.889,13.126A6.15,6.15,0,0,0,24.3,8.72a6.258,6.258,0,0,0-4.049,2.095A5.852,5.852,0,0,0,18.8,15.058,5.174,5.174,0,0,0,22.889,13.126Z" transform="translate(-7.659 -8.72)"/><g transform="translate(30.869 11.551)"><path class="a" d="M44.367,29.516H38.393l-1.435,4.237H34.427l5.659-15.675h2.629l5.659,15.675H45.8Zm-5.356-1.955h4.736l-2.335-6.876h-.065Z" transform="translate(-34.427 -17.817)"/><path class="a" d="M57.4,27.182c0,3.551-1.9,5.833-4.769,5.833a3.874,3.874,0,0,1-3.6-2h-.054v5.66H46.631V21.468H48.9v1.9h.043a4.054,4.054,0,0,1,3.639-2.02C55.484,21.348,57.4,23.641,57.4,27.182Zm-2.411,0c0-2.314-1.2-3.835-3.02-3.835-1.792,0-3,1.553-3,3.835,0,2.3,1.206,3.845,3,3.845C53.789,31.027,54.985,29.517,54.985,27.182Z" transform="translate(-31.227 -16.96)"/><path class="a" d="M67.361,27.182c0,3.551-1.9,5.833-4.769,5.833a3.874,3.874,0,0,1-3.6-2h-.054v5.66H56.6V21.468h2.271v1.9h.043a4.054,4.054,0,0,1,3.639-2.02C65.449,21.348,67.361,23.641,67.361,27.182Zm-2.411,0c0-2.314-1.2-3.835-3.02-3.835-1.792,0-3,1.553-3,3.835,0,2.3,1.206,3.845,3,3.845,1.824,0,3.02-1.51,3.02-3.845Z" transform="translate(-28.614 -16.96)"/><path class="a" d="M72.209,29.44c.174,1.554,1.684,2.575,3.747,2.575,1.977,0,3.4-1.021,3.4-2.422,0-1.217-.858-1.945-2.889-2.444l-2.031-.489c-2.878-.7-4.214-2.041-4.214-4.226,0-2.7,2.357-4.562,5.7-4.562,3.312,0,5.583,1.858,5.659,4.562H79.216c-.142-1.564-1.435-2.508-3.324-2.508s-3.183.955-3.183,2.346c0,1.108.826,1.76,2.846,2.259l1.727.424c3.216.761,4.552,2.052,4.552,4.345,0,2.933-2.336,4.769-6.051,4.769-3.476,0-5.823-1.794-5.975-4.629Z" transform="translate(-25.149 -17.871)"/><path class="a" d="M84.181,19.3V22h2.173v1.858H84.181v6.3c0,.979.435,1.435,1.39,1.435a7.33,7.33,0,0,0,.772-.054v1.847a6.442,6.442,0,0,1-1.3.108c-2.314,0-3.216-.869-3.216-3.085v-6.55H80.163V22h1.662V19.3Z" transform="translate(-22.433 -17.496)"/><path class="a" d="M86.065,27.186c0-3.6,2.118-5.855,5.42-5.855s5.421,2.259,5.421,5.855-2.1,5.855-5.421,5.855S86.065,30.792,86.065,27.186Zm8.451,0c0-2.467-1.13-3.922-3.031-3.922s-3.03,1.467-3.03,3.922c0,2.476,1.129,3.921,3.03,3.921s3.031-1.445,3.031-3.921Z" transform="translate(-20.885 -16.964)"/><path class="a" d="M96.186,21.468h2.237v1.945h.054a2.726,2.726,0,0,1,2.749-2.065,3.618,3.618,0,0,1,.8.088V23.63a3.279,3.279,0,0,0-1.054-.142,2.364,2.364,0,0,0-2.444,2.629V32.9H96.186Z" transform="translate(-18.231 -16.96)"/><path class="a" d="M111.526,29.543c-.316,2.075-2.336,3.5-4.921,3.5-3.325,0-5.388-2.227-5.388-5.8s2.075-5.909,5.289-5.909c3.162,0,5.15,2.172,5.15,5.637v.8h-8.071v.142a2.976,2.976,0,0,0,3.074,3.237,2.586,2.586,0,0,0,2.639-1.607Zm-7.93-3.411h5.713a2.748,2.748,0,0,0-2.8-2.9,2.893,2.893,0,0,0-2.91,2.9Z" transform="translate(-16.912 -16.964)"/></g></g></g><g transform="translate(43.924 9.545)"><path class="a" d="M38.391,8.733a3.332,3.332,0,0,1,3.544,3.742c0,2.406-1.3,3.789-3.544,3.789h-2.72V8.733ZM36.841,15.2h1.42a2.368,2.368,0,0,0,2.484-2.709A2.374,2.374,0,0,0,38.261,9.8h-1.42Z" transform="translate(-35.671 -8.362)"/><path class="a" d="M41.683,13.057a2.693,2.693,0,1,1,5.361,0,2.693,2.693,0,1,1-5.361,0Zm4.207,0c0-1.232-.553-1.953-1.525-1.953s-1.524.72-1.524,1.953.549,1.957,1.524,1.957,1.525-.72,1.525-1.957Z" transform="translate(-34.098 -7.999)"/><path class="a" d="M52.886,15.879H51.722l-1.175-4.186h-.089l-1.17,4.186H48.136l-1.567-5.684h1.138l1.018,4.337h.084l1.169-4.337h1.076l1.169,4.337h.089l1.013-4.337h1.122Z" transform="translate(-32.813 -7.976)"/><path class="a" d="M53.854,10.219h1.08v.9h.084a1.7,1.7,0,0,1,1.7-1.013,1.849,1.849,0,0,1,1.967,2.114V15.9H57.559V12.5c0-.913-.4-1.368-1.227-1.368a1.3,1.3,0,0,0-1.357,1.44V15.9H53.854Z" transform="translate(-30.903 -8)"/><path class="a" d="M59.094,8.437h1.122v7.9H59.094Z" transform="translate(-29.528 -8.437)"/><path class="a" d="M61.22,13.057a2.693,2.693,0,1,1,5.361,0,2.693,2.693,0,1,1-5.361,0Zm4.207,0c0-1.232-.553-1.953-1.525-1.953s-1.524.72-1.524,1.953.549,1.957,1.524,1.957,1.525-.72,1.525-1.957Z" transform="translate(-28.974 -7.999)"/><path class="a" d="M66.4,14.294c0-1.023.762-1.613,2.114-1.7l1.54-.089v-.491c0-.6-.4-.939-1.164-.939-.626,0-1.06.23-1.185.632H66.62c.115-.976,1.033-1.6,2.322-1.6,1.425,0,2.229.709,2.229,1.91V15.9h-1.08v-.8H70A1.912,1.912,0,0,1,68.3,16a1.717,1.717,0,0,1-1.895-1.7Zm3.654-.486v-.475l-1.388.089c-.783.052-1.138.319-1.138.82s.444.809,1.054.809a1.34,1.34,0,0,0,1.472-1.243Z" transform="translate(-27.612 -7.999)"/><path class="a" d="M71.348,13.5c0-1.8.923-2.934,2.359-2.934a1.873,1.873,0,0,1,1.743,1h.084V8.437h1.122v7.9H75.581v-.9h-.089a1.973,1.973,0,0,1-1.785.992C72.262,16.433,71.348,15.3,71.348,13.5Zm1.159,0c0,1.206.568,1.931,1.519,1.931s1.53-.736,1.53-1.926-.59-1.931-1.53-1.931-1.519.73-1.519,1.926Z" transform="translate(-26.315 -8.437)"/><path class="a" d="M79.233,13.057a2.693,2.693,0,1,1,5.361,0,2.693,2.693,0,1,1-5.361,0Zm4.207,0c0-1.232-.553-1.953-1.525-1.953s-1.524.72-1.524,1.953.549,1.957,1.524,1.957S83.44,14.294,83.44,13.057Z" transform="translate(-24.25 -7.999)"/><path class="a" d="M84.669,10.219h1.08v.9h.084a1.7,1.7,0,0,1,1.7-1.013A1.849,1.849,0,0,1,89.5,12.223V15.9H88.375V12.5c0-.913-.4-1.368-1.226-1.368a1.3,1.3,0,0,0-1.357,1.44V15.9H84.669Z" transform="translate(-22.821 -8)"/><path class="a" d="M93.936,9.074v1.441h1.231v.945H93.936v2.923c0,.6.245.856.8.856a3.744,3.744,0,0,0,.428-.026v.934a3.68,3.68,0,0,1-.61.057c-1.247,0-1.744-.439-1.744-1.535V11.46h-.9v-.945h.9V9.074Z" transform="translate(-20.922 -8.27)"/><path class="a" d="M95.7,8.437h1.112v3.132h.089a1.749,1.749,0,0,1,1.733-1.018A1.872,1.872,0,0,1,100.6,12.67v3.67H99.473V12.947c0-.908-.423-1.368-1.215-1.368a1.328,1.328,0,0,0-1.431,1.441v3.32H95.7Z" transform="translate(-19.927 -8.437)"/><path class="a" d="M105.823,14.367a2.307,2.307,0,0,1-2.463,1.644,2.582,2.582,0,0,1-2.626-2.934,2.621,2.621,0,0,1,2.621-2.969c1.581,0,2.536,1.08,2.536,2.865v.391h-4.014v.063a1.5,1.5,0,0,0,1.514,1.628,1.362,1.362,0,0,0,1.352-.689Zm-3.946-1.832h2.871a1.371,1.371,0,0,0-1.4-1.472,1.454,1.454,0,0,0-1.472,1.472Z" transform="translate(-18.614 -7.999)"/></g></svg>