<svg xmlns="http://www.w3.org/2000/svg" width="194.179" height="194.127" viewBox="0 0 194.179 194.127"><g id="Group_4759" data-name="Group 4759" transform="translate(-83.148 -267.591)"><g id="Group_2535" data-name="Group 2535" transform="translate(-285.146 -3651.576)"><g id="Group_2514" data-name="Group 2514" transform="translate(408.74 3986.278)"><g id="Group_2512" data-name="Group 2512" transform="translate(0 6.694)"><path id="Path_11489" fill="#fff" d="M531.586,4346.276H528.8a1.3,1.3,0,0,1,0-2.608h2.782a1.3,1.3,0,0,1,0,2.608Z" data-name="Path 11489" transform="translate(-527.5 -4343.667)"/><path id="Path_11490" fill="#fff" d="M591.933,4346.276H588.8a1.3,1.3,0,0,1,0-2.608h3.13a1.3,1.3,0,0,1,0,2.608Z" data-name="Path 11490" transform="translate(-577.068 -4343.667)"/></g><g id="Group_2513" data-name="Group 2513" transform="translate(6.694 0)"><path id="Path_11491" fill="#fff" d="M567.3,4372.557a1.3,1.3,0,0,1-1.3-1.3v-2.782a1.3,1.3,0,1,1,2.608,0v2.782A1.3,1.3,0,0,1,567.3,4372.557Z" data-name="Path 11491" transform="translate(-566 -4356.388)"/><path id="Path_11492" fill="#fff" d="M567.3,4310.9a1.3,1.3,0,0,1-1.3-1.3v-3.129a1.3,1.3,0,1,1,2.608,0v3.129A1.3,1.3,0,0,1,567.3,4310.9Z" data-name="Path 11492" transform="translate(-566 -4305.167)"/></g></g><g id="Group_2515" data-name="Group 2515" opacity=".3" transform="translate(495.497 4072.08)"><path id="Path_11493" fill="#2033a0" d="M1030.586,4801.275H1027.8a1.3,1.3,0,0,1,0-2.608h2.782a1.3,1.3,0,0,1,0,2.608Z" data-name="Path 11493" transform="translate(-1026.5 -4798.667)"/><path id="Path_11494" fill="#2033a0" d="M1090.933,4801.275h-3.13a1.3,1.3,0,0,1,0-2.608h3.13a1.3,1.3,0,0,1,0,2.608Z" data-name="Path 11494" transform="translate(-1076.068 -4798.667)"/></g><g id="Group_2516" data-name="Group 2516" opacity=".3" transform="translate(502.191 4065.386)"><path id="Path_11495" fill="#2033a0" d="M1066.3,4827.557a1.3,1.3,0,0,1-1.3-1.3v-2.782a1.3,1.3,0,0,1,2.608,0v2.782A1.3,1.3,0,0,1,1066.3,4827.557Z" data-name="Path 11495" transform="translate(-1065 -4811.387)"/><path id="Path_11496" fill="#2033a0" d="M1066.3,4765.9a1.3,1.3,0,0,1-1.3-1.3v-3.129a1.3,1.3,0,0,1,2.608,0v3.129A1.3,1.3,0,0,1,1066.3,4765.9Z" data-name="Path 11496" transform="translate(-1065 -4760.167)"/></g><g id="Group_2519" data-name="Group 2519" transform="translate(507.494 3919.167)"><g id="Group_2517" data-name="Group 2517" transform="translate(0 6.694)"><path id="Path_11497" fill="#fff" d="M1099.586,3960.275H1096.8a1.3,1.3,0,0,1,0-2.608h2.782a1.3,1.3,0,0,1,0,2.608Z" data-name="Path 11497" transform="translate(-1095.5 -3957.667)"/><path id="Path_11498" fill="#fff" d="M1159.933,3960.275h-3.13a1.3,1.3,0,0,1,0-2.608h3.13a1.3,1.3,0,1,1,0,2.608Z" data-name="Path 11498" transform="translate(-1145.068 -3957.667)"/></g><g id="Group_2518" data-name="Group 2518" transform="translate(6.694 0)"><path id="Path_11499" fill="#fff" d="M1135.3,3986.557a1.3,1.3,0,0,1-1.3-1.3v-2.782a1.3,1.3,0,0,1,2.608,0v2.782A1.3,1.3,0,0,1,1135.3,3986.557Z" data-name="Path 11499" transform="translate(-1134 -3970.388)"/><path id="Path_11500" fill="#fff" d="M1135.3,3924.9a1.3,1.3,0,0,1-1.3-1.3v-3.13a1.3,1.3,0,0,1,2.608,0v3.13A1.3,1.3,0,0,1,1135.3,3924.9Z" data-name="Path 11500" transform="translate(-1134 -3919.167)"/></g></g><path id="Path_11501" fill="#2033a0" d="M387.972,4553.488a4.226,4.226,0,1,1,4.226-4.226A4.231,4.231,0,0,1,387.972,4553.488Zm0-5.844a1.618,1.618,0,1,0,1.618,1.619A1.62,1.62,0,0,0,387.972,4547.644Z" data-name="Path 11501" opacity=".3" transform="translate(0 -517.053)"/><g id="Group_2520" data-name="Group 2520" transform="translate(396.476 3927.478)"><path id="Path_11502" fill="#fff" d="M786.127,3973.223a1.3,1.3,0,0,1-.387-2.549,83,83,0,0,1,43.853-1.425,1.3,1.3,0,0,1-.61,2.536,80.389,80.389,0,0,0-42.468,1.379A1.3,1.3,0,0,1,786.127,3973.223Z" data-name="Path 11502" transform="translate(-727.82 -3966.968)"/><path id="Path_11503" fill="#fff" d="M604.608,4080.289a1.3,1.3,0,0,1-.9-2.252c1.29-1.218,2.636-2.409,4-3.54a1.3,1.3,0,1,1,1.665,2.008c-1.322,1.1-2.626,2.25-3.875,3.429A1.3,1.3,0,0,1,604.608,4080.289Z" data-name="Path 11503" transform="translate(-577.861 -4055.553)"/><path id="Path_11504" fill="#fff" d="M458.918,4256.627a1.3,1.3,0,0,1-1.292-1.14,83.525,83.525,0,0,1-.007-20.912,81.6,81.6,0,0,1,10.024-30.174,1.3,1.3,0,0,1,2.269,1.286,79,79,0,0,0-9.705,29.215,80.924,80.924,0,0,0,.006,20.257,1.3,1.3,0,0,1-1.129,1.458A1.361,1.361,0,0,1,458.918,4256.627Z" data-name="Path 11504" transform="translate(-456.966 -4162.575)"/><path id="Path_11505" fill="#fff" d="M649.131,4811.909a1.3,1.3,0,0,1-.651-.175,83.013,83.013,0,0,1-9.13-6.119,1.3,1.3,0,0,1,1.593-2.065,80.32,80.32,0,0,0,8.842,5.927,1.3,1.3,0,0,1-.654,2.433Z" data-name="Path 11505" transform="translate(-607.221 -4657.874)"/><path id="Path_11506" fill="#fff" d="M823.563,4889.351a82.636,82.636,0,0,1-21.665-2.876,1.3,1.3,0,1,1,.684-2.517,80.478,80.478,0,0,0,38.056.956,1.3,1.3,0,0,1,.555,2.548A82.953,82.953,0,0,1,823.563,4889.351Z" data-name="Path 11506" transform="translate(-741.132 -4724.488)"/><path id="Path_11507" fill="#fff" d="M1153.611,4825.83a1.3,1.3,0,0,1-.641-2.44c1.949-1.1,3.877-2.294,5.728-3.555a1.3,1.3,0,1,1,1.467,2.156c-1.912,1.3-3.9,2.537-5.915,3.671A1.3,1.3,0,0,1,1153.611,4825.83Z" data-name="Path 11507" opacity=".3" transform="translate(-1031.412 -4671.366)"/><path id="Path_11508" fill="#fff" d="M1271.084,4581.644a1.3,1.3,0,0,1-.967-2.178,79.9,79.9,0,0,0,18.359-34.663,1.3,1.3,0,0,1,2.535.614,82.5,82.5,0,0,1-18.959,35.8A1.3,1.3,0,0,1,1271.084,4581.644Z" data-name="Path 11508" transform="translate(-1128.462 -4443.514)"/><path id="Path_11509" fill="#fff" d="M1386.388,4373.256a1.3,1.3,0,0,1-1.3-1.3c0-2.4-.108-4.825-.321-7.2-.174-1.946-.422-3.907-.738-5.831a1.3,1.3,0,1,1,2.574-.422c.326,1.986.582,4.011.762,6.02.22,2.456.331,4.957.331,7.435A1.3,1.3,0,0,1,1386.388,4373.256Z" data-name="Path 11509" transform="translate(-1222.829 -4289.521)"/></g><g id="Group_2521" data-name="Group 2521" transform="translate(433.863 3968.669)"><path id="Path_11510" fill="#fff" d="M884.56,4264.956a7.143,7.143,0,1,0,7.143,7.143A7.151,7.151,0,0,0,884.56,4264.956Zm0,11.428a4.285,4.285,0,1,1,4.286-4.285A4.291,4.291,0,0,1,884.56,4276.384Z" data-name="Path 11510" transform="translate(-841.703 -4254.337)"/><path id="Path_11511" fill="#fff" d="M750.572,4244.682a1.4,1.4,0,0,0,1.429-1.36v-4.08h4.285a1.4,1.4,0,0,0,1.429-1.36v-5.44a1.342,1.342,0,0,0-.617-1.119l-41.429-27.2a1.49,1.49,0,0,0-1.623,0l-41.429,27.2a1.342,1.342,0,0,0-.617,1.119v5.44a1.4,1.4,0,0,0,1.429,1.36h4.286v4.08a1.4,1.4,0,0,0,1.429,1.36h1.428v27.2h-1.428a1.4,1.4,0,0,0-1.429,1.36v4.08h-4.286a1.4,1.4,0,0,0-1.429,1.36v5.44a1.4,1.4,0,0,0,1.429,1.36h82.857a1.4,1.4,0,0,0,1.429-1.36v-5.44a1.4,1.4,0,0,0-1.429-1.36H752v-4.08a1.4,1.4,0,0,0-1.429-1.36h-1.428v-27.2Zm-35.714-37.787,36.842,24.188H678.016Zm-40,29.627v-2.72h80v2.72Zm74.286,38.08v2.72H737.715v-2.72Zm-8.571-2.721v-27.2h5.714v27.2Zm-2.857,0h-1.429a1.4,1.4,0,0,0-1.429,1.36v4.08h-1.435s0-.007,0-.01h-.294v-4.08a1.4,1.4,0,0,0-1.428-1.36h-1.429v-27.2H731.7a1.4,1.4,0,0,0,1.428-1.36v-4.07h1.732v4.08a1.4,1.4,0,0,0,1.429,1.36h1.429Zm-22.253,5.44h-1.325s0-.007,0-.01h-.294v-4.08a1.4,1.4,0,0,0-1.429-1.36h-1.428v-27.2h1.428a1.4,1.4,0,0,0,1.429-1.36v-4.07h2.143v4.07a1.4,1.4,0,0,0,1.428,1.36h1.429v27.2h-1.429a1.4,1.4,0,0,0-1.428,1.36v4.08h-.522S715.461,4277.318,715.462,4277.321Zm-19.286,0h-1.319v-4.08a1.4,1.4,0,0,0-1.429-1.36H692v-27.2h1.429a1.4,1.4,0,0,0,1.429-1.36v-4.08h1.84v4.07a1.4,1.4,0,0,0,1.429,1.36h1.429v27.2h-1.429a1.4,1.4,0,0,0-1.429,1.36v4.08h-.522S696.175,4277.318,696.176,4277.321Zm-15.6-35.36v-2.72H692v2.72Zm8.571,2.72v27.2h-5.714v-27.2Zm10.411,29.909h11.429v2.721H699.554Zm2.857-2.72v-27.2h5.714v27.2Zm-2.857-29.92v-2.709h11.429v2.709Zm19.286,32.64h11.429v2.721H718.84Zm2.857-2.72v-27.2h5.714v27.2Zm-2.857-29.92v-2.709h11.429v2.709Zm-38.269,32.65H692v2.72H680.571Zm74.286,5.439v2.72h-80v-2.72Zm-17.143-38.08v-2.72h11.429v2.72Z" data-name="Path 11511" transform="translate(-672 -4203.883)"/></g><g id="Group_2530" data-name="Group 2530" opacity=".3" transform="translate(385.715 4023.282)"><g id="Group_2522" data-name="Group 2522" transform="translate(7.421 8.238)"><path id="Path_11512" fill="#2033a0" d="M438.7,4580.832a.915.915,0,0,1-.708-.344,1.092,1.092,0,0,1,.076-1.454c.093-.09,9.282-8.99,10.6-10.292l.388-.39c1.3-1.322,2.922-2.968,5.943-2.968h8.539a1.034,1.034,0,0,1,0,2.06H455c-2.272,0-3.479,1.226-4.647,2.412l-.407.409c-1.323,1.308-10.519,10.216-10.612,10.305A.9.9,0,0,1,438.7,4580.832Z" data-name="Path 11512" transform="translate(-437.755 -4565.385)"/></g><g id="Group_2523" data-name="Group 2523" transform="translate(18.026 23.236)"><path id="Path_11513" fill="#2033a0" d="M499.7,4663.425a.909.909,0,0,1-.671-.3,1.093,1.093,0,0,1,0-1.456l2.846-3.09a.912.912,0,0,1,.671-.3c2.9,0,5.494-.21,7.868-2.788.986-1.069,3.49-3.84,3.49-3.84l1.355,1.441s-2.513,2.781-3.5,3.855c-2.766,3-5.746,3.364-8.815,3.39l-2.57,2.789A.909.909,0,0,1,499.7,4663.425Z" data-name="Path 11513" transform="translate(-498.751 -4651.647)"/></g><g id="Group_2524" data-name="Group 2524" transform="translate(0 19.567)"><path id="Path_11514" fill="#2033a0" d="M410.253,4654.226a.91.91,0,0,1-.671-.3l-14.231-15.447a1.093,1.093,0,0,1,0-1.457l5.692-6.179a.9.9,0,0,1,1.342,0l14.231,15.447a1.093,1.093,0,0,1,0,1.457l-5.692,6.179A.91.91,0,0,1,410.253,4654.226Zm-12.889-16.477,12.889,13.991,4.351-4.723-12.889-13.991Z" data-name="Path 11514" transform="translate(-395.073 -4630.54)"/></g><g id="Group_2525" data-name="Group 2525" transform="translate(5.692 25.745)"><path id="Path_11515" fill="#2033a0" d="M430.659,4670.2a.909.909,0,0,1-.671-.3l-1.9-2.06a1.092,1.092,0,0,1,0-1.456.9.9,0,0,1,1.342,0l1.9,2.06a1.092,1.092,0,0,1,0,1.456A.909.909,0,0,1,430.659,4670.2Z" data-name="Path 11515" transform="translate(-427.813 -4666.079)"/></g><g id="Group_2526" data-name="Group 2526" transform="translate(38.898)"><path id="Path_11516" fill="#2033a0" d="M624.49,4550.955h-4.744a.991.991,0,0,1-.949-1.03v-3.089a.952.952,0,1,1,1.9,0v2.06h2.846V4520.06H620.7v2.06a.952.952,0,1,1-1.9,0v-3.09a.991.991,0,0,1,.949-1.029h4.744a.991.991,0,0,1,.949,1.029v30.9A.991.991,0,0,1,624.49,4550.955Z" data-name="Path 11516" transform="translate(-618.798 -4518)"/></g><g id="Group_2527" data-name="Group 2527" transform="translate(18.974 14.417)"><path id="Path_11517" fill="#2033a0" d="M507.053,4614.312h-1.9a1.033,1.033,0,0,1,0-2.06h1.9a5.94,5.94,0,0,0,5.341-3.5,2.84,2.84,0,0,1,2.511-1.649h2.584c1.825,0,3.795-1.181,3.795-3.089,0-.458,0-1.03-1.9-1.03H508.951a1.034,1.034,0,0,1,0-2.06h10.436c2.518,0,3.795,1.04,3.795,3.09,0,3.223-2.894,5.149-5.692,5.149H514.9a.959.959,0,0,0-.84.567A7.9,7.9,0,0,1,507.053,4614.312Z" data-name="Path 11517" transform="translate(-504.207 -4600.924)"/></g><g id="Group_2528" data-name="Group 2528" transform="translate(29.462 6.179)"><path id="Path_11518" fill="#2033a0" d="M565.481,4563.838a.963.963,0,0,1-.106-.005,1.014,1.014,0,0,1-.839-1.137c.531-5.221,4.585-9.157,9.429-9.157a9.063,9.063,0,0,1,6.325,2.623,1.093,1.093,0,0,1,.074,1.455.9.9,0,0,1-1.34.081,7.248,7.248,0,0,0-5.059-2.1,7.831,7.831,0,0,0-7.543,7.323A.981.981,0,0,1,565.481,4563.838Z" data-name="Path 11518" transform="translate(-564.531 -4553.54)"/></g><g id="Group_2529" data-name="Group 2529" transform="translate(30.847 20.595)"><path id="Path_11519" fill="#2033a0" d="M580.546,4642.634a9.3,9.3,0,0,1-7.89-4.578,1.084,1.084,0,0,1,.261-1.428.9.9,0,0,1,1.316.284,7.445,7.445,0,0,0,6.313,3.663,7.251,7.251,0,0,0,5.06-2.1.9.9,0,0,1,1.34.08,1.093,1.093,0,0,1-.074,1.455A9.061,9.061,0,0,1,580.546,4642.634Z" data-name="Path 11519" transform="translate(-572.496 -4636.454)"/></g></g><g id="Group_2534" data-name="Group 2534" opacity=".3" transform="translate(521.793 3949.217)"><g id="Group_2531" data-name="Group 2531" transform="translate(5.605 11.99)"><path id="Path_11520" fill="#2033a0" d="M1217.084,4181.091a4.218,4.218,0,0,0,1.7-.345c.448-.2,3.435-1.218,6.325-2.2,1.646-.562,3.348-1.143,4.764-1.634a12.158,12.158,0,0,0,6.068-4.632c2.161-3.14,4.723-7.359,5.423-8.521l3.691-1.061-.5-1.733-4.032,1.159a.9.9,0,0,0-.525.4c-.03.051-3.062,5.122-5.544,8.729a10.376,10.376,0,0,1-5.173,3.952c-1.413.489-3.112,1.069-4.755,1.63-3.7,1.265-5.989,2.048-6.476,2.264a2.5,2.5,0,0,1-2.023-.058c-.21-.132-.213-.248-.214-.309a6.39,6.39,0,0,1,1.946-4.07,7.573,7.573,0,0,1,2.006-.91c1.612-.587,3.618-1.317,4.847-2.841a5.34,5.34,0,0,0,.7-3.356.905.905,0,0,0-.455-.708l-4.11-2.32a.9.9,0,0,0-.184-.079l-1.188-.357a.916.916,0,0,0-.562.014l-4.787,1.7a.894.894,0,0,0-.381.261l-3.45,4.007a.9.9,0,0,0-.182.841c0,.014.408,1.4.755,3l1.763-.382c-.239-1.105-.5-2.093-.653-2.65l2.979-3.46,4.282-1.524.808.244,3.584,2.023a3.155,3.155,0,0,1-.325,1.609c-.914,1.134-2.585,1.742-4.059,2.278a7.833,7.833,0,0,0-2.631,1.3,8.2,8.2,0,0,0-2.507,5.424,2.142,2.142,0,0,0,1.054,1.789A3.845,3.845,0,0,0,1217.084,4181.091Z" data-name="Path 11520" transform="translate(-1209.982 -4160.96)"/></g><g id="Group_2532" data-name="Group 2532" transform="translate(0)"><path id="Path_11521" fill="#2033a0" d="M1180.272,4120.434l1.721-.539-2.358-7.534,6.234-8.953a6.6,6.6,0,0,1,3.648-2.588c7.443-2.06,25.293-7.083,25.293-7.083l-.489-1.737s-17.844,5.021-25.285,7.081a8.409,8.409,0,0,0-4.647,3.3l-6.486,9.314a.9.9,0,0,0-.121.784Z" data-name="Path 11521" transform="translate(-1177.742 -4092)"/></g><g id="Group_2533" data-name="Group 2533" transform="translate(1.659 23.411)"><path id="Path_11522" fill="#2033a0" d="M1195.4,4242.88a8.122,8.122,0,0,0,7.924-9.876l-1.761.39a6.313,6.313,0,1,1-6.163-4.941,6.253,6.253,0,0,1,2.642.579l.756-1.638a8.116,8.116,0,1,0-3.4,15.486Z" data-name="Path 11522" transform="translate(-1187.282 -4226.649)"/></g></g></g><g id="humaaans_standing-23" data-name="humaaans/standing-23" transform="translate(83.148 268.191)"><g id="humaaan-8" transform="translate(0 0)"><g id="Head_Front_Curly" data-name="Head/Front/Curly" transform="translate(42.465)"><g id="Head" transform="translate(11.28 7.99)"><path id="Path_3" fill="#b28b67" fill-rule="evenodd" d="M3.883,16.211A12.733,12.733,0,0,1,.5,7.062C1.2-3,15.2-.784,17.928,4.293s2.4,17.954-1.12,18.861c-1.4.362-4.394-.525-7.438-2.359L11.28,34.31H0Z" data-name="Path 3" transform="translate(0 0)"/></g><path id="hair" fill="#191847" fill-rule="evenodd" d="M65.492,19.846a2.44,2.44,0,0,0-1.709-1.733,2.251,2.251,0,0,0-.629-.063c-.076,0-.1.025-.132-.028a.7.7,0,0,1-.038-.181,3.421,3.421,0,0,0-.128-.424,3.457,3.457,0,0,0-.834-1.239A4.2,4.2,0,0,0,59.5,14.986a3.675,3.675,0,0,0-1.515.207,6,6,0,0,0-.736.315c-.072.036-.3.212-.377.2s-.239-.21-.3-.26a4.455,4.455,0,0,0-2.783-.847,5.094,5.094,0,0,0-3.144.75,6.288,6.288,0,0,0-.568.471c-.095.088-.187.179-.274.275q-.079.086-.154.176c-.084.1-.071.136-.188.065a2.337,2.337,0,0,0-1.5-.338,3.359,3.359,0,0,0-.906.256c-.1.042-.326.21-.431.212s-.329-.154-.436-.193a3.572,3.572,0,0,0-1.811-.168,4.676,4.676,0,0,0-1.775.7,2.387,2.387,0,0,0-.658.6c-.077.107-.147.22-.235.319-.051.058-.153.118-.181.191a3.9,3.9,0,0,0-.752-.332,1.853,1.853,0,0,0-1.059.04,4.21,4.21,0,0,0-1.67,1.186,4.74,4.74,0,0,0-.618.83q-.126.214-.231.439a1.632,1.632,0,0,1-.1.229c-.058.084-.1.086-.2.123a3.257,3.257,0,0,0-1.387.929,3.2,3.2,0,0,0-.718,1.523.776.776,0,0,1-.029.187c-.026.025-.134.014-.174.018a3.661,3.661,0,0,0-.417.073,3.441,3.441,0,0,0-.733.264,3.83,3.83,0,0,0-1.877,2.242,4.548,4.548,0,0,0,.071,3.114,3.041,3.041,0,0,0,.231.456c.055.089.073.089.037.183s-.113.2-.161.306a4.4,4.4,0,0,0-.332,1.041,4.882,4.882,0,0,0-.057,1.8,2.6,2.6,0,0,0,.278.79,2.265,2.265,0,0,0,.244.353c.048.057.1.111.152.163a1.012,1.012,0,0,1,.1.089c.063.081.076.014.044.133a5.326,5.326,0,0,1-.212.493c-.065.167-.124.336-.178.507a7.477,7.477,0,0,0-.259,1.056,3.317,3.317,0,0,0,.234,2.052,2.052,2.052,0,0,0,.581.691,2.154,2.154,0,0,0,.381.232c.069.033.157.047.189.114s-.016.215-.028.3a4.919,4.919,0,0,0,.058,2.119,2.928,2.928,0,0,0,1.161,1.558,3.611,3.611,0,0,0,3.61.1,3.79,3.79,0,0,0,.806-.554,2.659,2.659,0,0,0,2.794.569,4.013,4.013,0,0,0,2.549-2.106,1.7,1.7,0,0,0,2.7-.355,2.248,2.248,0,0,0,.228-.74c.019-.135.007-.271.021-.4a2.091,2.091,0,0,1,.2-.5,2.766,2.766,0,0,0,.21-1,5.068,5.068,0,0,0-.038-.536,1.843,1.843,0,0,1,.055-.471A2.155,2.155,0,0,1,46.3,37.1a1.8,1.8,0,0,1-.705-.5,4.115,4.115,0,0,1-.887-1.659A2.944,2.944,0,0,1,45.8,31.33a6.809,6.809,0,0,1,3.193-.169c.771.175,1.645,1.876,1.688,2.036.027.1.013.221.1.287.2.145.529-.107.677-.231a2.669,2.669,0,0,0,.593-.788,9.756,9.756,0,0,0,.813-1.994c.15-.531.246-1.079.443-1.6a2.443,2.443,0,0,1,.983-1.268,8.652,8.652,0,0,1,1.691-.684,4.2,4.2,0,0,0,1.564-.859,2.161,2.161,0,0,0,.268-.3c.061-.086.122-.25.216-.3.145-.085.358.135.484.215a5.589,5.589,0,0,1,1.556,1.544A9.609,9.609,0,0,1,61.1,29.057a5.318,5.318,0,0,0,.695,1.533,2.931,2.931,0,0,0,1.748.132A2.209,2.209,0,0,0,64.5,29.9a1.282,1.282,0,0,0,.108-.84c-.034-.17-.1-.328-.139-.494a1.542,1.542,0,0,0-.128-.4.987.987,0,0,0-.615-.49,2.889,2.889,0,0,0,.664-.9,3.868,3.868,0,0,0,.344-1.174,1.425,1.425,0,0,0-.19-.915,2.408,2.408,0,0,0-.781-.648,5.08,5.08,0,0,0,1.087-1.184A3.7,3.7,0,0,0,65.492,19.846Z" transform="translate(-31.287 -14.601)"/></g><g id="Bottom_Standing_Skinny-Jeans-Walk" data-name="Bottom/Standing/Skinny-Jeans-Walk" transform="translate(0 81.195)"><path id="Leg" fill="#836aeb" fill-rule="evenodd" d="M133.491,0l22.6,59.8,15.84,44.074h9.032L159.188,0Z" transform="translate(-83.47)"/><path id="Leg-2" fill="#9c84ff" fill-rule="evenodd" d="M76.918,0c-.246,20.518-.068,48.141-.64,49.42q-.572,1.279-35.6,29.144l4.655,7.916Q86.92,59.66,89.046,56.086C91.173,52.513,101.856,19.629,107.414,0Z" data-name="Leg" transform="translate(-32.483)"/><g id="Accessories_Shoe_Flat-Pointy" data-name="Accessories/Shoe/Flat-Pointy" transform="matrix(0.643, 0.766, -0.766, 0.643, 7.561, 77.548)"><path id="Shoe" fill="#191847" fill-rule="evenodd" d="M0,9.87.47,0h9.87q7.02,4.935,18.33,7.99V9.87H10.81L4.7,8.93v.94Z" transform="translate(0 0)"/></g><g id="Accessories_Shoe_Flat-Pointy-2" data-name="Accessories/Shoe/Flat-Pointy" transform="translate(87.621 102.461)"><path id="Shoe-2" fill="#191847" fill-rule="evenodd" d="M0,29.685l.47-9.87h9.87q7.02,4.935,18.33,7.99v1.88H10.81l-6.11-.94v.94Z" data-name="Shoe" transform="translate(0 -19.815)"/></g></g><g id="Body_Hoodie" data-name="Body/Hoodie" transform="translate(16.247 30.258)"><path id="Skin" fill="#b28b67" fill-rule="evenodd" d="M109.24,96.167l14.992,11.009a40.356,40.356,0,0,1,10.192,4.1c.644.587,1.423,1.776-1.249,1.571s-5.493-.3-5.862.61,1.249,2,.5,3.232q-.745,1.23-7.044-6.168l-14.846-6.156Zm-57.563.38,9.822.039q-9.1,29.366-9.822,31.163c-1.088,2.7,1.214,6.8,2.2,9.006-3.205,1.434-2.864-3.878-6.908-2-3.691,1.717-6.5,4.828-10.763,2.2-.524-.323-1.1-1.541.289-2.493,3.458-2.371,8.442-6.521,9.115-7.887Q46.986,123.781,51.677,96.547Z" transform="translate(-35.628 -51.176)"/><path id="Coat-Back" fill="#e87613" fill-rule="evenodd" d="M0,1.049,3.988,0C20.145,11.663,28.5,36.053,48.065,47.648L44.114,53.53C11.824,52.369,1.246,22.653,0,1.049Z" transform="translate(44.052 3.113) rotate(5)"/><path id="Shirt" fill="#dde3e9" fill-rule="evenodd" d="M93.861,53.581h35.961c1.643,0,1.334-2.373,1.1-3.57C128.176,36.192,117.474,21.3,117.474,1.627L107.1,0C98.522,13.8,95.555,30.788,93.861,53.581Z" transform="translate(-67.617 1.651)"/><path id="Coat-Front" fill="#ff9519" fill-rule="evenodd" d="M74.022,11.551a5.932,5.932,0,0,1-3.579-3.03C66.652,1.68,68.021-2.087,72.073-3.325s7.665,1.312,14.12,1.312a6.5,6.5,0,0,1,.965.066l3.247.185q13.975,47.363,7.708,63.2h-28.3A96.543,96.543,0,0,1,65,71.308H57.283Q56.194,36.105,74.022,11.551Z" transform="translate(-47.489 3.664)"/><path id="Shade" fill="rgba(0,0,0,0.1)" fill-rule="evenodd" d="M91.318,104.809q1.335,11.172,4.34,16.216h-10.5Q88.089,114.183,91.318,104.809Z" transform="translate(-62.834 -55.923)"/></g></g></g></g></svg>