<svg id="Group_3192" data-name="Group 3192" xmlns="http://www.w3.org/2000/svg" width="72.716" height="62.263" viewBox="0 0 72.716 62.263">
  <path id="Path_1379" data-name="Path 1379" d="M36.358,0,0,14.24v2.878L2.121,21.36H70.6l2.121-4.242V14.24ZM68.778,18.331H3.939L3.03,16.361V16.21L36.358,3.181,69.687,16.21Z" fill="#ff276a"/>
  <path id="Path_1380" data-name="Path 1380" d="M45.8,42.854V23.16c0-3.484-4.393-6.06-10-6.06-5.757,0-10,2.575-10,6.06V42.854h3.03V23.16c0-1.212,2.727-3.03,6.969-3.03s6.969,1.818,6.969,3.03V42.854Z" transform="translate(13.285 8.805)" fill="#ff276a"/>
  <path id="Path_1381" data-name="Path 1381" d="M29.148,42.854V23.16c0-3.484-4.393-6.06-10-6.06S9,19.675,9,23.16V42.854h3.03V23.16c0-1.212,2.727-3.03,6.969-3.03s6.969,1.818,6.969,3.03V42.854Z" transform="translate(4.634 8.805)" fill="#ff276a"/>
  <path id="Path_1382" data-name="Path 1382" d="M65.627,17.221,62.6,18.736V45.4H8.06V18.736L5.03,17.221V15.1H2v3.939l3.03,1.515V45.4H2v3.03H68.657V45.4h-3.03V20.554l3.03-1.515V15.1h-3.03Z" transform="translate(1.03 7.775)" fill="#ff276a"/>
  <rect id="Rectangle_1538" data-name="Rectangle 1538" width="66.657" height="3.03" transform="translate(3.03 59.233)" fill="#ff276a"/>
</svg>
