<svg xmlns="http://www.w3.org/2000/svg" width="41" height="42" viewBox="0 0 41 42"><defs><style>.a{fill:#8dc351;}.b{fill:#fff;}</style></defs><g transform="translate(0.079 -0.088)"><ellipse class="a" cx="20.5" cy="21" rx="20.5" ry="21" transform="translate(-0.079 0.088)"/><g transform="translate(10.432 8.148)"><path d="M24.944,10.812a3.534,3.534,0,0,1-.823,4.234c2.241-.1,3.912.772,4.452,3.638.673,3.559-1.644,5.23-5.275,6.5l1.044,3.642-2.2.631-1.029-3.595c-.569.164-1.154.327-1.76.487l1.035,3.61-2.193.628-1.048-3.649c-.514.144-1.04.285-1.572.436l-2.857.821L12.4,25.448s1.633-.44,1.6-.457a.807.807,0,0,0,.617-.964l-1.651-5.758L13.2,18.2a1.825,1.825,0,0,0-.236.051l-1.179-4.11a1.18,1.18,0,0,0-1.539-.6C10.264,13.505,8.65,14,8.65,14l-.673-2.346,3.029-.867,0,.01c.455-.131.92-.273,1.392-.419L11.369,6.773l2.194-.63,1.013,3.536c.584-.18,1.171-.359,1.748-.526L15.317,5.641l2.2-.63,1.035,3.608c2.906-.564,5.4-.336,6.4,2.193Zm-.834,8.683c-.817-2.843-5.361-1.077-6.85-.65l1.385,4.835c1.488-.428,6.246-1.457,5.463-4.184Zm-2.978-6.528c-.744-2.587-4.525-1.077-5.764-.721l1.257,4.386C17.866,16.275,21.843,15.448,21.133,12.966Z" transform="translate(-7.977 -5.011)"/><path class="b" d="M24.944,10.812a3.534,3.534,0,0,1-.823,4.234c2.241-.1,3.912.772,4.452,3.638.673,3.559-1.644,5.23-5.275,6.5l1.044,3.642-2.2.631-1.029-3.595c-.569.164-1.154.327-1.76.487l1.035,3.61-2.193.628-1.048-3.649c-.514.144-1.04.285-1.572.436l-2.857.821L12.4,25.448s1.633-.44,1.6-.457a.807.807,0,0,0,.617-.964l-1.651-5.758L13.2,18.2a1.825,1.825,0,0,0-.236.051l-1.179-4.11a1.18,1.18,0,0,0-1.539-.6C10.264,13.505,8.65,14,8.65,14l-.673-2.346,3.029-.867,0,.01c.455-.131.92-.273,1.392-.419L11.369,6.773l2.194-.63,1.013,3.536c.584-.18,1.171-.359,1.748-.526L15.317,5.641l2.2-.63,1.035,3.608c2.906-.564,5.4-.336,6.4,2.193Zm-.834,8.683c-.817-2.843-5.361-1.077-6.85-.65l1.385,4.835c1.488-.428,6.246-1.457,5.463-4.184Zm-2.978-6.528c-.744-2.587-4.525-1.077-5.764-.721l1.257,4.386C17.866,16.275,21.843,15.448,21.133,12.966Z" transform="translate(-7.977 -5.011)"/></g></g></svg>