<svg xmlns="http://www.w3.org/2000/svg" width="22" height="22" viewBox="0 0 22 22"><defs><style>.a{fill:#5262bf;}.b{fill:#fff;}</style></defs><g transform="translate(-0.07 -0.226)"><circle class="a" cx="11" cy="11" r="11" transform="translate(0.07 0.226)"/><g transform="translate(5.523 4.383)"><path class="b" d="M16.917,8.067a1.862,1.862,0,0,1-.434,2.231,2.049,2.049,0,0,1,2.345,1.917c.355,1.875-.866,2.756-2.779,3.425l.55,1.919-1.158.332L14.9,16c-.3.086-.608.172-.927.257l.545,1.9-1.155.331-.552-1.922c-.271.076-.548.15-.828.23l-1.506.432-.167-1.448s.86-.232.841-.241a.425.425,0,0,0,.325-.508L10.606,12l.122-.035a.961.961,0,0,0-.124.027L9.983,9.822a.622.622,0,0,0-.811-.316c.01-.02-.84.242-.84.242L7.977,8.512l1.6-.457,0,.005c.24-.069.484-.144.733-.221l-.544-1.9,1.156-.332.534,1.863c.307-.095.617-.189.921-.277l-.531-1.851L13,5.011l.545,1.9c1.531-.3,2.846-.177,3.371,1.155Zm-.439,4.575c-.43-1.5-2.825-.568-3.609-.343l.73,2.547c.784-.226,3.291-.768,2.879-2.2ZM14.909,9.2c-.392-1.363-2.384-.568-3.037-.38l.662,2.311C13.188,10.946,15.283,10.51,14.909,9.2Z" transform="translate(-7.977 -5.011)"/><path class="b" d="M16.917,8.067a1.862,1.862,0,0,1-.434,2.231,2.049,2.049,0,0,1,2.345,1.917c.355,1.875-.866,2.756-2.779,3.425l.55,1.919-1.158.332L14.9,16c-.3.086-.608.172-.927.257l.545,1.9-1.155.331-.552-1.922c-.271.076-.548.15-.828.23l-1.506.432-.167-1.448s.86-.232.841-.241a.425.425,0,0,0,.325-.508L10.606,12l.122-.035a.961.961,0,0,0-.124.027L9.983,9.822a.622.622,0,0,0-.811-.316c.01-.02-.84.242-.84.242L7.977,8.512l1.6-.457,0,.005c.24-.069.484-.144.733-.221l-.544-1.9,1.156-.332.534,1.863c.307-.095.617-.189.921-.277l-.531-1.851L13,5.011l.545,1.9c1.531-.3,2.846-.177,3.371,1.155Zm-.439,4.575c-.43-1.5-2.825-.568-3.609-.343l.73,2.547c.784-.226,3.291-.768,2.879-2.2ZM14.909,9.2c-.392-1.363-2.384-.568-3.037-.38l.662,2.311C13.188,10.946,15.283,10.51,14.909,9.2Z" transform="translate(-7.977 -5.011)"/></g></g></svg>