<svg xmlns="http://www.w3.org/2000/svg" width="27.47" height="53.422" viewBox="0 0 27.47 53.422"><defs><style>.a{fill:#ff276a;}</style></defs><path class="a" d="M27.356,59.489,25.068,47.433A6.7,6.7,0,0,0,18.444,42H8.961a6.769,6.769,0,0,0-6.576,5.433L.1,59.489A5.516,5.516,0,0,0,5.53,66.066H9.723l-.143,5.29a1.372,1.372,0,0,0,.429,1l3.145,2.716a1.485,1.485,0,0,0,.858.334,1.618,1.618,0,0,0,.858-.334l3.05-2.859a1.538,1.538,0,0,0,.381-1l-.286-5.1h3.908A5.527,5.527,0,0,0,27.356,59.489ZM14.012,72.452l-1.859-1.62.572-20.539a3.739,3.739,0,0,0,1.048.1,2.639,2.639,0,0,0,.858-.1l1.191,20.349Zm7.863-8.911H17.825l-.858-14.582a4.552,4.552,0,0,0,1.144-3.05,1.209,1.209,0,0,0-1.191-1.191A1.242,1.242,0,0,0,15.68,46a2.009,2.009,0,0,1-.62,1.477c-.048.048-.143.143-.191.143a2.266,2.266,0,0,1-1.1.334,1.916,1.916,0,0,1-2-1.954,1.263,1.263,0,0,0-2.526.048A4.538,4.538,0,0,0,10.3,48.862L9.866,63.54H5.625a3.184,3.184,0,0,1-3.05-3.669l2.43-11.914a4.087,4.087,0,0,1,4.051-3.431H18.54a4.051,4.051,0,0,1,4.051,3.431l2.43,11.914A3.148,3.148,0,0,1,21.875,63.54Z" transform="translate(-0.003 -21.984)"/><path class="a" d="M18.588,18.728A9.364,9.364,0,1,0,9.2,9.388,9.346,9.346,0,0,0,18.588,18.728Zm0-16.2a6.8,6.8,0,0,1,6.719,6.862A6.763,6.763,0,0,1,18.588,16.2a6.839,6.839,0,1,1,0-13.677Z" transform="translate(-4.817)"/></svg>