<svg xmlns="http://www.w3.org/2000/svg" width="32.25" height="37.212" viewBox="0 0 32.25 37.212"><defs><style>.a{fill:#ff276a}</style></defs><path d="M40.385,3.125H10.615a1.241,1.241,0,0,0-1.24,1.24V39.1a1.241,1.241,0,0,0,1.24,1.24H40.385a1.241,1.241,0,0,0,1.24-1.24V4.365A1.241,1.241,0,0,0,40.385,3.125ZM19.3,37.856V29.793H24.26v8.063Zm7.442,0V29.793h5.582v8.063Zm12.4,0H34.8v-9.3a1.241,1.241,0,0,0-1.24-1.24H18.058a1.241,1.241,0,0,0-1.24,1.24v9.3H11.856V5.606H39.144Z" class="a" transform="translate(-9.375 -3.125)"/><rect width="2.481" height="2.481" class="a" transform="translate(7.442 8.062)"/><rect width="2.481" height="2.481" class="a" transform="translate(22.327 8.062)"/><rect width="2.481" height="2.481" class="a" transform="translate(14.885 8.062)"/><rect width="2.481" height="2.481" class="a" transform="translate(7.442 13.024)"/><rect width="2.481" height="2.481" class="a" transform="translate(22.327 13.024)"/><rect width="2.481" height="2.481" class="a" transform="translate(14.885 13.024)"/><rect width="2.481" height="2.481" class="a" transform="translate(7.442 17.986)"/><rect width="2.481" height="2.481" class="a" transform="translate(22.327 17.986)"/><rect width="2.481" height="2.481" class="a" transform="translate(14.885 17.986)"/></svg>