<svg xmlns="http://www.w3.org/2000/svg" width="93" height="44" viewBox="0 0 93 44"><defs><style>.a{fill:#00baff}.b{fill:#2033a0}.c{fill:#fff}.d{fill:#d1d1d1}</style></defs><rect width="44" height="44" class="a" rx="9"/><rect width="44" height="44" class="b" rx="9" transform="translate(49)"/><rect width="24" height="16" class="c" rx="8" transform="translate(34 14)"/><g><g><g><path d="M526.915,152.253h-3.161a.879.879,0,0,0,0,1.755h3.161a3.077,3.077,0,1,1,0,6.154h0l-3.158,0a.879.879,0,0,0-.095,1.755.644.644,0,0,0,.095,0h3.161a4.836,4.836,0,0,0,0-9.671Zm-5.653,7.915H518.1a3.078,3.078,0,0,1,0-6.155h3.161a.879.879,0,0,0,.094-1.756c-.031,0-.063,0-.094,0l-3.165-.006h0a4.836,4.836,0,1,0,0,9.671h3.16a.879.879,0,0,0,.095-1.756c-.032,0-.063,0-.095,0Zm-3.835-3.078a.879.879,0,0,0,.878.877h8.4a.879.879,0,1,0,.095-1.755c-.032,0-.063,0-.095,0l-8.4,0a.879.879,0,0,0-.879.879Z" class="d" transform="translate(36.597 17.323) translate(0 0) translate(0) translate(-513.262 -152.248)"/></g></g></g><path d="M-2.508,45A4.585,4.585,0,0,1-7.032,41.1h1.388a3.208,3.208,0,0,0,3.817,2.454A3.205,3.205,0,0,0,.627,39.743,3.209,3.209,0,0,0-2.35,37.219a.655.655,0,0,0-.156-.019,7.328,7.328,0,0,1-7.263-6.625H-8.41a5.914,5.914,0,0,0,5.9,5.272A4.586,4.586,0,0,1,2.08,40.433a.682.682,0,0,0,.684.684H5.455a.728.728,0,0,0,.715-.7,8.714,8.714,0,0,0-8.539-8.63.7.7,0,0,0-.131-.013,1.843,1.843,0,0,1-1.847-1.843A1.846,1.846,0,0,1-2.5,28.088,1.848,1.848,0,0,1-.657,29.931a.688.688,0,0,0,.665.686H2.755a.689.689,0,0,0,.684-.686,5.927,5.927,0,0,0-5.251-5.9V22.674A7.334,7.334,0,0,1,4.8,29.922a.686.686,0,0,0,.638.725.741.741,0,0,0,.494-.169.667.667,0,0,0,.233-.465.557.557,0,0,0,0-.083A8.692,8.692,0,0,0-2.5,21.269h-.073a.68.68,0,0,0-.613.682v2.71a.684.684,0,0,0,.682.684,4.586,4.586,0,0,1,4.52,3.892H.631a3.209,3.209,0,0,0-3.815-2.46,3.209,3.209,0,0,0-2.46,3.815A3.207,3.207,0,0,0-2.665,33.12a.7.7,0,0,0,.161.019,7.335,7.335,0,0,1,7.265,6.625H3.406A5.929,5.929,0,0,0-2.5,34.5a4.587,4.587,0,0,1-4.576-4.586.682.682,0,0,0-.68-.686h-2.689a.669.669,0,0,0-.275.06.688.688,0,0,0-.446.625,8.7,8.7,0,0,0,8.514,8.658.614.614,0,0,0,.15.017A1.842,1.842,0,0,1-.663,40.431a1.841,1.841,0,0,1-1.845,1.841,1.843,1.843,0,0,1-1.841-1.843.683.683,0,0,0-.684-.684H-7.762a.688.688,0,0,0-.684.684,5.926,5.926,0,0,0,5.262,5.9v1.359A7.339,7.339,0,0,1-9.8,40.439a.686.686,0,0,0-.64-.725.718.718,0,0,0-.5.171.7.7,0,0,0-.231.479v.065a8.688,8.688,0,0,0,8.662,8.664.68.68,0,0,0,.682-.625.585.585,0,0,0,0-.085v-2.6a.436.436,0,0,0,0-.1A.686.686,0,0,0-2.508,45Z" class="c" transform="translate(74.313 -13.485)"/><path d="M432.3,304.373h-.163l.163-.046.007-10.995-.042-.241a.156.156,0,0,0-.01-.029l-.028-.058-.143.08h0l.121-.113-9.732-5.689-.041-.021-.348-.053-.085.016-9.679,5.56a.657.657,0,0,0-.145.121.742.742,0,0,0-.089.123.637.637,0,0,0-.057.137.609.609,0,0,0-.021.163v10.994l.005.109a.2.2,0,0,0,.026.109l.009.025a.193.193,0,0,0,.016.039l.007.048.048.041.04.05.045.047.034.026a.765.765,0,0,0,.078.057l9.52,5.5a.6.6,0,0,0,.156.063.57.57,0,0,0,.15.022c.049,0,.1-.005.133-.012a.165.165,0,0,0,.09-.024.733.733,0,0,0,.106-.045l9.538-5.508c.018-.012.035-.024.05-.036s.033-.025.063-.05l.027-.032a.553.553,0,0,0,.039-.049l.053-.093.024-.053.013-.038.005-.024.024-.065Zm-4.856-7h0a.634.634,0,0,0-.636.638v3.509l-3.35,1.934a.637.637,0,1,0,.637,1.1l3.35-1.935,2.95,1.7-7.611,4.394v-3.764a.578.578,0,0,0-.009-.122.622.622,0,0,0,.009-.1v-5.56l8.247-4.743v8.793l-2.95-1.7v-3.508A.638.638,0,0,0,427.444,297.377Zm-4.66-5.029v-3.411l7.61,4.394-2.949,1.7Zm-.618,1.11,4,2.305-4.025,2.307-4-2.306Zm-5.32,9.167,3.351,1.935a.637.637,0,0,0,.869-.233.638.638,0,0,0-.233-.869l-3.351-1.934v-3.508a.634.634,0,0,0-.632-.64h-.005a.632.632,0,0,0-.446.182.638.638,0,0,0-.19.456v3.509l-2.951,1.7v-8.793l3.158,1.812a.544.544,0,0,0,.2.122l4.886,2.81v5.56a.627.627,0,0,0,.01.109.6.6,0,0,0-.01.109v3.77l-7.611-4.394Zm-2.95-9.3,7.611-4.394v3.413l-4.649,2.683Zm8.342-5.959Zm-.244.024Zm-9.744,17.2Zm19.808.005Z" class="c" transform="translate(-400.915 -277.147)"/></svg>