<svg xmlns="http://www.w3.org/2000/svg" width="19.436" height="19.435" viewBox="0 0 19.436 19.435"><defs><style>.a{fill:#2033a0}</style></defs><path d="M21.177,2.5H8.07a.778.778,0,0,0-.778.778V7.272H3.278A.778.778,0,0,0,2.5,8.05V21.157a.778.778,0,0,0,.778.778H16.385a.778.778,0,0,0,.778-.778V17.184h3.993a.778.778,0,0,0,.778-.778V3.3A.754.754,0,0,0,21.177,2.5Zm-5.57,17.878H4.077V8.849H7.292v7.536a.778.778,0,0,0,.778.778h7.536Zm4.772-4.772H8.849V4.077h11.53Z" class="a" transform="translate(-2.5 -2.5)"/></svg>