<svg xmlns="http://www.w3.org/2000/svg" xmlns:xlink="http://www.w3.org/1999/xlink" width="505.059" height="378" viewBox="0 0 505.059 378"><defs><style>.a,.d,.e,.h{fill:#fff;}.b{fill:#d2d8f8;font-size:34px;font-family:CerebriSans-Book, Cerebri Sans;}.c,.f{fill:#2033a0;}.d{stroke:#c0ccda;}.e,.f{font-size:27px;font-family:CerebriSans-Regular, Cerebri Sans;}.g{fill:#e5e9f2;opacity:0.424;}.h{fill-rule:evenodd;}.i{fill:#ff276a;}.j{fill:#b28b67;}.k{fill:#997659;}.l{fill:#e4e4e4;}.m{fill:#3448b9;}.n{fill:#6ece8b;}.o{fill:#dde3e9;}.p{fill:#84e8a3;}.q{fill:#ff9b21;}.r{fill:rgba(0,0,0,0.1);}.s{fill:#191847;}.t{stroke:none;}.u{fill:none;}.v{filter:url(#a);}</style><filter id="a" x="109.059" y="0" width="396" height="378" filterUnits="userSpaceOnUse"><feOffset dx="3.742" dy="17.607" input="SourceAlpha"/><feGaussianBlur stdDeviation="19" result="b"/><feFlood flood-color="#ccccdf" flood-opacity="0.4"/><feComposite operator="in" in2="b"/><feComposite in="SourceGraphic"/></filter></defs><g transform="translate(-1033.684 -902.607)"><g transform="translate(1196.4 941.566)"><g class="v" transform="matrix(1, 0, 0, 1, -162.72, -38.96)"><rect class="a" width="282" height="264" rx="31" transform="translate(162.32 39.39)"/></g></g><text class="b" transform="translate(1367 999)"><tspan x="16.188" y="33">Cash</tspan></text><path class="c" d="M20,0H293a20,20,0,0,1,20,20V60a20,20,0,0,1-20,20H20A20,20,0,0,1,0,60V20A20,20,0,0,1,20,0Z" transform="translate(1224 985)"/><g class="d" transform="translate(1227 1088)"><rect class="t" width="279" height="80" rx="20"/><rect class="u" x="0.5" y="0.5" width="278" height="79" rx="19.5"/></g><text class="e" transform="translate(1252 1009)"><tspan x="0" y="26">Personal Account</tspan></text><text class="f" transform="translate(1240 1112)"><tspan x="0" y="26">Business Account</tspan></text><g transform="translate(1464.48 1111.95)"><path class="g" d="M13.916,0A13.916,13.916,0,1,1,0,13.916,13.916,13.916,0,0,1,13.916,0Z"/><g transform="translate(6.689 8.576)"><path class="h" d="M423.111,304.888a1.217,1.217,0,0,1-1.722.017l-.017-.017-4.337-4.462a1.271,1.271,0,0,1,0-1.783,1.217,1.217,0,0,1,1.722-.017l.017.017,3.443,3.564,7.777-7.939a1.217,1.217,0,0,1,1.722-.017l.017.017a1.271,1.271,0,0,1,0,1.783Z" transform="translate(-416.669 -293.903)"/></g></g><g transform="translate(1484.674 1011.9)"><path class="i" d="M13.916,0A13.916,13.916,0,1,1,0,13.916,13.916,13.916,0,0,1,13.916,0Z"/><g transform="translate(6.689 8.576)"><path class="h" d="M423.111,304.888a1.217,1.217,0,0,1-1.722.017l-.017-.017-4.337-4.462a1.271,1.271,0,0,1,0-1.783,1.217,1.217,0,0,1,1.722-.017l.017.017,3.443,3.564,7.777-7.939a1.217,1.217,0,0,1,1.722-.017l.017.017a1.271,1.271,0,0,1,0,1.783Z" transform="translate(-416.669 -293.903)"/></g></g><path class="j" d="M0,60.41,6.848,28.541C3.029,24.066.444,18.58.876,12.434,2.121-5.276,26.812-1.38,31.615,7.559s4.233,31.611-1.975,33.209c-2.476.637-7.749-.923-13.117-4.154l3.369,23.8Z" transform="matrix(0.966, -0.259, 0.259, 0.966, 1084.275, 952.545)"/><path class="k" d="M0,0,40.682,102.8l27.285,86.911H78.742L37.028,0Z" transform="translate(1109.098 1077.218)"/><path class="j" d="M77.449,0c-.433,36.126-6.751,84.763-7.76,87.015s-10.421,96.437-10.421,96.437H69.689s18.768-78.409,22.518-84.7S108.165,34.561,117.967,0Z" transform="translate(1023.459 1077.218)"/><path class="l" d="M3.221,3.385a1.44,1.44,0,0,0-1.847.971L0,9.2A46.251,46.251,0,0,0,.649,14.88H41.256s1.583-5.233-1.827-5.65-5.666-.753-5.666-.753L14.889.063a.72.72,0,0,0-.959.383L12.717,3.389A16.318,16.318,0,0,1,7.586,4.862Z" transform="matrix(0.998, 0.07, -0.07, 0.998, 1077.906, 1257.276)"/><path class="l" d="M3.708,4.222A1.658,1.658,0,0,0,1.582,5.338L0,10.9a53.082,53.082,0,0,0,.747,6.533H47.5s1.822-6.015-2.1-6.494-6.523-.866-6.523-.866L17.141.4a.829.829,0,0,0-1.1.44l-1.4,3.383S11.006,5.92,8.733,5.92Z" transform="translate(1171.264 1257.564)"/><path class="c" d="M32.621,180.762l51.227-5.551L45.882,0H0Z" transform="translate(1103.832 1077.218)"/><path class="m" d="M34.834,165.856l48.035,5.056S95.564,96.347,95.5,95.66,111.348,0,111.348,0H59.693s-3.841,68.624-5.178,71.818S34.834,165.856,34.834,165.856Z" transform="translate(1034.053 1077.218)"/><path class="j" d="M6.592,0,31.98,20.741a71.233,71.233,0,0,1,17.571,8.142c1.081,1.092,2.343,3.255-2.345,2.647s-9.646-1.037-10.38.532,2.014,3.635.588,5.729q-1.426,2.094-11.836-11.5L0,14.1Z" transform="translate(1166.17 1059.925) rotate(-13)"/><path class="j" d="M42.119,0S24.059,45.183,20.66,49.49C19,51.6,8.883,56.916,2.05,59.732-.693,60.862-.148,63.17.638,63.92c6.392,6.095,12.374,1.766,19.37.162,7.664-1.757,5.13,7.266,11.184,5.971-.89-4.16-3.357-12.073-.495-16.316,1.908-2.829,28.35-50.069,28.35-50.069Z" transform="translate(1033.684 1092.507) rotate(-22)"/><path class="n" d="M0,1.847,7.033,0c28.49,20.531,43.212,63.473,77.718,83.885L77.781,94.241C20.839,92.206,2.193,39.887,0,1.847Z" transform="translate(1108.451 994.878) rotate(-5)"/><path class="o" d="M0,94.34H63.417c2.9,0,2.352-4.178,1.933-6.286C60.516,63.724,41.643,37.5,41.643,2.864L23.35,0C8.22,24.3,2.988,54.208,0,94.34Z" transform="matrix(0.985, -0.174, 0.174, 0.985, 1077.076, 997.799)"/><path class="p" d="M31.006,20.374S10.622,33.5,3.936,21.454-.336,2.777,6.809.6s13.517,2.31,24.9,2.31S31.006,20.374,31.006,20.374Z" transform="matrix(0.985, -0.174, 0.174, 0.985, 1066.982, 996.626)"/><path class="p" d="M0,111.718H57.085C68.137,83.834,43.492.443,43.492.443L35.724,0C22.191,24.366,2.673,71.468,0,111.718Z" transform="matrix(0.985, -0.174, 0.174, 0.985, 1063.199, 1000.245)"/><path class="q" d="M51.062,0S-2.4,48.825.084,129.1h13.6C31.411,98.265,56.447,4.779,56.447,4.779Z" transform="matrix(0.985, -0.174, 0.174, 0.985, 1048.426, 1002.851)"/><path class="r" d="M9.532,0s.217,48.938,9.532,64.548H0Z" transform="matrix(0.985, -0.174, 0.174, 0.985, 1077.922, 1045.547)"/><path class="n" d="M51.062,0S-2.4,48.825.084,129.1h13.6C31.411,98.265,56.447,4.779,56.447,4.779Z" transform="matrix(0.985, -0.174, 0.174, 0.985, 1048.426, 1002.851)"/><path class="s" d="M-60.356,17.764a5.575,5.575,0,0,1-1.162-2.16,21.844,21.844,0,0,1-.744-2.453c-.375-1.672-.378-3.594.814-4.892a5.61,5.61,0,0,1,3.716-1.609,6.828,6.828,0,0,1,2.635.334c.839.276,1.563.826,2.376,1.167a10.632,10.632,0,0,1,1.254-5.225A5.209,5.209,0,0,1-47.59.4a7.69,7.69,0,0,1,4.725.952c.367.2.731.407,1.08.643a3.026,3.026,0,0,0,.937.515c.381.09.571-.131.818-.409a6.219,6.219,0,0,1,.965-.868A5.683,5.683,0,0,1-33.747.314a4.942,4.942,0,0,1,2.168,1.567c.495.649.847,1.678,1.53,2.13.29.192.494-.062.758-.25.4-.282.774-.594,1.175-.869a5.382,5.382,0,0,1,1.826-.826c.956-.221,2.277-.169,2.551,1.083A5.169,5.169,0,0,1-23.748,4.6c-.045.651-.093,1.3-.149,1.951A14.089,14.089,0,0,1-24.088,8a2.128,2.128,0,0,0-.094,1c.138.323.777.139,1.05.151a4.149,4.149,0,0,1,1.579.347,1.7,1.7,0,0,1,.955.884,1.587,1.587,0,0,1,.026.831,2.479,2.479,0,0,0,.051.853c.724-.356,3.232-1.148,3.548.149A2.029,2.029,0,0,1-17.29,13.5a11.133,11.133,0,0,1-1.169,1.78A15.914,15.914,0,0,1-21.573,18.3a2.041,2.041,0,0,1,.532,3.418,2.529,2.529,0,0,1-1.857.538,4.106,4.106,0,0,0-.768-.061,1.836,1.836,0,0,1-.348.117,10.352,10.352,0,0,1-2.848-.362,9.391,9.391,0,0,1-4.344-2.272,1.339,1.339,0,0,0-1-.461c-.374,0-.74.106-1.113.116a8.02,8.02,0,0,1-2.795-.779,10.546,10.546,0,0,1-.916,3.718c-.413.909-1.276,1.041-2.124,1.121-2.712.255-5.433-.03-8.148-.026,2.628.594,5.344.839,7.949,1.538,1.178.316.278,1.11-.225,1.66a9.565,9.565,0,0,0-1.873,3.211,5.665,5.665,0,0,0-5.572-2.265c-2.225.569-3.791,3.577-2.369,5.74.826,1.256,2.317,1.74,3.558,2.28-.968,1.007-1.2,2.493-1.785,3.745a2.68,2.68,0,0,1-1.333,1.531,1.559,1.559,0,0,0-.7.28c-.232.24-.288.508-.584.715a3.3,3.3,0,0,1-4.083-.315,2.665,2.665,0,0,1,.09-3.494c-1.262-.526-3.561-1.2-3.059-3.168-2.734-.182-9.373-4.616-5.7-7.856-2.014-1.138-3.864-3.92-2.571-6.372,1-1.888,3.313-2.732,5.214-2.832" transform="translate(1146.115 937.264)"/></g></svg>