<svg xmlns="http://www.w3.org/2000/svg" width="47.174" height="54.127" viewBox="0 0 47.174 54.127"><path id="Path_12349" fill="#2033a0" d="M1047.95,621.379c0-.013,0-.024,0-.036s0-.05,0-.075-.006-.043-.01-.065-.008-.053-.015-.081l-.018-.066c-.007-.021-.015-.04-.021-.061s-.02-.051-.031-.076a.742.742,0,0,0-.035-.069.24.24,0,0,0-.012-.027c-.006-.01-.013-.017-.019-.026s-.026-.042-.04-.063-.033-.042-.051-.063a.673.673,0,0,0-.045-.052c-.015-.016-.03-.032-.047-.047s-.039-.035-.059-.052-.038-.031-.058-.045-.039-.026-.059-.039-.02-.016-.031-.022l-22.471-12.974c-.012-.007-.024-.01-.035-.017l-.06-.03a.724.724,0,0,0-.072-.029.609.609,0,0,0-.073-.025.483.483,0,0,0-.061-.016c-.024-.006-.049-.01-.073-.014l-.078-.012c-.024,0-.047,0-.071,0s-.023,0-.035,0-.023,0-.036,0-.048,0-.072,0l-.078.012c-.023,0-.047.008-.07.013s-.042.011-.063.017l-.074.025c-.023.009-.046.017-.068.027s-.043.022-.065.032-.022.009-.033.016l-22.471,12.974h0l0,0a1.058,1.058,0,0,0-.206.159.686.686,0,0,0-.05.053,1.092,1.092,0,0,0-.12.157c-.013.021-.026.04-.038.062a1.068,1.068,0,0,0-.1.238v0a1.1,1.1,0,0,0-.035.261c0,.01,0,.02,0,.029v25.948c0,.012,0,.024,0,.036a.7.7,0,0,0,0,.071c0,.025.007.05.011.075a.666.666,0,0,0,.014.074c.005.021.01.041.016.062s.016.048.025.072a.753.753,0,0,0,.029.071c.009.022.02.043.031.063s.009.022.015.033.013.016.018.024.026.043.041.064a1.072,1.072,0,0,0,.071.088c.018.02.032.042.05.059l.021.017a1.056,1.056,0,0,0,.083.067,1.012,1.012,0,0,0,.094.068c.01.008.02.017.031.023l22.471,12.974a1.138,1.138,0,0,0,.272.112,1.1,1.1,0,0,0,.285.037h0a1.071,1.071,0,0,0,.215-.028c.023,0,.047,0,.07-.008s.068-.029.1-.042a1.1,1.1,0,0,0,.167-.069l.005,0,22.471-12.974a.341.341,0,0,0,.031-.023,1.025,1.025,0,0,0,.094-.068,1,1,0,0,0,.082-.067h0a.216.216,0,0,1,.02-.016c.018-.018.032-.04.05-.06a1.066,1.066,0,0,0,.071-.088c.016-.021.028-.043.042-.064s.013-.015.018-.024.009-.022.014-.033.022-.041.032-.063.02-.047.029-.071.018-.048.024-.072.012-.042.017-.062.01-.049.014-.074.009-.05.011-.075,0-.047,0-.071,0-.024,0-.036Zm-11.085,4.445-11.386-6.542v-8.943l19.12,11.038Zm-13.618-6.541-11.357,6.557-7.762-4.463,19.12-11.038Zm-11.387,23.588,8.1,4.678a1.116,1.116,0,1,0,1.116-1.934l-8.1-4.678v-8.5a1.116,1.116,0,0,0-2.232,0v8.5l-7.737,4.457V623.308l8.1,4.657a1.109,1.109,0,0,0,.414.239l11.724,6.741V648.29a1.106,1.106,0,0,0,.032.256,1.084,1.084,0,0,0-.032.255v9.565l-19.121-11.039Zm12.5-9.859-10.236-5.885,10.144-5.857c.03,0,.06.008.092.008a.931.931,0,0,0,.1-.01l10.168,5.841Zm1.084,15.534a1.119,1.119,0,0,0,.032-.256V634.945l11.936-6.863,0,0,8.3-4.773v22.088l-7.736-4.457v-8.5a1.116,1.116,0,0,0-2.232,0v8.5l-8.1,4.677a1.116,1.116,0,0,0,1.116,1.934l8.1-4.678,7.734,4.456-19.121,11.039V648.8A1.1,1.1,0,0,0,1025.447,648.546Z" data-name="Path 12349" transform="translate(-1000.776 -607.289)"/></svg>