<svg xmlns="http://www.w3.org/2000/svg" width="35" height="35" viewBox="0 0 35 35"><defs><style>.a{fill:#4a59a8}.b{fill:#2033a0}.c{fill:#fff;stroke:#fff;stroke-width:.4px;opacity:.195}</style></defs><circle cx="17.5" cy="17.5" r="17.5" class="a"/><path d="M7.026,19.009" class="b" transform="translate(1.113 3.552)"/><path d="M1016.277,611.919s0-.008,0-.012a.211.211,0,0,0,0-.025c0-.007,0-.014,0-.022s0-.017,0-.026,0-.015-.006-.022l-.007-.02-.01-.025a.2.2,0,0,0-.012-.023.06.06,0,0,0,0-.009.091.091,0,0,0-.006-.009l-.013-.021-.017-.021-.015-.017-.015-.015-.02-.017-.019-.015-.019-.013-.01-.007-7.384-4.263-.012-.005-.02-.01-.024-.009-.024-.008-.02-.005-.024,0-.026,0h-.07l-.026,0-.023,0-.021.006-.024.008-.022.009-.021.011-.011.005-7.384,4.263h0a.339.339,0,0,0-.068.052.2.2,0,0,0-.016.017.355.355,0,0,0-.039.052l-.013.02a.348.348,0,0,0-.032.078h0a.363.363,0,0,0-.012.086s0,.007,0,.01v8.526s0,.008,0,.012,0,.016,0,.023,0,.016,0,.025,0,.016,0,.024l.005.02.009.024c0,.008.006.016.009.023l.01.021s0,.007.005.011l.006.008.014.021c.007.01.015.019.024.029s.01.014.016.019l.007.006.027.022.031.022.01.008,7.384,4.263a.378.378,0,0,0,.089.037.36.36,0,0,0,.094.012h0a.356.356,0,0,0,.07-.009l.023,0c.012,0,.022-.009.034-.014a.372.372,0,0,0,.055-.023h0l7.384-4.263.01-.008a.317.317,0,0,0,.031-.022l.027-.022h0l.006-.005c.006-.006.011-.013.016-.02a.37.37,0,0,0,.023-.029l.014-.021.006-.008,0-.011.01-.021c0-.008.006-.015.009-.023l.008-.024.006-.02c0-.008,0-.016,0-.024a.217.217,0,0,0,0-.025.21.21,0,0,0,0-.023s0-.008,0-.012Zm-3.643,1.46-3.741-2.15v-2.939l6.282,3.627Zm-4.475-2.149-3.732,2.154-2.551-1.466,6.283-3.627Zm-3.742,7.751,2.662,1.537a.367.367,0,1,0,.367-.635l-2.662-1.537v-2.794a.367.367,0,1,0-.733,0v2.794l-2.542,1.465v-7.258l2.662,1.53a.364.364,0,0,0,.136.079l3.852,2.215v4.385a.368.368,0,0,0,.01.084.363.363,0,0,0-.01.084v3.143l-6.283-3.627Zm4.108-3.24-3.364-1.934,3.333-1.925.03,0a.307.307,0,0,0,.031,0l3.341,1.919Zm.356,5.1a.368.368,0,0,0,.011-.084v-4.385l3.922-2.255h0l2.727-1.568v7.258L1013,618.346v-2.794a.367.367,0,1,0-.734,0v2.794l-2.662,1.537a.367.367,0,0,0,.367.635l2.662-1.537,2.541,1.464-6.283,3.627V620.93A.363.363,0,0,0,1008.882,620.846Z" class="c" transform="translate(-990.683 -597.788)"/></svg>