<svg xmlns="http://www.w3.org/2000/svg" width="200.443" height="55.407" viewBox="0 0 200.443 55.407"><defs><style>.a{fill:#fff;}.b{fill:#ff276a;}</style></defs><g transform="translate(-699.202 -443.706)"><path class="a" d="M712.582,443.706H742.66a13.379,13.379,0,0,1,13.378,13.378v28.65a13.379,13.379,0,0,1-13.378,13.378H712.582a13.38,13.38,0,0,1-13.38-13.378v-28.65a13.38,13.38,0,0,1,13.38-13.378" transform="translate(0 0)"/><path class="b" d="M721.242,463.263a.864.864,0,0,0-.167-.017,2.14,2.14,0,1,1,2.14-2.14.958.958,0,0,0,.95.911h3.244a.908.908,0,0,0,.906-.9,7.214,7.214,0,0,0-6.328-7.18v-1.47a8.746,8.746,0,0,1,7.79,8.648.905.905,0,0,0,1.81,0,10.541,10.541,0,0,0-10.5-10.509c-.031,0-.066,0-.1,0a.9.9,0,0,0-.816.9.465.465,0,0,0,0,.068v3.109a.845.845,0,0,0,0,.091.908.908,0,0,0,.906.908,5.429,5.429,0,0,1,5.352,4.52h-1.519a3.948,3.948,0,1,0-4.024,4.845,1.016,1.016,0,0,0,.183.019,8.738,8.738,0,0,1,8.65,7.8h-1.472a7.208,7.208,0,0,0-7.177-6.342,5.442,5.442,0,0,1-5.42-5.436.912.912,0,0,0-.908-.911h-3.225a.89.89,0,0,0-.361.077.908.908,0,0,0-.588.846,10.568,10.568,0,0,0,10.337,10.506.775.775,0,0,0,.17.016,2.14,2.14,0,1,1-2.141,2.141.907.907,0,0,0-.9-.906h-3.285a.907.907,0,0,0-.906.906,7.212,7.212,0,0,0,6.331,7.175v1.472a8.748,8.748,0,0,1-7.795-8.65.905.905,0,1,0-1.81,0,10.537,10.537,0,0,0,10.5,10.516.9.9,0,0,0,.9-.8.848.848,0,0,0,.009-.128V480.1a.907.907,0,0,0-.906-.9,5.432,5.432,0,0,1-5.352-4.52h1.5a3.949,3.949,0,1,0,4.026-4.845.789.789,0,0,0-.181-.019,8.739,8.739,0,0,1-8.653-7.8h1.473a7.209,7.209,0,0,0,7.177,6.343,5.437,5.437,0,0,1,5.422,5.439.907.907,0,0,0,.906.9h3.239a.963.963,0,0,0,.944-.922,10.569,10.569,0,0,0-10.339-10.506" transform="translate(6.544 3.968)"/><g transform="translate(771.452 458.901)"><path class="a" d="M756.738,482.453a13.664,13.664,0,0,1-7.859-2.166,8.675,8.675,0,0,1-3.821-6.064l6.074-1.393a5.144,5.144,0,0,0,1.875,3.577,6.2,6.2,0,0,0,3.967,1.245,5.122,5.122,0,0,0,3.1-.871,2.938,2.938,0,0,0,1.175-2.576,2.75,2.75,0,0,0-1-2.1,6.546,6.546,0,0,0-1.99-1.283q-.99-.385-3.186-1.049c-.2-.066-.339-.112-.43-.134q-1.12-.352-1.8-.589t-1.7-.655a11.248,11.248,0,0,1-1.646-.823,12.579,12.579,0,0,1-1.363-1.019,5.412,5.412,0,0,1-1.136-1.3,6.936,6.936,0,0,1-.685-1.628,7.225,7.225,0,0,1-.274-2.018,7.578,7.578,0,0,1,1.324-4.457,8.112,8.112,0,0,1,3.566-2.844,13,13,0,0,1,5.106-.95,16,16,0,0,1,3.693.413,12.777,12.777,0,0,1,3.3,1.264,8.081,8.081,0,0,1,2.636,2.33,8.782,8.782,0,0,1,1.5,3.441l-5.683,1.41a4.607,4.607,0,0,0-5.1-4.057h0a5.588,5.588,0,0,0-3.154.824A2.788,2.788,0,0,0,752,461.466q0,1.548,2.058,2.507a30.516,30.516,0,0,0,3.94,1.353c.77.235,1.4.432,1.881.589s1.092.384,1.821.684a12.885,12.885,0,0,1,1.784.873,13.269,13.269,0,0,1,1.491,1.089,5.826,5.826,0,0,1,1.264,1.41,7.677,7.677,0,0,1,.775,1.754,7.381,7.381,0,0,1,.314,2.185,8.553,8.553,0,0,1-.57,3.2,6.949,6.949,0,0,1-1.557,2.409,9.059,9.059,0,0,1-2.343,1.656,11.388,11.388,0,0,1-2.88.98,16.762,16.762,0,0,1-3.235.3" transform="translate(-745.058 -453.35)"/><path class="a" d="M776.4,458.781h5.781l-12.431,29.64h-5.724l4.607-10.3-8.294-19.325h6.154l4.8,13.246Z" transform="translate(-736.263 -450.223)"/><path class="a" d="M792.634,473.617a18.847,18.847,0,0,0,.49,4.919v.548H787.85l-.451-2.2a6.529,6.529,0,0,1-2.822,1.941,10.355,10.355,0,0,1-3.646.648,9.4,9.4,0,0,1-1.88-.178,6.408,6.408,0,0,1-1.7-.594,5.188,5.188,0,0,1-1.4-1.049,4.552,4.552,0,0,1-.937-1.607,6.4,6.4,0,0,1-.355-2.185,6.112,6.112,0,0,1,.373-2.182,5.122,5.122,0,0,1,.98-1.638,5.951,5.951,0,0,1,1.588-1.194,11.976,11.976,0,0,1,2-.862,23.9,23.9,0,0,1,2.392-.629l3.312-.744a3.626,3.626,0,0,0,1.5-.638,1.268,1.268,0,0,0,.441-1.008,2.078,2.078,0,0,0-.99-1.941,4.648,4.648,0,0,0-2.4-.589q-3.467,0-3.939,3.077l-5-.9a6.783,6.783,0,0,1,2.923-4.6,11.622,11.622,0,0,1,6.331-1.478q8.466,0,8.467,7.271Zm-9.937,2.037a4.538,4.538,0,0,0,3.488-1.459,6.141,6.141,0,0,0,1.352-4.322l-4.782,1.352a5.653,5.653,0,0,0-2.006.822,1.7,1.7,0,0,0-.7,1.451,1.88,1.88,0,0,0,.745,1.6,3.079,3.079,0,0,0,1.9.559Z" transform="translate(-728.018 -450.372)"/><path class="a" d="M794.959,462.065a6.544,6.544,0,0,1,2.647-2.42,8.062,8.062,0,0,1,3.939-1.008v5.037a7.643,7.643,0,0,0-4.818,1.213,5.3,5.3,0,0,0-1.487,4.312v9.819h-5.685V458.865h5.409Z" transform="translate(-719.446 -450.307)"/><path class="a" d="M811.084,458.536a9.811,9.811,0,0,1,3.763.725,9.4,9.4,0,0,1,3.087,2.04,9.212,9.212,0,0,1,2.086,3.321,13.131,13.131,0,0,1,0,8.837,9.209,9.209,0,0,1-2.086,3.323,9.414,9.414,0,0,1-3.087,2.037,9.836,9.836,0,0,1-3.763.726,8.8,8.8,0,0,1-3.646-.745,5.713,5.713,0,0,1-2.527-2.116v12.19h-5.644V458.922h5.351l.158,2.707a5.516,5.516,0,0,1,2.516-2.286,8.681,8.681,0,0,1,3.792-.807m-1.275,16.323a5.069,5.069,0,0,0,3.811-1.577,6.69,6.69,0,0,0,0-8.488,5.4,5.4,0,0,0-7.629,0l-.023.025a6.575,6.575,0,0,0,0,8.428,5.084,5.084,0,0,0,3.841,1.609Z" transform="translate(-713.856 -450.365)"/><path class="a" d="M832.675,473.617a18.783,18.783,0,0,0,.488,4.919v.548h-5.272l-.451-2.2a6.525,6.525,0,0,1-2.824,1.941,10.373,10.373,0,0,1-3.643.648,9.428,9.428,0,0,1-1.883-.178,6.471,6.471,0,0,1-1.7-.594,5.219,5.219,0,0,1-1.4-1.049,4.572,4.572,0,0,1-.936-1.607,6.354,6.354,0,0,1-.354-2.185,6.066,6.066,0,0,1,.375-2.182,5.068,5.068,0,0,1,.978-1.638,5.963,5.963,0,0,1,1.587-1.194,12.043,12.043,0,0,1,2-.862,24.131,24.131,0,0,1,2.392-.629l3.31-.744a3.633,3.633,0,0,0,1.5-.638,1.269,1.269,0,0,0,.443-1.008,2.081,2.081,0,0,0-.989-1.941,4.652,4.652,0,0,0-2.411-.589q-3.465,0-3.939,3.077l-4.995-.9a6.765,6.765,0,0,1,2.918-4.6,11.631,11.631,0,0,1,6.332-1.478q8.466,0,8.466,7.271Zm-9.937,2.037a4.544,4.544,0,0,0,3.49-1.459,6.163,6.163,0,0,0,1.35-4.322l-4.782,1.352a5.622,5.622,0,0,0-2.006.822,1.7,1.7,0,0,0-.7,1.451,1.879,1.879,0,0,0,.744,1.6,3.076,3.076,0,0,0,1.9.559Z" transform="translate(-704.97 -450.372)"/></g></g></svg>