<svg id="Group_3195" data-name="Group 3195" xmlns="http://www.w3.org/2000/svg" width="70.407" height="63.073" viewBox="0 0 70.407 63.073">
  <path id="Path_1369" data-name="Path 1369" d="M2.934,33.737V19.069H54.272v4.4h2.934V4.4a4.322,4.322,0,0,0-4.4-4.4H4.4A4.322,4.322,0,0,0,0,4.4V33.737a4.322,4.322,0,0,0,4.4,4.4h7.334V35.2H4.4A1.386,1.386,0,0,1,2.934,33.737Zm0-17.6V10.268H54.272v5.867ZM4.4,2.934h48.4A1.386,1.386,0,0,1,54.272,4.4V7.334H2.934V4.4A1.386,1.386,0,0,1,4.4,2.934Z" fill="#ff276a"/>
  <path id="Path_1370" data-name="Path 1370" d="M61.805,17H13.4A4.322,4.322,0,0,0,9,21.4V50.737a4.322,4.322,0,0,0,4.4,4.4h48.4a4.322,4.322,0,0,0,4.4-4.4V21.4A4.322,4.322,0,0,0,61.805,17Zm1.467,33.737A1.386,1.386,0,0,1,61.805,52.2H13.4a1.386,1.386,0,0,1-1.467-1.467V21.4A1.386,1.386,0,0,1,13.4,19.934h48.4A1.386,1.386,0,0,1,63.272,21.4Z" transform="translate(4.201 7.936)" fill="#ff276a"/>
  <rect id="Rectangle_1526" data-name="Rectangle 1526" width="7.334" height="2.934" transform="translate(20.535 49.872)" fill="#ff276a"/>
  <rect id="Rectangle_1527" data-name="Rectangle 1527" width="7.334" height="2.934" transform="translate(32.27 49.872)" fill="#ff276a"/>
  <rect id="Rectangle_1528" data-name="Rectangle 1528" width="7.334" height="2.934" transform="translate(44.005 49.872)" fill="#ff276a"/>
  <rect id="Rectangle_1529" data-name="Rectangle 1529" width="7.334" height="2.934" transform="translate(55.739 49.872)" fill="#ff276a"/>
  <path id="Path_1371" data-name="Path 1371" d="M41.067,22H39.6a6.6,6.6,0,0,0,0,13.2h1.467a6.6,6.6,0,0,0,0-13.2Zm0,10.268H39.6a3.667,3.667,0,1,1,0-7.334h1.467a3.667,3.667,0,1,1,0,7.334Z" transform="translate(15.405 10.27)" fill="#ff276a"/>
</svg>
