<svg xmlns="http://www.w3.org/2000/svg" xmlns:xlink="http://www.w3.org/1999/xlink" width="749.725" height="404.061" viewBox="0 0 749.725 404.061"><defs><style>.a,.b,.e{fill:none;}.a{clip-rule:evenodd;}.c{fill:#ffd801;}.d{opacity:0.37;}.e{stroke:#3c4eb1;stroke-miterlimit:10;stroke-width:3px;}.f{fill:#3a4c68;}.g{fill:#2f3b4f;}.h{fill:#88aad3;}.i{fill:#7392bf;}.j{fill:#b28b67;}.k{fill:#191847;}.l{fill:#997659;}.m{fill:#e4e4e4;}.n{fill:#c0ccda;}.o{fill:#d3dce6;}.p{fill:#d51953;}.q{fill:#ff276a;}.r{fill:#4e62bd;}.cu,.s,.u{fill:#fff;}.t{fill:#98a8e2;}.ac,.av,.aw,.u,.z{fill-rule:evenodd;}.v{clip-path:url(#a);}.w{fill:url(#b);}.x{clip-path:url(#c);}.y{fill:url(#d);}.z{fill:#febf00;}.aa{clip-path:url(#e);}.ab{fill:url(#f);}.ac{fill:#9e812b;opacity:0.36;}.ad{clip-path:url(#g);}.ae{fill:url(#h);}.af{clip-path:url(#i);}.ag{fill:url(#j);}.ah{clip-path:url(#k);}.ai{fill:url(#l);}.aj{clip-path:url(#m);}.ak{fill:url(#n);}.al{clip-path:url(#o);}.am{fill:url(#p);}.an{clip-path:url(#q);}.ao{fill:url(#r);}.ap{clip-path:url(#s);}.aq{fill:url(#t);}.ar{clip-path:url(#u);}.as{fill:url(#v);}.at{clip-path:url(#w);}.au{fill:url(#x);}.av{fill:#f5d000;}.aw{fill:#ebb000;}.ax{clip-path:url(#y);}.ay{fill:url(#z);}.az{clip-path:url(#aa);}.ba{fill:url(#ab);}.bb{clip-path:url(#ac);}.bc{fill:url(#ad);}.bd{clip-path:url(#ae);}.be{fill:url(#af);}.bf{clip-path:url(#ag);}.bg{fill:url(#ah);}.bh{clip-path:url(#ai);}.bi{fill:url(#aj);}.bj{fill:#d4a600;}.bk{clip-path:url(#ak);}.bl{fill:url(#al);}.bm{clip-path:url(#am);}.bn{clip-path:url(#bi);}.bo{clip-path:url(#bk);}.bp{clip-path:url(#bm);}.bq{fill:url(#bp);}.br{fill:url(#br);}.bs{fill:url(#cz);}.bt{fill:url(#ej);}.bu{fill:url(#fn);}.bv{fill:url(#fp);}.bw{fill:url(#fr);}.bx{clip-path:url(#gu);}.by{fill:url(#gv);}.bz{clip-path:url(#gw);}.ca{fill:url(#gx);}.cb{clip-path:url(#gy);}.cc{fill:url(#gz);}.cd{clip-path:url(#ha);}.ce{fill:url(#hb);}.cf{clip-path:url(#hc);}.cg{clip-path:url(#hg);}.ch{fill:url(#hh);}.ci{fill:url(#hj);}.cj{clip-path:url(#hm);}.ck{fill:url(#hp);}.cl{fill:url(#hr);}.cm{clip-path:url(#hs);}.cn{fill:url(#ht);}.co{clip-path:url(#hw);}.cp{fill:url(#hx);}.cq{clip-path:url(#hy);}.cr{fill:url(#hz);}.cs{clip-path:url(#ia);}.ct{fill:url(#ib);}.cu{font-size:19px;font-family:CerebriSans-Book, Cerebri Sans;}.cv{fill:#00baff;stroke:#00c4ff;stroke-width:0.2px;}.cw{fill:#35edd1;}.cx{fill:#08a2f4;}.cy{fill:#2f3676;}.cz{fill:#dde3e9;}.da{filter:url(#ig);}.db{filter:url(#ie);}.dc{filter:url(#ic);}</style><clipPath id="a"><path class="a" d="M1092.643,477.666a25.163,25.163,0,1,0,26.956-23.233,25.163,25.163,0,0,0-26.956,23.233" transform="translate(-1092.573 -454.363)"/></clipPath><linearGradient id="b" x1="0.321" y1="0.526" x2="-0.303" y2="0.618" gradientUnits="objectBoundingBox"><stop offset="0" stop-color="#ffd801"/><stop offset="1" stop-color="#fbff01"/></linearGradient><clipPath id="c"><path class="a" d="M1100.626,482.807a22.086,22.086,0,1,0,23.659-20.392,22.086,22.086,0,0,0-23.659,20.392" transform="translate(-1100.564 -462.353)"/></clipPath><linearGradient id="d" x1="0.032" y1="0.613" x2="1.078" y2="0.36" gradientUnits="objectBoundingBox"><stop offset="0" stop-color="#dea703"/><stop offset="1" stop-color="#fbfd01"/></linearGradient><clipPath id="e"><path class="a" d="M1112.83,508.8a19.47,19.47,0,0,0,4.7,3.608l28.307-12.778a19.6,19.6,0,0,0,.409-5.914Zm-4.982-9.4a19.408,19.408,0,0,0,3.524,7.687l34.559-15.6a19.4,19.4,0,0,0-3.442-7.724Zm-.395-5.1a19.585,19.585,0,0,0,0,2.108l33.055-14.922a19.439,19.439,0,0,0-1.577-1.395Z" transform="translate(-1107.424 -480.095)"/></clipPath><linearGradient id="f" x1="0.402" y1="0.543" x2="-0.431" y2="0.912" gradientUnits="objectBoundingBox"><stop offset="0" stop-color="#ffd801"/><stop offset="1" stop-color="#fff201"/></linearGradient><clipPath id="g"><path class="a" d="M992.552,500.034a27.858,27.858,0,1,0,27.858,27.859,27.858,27.858,0,0,0-27.858-27.859" transform="translate(-964.694 -500.034)"/></clipPath><linearGradient id="h" x1="0.459" y1="0.317" x2="0.316" y2="-0.323" xlink:href="#b"/><clipPath id="i"><path class="a" d="M997.135,508.025a24.451,24.451,0,1,0,24.452,24.451,24.451,24.451,0,0,0-24.452-24.451" transform="translate(-972.684 -508.025)"/></clipPath><linearGradient id="j" x1="0.347" y1="0.024" x2="0.689" y2="1.087" xlink:href="#d"/><clipPath id="k"><path class="a" d="M987.659,522.019a21.544,21.544,0,0,0-3.6,5.486l16.426,30.206a21.7,21.7,0,0,0,6.564-.033Zm9.966-6.27a21.494,21.494,0,0,0-8.2,4.52l20.054,36.878a21.485,21.485,0,0,0,8.246-4.433Zm5.6-.854a21.7,21.7,0,0,0-2.327.17l19.182,35.273a21.563,21.563,0,0,0,1.411-1.855Z" transform="translate(-984.061 -514.896)"/></clipPath><linearGradient id="l" x1="0.451" y1="0.406" x2="0.028" y2="-0.403" xlink:href="#f"/><clipPath id="m"><path class="a" d="M887.577,541.729a23.391,23.391,0,1,0,33.079,0,23.39,23.39,0,0,0-33.079,0" transform="translate(-880.726 -534.878)"/></clipPath><linearGradient id="n" x1="0.356" y1="0.408" x2="-0.149" y2="0.089" xlink:href="#b"/><clipPath id="o"><path class="a" d="M894.729,548.881a20.53,20.53,0,1,0,29.034,0,20.53,20.53,0,0,0-29.034,0" transform="translate(-888.716 -542.868)"/></clipPath><linearGradient id="p" x1="0.095" y1="0.292" x2="1" y2="0.757" xlink:href="#d"/><clipPath id="q"><path class="a" d="M895.647,578.717a18.094,18.094,0,0,0,1.121,5.393l27.686,8.181a18.217,18.217,0,0,0,3.877-3.916Zm2.194-9.639a18.042,18.042,0,0,0-2.183,7.552l33.8,9.988a18.035,18.035,0,0,0,2.263-7.528Zm2.819-3.832a18.193,18.193,0,0,0-1.281,1.483l32.33,9.554a18.083,18.083,0,0,0-.263-1.939Z" transform="translate(-895.647 -565.246)"/></clipPath><linearGradient id="r" x1="0.386" y1="0.443" x2="-0.447" y2="0.026" xlink:href="#f"/><clipPath id="s"><path class="a" d="M1262.366,434.451c-14.178-11.588-23.145-24.073-20.027-27.888l-4.706,5.758c-3.118,3.815,5.849,16.3,20.027,27.888s28.2,17.888,31.316,14.074l4.706-5.759c-3.117,3.815-17.138-2.487-31.316-14.074" transform="translate(-1237.013 -406.563)"/></clipPath><linearGradient id="t" x1="0.391" y1="0.653" x2="0.461" y2="0.554" gradientUnits="objectBoundingBox"><stop offset="0" stop-color="#ebb000"/><stop offset="1" stop-color="#febf00"/></linearGradient><clipPath id="u"><path class="a" d="M1286.207,457.452a6.1,6.1,0,0,0,1.521-.075l3.861-4.724a13.825,13.825,0,0,1-1.406-.066Zm-5.85-1.381a21.881,21.881,0,0,0,4.38,1.217l4.012-4.908a23.819,23.819,0,0,1-4.321-1.29Zm-4.152-1.826q.864.425,1.738.82l4.091-5.006q-.871-.4-1.732-.827Zm-4.374-2.37q.493.29.992.573l4.1-5.021q-.5-.284-.991-.575Zm-4.177-2.611q.475.313.953.622l4.108-5.027q-.477-.309-.952-.623Zm-4.026-2.8q.458.333.92.663l4.11-5.03q-.461-.329-.919-.663Zm-3.892-2.96q.443.351.89.7l4.111-5.031q-.446-.347-.89-.7Zm-3.77-3.109q.429.368.862.733l4.112-5.032q-.433-.364-.862-.732Zm-3.646-3.262q.414.387.832.769l4.111-5.03q-.418-.382-.832-.768Zm-3.508-3.43q.4.406.8.81l4.109-5.028q-.4-.4-.8-.809Zm-3.351-3.623q.376.432.759.858l4.105-5.023q-.384-.425-.761-.856Zm-3.137-3.885q.347.467.7.928l4.1-5.012q-.358-.459-.705-.924Zm-2.805-4.29c.193.353.4.7.605,1.047l4.037-4.94c-.209-.322-.421-.662-.629-1.017Zm-1.847-5.463a6.607,6.607,0,0,0,.228,1.508l3.943-4.825a12.21,12.21,0,0,1-.309-1.409Z" transform="translate(-1237.671 -411.721)"/></clipPath><linearGradient id="v" x1="0.408" y1="0.633" x2="0.476" y2="0.535" gradientUnits="objectBoundingBox"><stop offset="0" stop-color="#f5d000"/><stop offset="1" stop-color="#ffec01"/></linearGradient><clipPath id="w"><path class="a" d="M1278.033,419.6c14.178,11.588,23.145,24.073,20.027,27.887s-17.138-2.487-31.316-14.074-23.145-24.073-20.027-27.887,17.138,2.487,31.316,14.074" transform="translate(-1246.099 -404.414)"/></clipPath><linearGradient id="x" x1="0.516" y1="0.387" x2="0.473" y2="0.691" gradientUnits="objectBoundingBox"><stop offset="0" stop-color="#ffd801"/><stop offset="1" stop-color="#ffec01"/></linearGradient><clipPath id="y"><path class="a" d="M1306.223,451.863a25.158,25.158,0,0,1,1.614,2.412l-8.936,1.058q-1.1-.622-2.288-1.348Zm-10.587-11.157a91.767,91.767,0,0,1,9.468,9.724l-10.48,2.3a128.439,128.439,0,0,1-11.066-8.147q-1.312-1.072-2.56-2.142Zm-5.238-4.5q1.584,1.294,3.073,2.583l-14.656,1.735c-1.284-1.147-2.5-2.279-3.642-3.385l13.332-2.454Q1289.446,435.433,1290.4,436.21Z" transform="translate(-1275.172 -434.689)"/></clipPath><linearGradient id="z" x1="0.63" y1="0.118" x2="0.36" y2="0.91" xlink:href="#v"/><clipPath id="aa"><path class="a" d="M1411.5,506.89a29.946,29.946,0,1,0,32.08-27.649,29.946,29.946,0,0,0-32.08,27.649" transform="translate(-1411.417 -479.158)"/></clipPath><linearGradient id="ab" x1="0.321" y1="0.526" x2="-0.303" y2="0.618" xlink:href="#b"/><clipPath id="ac"><path class="a" d="M1419.481,511.489a26.284,26.284,0,1,0,28.156-24.268,26.284,26.284,0,0,0-28.156,24.268" transform="translate(-1419.408 -487.148)"/></clipPath><linearGradient id="ad" x1="0.032" y1="0.613" x2="1.078" y2="0.36" xlink:href="#d"/><clipPath id="ae"><path class="a" d="M1432.7,539.054a23.179,23.179,0,0,0,5.595,4.293l33.687-15.207a23.327,23.327,0,0,0,.487-7.039Zm-5.928-11.182a23.094,23.094,0,0,0,4.194,9.148l41.127-18.566a23.081,23.081,0,0,0-4.1-9.192Zm-.47-6.072a23.4,23.4,0,0,0,0,2.508l39.338-17.758a23.137,23.137,0,0,0-1.876-1.66Z" transform="translate(-1426.268 -504.89)"/></clipPath><linearGradient id="af" x1="0.402" y1="0.543" x2="-0.431" y2="0.912" xlink:href="#f"/><clipPath id="ag"><rect class="b" width="69.217" height="9.576"/></clipPath><linearGradient id="ah" x1="0.5" y1="0.833" x2="0.5" y2="0.073" gradientUnits="objectBoundingBox"><stop offset="0" stop-color="#febf00"/><stop offset="1" stop-color="#fdbe00"/></linearGradient><clipPath id="ai"><rect class="b" width="69.217" height="0.696"/></clipPath><linearGradient id="aj" x1="0.531" y1="8.07" x2="0.435" y2="-15.512" xlink:href="#b"/><clipPath id="ak"><rect class="b" width="1.056" height="7.524"/></clipPath><linearGradient id="al" x1="0.5" y1="0.427" x2="0.5" y2="-0.136" gradientUnits="objectBoundingBox"><stop offset="0" stop-color="#ffd801"/><stop offset="1" stop-color="#fbfd01"/></linearGradient><clipPath id="am"><rect class="c" width="1.056" height="7.524"/></clipPath><clipPath id="bi"><rect class="b" width="2.508" height="7.524"/></clipPath><clipPath id="bk"><rect class="b" width="5.138" height="7.524"/></clipPath><clipPath id="bm"><rect class="b" width="2.065" height="7.524"/></clipPath><linearGradient id="bp" x1="0.5" y1="0.833" x2="0.5" y2="0.073" xlink:href="#ah"/><linearGradient id="br" x1="0.531" y1="8.069" x2="0.435" y2="-15.512" xlink:href="#b"/><linearGradient id="cz" x1="0.531" y1="8.07" x2="0.435" y2="-15.512" xlink:href="#b"/><linearGradient id="ej" x1="0.5" y1="0.427" x2="0.5" y2="-0.136" xlink:href="#al"/><linearGradient id="fn" x1="0.5" y1="0.833" x2="0.5" y2="0.073" xlink:href="#ah"/><linearGradient id="fp" x1="0.531" y1="8.07" x2="0.435" y2="-15.511" xlink:href="#b"/><linearGradient id="fr" x1="0.5" y1="0.427" x2="0.5" y2="-0.136" xlink:href="#al"/><clipPath id="gu"><rect class="b" width="9.576" height="69.217" transform="matrix(0.875, -0.484, 0.484, 0.875, 0, 4.639)"/></clipPath><linearGradient id="gv" x1="0.433" y1="0.524" x2="0.585" y2="0.47" xlink:href="#ah"/><clipPath id="gw"><rect class="b" width="0.696" height="69.217" transform="matrix(0.875, -0.484, 0.484, 0.875, 0, 0.337)"/></clipPath><linearGradient id="gx" x1="0.395" y1="0.573" x2="0.721" y2="0.346" xlink:href="#b"/><clipPath id="gy"><rect class="b" width="7.524" height="1.056" transform="translate(0 3.645) rotate(-28.973)"/></clipPath><linearGradient id="gz" x1="0.568" y1="0.442" x2="1.09" y2="-0.008" xlink:href="#al"/><clipPath id="ha"><rect class="c" width="7.524" height="1.056" transform="translate(0 3.645) rotate(-28.971)"/></clipPath><linearGradient id="hb" x1="0.568" y1="0.442" x2="1.09" y2="-0.008" xlink:href="#al"/><clipPath id="hc"><rect class="b" width="7.524" height="1.056" transform="matrix(0.875, -0.484, 0.484, 0.875, 0, 3.645)"/></clipPath><clipPath id="hg"><rect class="b" width="7.524" height="1.056" transform="translate(0 3.645) rotate(-28.975)"/></clipPath><linearGradient id="hh" x1="0.568" y1="0.442" x2="1.091" y2="-0.007" xlink:href="#al"/><linearGradient id="hj" x1="0.568" y1="0.442" x2="1.091" y2="-0.007" xlink:href="#al"/><clipPath id="hm"><rect class="b" width="7.524" height="1.056" transform="translate(0 3.645) rotate(-28.971)"/></clipPath><linearGradient id="hp" x1="0.568" y1="0.442" x2="1.091" y2="-0.008" xlink:href="#al"/><linearGradient id="hr" x1="0.568" y1="0.442" x2="1.09" y2="-0.008" xlink:href="#al"/><clipPath id="hs"><rect class="b" width="7.524" height="1.056" transform="translate(0 3.644) rotate(-28.971)"/></clipPath><linearGradient id="ht" x1="0.568" y1="0.442" x2="1.09" y2="-0.008" xlink:href="#al"/><clipPath id="hw"><rect class="b" width="7.524" height="2.508" transform="matrix(0.875, -0.484, 0.484, 0.875, 0, 3.645)"/></clipPath><linearGradient id="hx" x1="0.562" y1="0.454" x2="1.037" y2="0.103" xlink:href="#al"/><clipPath id="hy"><rect class="b" width="7.524" height="5.138" transform="translate(0 3.645) rotate(-28.972)"/></clipPath><linearGradient id="hz" x1="0.553" y1="0.467" x2="0.962" y2="0.215" xlink:href="#al"/><clipPath id="ia"><rect class="b" width="7.524" height="2.065" transform="translate(0 3.645) rotate(-28.973)"/></clipPath><linearGradient id="ib" x1="0.563" y1="0.451" x2="1.052" y2="0.075" xlink:href="#al"/><filter id="ic" x="201.725" y="280.062" width="104" height="104" filterUnits="userSpaceOnUse"><feOffset dy="3" input="SourceAlpha"/><feGaussianBlur stdDeviation="3" result="id"/><feFlood flood-color="#2033a0" flood-opacity="0.141"/><feComposite operator="in" in2="id"/><feComposite in="SourceGraphic"/></filter><filter id="ie" x="299.725" y="282.062" width="104" height="104" filterUnits="userSpaceOnUse"><feOffset dy="3" input="SourceAlpha"/><feGaussianBlur stdDeviation="3" result="if"/><feFlood flood-color="#2033a0" flood-opacity="0.141"/><feComposite operator="in" in2="if"/><feComposite in="SourceGraphic"/></filter><filter id="ig" x="397.725" y="282.062" width="104" height="104" filterUnits="userSpaceOnUse"><feOffset dy="3" input="SourceAlpha"/><feGaussianBlur stdDeviation="3" result="ih"/><feFlood flood-color="#2033a0" flood-opacity="0.141"/><feComposite operator="in" in2="ih"/><feComposite in="SourceGraphic"/></filter></defs><g transform="translate(-888.275 -209.964)"><g class="d" transform="translate(764 338.513)"><path class="e" d="M264.512,73.5V54a3,3,0,0,0-3-3H212a3,3,0,0,0-3,3V84.007a3,3,0,0,0,3,3h7.5" transform="translate(-0.014 0)"/><line class="e" x1="55" transform="translate(208.999 58.513)"/><line class="e" x1="55" transform="translate(208.999 67.513)"/><rect class="e" width="55" height="36" rx="2" transform="translate(222.999 76.513)"/><line class="e" x2="9" transform="translate(226.999 101.513)"/><line class="e" x2="8" transform="translate(240.999 101.513)"/><line class="e" x2="8" transform="translate(252 101.513)"/><line class="e" x2="9" transform="translate(264 101.513)"/><path class="e" d="M254,78.251a5.251,5.251,0,0,1-5.251,5.251h-1.5A5.251,5.251,0,0,1,242,78.251h0A5.251,5.251,0,0,1,247.251,73h1.5A5.251,5.251,0,0,1,254,78.251Z" transform="translate(16.496 11.007)"/></g><g transform="translate(-58 28.026)"><g transform="translate(1123.44 353.651)"><g transform="translate(0.057 1.163)"><path class="f" d="M815,593.721l-11.75-1.7-.9-1.8,22.195-17.776v2.327Z" transform="translate(-802.353 -572.451)"/></g><g transform="translate(0)"><path class="g" d="M814.076,592.034l-11.792-1.98,9.793-19,12.459,1.189Z" transform="translate(-802.284 -571.054)"/></g><g transform="translate(2.139 1.243)"><path class="h" d="M814.291,589.854l-9.439-.915,8.3-16.392,9.968,1.242Z" transform="translate(-804.852 -572.547)"/></g><g transform="translate(2.665 1.462)"><path class="i" d="M814.372,589.608l-8.889-.955L813.1,572.81l9.511,1.023Z" transform="translate(-805.484 -572.81)"/></g></g><g transform="translate(1025.935 322)"><g transform="translate(35.868 16.658)"><path class="j" d="M0,44,5.311,20.788C2.349,17.528.344,13.533.679,9.056,1.645-3.842,20.8-1,24.521,5.505S27.8,28.529,22.989,29.693c-1.92.464-6.01-.673-10.173-3.025L15.429,44Z" transform="translate(0.196 0.342)"/></g><path class="k" d="M26.113,14.574a18.732,18.732,0,0,0-6.006-.664,10.33,10.33,0,0,0,.731-5.222,15.913,15.913,0,0,0-1.694-4.721,6.458,6.458,0,0,0-1.253-1.953A4.279,4.279,0,0,0,15.865.927a5.424,5.424,0,0,0-2.335,0c-.34.071-.644.227-.977.313S12.046,1.113,11.8.9A4.269,4.269,0,0,0,9.573.035a5.739,5.739,0,0,0-2.532.3A4.957,4.957,0,0,0,4.932,1.691a3.537,3.537,0,0,0-.632.969c-.061.147-.071.234-.218.288s-.295.051-.435.1A5.469,5.469,0,0,0,.5,5.9,9.036,9.036,0,0,0,.008,9.609,16.142,16.142,0,0,0,2.76,16.668,8.78,8.78,0,0,0,7.3,19.23a12.978,12.978,0,0,0-2.37,4.42A21.632,21.632,0,0,0,3.841,29.02a17.526,17.526,0,0,0,.269,5.294,5.737,5.737,0,0,0,2.565,3.735,12.252,12.252,0,0,0,1.975.927,13,13,0,0,0,2.034.652,4.082,4.082,0,0,0,3.864-.826,7.254,7.254,0,0,0,1.038-1.319c.1-.167.154-.276.037-.439a3.137,3.137,0,0,0-.547-.5,5.154,5.154,0,0,1-1.822-3.413c-.163-1.4.214-3.209,1.576-3.82,1.681-.755,3.533.112,5.027.919a8.219,8.219,0,0,1,3.983-5.287c2.262-1.137,4.857-1.27,7.181-2.246a4.284,4.284,0,0,0,1.668-1.061,2.158,2.158,0,0,0,.479-.784,1.269,1.269,0,0,0-.332-.985C31.843,18.314,28.075,15.172,26.113,14.574Z" transform="translate(27.084 0)"/><path class="l" d="M0,0,44.438,74.292,77.754,137.1H84.93L29.109,0Z" transform="translate(32.467 109.441)"/><g transform="translate(104.83 240.011)"><path class="m" d="M2.675,3.143a1.2,1.2,0,0,0-1.534.806L0,7.971a38.419,38.419,0,0,0,.539,4.721h33.73S35.584,8.346,32.751,8s-4.706-.626-4.706-.626L12.367.384a.6.6,0,0,0-.8.318L10.563,3.147A13.555,13.555,0,0,1,6.3,4.37Z" transform="translate(0 -0.332)"/></g><path class="n" d="M75.89,127.043l13.839-4.186S80.634,95.668,67.435,63.018,39.085,0,39.085,0H0S16.845,38.413,35.716,69.806A533.443,533.443,0,0,0,75.89,127.043Z" transform="translate(25.078 109.441)"/><path class="j" d="M77.006,0C72.811,26.107,64.722,59.461,63.959,60.491c-.509.686-10.3,73.227-10.137,73.131l6.112,1.954c.526.2,16.405-61.38,18.725-64.81C82.138,65.621,99.511,24.976,106.24,0Z" transform="translate(-47.458 109.441)"/><path class="o" d="M37.121,117.359l14.106,6.493S68.414,77.245,68.176,77.5A390.6,390.6,0,0,0,93.019,0H55.749c-5.89,36.65-9.78,56.9-9.878,57.283S37.121,117.359,37.121,117.359Z" transform="translate(-31.967 109.441)"/><path class="l" d="M34.626,13.075l9.118-5.009S45.663.763,48.332.717C49.021.4,48.759,1.8,48.66,3.2c-.1,1.381-.035,2.762,1.251,2.5C52.5,5.166,58.825.462,59.915,1.417c1.612,1.413.174,5.751-1.519,7.909-3.166,4.033-5.787,5.413-12.265,7.219-5.08,1.416-10.986,5.679-10.986,5.679ZM0,6.518,23.587,4.575A51.344,51.344,0,0,1,36.793,0c1.109.026,2.85.518.112,2.551s-5.527,4.3-5.12,5.479,2.87.88,3.181,2.683q.31,1.8-11.913-.044l-19.4,6.481Z" transform="matrix(0.848, -0.53, 0.53, 0.848, 68.19, 63.218)"/><path class="p" d="M3.292,3.806A51,51,0,0,0,31.547,0l2.6,9.584c-8.156,5.878-18.976,10.056-27.6,8.44A7.926,7.926,0,0,1,3.292,3.806Z" transform="matrix(0.934, -0.358, 0.358, 0.934, 58.627, 65.566)"/><path class="q" d="M1.943,84.088C12.751,81.96,44.9,92.77,50.385,81.1,61.243,58.01,41.092,26.058,39.064,0H22.47c-1.82,0-14.187,23.707-14.2,39.11C8.261,53.174-4.825,62.107,1.943,84.088Z" transform="translate(14.063 46.647)"/><path class="q" d="M21.052,0s-1.661,33.266,9.611,37.137S70.84,30.723,70.84,30.723s6.76,13.985,6.25,19.941C12.891,84.2-13.517,41.19,6.631,0Z" transform="matrix(0.848, -0.53, 0.53, 0.848, 30.881, 60.525)"/><path class="m" d="M2.675,2.811a1.2,1.2,0,0,0-1.534.806L0,7.639A38.419,38.419,0,0,0,.539,12.36h33.73s1.315-4.347-1.518-4.693-4.706-.626-4.706-.626L12.367.052a.6.6,0,0,0-.8.318L10.563,2.815A13.554,13.554,0,0,1,6.3,4.038Z" transform="matrix(0.996, 0.087, -0.087, 0.996, 1.077, 238.673)"/></g></g><g transform="translate(765 -2151.974)"><g transform="translate(-264 1971)"><g transform="translate(1061.511 578.374)"><path class="r" d="M1315.413,728.674l9.446,1.414-42.106,39.975Z" transform="translate(-1282.753 -715.8)"/><path class="s" d="M1309.177,706.968l-26.424,54.263,32.66-41.389Z" transform="translate(-1282.753 -706.968)"/><path class="t" d="M1324.86,731.058l-6.765,1.459-35.341,38.517Z" transform="translate(-1282.753 -716.77)"/><path class="s" d="M1331.245,743.743l-13.151-10.226-35.341,38.517Z" transform="translate(-1282.753 -717.771)"/></g><g transform="translate(739.033 390.938)"><path class="s" d="M739.6,769.769h-.029a.57.57,0,0,1-.542-.6l.031-.572a.57.57,0,1,1,1.139.066l-.031.563A.57.57,0,0,1,739.6,769.769Z" transform="translate(-739.033 -544.39)"/><path class="s" d="M740.1,612.332l-.054,0a.57.57,0,0,1-.515-.621q.053-.556.112-1.143a.57.57,0,1,1,1.135.116q-.059.582-.111,1.133A.57.57,0,0,1,740.1,612.332Zm.5-4.553a.569.569,0,0,1-.567-.641l.144-1.138a.571.571,0,0,1,1.132.145l-.144,1.133A.571.571,0,0,1,740.6,607.78Zm.613-4.537a.662.662,0,0,1-.083-.006.571.571,0,0,1-.482-.648q.082-.56.168-1.134a.57.57,0,1,1,1.128.17q-.086.571-.167,1.129A.571.571,0,0,1,741.214,603.242Zm.7-4.524a.557.557,0,0,1-.094-.008.571.571,0,0,1-.47-.655l.189-1.131a.571.571,0,1,1,1.125.19l-.187,1.126A.571.571,0,0,1,741.917,598.719Zm.781-4.51a.549.549,0,0,1-.1-.009.57.57,0,0,1-.46-.663l.207-1.128a.571.571,0,0,1,1.122.209l-.206,1.122A.571.571,0,0,1,742.7,594.209Zm.851-4.5a.537.537,0,0,1-.111-.011.57.57,0,0,1-.45-.67l.224-1.124a.57.57,0,1,1,1.119.225l-.223,1.12A.57.57,0,0,1,743.549,589.712Zm357.657-.238a.57.57,0,0,1-.442-.931q.355-.437.714-.887a.571.571,0,1,1,.891.712q-.362.454-.721.894A.569.569,0,0,1,1101.206,589.474Zm2.836-3.591a.57.57,0,0,1-.452-.918q.344-.448.692-.906a.57.57,0,0,1,.909.689q-.35.461-.7.912A.568.568,0,0,1,1104.042,585.883Zm-359.577-.654a.587.587,0,0,1-.119-.012.571.571,0,0,1-.44-.676l.24-1.12a.571.571,0,0,1,1.116.24l-.238,1.117A.571.571,0,0,1,744.465,585.229Zm362.316-3.009a.571.571,0,0,1-.461-.907q.334-.457.668-.923a.571.571,0,1,1,.927.666q-.338.469-.672.929A.572.572,0,0,1,1106.781,582.22Zm-361.337-1.461a.57.57,0,0,1-.558-.7l.254-1.117a.57.57,0,1,1,1.112.255L746,580.314A.57.57,0,0,1,745.444,580.759Zm363.984-2.272a.57.57,0,0,1-.469-.894q.322-.466.645-.941a.571.571,0,0,1,.943.643q-.326.476-.649.945A.57.57,0,0,1,1109.428,578.487ZM746.482,576.3a.582.582,0,0,1-.134-.016.57.57,0,0,1-.421-.688l.269-1.113a.57.57,0,0,1,1.109.27l-.269,1.11A.57.57,0,0,1,746.482,576.3Zm365.5-1.611a.571.571,0,0,1-.476-.884q.311-.473.622-.954a.57.57,0,0,1,.958.619q-.313.485-.626.963A.57.57,0,0,1,1111.982,574.692Zm-364.4-2.831a.58.58,0,0,1-.141-.017.571.571,0,0,1-.413-.693l.283-1.11a.57.57,0,1,1,1.1.284l-.282,1.106A.57.57,0,0,1,747.58,571.861Zm366.862-1.025a.571.571,0,0,1-.484-.872q.3-.482.6-.97a.57.57,0,0,1,.973.6q-.3.492-.6.977A.571.571,0,0,1,1114.442,570.836Zm-365.708-3.4a.579.579,0,0,1-.148-.02.57.57,0,0,1-.4-.7l.3-1.106a.571.571,0,0,1,1.1.3l-.3,1.1A.571.571,0,0,1,748.734,567.434Zm368.073-.513a.57.57,0,0,1-.49-.861q.287-.489.574-.984a.57.57,0,0,1,.987.572q-.288.5-.579.991A.57.57,0,0,1,1116.807,566.921Zm-366.861-3.9a.562.562,0,0,1-.155-.022.571.571,0,0,1-.394-.7l.312-1.1a.571.571,0,0,1,1.1.313l-.311,1.1A.571.571,0,0,1,749.946,563.022Zm369.13-.074a.571.571,0,0,1-.5-.848q.275-.5.549-1a.571.571,0,1,1,1,.547q-.276.505-.553,1.005A.57.57,0,0,1,1119.076,562.948Zm2.169-4.028a.571.571,0,0,1-.505-.834l.525-1.013a.57.57,0,0,1,1.014.522q-.263.512-.527,1.018A.569.569,0,0,1,1121.245,558.92Zm-370.03-.294a.571.571,0,0,1-.547-.732l.326-1.1a.57.57,0,1,1,1.093.326l-.325,1.095A.571.571,0,0,1,751.215,558.626Zm372.1-3.787a.57.57,0,0,1-.512-.822q.251-.51.5-1.024a.57.57,0,1,1,1.027.5q-.249.518-.5,1.031A.57.57,0,0,1,1123.31,554.839Zm-370.769-.591a.573.573,0,0,1-.546-.74l.341-1.093a.571.571,0,1,1,1.089.341l-.34,1.09A.571.571,0,0,1,752.54,554.248Zm372.729-3.541a.559.559,0,0,1-.237-.052.57.57,0,0,1-.282-.756q.237-.516.472-1.037a.57.57,0,1,1,1.04.469q-.236.524-.474,1.044A.57.57,0,0,1,1125.269,550.707Zm-371.347-.82a.571.571,0,0,1-.543-.747l.355-1.089a.57.57,0,1,1,1.084.355l-.354,1.085A.57.57,0,0,1,753.922,549.887Zm373.2-3.363a.565.565,0,0,1-.224-.046.571.571,0,0,1-.3-.749q.223-.523.444-1.05a.57.57,0,1,1,1.052.441q-.221.531-.446,1.057A.57.57,0,0,1,1127.12,546.524Zm-371.758-.979a.57.57,0,0,1-.54-.753l.37-1.085a.57.57,0,0,1,1.079.371l-.368,1.08A.571.571,0,0,1,755.362,545.544Zm373.495-3.251a.561.561,0,0,1-.209-.04.571.571,0,0,1-.322-.74q.208-.528.415-1.062a.57.57,0,0,1,1.064.412q-.207.536-.417,1.068A.571.571,0,0,1,1128.856,542.293Zm-372-1.071a.583.583,0,0,1-.191-.033.571.571,0,0,1-.347-.728l.384-1.079a.57.57,0,1,1,1.074.384l-.383,1.075A.57.57,0,0,1,756.86,541.222Zm373.615-3.206a.572.572,0,0,1-.537-.766q.195-.535.385-1.072a.57.57,0,1,1,1.075.381q-.192.542-.387,1.08A.573.573,0,0,1,1130.475,538.016Zm-372.058-1.1a.565.565,0,0,1-.2-.036.571.571,0,0,1-.338-.733l.4-1.073a.571.571,0,0,1,1.069.4l-.4,1.07A.571.571,0,0,1,758.417,536.921Zm373.555-3.226a.571.571,0,0,1-.542-.75q.179-.54.354-1.082a.571.571,0,1,1,1.087.35q-.176.547-.356,1.091A.571.571,0,0,1,1131.973,533.695Zm-371.94-1.053a.571.571,0,0,1-.532-.776l.414-1.068a.571.571,0,0,1,1.063.414l-.413,1.065A.571.571,0,0,1,760.033,532.642Zm151.2-1.125q-.48,0-.957-.008a.571.571,0,0,1,.021-1.141q.466.009.934.008h.2a.571.571,0,0,1,0,1.141Zm3.624-.126a.57.57,0,0,1-.039-1.139c.377-.027.753-.057,1.129-.092a.571.571,0,1,1,.1,1.136q-.577.053-1.154.094Zm-8-.055-.047,0q-.578-.048-1.153-.109a.571.571,0,0,1,.118-1.135q.563.059,1.129.106a.571.571,0,0,1-.047,1.139Zm12.543-.469a.571.571,0,0,1-.091-1.134q.559-.09,1.114-.193a.571.571,0,1,1,.209,1.122q-.569.105-1.14.2A.615.615,0,0,1,919.407,530.866Zm-17.08-.107a.6.6,0,0,1-.1-.008q-.571-.1-1.137-.208a.571.571,0,0,1,.218-1.12q.554.109,1.112.2a.571.571,0,0,1-.1,1.133Zm21.554-.834a.571.571,0,0,1-.144-1.123q.546-.142,1.09-.3a.571.571,0,1,1,.315,1.1q-.556.16-1.116.306A.585.585,0,0,1,923.881,529.925Zm-26.021-.138a.549.549,0,0,1-.147-.02q-.56-.149-1.114-.309a.571.571,0,1,1,.319-1.1c.36.1.724.206,1.088.3a.571.571,0,0,1-.146,1.122Zm235.468-.459a.585.585,0,0,1-.155-.021.571.571,0,0,1-.4-.7q.153-.545.3-1.1a.57.57,0,1,1,1.1.294q-.148.558-.3,1.109A.572.572,0,0,1,1133.328,529.327Zm-205.085-.775a.57.57,0,0,1-.2-1.105q.528-.2,1.054-.406a.57.57,0,1,1,.423,1.059q-.537.215-1.081.416A.571.571,0,0,1,928.243,528.552Zm-34.743-.144a.563.563,0,0,1-.2-.036q-.545-.2-1.081-.415a.571.571,0,0,1,.423-1.06q.522.208,1.054.4a.571.571,0,0,1-.2,1.106Zm-131.791-.023a.572.572,0,0,1-.529-.784l.43-1.062a.57.57,0,0,1,1.057.429l-.428,1.058A.571.571,0,0,1,761.709,528.385Zm170.733-1.645a.571.571,0,0,1-.254-1.082q.505-.25,1-.515a.571.571,0,1,1,.534,1.009q-.513.271-1.032.529A.565.565,0,0,1,932.442,526.74Zm-43.144-.135a.569.569,0,0,1-.251-.059q-.522-.258-1.033-.527a.571.571,0,1,1,.533-1.009q.5.262,1,.512a.571.571,0,0,1-.253,1.082Zm245.144-1.713a.584.584,0,0,1-.123-.013.571.571,0,0,1-.434-.681q.122-.552.238-1.111a.57.57,0,1,1,1.117.233q-.116.565-.241,1.125A.571.571,0,0,1,1134.442,524.892Zm-198.02-.4a.571.571,0,0,1-.309-1.051q.475-.3.942-.623a.571.571,0,1,1,.643.943q-.48.327-.968.641A.568.568,0,0,1,936.422,524.488Zm-51.1-.135a.566.566,0,0,1-.31-.092q-.49-.318-.964-.648a.571.571,0,0,1,.652-.937q.459.32.933.627a.571.571,0,0,1-.311,1.049Zm-121.875-.2a.571.571,0,0,1-.526-.791l.445-1.056a.571.571,0,1,1,1.051.445l-.444,1.052A.57.57,0,0,1,763.447,524.154ZM940.125,521.8a.571.571,0,0,1-.362-1.012q.435-.355.863-.725a.57.57,0,0,1,.747.862q-.44.381-.887.746A.565.565,0,0,1,940.125,521.8Zm-58.461-.187a.57.57,0,0,1-.373-.139q-.443-.383-.866-.78a.57.57,0,0,1,.78-.833q.407.381.833.75a.57.57,0,0,1-.374,1Zm253.651-1.211a.577.577,0,0,1-.1-.008.571.571,0,0,1-.468-.658q.1-.559.182-1.123a.57.57,0,0,1,1.128.174q-.089.572-.184,1.139A.571.571,0,0,1,1135.315,520.4Zm-370.067-.455a.571.571,0,0,1-.523-.8l.461-1.049a.571.571,0,0,1,1.044.461l-.459,1.044A.571.571,0,0,1,765.247,519.949Zm178.244-1.234a.571.571,0,0,1-.409-.969q.391-.4.773-.818a.57.57,0,1,1,.841.771q-.393.429-.8.844A.571.571,0,0,1,943.492,518.714Zm-65.029-.356a.569.569,0,0,1-.439-.206q-.375-.453-.725-.918a.57.57,0,0,1,.912-.686q.334.443.692.876a.57.57,0,0,1-.439.934Zm257.5-2.484a.529.529,0,0,1-.068,0,.57.57,0,0,1-.5-.633q.067-.563.126-1.131a.57.57,0,1,1,1.135.12q-.061.574-.128,1.145A.571.571,0,0,1,1135.96,515.875Zm-368.848-.1a.571.571,0,0,1-.519-.807l.477-1.042a.571.571,0,0,1,1.037.477l-.476,1.037A.57.57,0,0,1,767.112,515.772Zm179.37-.512a.57.57,0,0,1-.451-.918q.341-.444.672-.9a.571.571,0,0,1,.925.668q-.342.473-.694.931A.569.569,0,0,1,946.482,515.259ZM875.87,514.6a.57.57,0,0,1-.493-.282q-.292-.5-.57-1.013a.571.571,0,0,1,1-.543q.269.5.551.98a.57.57,0,0,1-.492.858Zm-106.83-2.976a.571.571,0,0,1-.515-.815l.493-1.034a.571.571,0,0,1,1.029.495l-.492,1.029A.57.57,0,0,1,769.04,511.624Zm180.011-.145a.57.57,0,0,1-.488-.865q.289-.481.57-.974a.57.57,0,1,1,.992.563q-.287.506-.584,1A.57.57,0,0,1,949.051,511.479Zm187.338-.16h-.04a.571.571,0,0,1-.531-.608q.04-.567.074-1.137a.571.571,0,0,1,1.139.068q-.035.576-.074,1.148A.571.571,0,0,1,1136.389,511.319Zm-262.568-.8a.571.571,0,0,1-.526-.347q-.226-.532-.439-1.075a.571.571,0,0,1,1.063-.415q.206.526.426,1.042a.57.57,0,0,1-.3.749A.561.561,0,0,1,873.822,510.516Zm-102.787-3.008a.571.571,0,0,1-.511-.824l.511-1.026a.571.571,0,1,1,1.021.511l-.508,1.021A.571.571,0,0,1,771.035,507.508Zm180.178-.057a.564.564,0,0,1-.244-.056.57.57,0,0,1-.27-.76q.242-.508.475-1.026a.571.571,0,1,1,1.041.468q-.239.529-.486,1.049A.569.569,0,0,1,951.212,507.451Zm185.4-.7h-.016a.571.571,0,0,1-.556-.585q.015-.568.024-1.138a.571.571,0,0,1,1.141.017c-.005.384-.013.769-.023,1.151A.572.572,0,0,1,1136.609,506.749Zm-264.333-.536a.57.57,0,0,1-.546-.407q-.165-.553-.316-1.114a.57.57,0,0,1,1.1-.3q.148.548.308,1.086a.57.57,0,0,1-.384.709A.556.556,0,0,1,872.276,506.214ZM773.1,503.425a.565.565,0,0,1-.261-.063.571.571,0,0,1-.246-.769l.527-1.017a.571.571,0,0,1,1.012.527l-.525,1.013A.571.571,0,0,1,773.1,503.425Zm179.9-.183a.571.571,0,0,1-.534-.772q.2-.528.388-1.064a.57.57,0,1,1,1.075.38q-.193.547-.4,1.085A.57.57,0,0,1,953,503.242Zm183.631-1.068a.571.571,0,0,1-.571-.56q-.01-.568-.026-1.138a.571.571,0,0,1,1.141-.031q.016.575.026,1.149a.571.571,0,0,1-.56.581Zm-265.426-.4a.57.57,0,0,1-.56-.465q-.107-.566-.2-1.14a.571.571,0,0,1,1.126-.184q.092.56.2,1.113a.571.571,0,0,1-.456.666A.538.538,0,0,1,871.2,501.772Zm-95.974-2.393a.57.57,0,0,1-.5-.841l.544-1.008a.571.571,0,0,1,1,.544l-.543,1A.57.57,0,0,1,775.229,499.378Zm179.207-.476a.572.572,0,0,1-.548-.73c.1-.362.206-.725.3-1.091a.571.571,0,0,1,1.1.3q-.151.56-.311,1.112A.572.572,0,0,1,954.436,498.9Zm182.019-1.3a.57.57,0,0,1-.569-.537q-.033-.567-.073-1.135a.571.571,0,0,1,.529-.609.562.562,0,0,1,.609.529q.041.575.074,1.148a.571.571,0,0,1-.536.6Zm-265.885-.361a.57.57,0,0,1-.568-.518q-.053-.573-.095-1.152a.571.571,0,0,1,1.139-.081q.04.567.092,1.127a.57.57,0,0,1-.515.621Zm-93.14-1.874a.57.57,0,0,1-.5-.85l.56-.993a.571.571,0,0,1,.993.563l-.558.989A.57.57,0,0,1,777.43,495.37Zm178.116-.9a.55.55,0,0,1-.119-.013.571.571,0,0,1-.439-.677q.118-.552.226-1.11a.571.571,0,0,1,1.12.218q-.11.568-.23,1.13A.572.572,0,0,1,955.546,494.466Zm180.545-1.421a.571.571,0,0,1-.568-.514q-.056-.564-.119-1.13a.571.571,0,0,1,1.134-.126q.064.572.121,1.144a.571.571,0,0,1-.511.625Zm-265.746-.367a.571.571,0,0,1-.571-.567v-.388c0-.254,0-.51.005-.766a.57.57,0,0,1,.57-.563h.008a.57.57,0,0,1,.563.578q-.005.377-.005.752v.381a.57.57,0,0,1-.567.574ZM779.7,491.415a.565.565,0,0,1-.288-.078.57.57,0,0,1-.2-.78l.579-.984a.571.571,0,0,1,.983.581l-.577.98A.57.57,0,0,1,779.7,491.415Zm176.646-1.451a.538.538,0,0,1-.081-.006.571.571,0,0,1-.485-.645q.08-.56.15-1.125a.571.571,0,1,1,1.132.142c-.048.382-.1.763-.152,1.143A.571.571,0,0,1,956.342,489.964Zm179.2-1.458a.571.571,0,0,1-.565-.49q-.079-.562-.165-1.126a.57.57,0,1,1,1.127-.171q.087.568.168,1.136a.571.571,0,0,1-.485.645A.536.536,0,0,1,1135.54,488.506Zm-265.042-.4h-.042a.572.572,0,0,1-.528-.611q.042-.573.095-1.149a.571.571,0,1,1,1.136.1q-.052.566-.093,1.129A.572.572,0,0,1,870.5,488.109Zm-88.463-.608a.564.564,0,0,1-.3-.084.57.57,0,0,1-.189-.784l.6-.973a.571.571,0,1,1,.971.6l-.6.969A.569.569,0,0,1,782.035,487.5Zm174.8-2.086-.043,0a.571.571,0,0,1-.527-.612q.043-.566.075-1.133a.571.571,0,1,1,1.139.065q-.033.578-.076,1.154A.571.571,0,0,1,956.832,485.415Zm177.973-1.423a.57.57,0,0,1-.56-.468q-.1-.558-.211-1.118a.571.571,0,1,1,1.12-.216q.109.565.213,1.129a.571.571,0,0,1-.458.664A.563.563,0,0,1,1134.805,483.992Zm-350.355-.361a.57.57,0,0,1-.48-.877q.307-.481.617-.963a.571.571,0,1,1,.959.619q-.309.479-.614.957A.569.569,0,0,1,784.451,483.631ZM871,483.565a.6.6,0,0,1-.085-.007.571.571,0,0,1-.481-.648q.084-.568.18-1.14a.571.571,0,0,1,1.126.189q-.094.56-.177,1.118A.571.571,0,0,1,871,483.565Zm86.016-2.724h0a.571.571,0,0,1-.566-.576l0-.549,0-.587a.57.57,0,0,1,.566-.575h0a.57.57,0,0,1,.571.566l0,.6,0,.559A.571.571,0,0,1,957.019,480.841Zm-170.076-1.032a.565.565,0,0,1-.316-.1.571.571,0,0,1-.158-.791l.636-.95a.571.571,0,1,1,.947.638l-.633.945A.57.57,0,0,1,786.943,479.809Zm346.945-.3a.57.57,0,0,1-.556-.445q-.125-.553-.256-1.108a.57.57,0,0,1,1.11-.263q.133.56.259,1.12a.571.571,0,0,1-.431.682A.617.617,0,0,1,1133.888,479.511Zm-262.054-.442a.558.558,0,0,1-.124-.014.571.571,0,0,1-.433-.68q.125-.561.259-1.123a.57.57,0,1,1,1.11.265q-.132.553-.254,1.1A.572.572,0,0,1,871.834,479.07Zm85.069-2.8a.57.57,0,0,1-.569-.537q-.034-.567-.076-1.134a.571.571,0,0,1,.527-.612.563.563,0,0,1,.611.527q.044.577.077,1.152a.571.571,0,0,1-.536.6Zm-167.39-.231a.571.571,0,0,1-.468-.9q.327-.47.657-.937a.571.571,0,0,1,.933.657q-.327.465-.653.932A.569.569,0,0,1,789.514,476.038Zm343.277-.966a.571.571,0,0,1-.55-.422q-.147-.55-.3-1.1a.57.57,0,1,1,1.1-.307q.154.554.3,1.108a.569.569,0,0,1-.4.7A.552.552,0,0,1,1132.791,475.072Zm-259.819-.431a.558.558,0,0,1-.161-.023.571.571,0,0,1-.387-.708q.161-.552.332-1.1a.571.571,0,0,1,1.09.337q-.168.544-.327,1.086A.57.57,0,0,1,872.972,474.641Zm-80.807-2.321a.571.571,0,0,1-.46-.907q.337-.462.677-.923a.571.571,0,0,1,.918.678q-.338.457-.673.918A.57.57,0,0,1,792.164,472.32Zm164.32-.608a.571.571,0,0,1-.565-.5q-.07-.562-.152-1.125a.571.571,0,0,1,1.13-.161q.083.572.154,1.145a.571.571,0,0,1-.5.637A.587.587,0,0,1,956.484,471.712Zm175.031-1.031a.572.572,0,0,1-.545-.4q-.168-.542-.344-1.083a.571.571,0,0,1,1.085-.352q.177.547.349,1.1a.571.571,0,0,1-.375.715A.562.562,0,0,1,1131.516,470.681ZM874.4,470.3a.571.571,0,0,1-.536-.766q.195-.539.4-1.079a.571.571,0,1,1,1.067.405q-.2.533-.4,1.064A.571.571,0,0,1,874.4,470.3Zm-79.5-1.636a.571.571,0,0,1-.453-.917q.347-.455.7-.907a.571.571,0,1,1,.9.7q-.349.45-.693.9A.57.57,0,0,1,794.9,468.661Zm160.86-1.466a.57.57,0,0,1-.559-.46q-.11-.557-.23-1.113a.571.571,0,0,1,1.116-.24q.121.564.234,1.13a.572.572,0,0,1-.449.671A.6.6,0,0,1,955.757,467.2Zm174.305-.85a.57.57,0,0,1-.537-.379q-.191-.534-.388-1.068a.57.57,0,0,1,1.069-.4q.2.54.394,1.081a.57.57,0,0,1-.537.763Zm-253.976-.3a.572.572,0,0,1-.524-.8q.229-.528.466-1.054a.571.571,0,0,1,1.04.47q-.235.519-.459,1.037A.571.571,0,0,1,876.086,466.049Zm-78.375-.985a.571.571,0,0,1-.445-.927q.358-.447.719-.892a.57.57,0,1,1,.886.719q-.358.442-.714.886A.569.569,0,0,1,797.711,465.064Zm157-2.323a.57.57,0,0,1-.55-.421q-.148-.547-.307-1.091a.571.571,0,1,1,1.1-.32q.162.555.313,1.113a.57.57,0,0,1-.551.719Zm173.716-.668a.571.571,0,0,1-.528-.356q-.214-.527-.433-1.052a.571.571,0,1,1,1.053-.44q.222.53.438,1.062a.571.571,0,0,1-.529.786Zm-250.4-.164a.57.57,0,0,1-.509-.828q.259-.512.526-1.024a.57.57,0,1,1,1.011.528q-.264.505-.519,1.01A.57.57,0,0,1,878.027,461.909Zm-77.418-.375a.571.571,0,0,1-.436-.938q.368-.439.74-.875a.571.571,0,0,1,.87.74q-.369.433-.736.869A.57.57,0,0,1,800.609,461.534Zm152.743-3.158a.571.571,0,0,1-.538-.381q-.188-.534-.388-1.065a.571.571,0,0,1,1.069-.4q.2.541.4,1.086a.571.571,0,0,1-.348.728A.56.56,0,0,1,953.352,458.376Zm-149.757-.3a.57.57,0,0,1-.427-.948q.379-.43.762-.856a.571.571,0,0,1,.85.761q-.38.425-.757.852A.573.573,0,0,1,803.6,458.072Zm76.608-.184a.57.57,0,0,1-.493-.856q.287-.5.582-.993a.571.571,0,0,1,.98.585q-.291.489-.575.979A.57.57,0,0,1,880.2,457.887Zm246.421-.014a.571.571,0,0,1-.52-.335q-.236-.517-.477-1.033a.571.571,0,0,1,1.034-.483q.243.52.481,1.043a.571.571,0,0,1-.518.807Zm-319.957-3.187a.571.571,0,0,1-.417-.96q.392-.421.785-.836a.571.571,0,0,1,.829.784q-.391.413-.781.83A.568.568,0,0,1,806.667,454.686Zm145-.56a.571.571,0,0,1-.521-.34q-.23-.518-.469-1.032a.57.57,0,1,1,1.034-.483q.246.525.479,1.053a.571.571,0,0,1-.522.8Zm-69.067-.133a.571.571,0,0,1-.477-.883q.314-.48.635-.96a.571.571,0,0,1,.947.636q-.318.473-.627.947A.569.569,0,0,1,882.6,453.992Zm242.044-.24a.571.571,0,0,1-.509-.313q-.257-.506-.52-1.012a.57.57,0,1,1,1.012-.527q.266.511.526,1.022a.571.571,0,0,1-.251.767A.563.563,0,0,1,1124.642,453.752Zm-314.807-2.363a.571.571,0,0,1-.406-.972q.4-.408.81-.812a.571.571,0,1,1,.8.809q-.4.4-.8.806A.568.568,0,0,1,809.835,451.389ZM885.2,450.23a.57.57,0,0,1-.46-.906l.138-.189q.27-.368.544-.734a.57.57,0,1,1,.914.683q-.27.362-.537.727l-.137.186A.57.57,0,0,1,885.2,450.23Zm64.453-.211a.57.57,0,0,1-.5-.3q-.27-.5-.55-.991a.571.571,0,1,1,.992-.564q.287.5.562,1.012a.571.571,0,0,1-.5.842Zm172.838-.3a.571.571,0,0,1-.5-.291q-.279-.495-.563-.988a.571.571,0,1,1,.989-.57q.287.5.568,1a.571.571,0,0,1-.5.85ZM813.1,448.189a.57.57,0,0,1-.393-.984q.418-.4.836-.787a.57.57,0,1,1,.779.833q-.415.388-.829.781A.567.567,0,0,1,813.1,448.189Zm74.862-1.59a.571.571,0,0,1-.447-.925q.357-.449.718-.894a.57.57,0,1,1,.886.718q-.357.44-.71.885A.568.568,0,0,1,887.963,446.6Zm59.346-.509a.57.57,0,0,1-.479-.259q-.309-.473-.63-.942a.571.571,0,0,1,.942-.645q.327.48.644.964a.57.57,0,0,1-.477.882Zm172.854-.307a.57.57,0,0,1-.486-.27q-.3-.482-.6-.963a.571.571,0,0,1,.963-.612q.309.487.611.974a.571.571,0,0,1-.485.871Zm-303.7-.688a.571.571,0,0,1-.38-1q.43-.383.861-.759a.571.571,0,1,1,.751.859q-.427.374-.854.753A.569.569,0,0,1,816.467,445.095Zm74.4-2.015a.57.57,0,0,1-.432-.942q.374-.434.751-.865a.571.571,0,0,1,.858.752q-.374.427-.744.857A.57.57,0,0,1,890.87,443.08Zm53.778-.71a.568.568,0,0,1-.45-.219q-.348-.445-.706-.884a.571.571,0,1,1,.885-.721q.366.448.721.9a.571.571,0,0,1-.449.922Zm-124.714-.256a.571.571,0,0,1-.365-1.009q.443-.368.887-.73a.571.571,0,0,1,.721.884q-.439.359-.878.723A.566.566,0,0,1,819.933,442.114Zm297.735-.164a.571.571,0,0,1-.472-.249q-.32-.469-.646-.936a.571.571,0,0,1,.937-.653q.329.472.652.945a.571.571,0,0,1-.471.893Zm-223.761-2.274a.571.571,0,0,1-.418-.958q.39-.42.782-.836a.571.571,0,1,1,.83.783q-.389.413-.775.829A.569.569,0,0,1,893.908,439.676Zm-70.408-.423a.571.571,0,0,1-.349-1.022q.456-.352.912-.7a.57.57,0,1,1,.689.909q-.452.343-.9.692A.566.566,0,0,1,823.5,439.253Zm118.181-.361a.57.57,0,0,1-.418-.182q-.384-.413-.779-.82a.571.571,0,0,1,.819-.795q.4.415.8.837a.571.571,0,0,1-.418.96Zm173.329-.662a.57.57,0,0,1-.458-.229q-.34-.455-.686-.906a.57.57,0,0,1,.906-.693q.35.456.694.917a.57.57,0,0,1-.456.912Zm-287.844-1.708a.571.571,0,0,1-.333-1.034q.468-.335.937-.664a.57.57,0,1,1,.656.934q-.464.326-.928.658A.564.564,0,0,1,827.167,436.523Zm69.9-.134a.571.571,0,0,1-.4-.973c.269-.27.54-.539.812-.807a.571.571,0,0,1,.8.813q-.4.4-.8.8A.567.567,0,0,1,897.071,436.389Zm41.358-.708a.568.568,0,0,1-.384-.148q-.417-.379-.846-.75a.571.571,0,0,1,.748-.862q.438.38.865.767a.571.571,0,0,1-.383.993Zm173.762-1.05a.57.57,0,0,1-.442-.209q-.359-.439-.725-.875a.571.571,0,0,1,.875-.733q.369.441.733.885a.571.571,0,0,1-.441.932Zm-281.257-.7a.571.571,0,0,1-.315-1.047q.481-.318.961-.628a.571.571,0,0,1,.62.958q-.477.308-.953.623A.571.571,0,0,1,830.933,433.931Zm69.416-.713a.571.571,0,0,1-.389-.988q.418-.39.84-.777a.571.571,0,0,1,.77.842q-.419.383-.833.77A.567.567,0,0,1,900.35,433.219Zm34.566-.463a.565.565,0,0,1-.347-.119q-.448-.344-.905-.683a.571.571,0,0,1,.681-.916q.464.345.919.7a.57.57,0,0,1-.348,1.022ZM834.8,431.487a.571.571,0,0,1-.3-1.059q.493-.3.986-.59a.57.57,0,1,1,.581.982q-.488.289-.976.584A.564.564,0,0,1,834.8,431.487Zm274.417-.326a.567.567,0,0,1-.424-.19q-.38-.423-.764-.842a.57.57,0,0,1,.841-.771q.389.424.772.852a.57.57,0,0,1-.425.951Zm-205.476-.993a.571.571,0,0,1-.374-1q.431-.375.867-.747a.57.57,0,1,1,.741.868q-.432.369-.859.741A.571.571,0,0,1,903.739,430.167Zm27.461-.075a.569.569,0,0,1-.317-.1q-.47-.313-.948-.622a.571.571,0,0,1,.617-.96q.487.313.965.632a.571.571,0,0,1-.318,1.045Zm-92.445-.892a.57.57,0,0,1-.276-1.07q.5-.278,1.009-.55a.571.571,0,0,1,.54,1.006q-.5.268-1,.543A.572.572,0,0,1,838.756,429.2Zm267.334-1.375a.571.571,0,0,1-.408-.171q-.4-.406-.8-.808a.571.571,0,1,1,.806-.808q.407.408.81.817a.571.571,0,0,1-.408.97Zm-178.772-.148a.566.566,0,0,1-.285-.077q-.489-.283-.986-.56a.571.571,0,1,1,.556-1q.5.281,1,.569a.571.571,0,0,1-.286,1.064Zm-20.085-.443a.571.571,0,0,1-.36-1.014q.444-.359.891-.717a.571.571,0,0,1,.712.892q-.443.354-.884.712A.57.57,0,0,1,907.232,427.234Zm-64.426-.155a.571.571,0,0,1-.255-1.082q.516-.256,1.033-.506a.571.571,0,0,1,.5,1.028q-.511.246-1.021.5A.563.563,0,0,1,842.806,427.079Zm80.486-1.57a.575.575,0,0,1-.254-.06q-.506-.254-1.019-.5a.571.571,0,0,1,.5-1.028q.52.251,1.034.507a.571.571,0,0,1-.256,1.081Zm-76.349-.376a.571.571,0,0,1-.232-1.092q.527-.235,1.053-.461a.571.571,0,0,1,.451,1.048q-.521.224-1.042.456A.57.57,0,0,1,846.943,425.133Zm255.876-.5a.568.568,0,0,1-.39-.154q-.415-.388-.834-.772a.57.57,0,1,1,.769-.843q.425.389.845.781a.571.571,0,0,1-.389.988Zm-192-.211a.57.57,0,0,1-.345-1.025q.456-.346.914-.687a.571.571,0,0,1,.682.915q-.454.339-.907.681A.564.564,0,0,1,910.82,424.421Zm8.324-.837a.568.568,0,0,1-.225-.046q-.521-.224-1.046-.441a.571.571,0,1,1,.435-1.055q.534.221,1.062.447a.571.571,0,0,1-.225,1.095Zm-67.984-.213a.571.571,0,0,1-.208-1.1q.537-.21,1.073-.413a.57.57,0,0,1,.4,1.067q-.53.2-1.06.409A.57.57,0,0,1,851.161,423.371Zm63.733-1.471a.579.579,0,0,1-.2-.034q-.531-.194-1.069-.381a.571.571,0,0,1,.376-1.078l.377.133q.36-.254.723-.506a.57.57,0,1,1,.652.936l-.311.217a.57.57,0,0,1-.552.714Zm-59.439-.1a.571.571,0,0,1-.183-1.111q.545-.186,1.091-.364a.571.571,0,1,1,.354,1.085q-.538.175-1.078.359A.572.572,0,0,1,855.455,421.8Zm243.955-.217a.568.568,0,0,1-.371-.137q-.432-.368-.868-.734a.571.571,0,1,1,.732-.876q.441.369.878.743a.571.571,0,0,1-.371,1Zm-188.855-1.129a.57.57,0,0,1-.166-.025q-.542-.165-1.089-.321a.571.571,0,1,1,.316-1.1q.554.159,1.1.326a.571.571,0,0,1-.165,1.117Zm-50.738-.023a.57.57,0,0,1-.158-1.119q.554-.16,1.107-.312a.57.57,0,1,1,.3,1.1q-.546.151-1.094.309A.579.579,0,0,1,859.817,420.433Zm4.422-1.161a.571.571,0,0,1-.131-1.126c.374-.089.747-.174,1.12-.259a.571.571,0,0,1,.25,1.113q-.552.125-1.107.256A.6.6,0,0,1,864.239,419.272Zm41.907-.021a.568.568,0,0,1-.136-.017q-.551-.134-1.1-.262a.571.571,0,1,1,.256-1.112q.561.129,1.119.266a.571.571,0,0,1-.135,1.125Zm12.116-.1a.571.571,0,0,1-.316-1.047q.477-.315.956-.628a.571.571,0,0,1,.623.957q-.476.31-.949.623A.57.57,0,0,1,918.261,419.15Zm177.61-.46a.571.571,0,0,1-.351-.121q-.447-.35-.9-.7a.57.57,0,1,1,.694-.906q.456.35.909.7a.571.571,0,0,1-.352,1.02Zm-227.159-.365a.57.57,0,0,1-.1-1.131q.567-.106,1.132-.2a.571.571,0,1,1,.2,1.125q-.558.1-1.118.2A.579.579,0,0,1,868.712,418.325Zm32.964-.041a.587.587,0,0,1-.106-.01c-.371-.071-.744-.138-1.117-.2a.57.57,0,1,1,.2-1.124q.569.1,1.133.205a.571.571,0,0,1-.106,1.132Zm-28.451-.684a.571.571,0,0,1-.076-1.136q.571-.077,1.141-.148a.571.571,0,0,1,.14,1.133q-.563.069-1.127.146A.579.579,0,0,1,873.225,417.6Zm23.937-.043a.673.673,0,0,1-.077,0q-.562-.076-1.127-.144a.571.571,0,0,1,.137-1.133q.573.069,1.142.146a.57.57,0,0,1-.075,1.136ZM877.77,417.1a.571.571,0,0,1-.047-1.139q.575-.048,1.147-.09a.571.571,0,0,1,.082,1.139q-.565.04-1.133.089Zm14.845-.032-.047,0q-.565-.046-1.132-.085a.57.57,0,1,1,.078-1.138q.576.039,1.148.086a.57.57,0,0,1-.046,1.139Zm-10.281-.24a.571.571,0,0,1-.02-1.141q.576-.02,1.15-.032a.584.584,0,0,1,.582.557.571.571,0,0,1-.557.584q-.567.012-1.136.031Zm5.716-.014h-.017q-.566-.017-1.136-.027a.571.571,0,0,1,.009-1.141h.01q.577.01,1.151.027a.571.571,0,0,1-.017,1.141Zm34.053-.121a.571.571,0,0,1-.3-1.056q.486-.3.976-.6a.57.57,0,0,1,.592.975q-.486.294-.967.593A.567.567,0,0,1,922.1,416.691Zm170.107-.74a.571.571,0,0,1-.332-.106q-.461-.33-.928-.657a.57.57,0,1,1,.653-.935q.472.33.939.663a.571.571,0,0,1-.333,1.035Zm-166.193-1.6a.571.571,0,0,1-.286-1.065q.495-.286.992-.568a.571.571,0,0,1,.564.992q-.494.28-.986.564A.562.562,0,0,1,926.018,414.352Zm162.417-.978a.568.568,0,0,1-.312-.093q-.473-.311-.955-.616a.571.571,0,0,1,.614-.962q.486.31.966.623a.571.571,0,0,1-.313,1.048ZM930,412.13a.57.57,0,0,1-.271-1.073q.5-.27,1.008-.539a.57.57,0,1,1,.534,1.008q-.5.266-1,.535A.568.568,0,0,1,930,412.13Zm154.556-1.174a.566.566,0,0,1-.291-.08q-.488-.29-.98-.576a.571.571,0,1,1,.573-.987q.5.289.991.582a.57.57,0,0,1-.292,1.06Zm-150.508-.931a.571.571,0,0,1-.257-1.081q.511-.255,1.024-.509a.57.57,0,1,1,.5,1.023q-.51.252-1.017.507A.571.571,0,0,1,934.048,410.025ZM1080.58,408.7a.571.571,0,0,1-.271-.068q-.5-.27-1-.536a.57.57,0,0,1,.533-1.009q.509.269,1.013.541a.57.57,0,0,1-.272,1.072Zm-142.426-.663a.571.571,0,0,1-.241-1.088q.518-.242,1.038-.48a.57.57,0,1,1,.474,1.037q-.516.237-1.031.477A.561.561,0,0,1,938.154,408.037Zm138.362-1.43a.567.567,0,0,1-.251-.058q-.51-.25-1.024-.5a.571.571,0,0,1,.493-1.03q.519.248,1.033.5a.57.57,0,0,1-.251,1.082Zm-134.2-.441a.571.571,0,0,1-.227-1.095q.525-.227,1.051-.451a.571.571,0,0,1,.447,1.05q-.523.222-1.044.448A.571.571,0,0,1,942.316,406.166Zm130.057-1.49a.56.56,0,0,1-.231-.049c-.348-.154-.695-.307-1.043-.458a.57.57,0,1,1,.455-1.046q.526.229,1.051.461a.57.57,0,0,1-.232,1.092Zm-125.845-.265a.571.571,0,0,1-.212-1.1q.531-.213,1.063-.422a.571.571,0,1,1,.418,1.062q-.529.208-1.057.419A.568.568,0,0,1,946.528,404.41Zm121.636-1.52a.567.567,0,0,1-.214-.042q-.528-.214-1.057-.422a.571.571,0,1,1,.419-1.062q.534.211,1.066.426a.571.571,0,0,1-.214,1.1Zm-117.376-.12a.571.571,0,0,1-.2-1.106q.537-.2,1.076-.393a.571.571,0,0,1,.387,1.074q-.534.193-1.067.39A.566.566,0,0,1,950.788,402.77Zm4.3-1.523a.571.571,0,0,1-.183-1.111q.542-.183,1.087-.364a.57.57,0,0,1,.358,1.083q-.54.179-1.078.362A.584.584,0,0,1,955.092,401.247Zm108.805,0a.575.575,0,0,1-.2-.035q-.534-.2-1.07-.388a.571.571,0,1,1,.384-1.075q.541.194,1.079.391a.571.571,0,0,1-.2,1.107Zm-104.462-1.406a.57.57,0,0,1-.169-1.115q.547-.17,1.1-.335a.571.571,0,0,1,.33,1.092q-.544.164-1.088.332A.554.554,0,0,1,959.435,399.839Zm100.144-.1a.557.557,0,0,1-.179-.03q-.54-.179-1.082-.353a.57.57,0,1,1,.35-1.086q.546.175,1.091.356a.571.571,0,0,1-.18,1.113Zm-95.763-1.193a.571.571,0,0,1-.154-1.12q.552-.155,1.1-.306a.571.571,0,0,1,.3,1.1q-.549.149-1.1.3A.583.583,0,0,1,963.816,398.547Zm91.4-.174a.566.566,0,0,1-.161-.024q-.546-.161-1.094-.318a.571.571,0,1,1,.316-1.1q.551.158,1.1.321a.571.571,0,0,1-.162,1.118Zm-86.986-1a.571.571,0,0,1-.139-1.124q.555-.141,1.111-.277a.571.571,0,0,1,.272,1.109c-.368.09-.737.182-1.1.275A.6.6,0,0,1,968.229,397.371Zm82.582-.226a.58.58,0,0,1-.145-.018q-.552-.144-1.1-.285a.571.571,0,1,1,.281-1.106q.556.141,1.111.286a.571.571,0,0,1-.144,1.123Zm-78.138-.834a.57.57,0,0,1-.124-1.127q.558-.125,1.118-.247a.571.571,0,1,1,.243,1.115q-.557.121-1.112.246A.569.569,0,0,1,972.672,396.311Zm73.7-.257a.555.555,0,0,1-.128-.015q-.555-.127-1.112-.25a.57.57,0,1,1,.247-1.114q.56.124,1.12.252a.571.571,0,0,1-.127,1.127Zm-69.227-.686a.571.571,0,0,1-.11-1.13q.563-.111,1.126-.218a.571.571,0,1,1,.214,1.121q-.56.107-1.118.217A.6.6,0,0,1,977.143,395.368Zm64.755-.27a.549.549,0,0,1-.111-.011q-.558-.11-1.119-.217a.571.571,0,0,1,.214-1.121q.563.107,1.126.219a.57.57,0,0,1-.11,1.13Zm-60.26-.556a.57.57,0,0,1-.095-1.133q.564-.1,1.13-.189a.57.57,0,1,1,.184,1.126q-.561.093-1.123.188A.593.593,0,0,1,981.638,394.542Zm55.76-.265a.563.563,0,0,1-.094-.008q-.562-.093-1.125-.184a.571.571,0,0,1,.18-1.127q.567.091,1.133.186a.57.57,0,0,1-.094,1.133Zm-51.245-.443a.571.571,0,0,1-.08-1.136l1.135-.159a.57.57,0,0,1,.155,1.13q-.564.077-1.129.158A.636.636,0,0,1,986.154,393.833Zm46.724-.246a.507.507,0,0,1-.078-.005q-.565-.077-1.13-.151a.571.571,0,0,1,.148-1.132q.569.075,1.137.152a.57.57,0,0,1-.077,1.136Zm-42.19-.345a.57.57,0,0,1-.066-1.137c.38-.044.759-.088,1.139-.13a.571.571,0,1,1,.125,1.135q-.566.062-1.132.129A.629.629,0,0,1,990.688,393.243Zm37.651-.214a.535.535,0,0,1-.061,0q-.567-.06-1.134-.118a.571.571,0,1,1,.115-1.136q.571.058,1.141.12a.57.57,0,0,1-.06,1.138Zm-33.1-.257a.571.571,0,0,1-.05-1.139q.571-.052,1.142-.1a.57.57,0,0,1,.1,1.137q-.568.048-1.135.1Zm28.55-.171-.046,0q-.567-.045-1.136-.087a.571.571,0,0,1,.082-1.138q.573.042,1.145.087a.571.571,0,0,1-.045,1.139Zm-23.991-.179a.571.571,0,0,1-.036-1.14c.381-.024.764-.047,1.145-.069a.571.571,0,0,1,.065,1.14q-.568.031-1.137.068Zm19.428-.121h-.03c-.38-.02-.759-.038-1.138-.055a.571.571,0,0,1,.051-1.14q.573.026,1.146.056a.57.57,0,0,1-.029,1.14Zm-14.859-.108a.571.571,0,0,1-.02-1.141q.573-.021,1.146-.038a.571.571,0,1,1,.034,1.141q-.568.017-1.139.038Zm10.288-.066h-.014q-.569-.014-1.139-.024a.571.571,0,0,1-.561-.581.579.579,0,0,1,.581-.56q.573.01,1.147.024a.57.57,0,0,1-.014,1.141Zm-5.716-.041a.571.571,0,0,1-.006-1.141q.575-.005,1.148-.007h0a.571.571,0,0,1,0,1.141q-.569,0-1.139.007Z" transform="translate(-739.236 -390.938)"/></g></g><g transform="translate(-435.727 1969.586)"><path class="u" d="M1410.744,471.343l.965-3.068a1.944,1.944,0,0,1,1.307-1.307l3.068-.965a.691.691,0,0,0,0-1.318l-3.068-.965a1.944,1.944,0,0,1-1.307-1.307l-.965-3.068a.691.691,0,0,0-1.319,0l-.965,3.068a1.944,1.944,0,0,1-1.307,1.307l-3.068.965a.691.691,0,0,0,0,1.318l3.068.965a1.945,1.945,0,0,1,1.307,1.307l.965,3.068a.691.691,0,0,0,1.319,0" transform="translate(-230.918 -24.046)"/><path class="u" d="M1424.467,479.7l-.565,1.8a1.14,1.14,0,0,1-.765.766l-1.8.565a.4.4,0,0,0,0,.772l1.8.565a1.138,1.138,0,0,1,.765.765l.565,1.8a.4.4,0,0,0,.772,0l.565-1.8a1.137,1.137,0,0,1,.765-.765l1.8-.565a.4.4,0,0,0,0-.772l-1.8-.565a1.139,1.139,0,0,1-.765-.766l-.565-1.8a.4.4,0,0,0-.772,0" transform="translate(-238.627 -33.126)"/><path class="u" d="M984.438,565.906l-.862-2.9a1.791,1.791,0,0,0-1.237-1.237l-2.9-.863a.328.328,0,0,1,0-.629l2.9-.862a1.791,1.791,0,0,0,1.237-1.237l.862-2.9a.328.328,0,0,1,.629,0l.862,2.9a1.791,1.791,0,0,0,1.237,1.237l2.9.862a.328.328,0,0,1,0,.629l-2.9.863a1.791,1.791,0,0,0-1.237,1.237l-.862,2.9a.328.328,0,0,1-.629,0" transform="translate(-43.492 -66.525)"/><path class="u" d="M979.768,577.431l-2.247-.537a1.368,1.368,0,0,0-1.292.346l-1.678,1.589a.251.251,0,0,1-.417-.241l.537-2.247a1.369,1.369,0,0,0-.346-1.292l-1.589-1.678a.251.251,0,0,1,.241-.417l2.247.537a1.371,1.371,0,0,0,1.292-.346l1.678-1.589a.251.251,0,0,1,.417.241l-.536,2.247a1.369,1.369,0,0,0,.346,1.292l1.589,1.678a.251.251,0,0,1-.241.417" transform="translate(-40.604 -73.785)"/><g transform="translate(985.015 408.304)"><g class="v"><rect class="w" width="52.245" height="52.245" transform="translate(-0.958 -0.958)"/></g><g transform="translate(3.078 3.077)"><g class="x"><rect class="y" width="45.856" height="45.856" transform="translate(-0.841 -0.841)"/></g></g><path class="z" d="M1102.322,483.9a21.432,21.432,0,1,0,22.959-19.788,21.432,21.432,0,0,0-22.959,19.788" transform="translate(-1098.53 -460.32)"/><g transform="translate(5.72 9.91)"><g class="aa"><rect class="ab" width="38.923" height="32.315" transform="translate(-0.01 0)"/></g></g></g><g transform="translate(943.135 475.523)"><path class="ac" d="M988.509,503.6a27.858,27.858,0,1,0,27.858,27.858A27.858,27.858,0,0,0,988.509,503.6" transform="translate(-960.651 -502.077)"/><g transform="translate(1.724)"><g class="ad"><rect class="ae" width="55.717" height="55.717" transform="translate(0 0)"/></g></g><g transform="translate(5.131 3.407)"><g class="af"><rect class="ag" width="48.903" height="48.903" transform="translate(0 0)"/></g></g><path class="z" d="M998.109,509.723a23.727,23.727,0,1,0,23.728,23.728,23.727,23.727,0,0,0-23.728-23.728" transform="translate(-968.527 -505.592)"/><g transform="translate(9.982 6.337)"><g class="ah"><rect class="ai" width="37.431" height="43.049" transform="translate(0 0)"/></g></g></g><g transform="translate(880.726 494.069)"><g transform="translate(0 9.375)"><g class="aj"><rect class="ak" width="51.348" height="51.348" transform="translate(-2.284 -2.284)"/></g></g><g transform="translate(2.86 12.236)"><g class="al"><rect class="am" width="45.069" height="45.069" transform="translate(-2.004 -2.004)"/></g></g><path class="z" d="M896.25,550.4a19.922,19.922,0,1,0,28.174,0,19.921,19.921,0,0,0-28.174,0" transform="translate(-886.946 -531.723)"/><g transform="translate(5.342 20.247)"><g class="an"><rect class="ao" width="36.075" height="27.046" transform="translate(0)"/></g></g><path class="u" d="M964.947,515.652l.553-1.858a1.148,1.148,0,0,1,.793-.793l1.858-.553a.21.21,0,0,0,0-.4l-1.858-.553a1.148,1.148,0,0,1-.793-.793l-.553-1.858a.21.21,0,0,0-.4,0l-.553,1.858a1.149,1.149,0,0,1-.793.793l-1.858.553a.21.21,0,0,0,0,.4L963.2,513a1.149,1.149,0,0,1,.793.793l.553,1.858a.21.21,0,0,0,.4,0" transform="translate(-932.383 -508.69)"/></g><path class="u" d="M974.632,531.073l2.247-.537a1.369,1.369,0,0,1,1.291.346l1.679,1.589a.251.251,0,0,0,.417-.241l-.537-2.247a1.37,1.37,0,0,1,.346-1.292l1.589-1.678a.251.251,0,0,0-.241-.417l-2.247.537a1.369,1.369,0,0,1-1.292-.346l-1.678-1.589a.251.251,0,0,0-.417.241l.536,2.247a1.369,1.369,0,0,1-.346,1.292l-1.589,1.678a.251.251,0,0,0,.241.417" transform="translate(-41.335 -53.312)"/><g transform="translate(1079.666 408.304)"><g transform="translate(0 1.113)"><g class="ap"><rect class="aq" width="59.167" height="51.534" transform="translate(-2.499 0)"/></g></g><g transform="translate(0.341 3.785)"><g class="ar"><rect class="as" width="53.919" height="45.761" transform="translate(0)"/></g></g><g transform="translate(4.706)"><g class="at"><rect class="au" width="57.578" height="49.59" transform="translate(-2.499 -2.701)"/></g></g><path class="av" d="M1280.022,422.218c12.886,10.531,21.4,21.437,19.008,24.359s-14.77-3.246-27.657-13.778-21.4-21.438-19.008-24.36,14.771,3.246,27.657,13.778" transform="translate(-1244.219 -406.005)"/><path class="aw" d="M1280.29,422.218c12.886,10.531,21.4,21.437,19.008,24.359a1.524,1.524,0,0,1-.135.144c1.975-3.142-6.461-13.851-19.123-24.2S1255.2,406.04,1252.519,408.6a1.593,1.593,0,0,1,.114-.161c2.389-2.922,14.77,3.247,27.657,13.778" transform="translate(-1244.487 -406.005)"/><g transform="translate(19.767 15.683)"><g class="ax"><rect class="ay" width="32.664" height="20.644" transform="translate(0 0)"/></g></g></g><g transform="translate(1210.12 405.149)"><g transform="translate(0)"><g class="az"><rect class="ba" width="62.175" height="62.175" transform="translate(-1.14 -1.14)"/></g></g><g transform="translate(3.663 3.662)"><g class="bb"><rect class="bc" width="54.571" height="54.572" transform="translate(-1.001 -1)"/></g></g><path class="z" d="M1421.177,512.467a25.506,25.506,0,1,0,27.323-23.549,25.505,25.505,0,0,0-27.323,23.549" transform="translate(-1416.665 -484.406)"/><g transform="translate(6.807 11.794)"><g class="bd"><rect class="be" width="46.322" height="38.457" transform="translate(-0.012 0)"/></g></g></g></g><g transform="translate(-1615.092 1276.781)"><g transform="translate(1742.356 1469.836)"><g class="bf" transform="translate(0 0)"><rect class="bg" width="69.217" height="9.576"/></g></g><g transform="translate(1742.356 1469.836)"><g class="bh" transform="translate(0 0)"><rect class="bi" width="69.217" height="0.696"/></g></g><rect class="bj" width="69.217" height="0.696" transform="translate(1742.356 1478.716)"/><g transform="translate(1808.189 1470.862)"><g class="bk" transform="translate(0 0)"><rect class="bl" width="1.056" height="7.524"/></g></g><g transform="translate(1803.581 1470.862)"><rect class="c" width="1.056" height="7.524" transform="translate(0 0)"/><g class="bm" transform="translate(0 0)"><rect class="bl" width="1.056" height="7.524"/></g></g><g transform="translate(1798.973 1470.862)"><g class="bk" transform="translate(0 0)"><rect class="bl" width="1.056" height="7.524"/></g></g><g transform="translate(1794.365 1470.862)"><g class="bk" transform="translate(0 0)"><rect class="bl" width="1.056" height="7.524"/></g></g><g transform="translate(1789.757 1470.862)"><g class="bk" transform="translate(0 0)"><rect class="bl" width="1.056" height="7.524"/></g></g><g transform="translate(1785.149 1470.862)"><g class="bk" transform="translate(0 0)"><rect class="bl" width="1.056" height="7.524"/></g></g><g transform="translate(1780.541 1470.862)"><g class="bk" transform="translate(0 0)"><rect class="bl" width="1.056" height="7.524"/></g></g><g transform="translate(1775.933 1470.862)"><g class="bk" transform="translate(0 0)"><rect class="bl" width="1.056" height="7.524"/></g></g><g transform="translate(1771.325 1470.862)"><g class="bk" transform="translate(0 0)"><rect class="bl" width="1.056" height="7.524"/></g></g><g transform="translate(1766.717 1470.862)"><g class="bk" transform="translate(0 0)"><rect class="bl" width="1.056" height="7.524"/></g></g><g transform="translate(1762.109 1470.862)"><g class="bk" transform="translate(0 0)"><rect class="bl" width="1.056" height="7.524"/></g></g><g transform="translate(1757.501 1470.862)"><g class="bk" transform="translate(0 0)"><rect class="bl" width="1.056" height="7.524"/></g></g><g transform="translate(1752.893 1470.862)"><g class="bn" transform="translate(0 0)"><rect class="bl" width="2.508" height="7.524"/></g></g><g transform="translate(1746.419 1470.862)"><g class="bo" transform="translate(0 0)"><rect class="bl" width="5.138" height="7.524"/></g></g><g transform="translate(1743.06 1470.862)"><g class="bp" transform="translate(0 0)"><rect class="bl" width="2.065" height="7.524"/></g></g><g transform="translate(1752.044 1460.26)"><g class="bf" transform="translate(0 0)"><rect class="bq" width="69.217" height="9.576"/></g></g><g transform="translate(1752.044 1460.26)"><g class="bh" transform="translate(0 0)"><rect class="br" width="69.217" height="0.696"/></g></g><rect class="bj" width="69.217" height="0.696" transform="translate(1752.044 1469.14)"/><g transform="translate(1817.877 1461.286)"><g class="bk" transform="translate(0 0)"><rect class="bl" width="1.056" height="7.524"/></g></g><g transform="translate(1813.269 1461.286)"><rect class="c" width="1.056" height="7.524" transform="translate(0 0)"/><g class="bm" transform="translate(0 0)"><rect class="bl" width="1.056" height="7.524"/></g></g><g transform="translate(1808.661 1461.286)"><g class="bk" transform="translate(0 0)"><rect class="bl" width="1.056" height="7.524"/></g></g><g transform="translate(1804.053 1461.286)"><g class="bk" transform="translate(0 0)"><rect class="bl" width="1.056" height="7.524"/></g></g><g transform="translate(1799.445 1461.286)"><g class="bk" transform="translate(0 0)"><rect class="bl" width="1.056" height="7.524"/></g></g><g transform="translate(1794.837 1461.286)"><g class="bk" transform="translate(0 0)"><rect class="bl" width="1.056" height="7.524"/></g></g><g transform="translate(1790.229 1461.286)"><g class="bk" transform="translate(0 0)"><rect class="bl" width="1.056" height="7.524"/></g></g><g transform="translate(1785.621 1461.286)"><g class="bk" transform="translate(0 0)"><rect class="bl" width="1.056" height="7.524"/></g></g><g transform="translate(1781.013 1461.286)"><g class="bk" transform="translate(0 0)"><rect class="bl" width="1.056" height="7.524"/></g></g><g transform="translate(1776.405 1461.286)"><g class="bk" transform="translate(0 0)"><rect class="bl" width="1.056" height="7.524"/></g></g><g transform="translate(1771.797 1461.286)"><g class="bk" transform="translate(0 0)"><rect class="bl" width="1.056" height="7.524"/></g></g><g transform="translate(1767.189 1461.286)"><g class="bk" transform="translate(0 0)"><rect class="bl" width="1.056" height="7.524"/></g></g><g transform="translate(1762.582 1461.286)"><g class="bn" transform="translate(0 0)"><rect class="bl" width="2.508" height="7.524"/></g></g><g transform="translate(1756.108 1461.286)"><g class="bo" transform="translate(0 0)"><rect class="bl" width="5.138" height="7.524"/></g></g><g transform="translate(1752.749 1461.286)"><g class="bp" transform="translate(0 0)"><rect class="bl" width="2.065" height="7.524"/></g></g><g transform="translate(1741.045 1450.684)"><g class="bf" transform="translate(0 0)"><rect class="bq" width="69.217" height="9.576"/></g></g><g transform="translate(1741.045 1450.684)"><g class="bh" transform="translate(0 0)"><rect class="bs" width="69.217" height="0.696"/></g></g><rect class="bj" width="69.217" height="0.696" transform="translate(1741.045 1459.564)"/><g transform="translate(1806.878 1451.71)"><g class="bk" transform="translate(0 0)"><rect class="bl" width="1.056" height="7.524"/></g></g><g transform="translate(1802.27 1451.71)"><rect class="c" width="1.056" height="7.524" transform="translate(0 0)"/><g class="bm" transform="translate(0 0)"><rect class="bl" width="1.056" height="7.524"/></g></g><g transform="translate(1797.662 1451.71)"><g class="bk" transform="translate(0 0)"><rect class="bl" width="1.056" height="7.524"/></g></g><g transform="translate(1793.054 1451.71)"><g class="bk" transform="translate(0 0)"><rect class="bl" width="1.056" height="7.524"/></g></g><g transform="translate(1788.446 1451.71)"><g class="bk" transform="translate(0 0)"><rect class="bl" width="1.056" height="7.524"/></g></g><g transform="translate(1783.838 1451.71)"><g class="bk" transform="translate(0 0)"><rect class="bl" width="1.056" height="7.524"/></g></g><g transform="translate(1779.23 1451.71)"><g class="bk" transform="translate(0 0)"><rect class="bl" width="1.056" height="7.524"/></g></g><g transform="translate(1774.622 1451.71)"><g class="bk" transform="translate(0 0)"><rect class="bl" width="1.056" height="7.524"/></g></g><g transform="translate(1770.014 1451.71)"><g class="bk" transform="translate(0 0)"><rect class="bl" width="1.056" height="7.524"/></g></g><g transform="translate(1765.406 1451.71)"><g class="bk" transform="translate(0 0)"><rect class="bl" width="1.056" height="7.524"/></g></g><g transform="translate(1760.798 1451.71)"><g class="bk" transform="translate(0 0)"><rect class="bl" width="1.056" height="7.524"/></g></g><g transform="translate(1756.19 1451.71)"><g class="bk" transform="translate(0 0)"><rect class="bl" width="1.056" height="7.524"/></g></g><g transform="translate(1751.582 1451.71)"><g class="bn" transform="translate(0 0)"><rect class="bl" width="2.508" height="7.524"/></g></g><g transform="translate(1745.108 1451.71)"><g class="bo" transform="translate(0 0)"><rect class="bl" width="5.138" height="7.524"/></g></g><g transform="translate(1741.749 1451.71)"><g class="bp" transform="translate(0 0)"><rect class="bl" width="2.065" height="7.524"/></g></g><g transform="translate(1748.21 1441.107)"><g class="bf" transform="translate(0 0)"><rect class="bq" width="69.217" height="9.576"/></g></g><g transform="translate(1748.21 1441.107)"><g class="bh" transform="translate(0 0)"><rect class="bs" width="69.217" height="0.696"/></g></g><rect class="bj" width="69.217" height="0.696" transform="translate(1748.21 1449.987)"/><g transform="translate(1814.043 1442.133)"><g class="bk" transform="translate(0 0)"><rect class="bt" width="1.056" height="7.524"/></g></g><g transform="translate(1809.435 1442.133)"><rect class="c" width="1.056" height="7.524" transform="translate(0 0)"/><g class="bm" transform="translate(0 0)"><rect class="bt" width="1.056" height="7.524"/></g></g><g transform="translate(1804.828 1442.133)"><g class="bk" transform="translate(0 0)"><rect class="bt" width="1.056" height="7.524"/></g></g><g transform="translate(1800.219 1442.133)"><g class="bk" transform="translate(0 0)"><rect class="bt" width="1.056" height="7.524"/></g></g><g transform="translate(1795.611 1442.133)"><g class="bk" transform="translate(0 0)"><rect class="bt" width="1.056" height="7.524"/></g></g><g transform="translate(1791.004 1442.133)"><g class="bk" transform="translate(0 0)"><rect class="bt" width="1.056" height="7.524"/></g></g><g transform="translate(1786.395 1442.133)"><g class="bk" transform="translate(0 0)"><rect class="bt" width="1.056" height="7.524"/></g></g><g transform="translate(1781.787 1442.133)"><g class="bk" transform="translate(0 0)"><rect class="bt" width="1.056" height="7.524"/></g></g><g transform="translate(1777.18 1442.133)"><g class="bk" transform="translate(0 0)"><rect class="bt" width="1.056" height="7.524"/></g></g><g transform="translate(1772.572 1442.133)"><g class="bk" transform="translate(0 0)"><rect class="bt" width="1.056" height="7.524"/></g></g><g transform="translate(1767.963 1442.133)"><g class="bk" transform="translate(0 0)"><rect class="bt" width="1.056" height="7.524"/></g></g><g transform="translate(1763.355 1442.133)"><g class="bk" transform="translate(0 0)"><rect class="bt" width="1.056" height="7.524"/></g></g><g transform="translate(1758.748 1442.133)"><g class="bn" transform="translate(0 0)"><rect class="bt" width="2.508" height="7.524"/></g></g><g transform="translate(1752.274 1442.133)"><g class="bo" transform="translate(0 0)"><rect class="bt" width="5.138" height="7.524"/></g></g><g transform="translate(1748.915 1442.133)"><g class="bp" transform="translate(0 0)"><rect class="bt" width="2.065" height="7.524"/></g></g><g transform="translate(1738.367 1431.531)"><g class="bf" transform="translate(0 0)"><rect class="bu" width="69.217" height="9.576"/></g></g><g transform="translate(1738.367 1431.531)"><g class="bh" transform="translate(0 0)"><rect class="bv" width="69.217" height="0.696"/></g></g><rect class="bj" width="69.217" height="0.696" transform="translate(1738.367 1440.411)"/><g transform="translate(1804.2 1432.557)"><g class="bk" transform="translate(0)"><rect class="bw" width="1.056" height="7.524"/></g></g><g transform="translate(1799.592 1432.557)"><rect class="c" width="1.056" height="7.524" transform="translate(0)"/><g class="bm" transform="translate(0)"><rect class="bw" width="1.056" height="7.524"/></g></g><g transform="translate(1794.984 1432.557)"><g class="bk" transform="translate(0)"><rect class="bw" width="1.056" height="7.524"/></g></g><g transform="translate(1790.376 1432.557)"><g class="bk" transform="translate(0)"><rect class="bw" width="1.056" height="7.524"/></g></g><g transform="translate(1785.768 1432.557)"><g class="bk" transform="translate(0)"><rect class="bw" width="1.056" height="7.524"/></g></g><g transform="translate(1781.16 1432.557)"><g class="bk" transform="translate(0)"><rect class="bw" width="1.056" height="7.524"/></g></g><g transform="translate(1776.552 1432.557)"><g class="bk" transform="translate(0)"><rect class="bw" width="1.056" height="7.524"/></g></g><g transform="translate(1771.944 1432.557)"><g class="bk" transform="translate(0)"><rect class="bw" width="1.056" height="7.524"/></g></g><g transform="translate(1767.337 1432.557)"><g class="bk" transform="translate(0)"><rect class="bw" width="1.056" height="7.524"/></g></g><g transform="translate(1762.728 1432.557)"><g class="bk" transform="translate(0)"><rect class="bw" width="1.056" height="7.524"/></g></g><g transform="translate(1758.12 1432.557)"><g class="bk" transform="translate(0)"><rect class="bw" width="1.056" height="7.524"/></g></g><g transform="translate(1753.512 1432.557)"><g class="bk" transform="translate(0)"><rect class="bw" width="1.056" height="7.524"/></g></g><g transform="translate(1748.904 1432.557)"><g class="bn"><rect class="bw" width="2.508" height="7.524"/></g></g><g transform="translate(1742.43 1432.557)"><g class="bo" transform="translate(0)"><rect class="bw" width="5.138" height="7.524"/></g></g><g transform="translate(1739.072 1432.557)"><g class="bp" transform="translate(0)"><rect class="bw" width="2.065" height="7.524"/></g></g><g transform="translate(1805.213 1414.219)"><g class="bx" transform="translate(0 0)"><rect class="by" width="41.906" height="65.193" transform="translate(0 0)"/></g></g><g transform="translate(1812.981 1414.219)"><g class="bz" transform="translate(0 0)"><rect class="ca" width="34.137" height="60.892" transform="translate(0 0)"/></g></g><rect class="bj" width="0.696" height="69.217" transform="matrix(0.875, -0.484, 0.484, 0.875, 1805.213, 1418.858)"/><g transform="translate(1837.999 1472.311)"><g class="cb" transform="translate(0 0)"><rect class="cc" width="7.094" height="4.569" transform="translate(0 0)"/></g></g><g transform="translate(1835.767 1468.279)"><rect class="c" width="7.524" height="1.056" transform="translate(0 3.645) rotate(-28.971)"/><g class="cd" transform="translate(0 0)"><rect class="ce" width="7.094" height="4.569" transform="translate(0 0)"/></g></g><g transform="translate(1833.535 1464.248)"><g class="cf" transform="translate(0 0)"><rect class="ce" width="7.094" height="4.569" transform="translate(0 0)"/></g></g><g transform="translate(1831.303 1460.217)"><g class="cb" transform="translate(0 0)"><rect class="ce" width="7.094" height="4.569" transform="translate(0 0)"/></g></g><g transform="translate(1829.071 1456.185)"><g class="cg" transform="translate(0 0)"><rect class="ch" width="7.094" height="4.569" transform="translate(0 0)"/></g></g><g transform="translate(1826.839 1452.154)"><g class="cf" transform="translate(0 0)"><rect class="ci" width="7.094" height="4.569" transform="translate(0 0)"/></g></g><g transform="translate(1824.607 1448.123)"><g class="cf" transform="translate(0 0)"><rect class="ch" width="7.094" height="4.569" transform="translate(0 0)"/></g></g><g transform="translate(1822.375 1444.092)"><g class="cj" transform="translate(0 0)"><rect class="ch" width="7.094" height="4.569" transform="translate(0 0)"/></g></g><g transform="translate(1820.143 1440.06)"><g class="cf" transform="translate(0 0)"><rect class="ck" width="7.094" height="4.569" transform="translate(0 0)"/></g></g><g transform="translate(1817.911 1436.029)"><g class="cg" transform="translate(0 0)"><rect class="cl" width="7.094" height="4.569" transform="translate(0 0)"/></g></g><g transform="translate(1815.678 1431.998)"><g class="cm" transform="translate(0 0)"><rect class="cn" width="7.094" height="4.569" transform="translate(0 0)"/></g></g><g transform="translate(1813.446 1427.966)"><g class="cf" transform="translate(0 0)"><rect class="cn" width="7.094" height="4.569" transform="translate(0 0)"/></g></g><g transform="translate(1811.214 1423.935)"><g class="co" transform="translate(0 0)"><rect class="cp" width="7.797" height="5.839" transform="translate(0 0)"/></g></g><g transform="translate(1808.079 1418.271)"><g class="cq" transform="translate(0 0)"><rect class="cr" width="9.071" height="8.14" transform="translate(0 0)"/></g></g><g transform="translate(1806.452 1415.333)"><g class="cs" transform="translate(0 0)"><rect class="ct" width="7.583" height="5.451" transform="translate(0 0)"/></g></g></g><g class="dc" transform="matrix(1, 0, 0, 1, 123.28, 2361.94)"><rect class="s" width="86" height="86" rx="4" transform="translate(210.72 286.06)"/></g><g class="db" transform="matrix(1, 0, 0, 1, 123.28, 2361.94)"><rect class="s" width="86" height="86" rx="4" transform="translate(308.72 288.06)"/></g><g class="da" transform="matrix(1, 0, 0, 1, 123.28, 2361.94)"><rect class="s" width="86" height="86" rx="4" transform="translate(406.72 288.06)"/></g><text class="cu" transform="translate(333 2741.999)"><tspan x="21.283" y="18">Send</tspan></text><text class="cu" transform="translate(432 2741.999)"><tspan x="9.09" y="18">Recieve</tspan></text><text class="cu" transform="translate(528 2741.999)"><tspan x="9.193" y="18">Pay Bills</tspan></text><g transform="translate(358.814 2714.81) rotate(-90)"><path class="cv" d="M4.842,0V2.905H.969V4.842H4.842V12.59H6.779V1.937H38.74v19.37H6.779V16.464h.969V14.527H0v1.937H4.842v6.779H40.677V0Z" transform="translate(5.811 6.779)"/><path class="cv" d="M2.905,0V.968c0,1.356-.581,1.937-1.937,1.937H0V12.59H.968a1.78,1.78,0,0,1,1.937,1.937V15.5H24.212v-.968a1.943,1.943,0,0,1,1.937-1.937h.969V2.905h-.969A1.78,1.78,0,0,1,24.212.968V0ZM25.181,4.746v6a4.1,4.1,0,0,0-2.809,2.809H4.746A3.508,3.508,0,0,0,1.937,10.75v-6A3.287,3.287,0,0,0,4.746,1.937H22.372A3.508,3.508,0,0,0,25.181,4.746Z" transform="translate(15.496 10.653)"/><rect class="cv" width="1.937" height="1.937" transform="translate(20.338 17.433)"/><rect class="cv" width="1.937" height="1.937" transform="translate(35.834 17.433)"/><path class="cv" d="M4.842,0A4.8,4.8,0,0,0,0,4.842,4.8,4.8,0,0,0,4.842,9.685,4.8,4.8,0,0,0,9.685,4.842,4.8,4.8,0,0,0,4.842,0Zm0,7.748A2.854,2.854,0,0,1,1.937,4.842,2.854,2.854,0,0,1,4.842,1.937,2.854,2.854,0,0,1,7.748,4.842,2.854,2.854,0,0,1,4.842,7.748Z" transform="translate(24.212 13.559)"/><rect class="cv" width="1.937" height="1.937" transform="translate(2.905 9.685)"/><rect class="cv" width="8.716" height="1.937" transform="translate(0 15.496)"/><rect class="cv" width="7.748" height="1.937" transform="translate(27.118 0)"/><rect class="cv" width="13.559" height="1.937" transform="translate(18.401 33.897)"/><rect class="cv" width="1.937" height="1.937" transform="translate(23.244 0)"/><rect class="cv" width="1.937" height="1.937" transform="translate(19.37 0)"/><rect class="cv" width="1.937" height="1.937" transform="translate(15.496 0)"/></g><g transform="translate(456.328 2674.058)"><g transform="translate(0 0)"><path class="cw" d="M32.745,34.2V44.436a.781.781,0,0,1-.718.778H3.951a.784.784,0,0,1-.718-.778V34.2H0V44.436a4.038,4.038,0,0,0,3.951,4.011H32.026a4,4,0,0,0,3.951-4.011V34.2Z" transform="translate(0 -12.941)"/><path class="cw" d="M18.745,14.736a1.427,1.427,0,0,0,1.065-.456l5.843-5.9a1.488,1.488,0,0,0,0-2.1L19.81.434a1.525,1.525,0,0,0-2.13,0,1.525,1.525,0,0,0,0,2.13L20.966,5.85H1.491a1.491,1.491,0,1,0,0,2.982H21L17.68,12.18a1.521,1.521,0,0,0-.426,1.065,1.476,1.476,0,0,0,.456,1.065A1.449,1.449,0,0,0,18.745,14.736Z" transform="translate(25.933) rotate(90)"/></g></g><g transform="translate(558.146 2672.624)"><g transform="translate(0 0)"><path class="cx" d="M15.182,4A1.3,1.3,0,0,0,14,5.3V41.817a1.3,1.3,0,0,0,2.228.924l2.554-2.554,2.554,2.554a1.3,1.3,0,0,0,1.847,0l2.554-2.554,2.554,2.554a1.3,1.3,0,0,0,1.847,0l2.554-2.554,2.554,2.554a1.3,1.3,0,0,0,1.847,0l2.554-2.554L42.2,42.741a1.3,1.3,0,0,0,2.228-.924V5.3a1.3,1.3,0,0,0-1.3-1.3H15.3q-.061,0-.122,0Zm1.426,2.608H41.821V38.666l-1.25-1.25a1.3,1.3,0,0,0-1.847,0L36.17,39.97l-2.554-2.554a1.3,1.3,0,0,0-1.847,0L29.215,39.97l-2.554-2.554a1.3,1.3,0,0,0-1.847,0L22.259,39.97l-2.554-2.554a1.3,1.3,0,0,0-1.847,0l-1.25,1.25Zm3.912,6.507a1.3,1.3,0,1,0,0,2.608H37.909a1.3,1.3,0,1,0,0-2.608Zm0,6.086a1.3,1.3,0,1,0,0,2.608H37.909a1.3,1.3,0,1,0,0-2.608Zm0,6.086a1.3,1.3,0,1,0,0,2.608h8.694a1.3,1.3,0,1,0,0-2.608Z" transform="translate(-14 -3.997)"/></g></g><g transform="matrix(0.999, -0.035, 0.035, 0.999, 734.325, 2612.415)"><path class="q" d="M35.211,0A35.211,35.211,0,1,1,0,35.211,35.211,35.211,0,0,1,35.211,0Z"/><g transform="translate(14.452 21.748)"><path class="u" d="M434.881,324.961a3.442,3.442,0,0,1-4.869.049l-.049-.049L417.7,312.346a3.592,3.592,0,0,1,0-5.041,3.442,3.442,0,0,1,4.869-.049l.049.049,9.733,10.077,21.989-22.446a3.442,3.442,0,0,1,4.869-.049l.049.049a3.592,3.592,0,0,1,0,5.041Z" transform="translate(-416.669 -293.903)"/></g></g></g><g transform="translate(-178 165.026)"><g transform="translate(1597.639 224)"><g transform="translate(0 1.565)"><path class="j" d="M0,0,4.525,20.574C2,23.463.293,27.005.579,30.973,1.4,42.406,17.715,39.891,20.888,34.12s2.8-20.408-1.3-21.439c-1.636-.411-5.12.6-8.666,2.681L13.143,0Z" transform="translate(23.361 39.435) rotate(180)"/></g><path class="k" d="M5.5,0h0A3.274,3.274,0,0,0,3.638,1.089a10.988,10.988,0,0,0-1.779,2.52A15.534,15.534,0,0,0,0,10.526a8.6,8.6,0,0,0,3.1,6.642A13.694,13.694,0,0,0,12.1,20a19.478,19.478,0,0,0,4.514-.475,9.944,9.944,0,0,0,3.039-1.23A4.614,4.614,0,0,0,22,14.737c-2.708-.712-7.4-1.058-14.339-1.058-.52,0-1.062,0-1.611.006v-.526l6.6-.527,1.1-3.158c-.084.006-.17.009-.258.009a3.44,3.44,0,0,1-2.121-.738,6.992,6.992,0,0,1-1.62-1.833,2.728,2.728,0,0,1-1.5.456,2.762,2.762,0,0,1-1.945-.815A2.6,2.6,0,0,1,5.5,4.737a3.113,3.113,0,0,1,1.665-2.92C6.553.673,6.04.113,5.5,0Z" transform="translate(25.361 20) rotate(180)"/></g><g transform="translate(1566.751 312.463)"><path class="k" d="M44.778,0,24.98,69.475,10.535,120.682H0L15.35,0Z" transform="translate(21.297 0)"/><path class="cy" d="M34.782,0c.458,35.808,2.019,55.339,2.5,58.592s7.751,23.95,21.81,62.089H48.178Q21.331,65.8,18.2,58.592C16.12,53.788,9.688,34.257,0,0Z" transform="translate(36.587)"/><g transform="translate(63.344 119.043)"><path class="k" d="M33.31,11.467,32.764,0H21.3C13.14,5.734,0,9.283,0,9.283v2.184H20.751l7.1-1.092v1.092Z"/></g><g transform="translate(0 119.043)"><path class="k" d="M33.31,11.467,32.764,0H21.3C13.14,5.734,0,9.283,0,9.283v2.184H20.751l7.1-1.092v1.092Z"/></g></g><g transform="translate(1546 253.488)"><g transform="translate(0)"><path class="j" d="M17.359,2.038C16.614,3.29,15.768,4.542,13.2,3.9,8.608,2.764,4.718-.16.439,3.784c-.526.485-.911,2,.883,2.778,4.468,1.937,11.07,5.563,12.14,6.971q2.19,2.88,13.573,32.883l11.19-2.22Q21.345,12.738,20.12,10.85C18.282,8.019,20,2.83,20.63.1a3.447,3.447,0,0,0-.779-.1C18.5,0,17.965,1.019,17.359,2.038ZM107.03,48.809l19.786,8.69a46.891,46.891,0,0,0,10.042,7.876c.965.307,2.614.4.855-2.17s-3.494-5.352-2.792-6.252,2.739.093,3.544-1.371q.805-1.465-10.3-3.5L113.348,40.715Z" transform="translate(138.52 91.194) rotate(180)"/><path class="n" d="M0,53.952,4.633,55.17c11.115-9.042,17.385-32.554,24.49-35.118,6.717-2.423,15.615,1.269,26.152,6.125l3.982-7.152C50.309,7.469,30.044-3.407,21.058,1,6.691,8.055.965,37.229,0,53.952Z" transform="matrix(-0.996, 0.087, -0.087, -0.996, 74.583, 56.658)"/><path class="cz" d="M43.276,72.319H1.5c-1.909,0-1.549-3.2-1.273-4.819C3.407,48.85,15.841,28.745,15.841,2.2L27.892,0C37.86,18.624,41.307,41.555,43.276,72.319Z" transform="translate(47.189)"/><path class="n" d="M0,1.715Q8.462,54.194,49.009,79.18H53.78s16.229-55.32,8.948-73.72H25.119a137.3,137.3,0,0,0,5.116,27.723Q17.459,10.138,8.757,0Z" transform="translate(124.868 79.18) rotate(180)"/></g></g></g></g></svg>