<svg xmlns="http://www.w3.org/2000/svg" xmlns:xlink="http://www.w3.org/1999/xlink" width="375.372" height="1180.098" viewBox="0 0 375.372 1180.098"><defs><style>.a{opacity:0.2;}.a,.b{fill:url(#a);}.b{opacity:0.4;}.c,.d{opacity:0.7;}.c{fill:url(#c);}.d{fill:url(#d);}</style><linearGradient id="a" x1="0.5" x2="0.5" y2="1" gradientUnits="objectBoundingBox"><stop offset="0" stop-color="#283fc3"/><stop offset="1" stop-color="#142588"/></linearGradient><linearGradient id="c" y1="0.423" x2="0.824" y2="0.423" gradientUnits="objectBoundingBox"><stop offset="0" stop-color="#142588"/><stop offset="1" stop-color="#283fc3"/></linearGradient><linearGradient id="d" x1="0" y1="0.381" x2="1" y2="0.381" xlink:href="#c"/></defs><g transform="translate(-0.024)"><path class="a" d="M235.686-922.787s105.161-64.22,218.782-39.341c59.415,13.01,99.966-2.137,125.555-19.847.508-.351,30.4,1.511,30.4,1.511l.091,1175.839-375.084-.041Z" transform="translate(-235.236 984.707)"/><path class="b" d="M234.664-991.969c4.525-1.08,65.613-14.319,158.882,37.277C482.34-905.571,590.592-969.558,609-981.216c1.493-.945.752,1161.622.748,1161.6l-375.019.02S234.66-991.952,234.664-991.969Z" transform="translate(-234.535 999.625)"/><path class="c" d="M610.515-997.807c-30.921-3.535-71.217-.864-121.395,17.411C363.876-934.782,248.178-947.74,235.8-949.3c0,.025-.744,846.663-.2,1127.288l375-.012S610.52-997.819,610.515-997.807Z" transform="translate(-235.379 1002.035)"/><path class="d" d="M590.392-946.966c-8.792-7.181-67.768-49.341-188.727-5.289C280.97-908.3,224.811-906.22,215.833-906.179c0,.031-.294,1114.154-.294,1114.154l375,.064S590.357-946.975,590.392-946.966Z" transform="translate(-215.342 972.059)"/></g></svg>