<svg xmlns="http://www.w3.org/2000/svg" width="244.754" height="219.752" viewBox="0 0 244.754 219.752"><g id="Group_3090" data-name="Group 3090" transform="translate(-38 -229)"><g id="Group_2567" data-name="Group 2567" transform="translate(-3495.119 -226.068)"><g id="Group_2450" data-name="Group 2450" transform="translate(3588.7 465.932)" style="isolation:isolate"><g id="Group_2440" data-name="Group 2440" transform="translate(0.51 148.964)"><g id="Group_2438" data-name="Group 2438" opacity=".3" transform="translate(0 7.011)"><path id="Path_11348" fill="#fff" d="M3595.78,1325.163h-2.915a1.366,1.366,0,0,1,0-2.732h2.915a1.366,1.366,0,0,1,0,2.732Z" data-name="Path 11348" transform="translate(-3591.5 -1322.432)"/><path id="Path_11349" fill="#fff" d="M3656.143,1325.163h-3.278a1.366,1.366,0,0,1,0-2.732h3.278a1.366,1.366,0,0,1,0,2.732Z" data-name="Path 11349" transform="translate(-3640.573 -1322.432)"/></g><g id="Group_2439" data-name="Group 2439" transform="translate(7.011)"><path id="Path_11350" fill="#fff" d="M3631.365,1351.577a1.366,1.366,0,0,1-1.366-1.366V1347.3a1.366,1.366,0,1,1,2.731,0v2.914A1.366,1.366,0,0,1,3631.365,1351.577Z" data-name="Path 11350" opacity=".3" transform="translate(-3630 -1334.641)"/><path id="Path_11351" fill="#fff" d="M3631.365,1289.941a1.366,1.366,0,0,1-1.366-1.366V1285.3a1.366,1.366,0,1,1,2.731,0v3.278A1.366,1.366,0,0,1,3631.365,1289.941Z" data-name="Path 11351" opacity=".3" transform="translate(-3630 -1283.932)"/></g></g><g id="Group_2443" data-name="Group 2443" opacity=".3" transform="translate(172.238 87.048)"><g id="Group_2441" data-name="Group 2441" transform="translate(0 7.011)"><path id="Path_11352" fill="#fff" d="M4538.779,985.163h-2.914a1.366,1.366,0,0,1,0-2.732h2.914a1.366,1.366,0,0,1,0,2.732Z" data-name="Path 11352" transform="translate(-4534.5 -982.432)"/><path id="Path_11353" fill="#fff" d="M4599.144,985.163h-3.278a1.366,1.366,0,0,1,0-2.732h3.278a1.366,1.366,0,0,1,0,2.732Z" data-name="Path 11353" transform="translate(-4583.573 -982.432)"/></g><g id="Group_2442" data-name="Group 2442" transform="translate(7.011)"><path id="Path_11354" fill="#fff" d="M4574.366,1011.577a1.365,1.365,0,0,1-1.366-1.366V1007.3a1.365,1.365,0,1,1,2.731,0v2.914A1.365,1.365,0,0,1,4574.366,1011.577Z" data-name="Path 11354" transform="translate(-4573 -994.641)"/><path id="Path_11355" fill="#fff" d="M4574.366,949.941a1.365,1.365,0,0,1-1.366-1.366V945.3a1.365,1.365,0,1,1,2.731,0v3.278A1.365,1.365,0,0,1,4574.366,949.941Z" data-name="Path 11355" transform="translate(-4573 -943.932)"/></g></g><g id="Group_2446" data-name="Group 2446" opacity=".3" transform="translate(54.596)"><g id="Group_2444" data-name="Group 2444" transform="translate(0 7.011)"><path id="Path_11356" fill="#fff" d="M3892.779,507.164h-2.914a1.366,1.366,0,0,1,0-2.732h2.914a1.366,1.366,0,0,1,0,2.732Z" data-name="Path 11356" transform="translate(-3888.5 -504.432)"/><path id="Path_11357" fill="#fff" d="M3953.144,507.164h-3.278a1.366,1.366,0,0,1,0-2.732h3.278a1.366,1.366,0,0,1,0,2.732Z" data-name="Path 11357" transform="translate(-3937.573 -504.432)"/></g><g id="Group_2445" data-name="Group 2445" transform="translate(7.011)"><path id="Path_11358" fill="#fff" d="M3928.365,533.577a1.366,1.366,0,0,1-1.365-1.366V529.3a1.365,1.365,0,1,1,2.731,0v2.914A1.365,1.365,0,0,1,3928.365,533.577Z" data-name="Path 11358" transform="translate(-3927 -516.641)"/><path id="Path_11359" fill="#fff" d="M3928.365,471.941a1.366,1.366,0,0,1-1.365-1.366V467.3a1.365,1.365,0,1,1,2.731,0v3.278A1.365,1.365,0,0,1,3928.365,471.941Z" data-name="Path 11359" transform="translate(-3927 -465.932)"/></g></g><g id="Group_2449" data-name="Group 2449" opacity=".3" transform="translate(168.414 137.492)"><g id="Group_2447" data-name="Group 2447" transform="translate(0 7.011)"><path id="Path_11360" fill="#fff" d="M4517.779,1262.163h-2.914a1.366,1.366,0,0,1,0-2.731h2.914a1.366,1.366,0,0,1,0,2.731Z" data-name="Path 11360" transform="translate(-4513.5 -1259.432)"/><path id="Path_11361" fill="#fff" d="M4578.143,1262.163h-3.277a1.366,1.366,0,1,1,0-2.731h3.277a1.366,1.366,0,1,1,0,2.731Z" data-name="Path 11361" transform="translate(-4562.573 -1259.432)"/></g><g id="Group_2448" data-name="Group 2448" transform="translate(7.011)"><path id="Path_11362" fill="#fff" d="M4553.365,1288.577a1.365,1.365,0,0,1-1.365-1.366V1284.3a1.365,1.365,0,1,1,2.73,0v2.914A1.365,1.365,0,0,1,4553.365,1288.577Z" data-name="Path 11362" transform="translate(-4552 -1271.641)"/><path id="Path_11363" fill="#fff" d="M4553.365,1226.941a1.365,1.365,0,0,1-1.365-1.366V1222.3a1.365,1.365,0,1,1,2.73,0v3.278A1.365,1.365,0,0,1,4553.365,1226.941Z" data-name="Path 11363" transform="translate(-4552 -1220.932)"/></g></g><path id="Path_11364" fill="#fff" d="M3593.127,1102.977a4.427,4.427,0,1,1,4.427-4.427A4.432,4.432,0,0,1,3593.127,1102.977Zm0-6.122a1.7,1.7,0,1,0,1.695,1.695A1.7,1.7,0,0,0,3593.127,1096.855Z" data-name="Path 11364" opacity=".915" transform="translate(-3588.699 -979.724)"/><path id="Path_11365" fill="#fff" d="M4116.4,555.468a4.427,4.427,0,1,1,4.427-4.427A4.432,4.432,0,0,1,4116.4,555.468Zm0-6.122a1.7,1.7,0,1,0,1.7,1.7A1.7,1.7,0,0,0,4116.4,549.346Z" data-name="Path 11365" transform="translate(-4016.684 -531.921)"/><path id="Path_11366" fill="#fff" d="M4437.4,1304.468a4.427,4.427,0,1,1,4.427-4.427A4.432,4.432,0,0,1,4437.4,1304.468Zm0-6.122a1.7,1.7,0,1,0,1.7,1.7A1.7,1.7,0,0,0,4437.4,1298.346Z" data-name="Path 11366" opacity=".3" transform="translate(-4279.227 -1144.522)"/><path id="Path_11367" fill="#fff" d="M3809.94,1386.095a83.8,83.8,0,0,1-56.907-22.2,1.366,1.366,0,0,1,1.851-2.01,81.225,81.225,0,0,0,107.274,2.494,1.366,1.366,0,0,1,1.755,2.093,83.711,83.711,0,0,1-53.974,19.62Z" data-name="Path 11367" transform="translate(-3722.748 -1198.432)"/><path id="Path_11368" fill="#fff" d="M4332.308,682.252a1.367,1.367,0,0,1-1.263-.845,81.62,81.62,0,0,0-32.6-38.261,1.366,1.366,0,1,1,1.434-2.326,84.365,84.365,0,0,1,33.689,39.544,1.367,1.367,0,0,1-1.262,1.888Z" data-name="Path 11368" transform="translate(-4168.665 -608.805)"/><path id="Path_11369" fill="#fff" d="M3607.366,703.656a1.366,1.366,0,0,1-1.366-1.366,84.05,84.05,0,0,1,43.982-73.9,1.366,1.366,0,0,1,1.3,2.4,81.319,81.319,0,0,0-42.555,71.5A1.366,1.366,0,0,1,3607.366,703.656Z" data-name="Path 11369" transform="translate(-3602.849 -598.671)"/></g><g id="Group_3037" data-name="Group 3037" transform="translate(3589.02 330.894)"><g id="Group_3019" data-name="Group 3019" transform="translate(48 220.7)"><path id="Path_11850" fill="#fff" d="M50.925,222.85H48A5.786,5.786,0,0,1,53.845,217H59.7v2.925H53.845A2.857,2.857,0,0,0,50.925,222.85Z" data-name="Path 11850" transform="translate(-48 -217)"/></g><g id="Group_3020" data-name="Group 3020" transform="translate(106.498 220.7)"><path id="Path_11851" fill="#fff" d="M93.85,224.312H90.925v-4.387H88V217h4.387a1.462,1.462,0,0,1,1.462,1.462Z" data-name="Path 11851" transform="translate(-88 -217)"/></g><g id="Group_3021" data-name="Group 3021" transform="translate(69.936 214.85)"><path id="Path_11852" fill="#fff" d="M64.463,226.162a1.463,1.463,0,0,1-.484-2.843l29.249-10.237a1.461,1.461,0,0,1,1.889.98L98.042,224.3a1.461,1.461,0,1,1-2.811.8l-2.5-8.745L64.947,226.08A1.484,1.484,0,0,1,64.463,226.162Z" data-name="Path 11852" transform="translate(-63 -213)"/></g><g id="Group_3022" data-name="Group 3022" transform="translate(58.237 209)"><path id="Path_11853" fill="#fff" d="M56.463,228.012a1.462,1.462,0,0,1-.61-2.792l35.1-16.087a1.463,1.463,0,0,1,1.919.676l1.462,2.925a1.463,1.463,0,1,1-2.618,1.307l-.829-1.66-33.814,15.5A1.457,1.457,0,0,1,56.463,228.012Z" data-name="Path 11853" transform="translate(-55 -209)"/></g><g id="Group_3023" data-name="Group 3023" transform="translate(94.799 244.099)"><path id="Path_11854" fill="#fff" d="M100.474,247.625H87.312a7.312,7.312,0,1,1,0-14.625h13.162a2.928,2.928,0,0,1,2.925,2.925V244.7A2.928,2.928,0,0,1,100.474,247.625Zm-13.162-11.7a4.387,4.387,0,1,0,0,8.775h13.162v-8.775Z" data-name="Path 11854" transform="translate(-80 -233)"/></g><g id="Group_3024" data-name="Group 3024" transform="translate(102.111 249.949)"><rect id="Rectangle_2065" width="3" height="3" fill="#fff" data-name="Rectangle 2065" transform="translate(-0.012 0.225)"/></g><g id="Group_3025" data-name="Group 3025" transform="translate(48 226.549)"><path id="Path_11855" fill="#fff" d="M116.736,267.8H53.85a5.788,5.788,0,0,1-5.85-5.85V221h2.925a2.86,2.86,0,0,0,2.925,2.925h62.886v16.087h-2.925V226.85H53.85a5.886,5.886,0,0,1-2.925-.76v35.859a2.86,2.86,0,0,0,2.925,2.925h59.961V251.712h2.925Z" data-name="Path 11855" transform="translate(-48 -221)"/></g><g id="Group_3026" data-name="Group 3026" transform="translate(80.174 236.787)"><path id="Path_11856" fill="#fff" d="M77.918,236.775H70V233.85h6.707l5.85-5.85h6.455v2.925H83.768Z" data-name="Path 11856" transform="translate(-70 -228)"/></g><g id="Group_3027" data-name="Group 3027" transform="translate(87.486 257.261)"><path id="Path_11857" fill="#fff" d="M102.787,250.775H84.632l-5.85-5.85H75V242h4.993l5.85,5.85h16.944Z" data-name="Path 11857" transform="translate(-75 -242)"/></g><g id="Group_3028" data-name="Group 3028" transform="translate(77.249 252.874)"><path id="Path_11858" fill="#fff" d="M73.85,250.7a5.85,5.85,0,1,1,5.85-5.85A5.856,5.856,0,0,1,73.85,250.7Zm0-8.775a2.925,2.925,0,1,0,2.925,2.925A2.928,2.928,0,0,0,73.85,241.925Z" data-name="Path 11858" transform="translate(-68 -239)"/></g><g id="Group_3029" data-name="Group 3029" transform="translate(69.937 238.249)"><path id="Path_11859" fill="#fff" d="M68.85,240.7a5.85,5.85,0,1,1,5.85-5.85A5.856,5.856,0,0,1,68.85,240.7Zm0-8.775a2.925,2.925,0,1,0,2.925,2.925A2.928,2.928,0,0,0,68.85,231.925Z" data-name="Path 11859" transform="translate(-63 -229)"/></g><g id="Group_3030" data-name="Group 3030" transform="translate(59.7 252.874)"><path id="Path_11860" fill="#fff" d="M61.85,250.7a5.85,5.85,0,1,1,5.85-5.85A5.856,5.856,0,0,1,61.85,250.7Zm0-8.775a2.925,2.925,0,1,0,2.925,2.925A2.928,2.928,0,0,0,61.85,241.925Z" data-name="Path 11860" transform="translate(-56 -239)"/></g><g id="Group_3031" data-name="Group 3031" transform="translate(102.111 236.787)"><rect id="Rectangle_2066" width="3" height="3" fill="#fff" data-name="Rectangle 2066" transform="translate(-0.012 0.387)"/></g><g id="Group_3032" data-name="Group 3032" transform="translate(107.961 236.787)"><rect id="Rectangle_2067" width="3" height="3" fill="#fff" data-name="Rectangle 2067" transform="translate(0.138 0.387)"/></g><g id="Group_3033" data-name="Group 3033" transform="translate(49.462 236.787)"><path id="Path_11861" fill="#fff" d="M66.55,245.549H63.625v-6.707l-7.918-7.918H49V228h7.918l9.632,9.632Z" data-name="Path 11861" transform="translate(-49 -228)"/></g><g id="Group_3034" data-name="Group 3034" transform="translate(53.85 249.949)"><rect id="Rectangle_2068" width="3" height="3" fill="#fff" data-name="Rectangle 2068" transform="translate(0.249 0.225)"/></g><g id="Group_3035" data-name="Group 3035" transform="translate(53.85 255.799)"><rect id="Rectangle_2069" width="3" height="3" fill="#fff" data-name="Rectangle 2069" transform="translate(0.249 0.375)"/></g><g id="Group_3036" data-name="Group 3036" transform="translate(53.85 261.648)"><rect id="Rectangle_2070" width="3" height="3" fill="#fff" data-name="Rectangle 2070" transform="translate(0.249 -0.475)"/></g></g></g><g id="Group_3014" data-name="Group 3014" transform="translate(77 -31)"><rect id="Rectangle" width="31" height="31" fill="#bde9fa" rx="15.5" transform="translate(23 439)"/><path id="Shape" fill="#008dc6" d="M12.938,9.893a3.752,3.752,0,0,0-1.814-.449,1.3,1.3,0,0,1-1.3-1.338,1.341,1.341,0,0,1,1.305-1.338,3.752,3.752,0,0,0,1.813-.449,3.425,3.425,0,0,0,1.453-4.09A3.3,3.3,0,0,0,10.711.052,3.364,3.364,0,0,0,7.98,3.386,3.959,3.959,0,0,0,8.5,5.206a1.338,1.338,0,0,1-.47,1.841,1.31,1.31,0,0,1-1.791-.5,3.853,3.853,0,0,0-1.28-1.371A3.251,3.251,0,0,0,.773,5.93a3.449,3.449,0,0,0,0,4.353,3.251,3.251,0,0,0,4.184.756,3.851,3.851,0,0,0,1.279-1.37,1.271,1.271,0,0,1,1.791-.5,1.38,1.38,0,0,1,.47,1.841,3.958,3.958,0,0,0-.518,1.819,3.364,3.364,0,0,0,2.731,3.334,3.3,3.3,0,0,0,3.68-2.176A3.425,3.425,0,0,0,12.938,9.893Z" transform="translate(30.394 446.394)"/></g><g id="Group_3015" data-name="Group 3015" transform="translate(205.193 -272.807)"><rect id="Rectangle-2" width="43" height="43" fill="#f2f2f2" data-name="Rectangle" rx="21.5" transform="translate(22.807 508.807)"/><path id="Shape-2" fill="#bebebe" d="M1.59,12.5,0,13.113l.767-3.074,1.609-.646L4.694,0H10.41L8.717,6.9l1.571-.636L9.53,9.332l-1.59.636L7,13.849h8.6l-.973,3.979H.281Z" data-name="Shape" transform="translate(36.507 521.393)"/></g><g id="Group_3016" data-name="Group 3016" transform="translate(15 -39)"><rect id="Rectangle-3" width="57" height="57" fill="#d9e8a5" data-name="Rectangle" rx="28.5" transform="translate(23 369)"/><path id="Subtraction_2" fill="#a8c741" d="M11.33,29.732h0l-2.576-.641L9.8,24.874c-.763-.189-1.435-.364-2.052-.533L6.7,28.579l-2.571-.644,1.065-4.281c-.22-.055-.44-.113-.662-.171l-.122-.032-.037-.01c-.331-.086-.674-.176-1.016-.26L0,22.346,1.28,19.4c.016,0,1.768.47,1.867.47h0l0,0a1.275,1.275,0,0,0,.3.039.946.946,0,0,0,.877-.651L6.017,12.5c.053.011.1.024.152.037l.029.007.09.023a1.9,1.9,0,0,0-.268-.086l1.2-4.822a1.379,1.379,0,0,0-1.2-1.5c0-.03-1.228-.318-1.872-.466l.685-2.75L8.39,3.83l0,.013c.521.13,1.054.252,1.647.386L11.088,0l2.574.642L12.628,4.789l.17.039c.594.136,1.266.291,1.894.448L15.72,1.153,18.3,1.8,17.241,6.028c3.925,1.352,5.565,3.235,5.162,5.926a4.122,4.122,0,0,1-3.288,3.782,5.064,5.064,0,0,1,2.471,2.375,5.18,5.18,0,0,1-.1,3.872c-.919,2.624-2.736,3.847-5.718,3.847a18.3,18.3,0,0,1-3.369-.37l-1.064,4.272ZM10,15.57,8.589,21.243c.119.029.253.065.4.1l.1.025a17.832,17.832,0,0,0,4.263.725c1.791,0,2.856-.636,3.168-1.891a2.305,2.305,0,0,0-.255-1.831c-1-1.619-4.009-2.295-5.625-2.658C10.39,15.661,10.179,15.614,10,15.57Zm1.931-7.739h0l-1.282,5.144c.107.027.231.06.369.1l.056.015a13.877,13.877,0,0,0,3.428.587c1.572,0,2.519-.594,2.811-1.766a2.184,2.184,0,0,0-.23-1.737c-.855-1.383-3.3-1.926-4.615-2.217C12.271,7.91,12.084,7.868,11.934,7.831Z" data-name="Subtraction 2" transform="translate(39.81 382.597)"/></g><g id="Group_3017" data-name="Group 3017" transform="translate(44.5 -51.5)"><rect id="Rectangle-4" width="48" height="48" fill="#e5e0ff" data-name="Rectangle" rx="24" transform="translate(23.5 299.5)"/><g id="Group_1816" data-name="Group 1816" transform="translate(38.552 307.939)"><path id="Path" fill="#ac9dff" d="M0,13.5,9.153,9.754l8.871,3.839L9.139,0Z"/><path id="Path-2" fill="#ac9dff" d="M0,0,9.139,5.137,18.46,0,9.223,12.472Z" data-name="Path" transform="translate(0.028 17.65)"/></g></g><g id="Group_3018" data-name="Group 3018" transform="translate(127)"><rect id="Rectangle-5" width="27" height="27" fill="#ffdaad" data-name="Rectangle" rx="13.5" transform="translate(23 229)"/><path id="Subtraction_3" fill="#f7931a" d="M5.367,14.084h0l-1.22-.3.5-2c-.362-.089-.68-.172-.972-.252l-.5,2.007-1.218-.3.5-2.028-.314-.081-.058-.015-.017,0c-.157-.041-.32-.083-.481-.123L0,10.585l.606-1.4c.008,0,.837.223.885.223h0a.6.6,0,0,0,.144.019.447.447,0,0,0,.415-.309l.8-3.2.072.017.014,0,.043.011a.911.911,0,0,0-.127-.041l.57-2.284a.653.653,0,0,0-.569-.71c0-.014-.581-.151-.887-.221l.325-1.3,1.683.42,0,.006c.246.061.5.119.78.183l.5-2L6.472.3l-.49,1.964.081.019c.281.065.6.138.9.212L7.447.546l1.22.3-.5,2c1.859.641,2.636,1.532,2.446,2.807A1.953,1.953,0,0,1,9.055,7.454a2.4,2.4,0,0,1,1.17,1.125,2.453,2.453,0,0,1-.049,1.834,2.547,2.547,0,0,1-2.708,1.822,8.682,8.682,0,0,1-1.6-.175l-.5,2.024ZM4.739,7.376l-.67,2.686.215.056.025.006a8.425,8.425,0,0,0,2.015.344c.849,0,1.354-.3,1.5-.9A1.09,1.09,0,0,0,7.7,8.7C7.23,7.936,5.8,7.617,5.037,7.445,4.927,7.421,4.824,7.4,4.739,7.376Zm.915-3.667h0L5.046,6.146l.175.046.026.007a6.575,6.575,0,0,0,1.624.278c.745,0,1.193-.282,1.331-.837a1.032,1.032,0,0,0-.109-.822c-.405-.655-1.564-.912-2.186-1.05C5.813,3.747,5.724,3.727,5.653,3.709Z" data-name="Subtraction 3" transform="translate(30.963 235.44)"/></g><g id="humaaans_standing-3" data-name="humaaans/standing-3" transform="translate(177 272.822)"><g id="humaaan-12" transform="translate(0 0)"><g id="Head_Front_Pony" data-name="Head/Front/Pony" transform="matrix(-0.966, 0.259, -0.259, -0.966, 79.928, 33.93)"><g id="Head" transform="translate(19.655 0)"><path id="Path_11804" fill="#d4a181" fill-rule="evenodd" d="M3.455,16.1a11.329,11.329,0,0,0-3.013,8.14c.628,8.949,13.086,6.981,15.509,2.464s2.135-15.974-1-16.781c-1.249-.322-3.91.467-6.618,2.1L10.036,0H0Z" data-name="Path 11804" transform="translate(0)"/></g><path id="hair" fill="#191847" fill-rule="evenodd" d="M26.583,4.188C25.339,1.8,23.617,0,21.9,0c-3.266,0-5.589,4.367-5.589,9.062q0,.247.01.491C12.864,7.183,10.2,2.509,5.629,2.509c-6.22,0-8.69,12.545,0,12.545,5.91,0,8.817-.862,11.322-2.136A8.138,8.138,0,0,0,19.12,16.3a3.371,3.371,0,0,0,1,.71,4.632,4.632,0,0,0,.83.356A20.835,20.835,0,0,0,27.094,18.4c.456.016.9.021,1.342.015a4.182,4.182,0,1,0,4.408-4.189,21.107,21.107,0,0,0-4.678-.8,8.721,8.721,0,0,0,.269-2.243A12.684,12.684,0,0,0,28.2,8.853a1.954,1.954,0,0,1-1.44.765,2.508,2.508,0,0,1-2.509-2.509A2.652,2.652,0,0,1,26.583,4.188Z" transform="translate(0 12.545)"/></g><g id="Bottom_Standing_Sweatpants" data-name="Bottom/Standing/Sweatpants" transform="translate(27.309 75.985)"><path id="Leg" fill="#ba8b72" fill-rule="evenodd" d="M163.245,0,147.927,52.786l-7.2,39.632h-7.232L140.709,0Z" transform="translate(-117.245 0)"/><path id="Leg-2" fill="#d4a181" fill-rule="evenodd" d="M116.913,0c-1.069,27.422-.647,42.378-.408,44.87s1.6,19.177,10.852,48.384h-7.522C107.579,65.235,103.3,48.549,101.9,44.87S96.338,26.234,90.277,0Z" data-name="Leg" transform="translate(-64.029)"/><path id="Pant" fill="#0184d6" fill-rule="evenodd" d="M164.035,0q-5.977,27.245-20.675,86.981H132.784C132,46.106,135.326,19.2,141.081,0Z" transform="translate(-117.706 0)"/><path id="Pant-2" fill="#00c4ff" fill-rule="evenodd" d="M119.386,0c-1.047,27.422,1.666,54.438,10.07,87.408H118.17A370.429,370.429,0,0,1,91.077,0Z" data-name="Pant" transform="translate(-66.448)"/><g id="Accessories_Shoe_Flat-Simple" data-name="Accessories/Shoe/Flat-Simple" transform="translate(39.309 91.163)"><path id="Shoe" fill="#191847" fill-rule="evenodd" d="M25.091,27.342l-.415-6.691q-3.645,1.066-9.13-.836A35.777,35.777,0,0,1,.7,25.521h0a.836.836,0,0,0-.664,1.053L.606,28.6H24.261Z" transform="translate(0 -19.815)"/></g><g id="Accessories_Shoe_Flat-Simple-2" data-name="Accessories/Shoe/Flat-Simple" transform="translate(0 91.163)"><path id="Shoe-2" fill="#191847" fill-rule="evenodd" d="M25.091,27.342l-.415-6.691q-3.645,1.066-9.13-.836A35.777,35.777,0,0,1,.7,25.521h0a.836.836,0,0,0-.664,1.053L.606,28.6H24.261Z" data-name="Shoe" transform="translate(0 -19.815)"/></g></g><g id="Body_Pointing-Forward" data-name="Body/Pointing-Forward" transform="translate(84.333 88.626) rotate(170)"><path id="Skin" fill="#d4a181" fill-rule="evenodd" d="M0,13.106l14.515,7.95a35.906,35.906,0,0,0,7.135,6.678c.716.3,1.968.48.8-1.6s-2.309-4.316-1.712-4.956,2.084.254,2.8-.81q.712-1.064-7.623-3.36L5.36,7.353ZM22.733,6.4l6.376,3.5q1.342,5.106,3.208,5.138c.956.445-.709-3.857,1.1-3.484s6.234,3.662,7,2.994c1.127-.988.122-4.022-1.062-5.531-2.214-2.82-4.046-3.785-8.576-5.048A24.9,24.9,0,0,1,23.1,0Z" transform="translate(34.046 29.604)"/><path id="Sleeve" fill="#826ae2" fill-rule="evenodd" d="M2.3,10.187a35.665,35.665,0,0,1,19.757,2.661l1.815-6.7c-5.7-4.11-13.269-7.031-19.3-5.9A5.542,5.542,0,0,0,2.3,10.187Z" transform="translate(26.297 34.059) rotate(9)"/><path id="Clothes" fill="#b5a7ed" fill-rule="evenodd" d="M33.823,34.321q8.1-2.019,27.153,4.762Q65.7,29.3,65.346,25.139c-10.9-5.693-20.24-8.231-27.936-8.4A26.484,26.484,0,0,0,35.232,3.859C31.393-4.3,8.916,3.256,1.359,1.768c-4.733,15.37,4.418,21.616,4.425,31.451.008,10.77,8.656,27.348,9.928,27.348h11.6C27.956,52.341,31.178,43.276,33.823,34.321Z" transform="translate(0 0)"/></g></g></g></g></svg>