<svg xmlns="http://www.w3.org/2000/svg" width="620.754" height="291" viewBox="0 0 620.754 291"><defs><style>.a,.c,.d{fill:#fff;}.b,.c{opacity:0.3;}.c,.d,.e{isolation:isolate;}.d,.e{opacity:0.6;}.e{fill:#23379d;}.f,.j{fill:#b28b67;}.f,.g,.h,.i,.k,.l,.n,.o,.p,.q,.r{fill-rule:evenodd;}.g{fill:#191847;}.h{fill:#82b9a6;}.i{fill:#a6e3ce;}.k{fill:#a6b1eb;}.l{fill:#dde3e9;}.m{fill:#ff276a;}.n{fill:#836aeb;}.o{fill:#9c84ff;}.p{fill:#e87613;}.q{fill:#ff9519;}</style></defs><g transform="translate(-2404.44 -867.789)"><g transform="translate(2404.44 867.789)"><path class="a" d="M2479.76,1021.932a3.673,3.673,0,0,1-3.569-2.823A227.811,227.811,0,0,1,2472,938.764a3.667,3.667,0,0,1,7.276.918h0a220.513,220.513,0,0,0,4.052,77.742,3.664,3.664,0,0,1-2.727,4.408h0A3.754,3.754,0,0,1,2479.76,1021.932Z" transform="translate(-2403.893 -867.225)"/><g class="b" transform="translate(70.849 188.397)"><path class="a" d="M2486.2,1061.966h-7.825a3.668,3.668,0,0,1,0-7.336h7.825a3.668,3.668,0,1,1,0,7.336Z" transform="translate(-2474.705 -1054.631)"/><path class="a" d="M2516.272,1061.966h-8.8a3.668,3.668,0,0,1,0-7.336h8.8a3.668,3.668,0,1,1,0,7.336Z" transform="translate(-2474.462 -1054.631)"/></g><g transform="translate(89.676 169.555)"><path class="c" d="M2497.04,1081.191a3.668,3.668,0,0,1-3.664-3.669V1069.7a3.667,3.667,0,0,1,7.333-.033v7.858a3.668,3.668,0,0,1-3.668,3.669Z" transform="translate(-2493.376 -1035.693)"/><path class="c" d="M2497.04,1052.1a3.668,3.668,0,0,1-3.664-3.669v-8.8a3.667,3.667,0,1,1,7.333-.033v8.832a3.667,3.667,0,0,1-3.666,3.669Z" transform="translate(-2493.376 -1035.944)"/></g><g transform="translate(0 86.676)"><path class="a" d="M2415.87,961.087h-7.827a3.669,3.669,0,0,1,0-7.338h7.827a3.669,3.669,0,0,1,0,7.338Z" transform="translate(-2404.44 -953.749)"/><path class="a" d="M2445.942,961.087h-8.8a3.669,3.669,0,0,1,0-7.338h8.8a3.669,3.669,0,1,1,.13,7.338Q2446.007,961.089,2445.942,961.087Z" transform="translate(-2404.198 -953.749)"/></g><g transform="translate(18.764 67.784)"><path class="a" d="M2426.721,980.3a3.666,3.666,0,0,1-3.671-3.663v-7.83a3.668,3.668,0,0,1,7.334,0v7.825a3.663,3.663,0,0,1-3.657,3.668Z" transform="translate(-2423.049 -934.762)"/><path class="a" d="M2426.721,951.217a3.672,3.672,0,0,1-3.671-3.669v-8.8a3.668,3.668,0,1,1,7.334-.128c0,.042,0,.086,0,.128v8.8A3.668,3.668,0,0,1,2426.721,951.217Z" transform="translate(-2423.049 -935.013)"/></g><path class="c" d="M2531.311,992.9a11.889,11.889,0,1,1,11.886-11.892v0A11.9,11.9,0,0,1,2531.311,992.9Zm0-16.443a4.553,4.553,0,1,0,4.55,4.556h0A4.56,4.56,0,0,0,2531.311,976.458Z" transform="translate(-2403.483 -866.945)"/><path class="c" d="M2858.339,915.047a11.887,11.887,0,1,1,11.885-11.889v0A11.9,11.9,0,0,1,2858.339,915.047Zm0-16.436a4.552,4.552,0,1,0,4.552,4.552,4.552,4.552,0,0,0-4.552-4.552Z" transform="translate(-2400.761 -867.593)"/><g transform="translate(396.828 79.349)"><g transform="translate(44.852 1.758)"><path class="a" d="M2969.632,978.417a3.707,3.707,0,0,0,4.055-3.32v-.007a14.662,14.662,0,0,0-12.961-16.187c-.108-.012-.215-.023-.323-.032l-33.213-3.294a3.708,3.708,0,0,0-.732,7.378l33.216,3.294a7.245,7.245,0,0,1,6.667,7.78q-.012.165-.033.33a3.706,3.706,0,0,0,3.315,4.057Z" transform="translate(-2841.802 -948.165)"/><path class="a" d="M2949.079,957.75l-94.1-9.331c-6.705-.664-12.3.447-12.5,2.487s5.071,4.226,11.771,4.9l94.831,9.4Z" transform="translate(-2842.474 -948.226)"/></g><g transform="translate(31.734)"><path class="a" d="M2832.8,976.029a3.71,3.71,0,0,0,4.057-3.327l1.828-18.452,29.514,2.924a3.707,3.707,0,1,0,.86-7.365l-.126-.013-33.2-3.294a3.709,3.709,0,0,0-4.058,3.323v0l-2.192,22.135a3.706,3.706,0,0,0,3.311,4.065Z" transform="translate(-2829.464 -946.482)"/></g><g transform="translate(3.41 20.315)"><path class="a" d="M2804.716,1073.648l143.888,14.271a14.678,14.678,0,0,0,16.194-12.987c.011-.1.021-.207.03-.31L2974.711,975a3.707,3.707,0,1,0-7.37-.814c0,.028-.006.056-.009.085a7.249,7.249,0,0,1-7.778,6.678c-.112-.008-.223-.019-.333-.032l-143.889-14.268a3.7,3.7,0,0,0-4.055,3.316v.011l-2.562,25.826a3.71,3.71,0,0,0,7.382.732l2.193-22.139,140.2,13.9a14.96,14.96,0,0,0,7.563-1.183l-8.606,86.776a7.246,7.246,0,0,1-7.77,6.68c-.112-.008-.225-.019-.336-.033l-140.2-13.9,2.559-25.828a3.707,3.707,0,0,0-7.376-.732l-2.929,29.516A3.708,3.708,0,0,0,2804.716,1073.648Z" transform="translate(-2801.374 -966.63)"/></g><g transform="translate(0 45.761)"><path class="a" d="M2798.064,1028.065l2.929-29.517a7.423,7.423,0,0,1,8.109-6.647l3.69.365a3.707,3.707,0,0,1,3.328,4.048v.008c-.182,1.829,2,3.923,3.327,4.053l36.9,3.66c12.828,1.271,21.212,11.5,19.94,24.333s-11.5,21.215-24.332,19.942l-40.585-4.027A14.846,14.846,0,0,1,2798.064,1028.065Zm20.642-20.307c-4.048-.4-8.317-3.884-9.618-8.405l-.718-.074-2.924,29.517a7.428,7.428,0,0,0,6.655,8.11l40.585,4.027c8.689.859,15.359-4.606,16.219-13.3s-4.6-15.361-13.293-16.222Z" transform="translate(-2797.993 -991.865)"/></g><g transform="translate(52.092 76.014)"><rect class="a" width="7.415" height="7.415" transform="matrix(0.099, -0.995, 0.995, 0.099, 0, 7.379)"/></g></g><g transform="translate(29.522)"><path class="d" d="M2516.844,867.789a5.263,5.263,0,0,1-4.994,3.584h-.033a5.266,5.266,0,0,1-4.942-3.584h-7.55a12.609,12.609,0,0,0,12.448,10.913h.082a12.609,12.609,0,0,0,12.528-10.913Z" transform="translate(-2433.172 -867.789)"/><path class="d" d="M2582.387,867.789V908.5H2441.052V867.789h-7.333v44.37a3.667,3.667,0,0,0,3.667,3.667h148.67a3.668,3.668,0,0,0,3.669-3.667v-44.37Z" transform="translate(-2433.719 -867.789)"/><path class="d" d="M2568.079,867.789v17.373a21.048,21.048,0,0,0-8.9,9.637h-96.123a20.819,20.819,0,0,0-7.922-9.067V867.789H2447.8V887.9a3.671,3.671,0,0,0,2.09,3.312,13.486,13.486,0,0,1,7.119,8.305,3.668,3.668,0,0,0,3.516,2.622h101.188a3.666,3.666,0,0,0,3.514-2.622,13.57,13.57,0,0,1,7.884-8.636,3.671,3.671,0,0,0,2.3-3.4V867.789Z" transform="translate(-2433.602 -867.789)"/></g><g transform="translate(109.727 228.083)"><path class="a" d="M2516.657,1097.386s18.094,22.01,26.408,29.342" transform="translate(-2513.233 -1093.961)"/><path class="a" d="M2543.089,1130.178a3.394,3.394,0,0,1-2.262-.857c-8.425-7.431-26.044-28.828-26.788-29.738a3.422,3.422,0,1,1,5.288-4.344c.18.218,18.018,21.88,26.029,28.949a3.423,3.423,0,0,1-2.268,5.989Z" transform="translate(-2513.261 -1093.989)"/></g><path class="a" d="M2909.72,904.571a3.591,3.591,0,0,1-6.935.4c-1.9-5.86-4.072-11.713-6.462-17.4a3.591,3.591,0,0,1,6.621-2.778c2.466,5.868,4.708,11.912,6.671,17.963A3.6,3.6,0,0,1,2909.72,904.571Z" transform="translate(-2400.348 -867.665)"/><path class="e" d="M2824.094,1156.727a229.926,229.926,0,0,0,39.716-35.2,3.589,3.589,0,0,0,.036-4.74,4.121,4.121,0,0,0-.321-.331,3.592,3.592,0,0,0-5.069.289,222.876,222.876,0,0,1-42.076,36.6c-1.726,1.158-3.472,2.284-5.23,3.391Z" transform="translate(-2401.055 -865.727)"/></g><g transform="translate(2762.243 941.526)"><g transform="translate(99.02)"><g transform="translate(0 37.755)"><path class="f" d="M2891.011,1012.628c4.579-5.374,7.676-11.96,7.159-19.339-1.492-21.263-31.09-16.585-36.847-5.853s-5.073,37.952,2.368,39.87c2.968.765,9.289-1.109,15.723-4.987l-4.038,28.57h23.845Z" transform="translate(-2857.492 -978.361)"/></g><path class="g" d="M2874.889,975.378c3.143-.515,11.6-.87,13.165-.869,1,0,2.078.228,2.669-.688.484-.75.3-2.017.451-2.888.167-1.008.4-2.009.646-3a30.519,30.519,0,0,1,3.171-8.056,24.759,24.759,0,0,1,11.738-10.627,37.684,37.684,0,0,1,17.82-2.451c6.4.518,12.186,2.63,18.225,4.616a38.192,38.192,0,0,0,17.8,1.714c6.064-.932,10.646-4.218,15.761-7.338,5.237-3.193,11.22-5.283,17.41-4.8,5.774.448,11.1,2.831,15.88,6.021,4.471,2.982,8.159,6.569,10.241,11.619,2.239,5.432,2.239,11.393-1.445,16.194-5.344,6.957-15.253,8.757-23.5,8.579a44.891,44.891,0,0,1-13.955-2.558c-6.007-2.117-11.192-5.694-16.816-8.6a43.789,43.789,0,0,0-8.22-3.289c-2.773-.784-5.5-1.142-8.014.532a37.85,37.85,0,0,1-8.073,4.621,26.05,26.05,0,0,1-9.111,1.635c-6.042-.046-12-1.929-17.864-3.19-4.785-1.028-9.9-2.053-14.783-1.065-2.036.412-5.009,1.263-5.747,3.379,12.374,2.242,17.234,17.545,13.746,28.78-1.883,6.063-13.2,13.151-17.6,9.964-2.788-2.017-1.1-4.671,0-6.421,2.1-3.352,2.815-7.657-1.066-9.99-3.348-2.017-6.868,2.767-6.934,2.762-.921-.073-8.873-4.569-14.35-11.131-5.4.321-6.224-3.243-4.933-6.157S2870.545,976.091,2874.889,975.378Z" transform="translate(-2857.465 -940.918)"/></g><g transform="translate(26.899 192.746)"><path class="h" d="M2843.551,1156.589l34.406-17.515v-7h-7.513q-64.308,16.386-84.478,24.515Z" transform="translate(-2785.966 -1132.073)"/><path class="i" d="M2922.034,1156.589c.855-6.85.505-14.96-.905-24.516H2866.92c-6.958,2-36.855,14.339-60.931,24.516Z" transform="translate(-2785.799 -1132.073)"/></g><g transform="translate(0 88.425)"><path class="j" d="M2759.388,1093.021q-1.466,2.665,18.736,6.376l26.962,20.671,11.492-14.724-36-15.811a85.315,85.315,0,0,0-18.268-14.329c-1.757-.559-4.756-.728-1.556,3.948s6.358,9.737,5.079,11.376S2760.853,1090.356,2759.388,1093.021Z" transform="translate(-2759.289 -1028.228)"/><path class="j" d="M2979.291,1156.778q-6.4-15.019-18.672-47.368l-20.359,4.039q15.13,28.2,23.344,43.329Z" transform="translate(-2757.783 -1027.94)"/><path class="k" d="M2886.222,1033.88l-8.591-1.475c-18.712,18.151-26.348,61.761-38.819,67.533-11.791,5.458-28.5.176-48.371-6.954l-6.084,13.589c18.051,19.534,56.507,36.033,72.091,26.615C2881.373,1118.129,2887.125,1064.342,2886.222,1033.88Z" transform="translate(-2759.081 -1028.581)"/><path class="l" d="M2923.172,1141.876h-76.016c-3.473,0-2.823-5.016-2.319-7.546,5.8-29.211,28.423-60.7,28.423-102.278l21.927-3.438C2913.319,1057.782,2919.591,1093.694,2923.172,1141.876Z" transform="translate(-2758.581 -1028.613)"/><path class="k" d="M2939.431,1157.45a259.5,259.5,0,0,0-8.865-45.145l0,0h0v0q15.369,27.713,27.486,45.145h25.293q-17.925-86.3-86.937-128.837h-8.68q-27.361,93.264-17.986,128.837Z" transform="translate(-2758.39 -1028.613)"/></g></g><path class="m" d="M2738.792,970.84h-33.209a31.528,31.528,0,0,0,2.512-2.156c8.974-8.974,9.515-22.8,1.257-30.877a19.8,19.8,0,0,0-14.182-5.747,23.827,23.827,0,0,0-16.7,7,52.579,52.579,0,0,0-7.54,10.768,39.726,39.726,0,0,0-7.538-10.768,23.828,23.828,0,0,0-16.7-7,19.5,19.5,0,0,0-14.181,5.747c-8.079,8.079-7.54,22.082,1.256,30.877a30.929,30.929,0,0,0,2.514,2.156h-33.207a5.4,5.4,0,0,0-5.385,5.38v38.956a5.4,5.4,0,0,0,5.385,5.386h.9v64.445a5.4,5.4,0,0,0,5.385,5.386H2732.69a5.4,5.4,0,0,0,5.385-5.386v-64.627h.9a5.4,5.4,0,0,0,5.386-5.385V976.224A5.818,5.818,0,0,0,2738.792,970.84Zm-73.24,108.608h-50.986v-59.063h50.986Zm0-69.653H2608.28V981.61h57.272Zm0-40.93a2.68,2.68,0,0,1-.538,1.435,4.5,4.5,0,0,1-2.514.539h0c-6.462,0-16.874-5.386-21.362-9.694-4.668-4.668-5.385-11.849-1.258-15.8a9.681,9.681,0,0,1,6.642-2.693,13.264,13.264,0,0,1,9.155,3.951c5.206,5.206,9.335,15.078,9.874,20.464Zm10.587-1.8c.539-5.385,4.667-15.258,9.874-20.464a13.256,13.256,0,0,1,9.155-3.951,8.659,8.659,0,0,1,6.642,2.693c3.95,3.949,3.412,11.13-1.255,15.8-4.488,4.488-14.9,9.694-21.364,9.694a5.071,5.071,0,0,1-2.513-.539,2.034,2.034,0,0,1-.539-1.435Zm51.161,112.379h-50.98v-59.062H2727.3Zm6.1-69.653h-57.084V981.61h57.266v28.185Z" transform="translate(1.609 0.535)"/><g transform="translate(2418.776 932.633)"><g transform="translate(49.924)"><g transform="translate(21.466 15.224)"><path class="f" d="M2496.851,978.058c-4.123-4.84-6.914-10.771-6.448-17.417,1.343-19.149,28-14.936,33.185-5.272s4.569,34.176-2.133,35.907c-2.672.689-8.369-1-14.16-4.491l3.639,25.73h-21.477Z" transform="translate(-2489.458 -947.196)"/></g><path class="g" d="M2533.279,942.091a4.646,4.646,0,0,0-3.252-3.3,4.285,4.285,0,0,0-1.2-.119c-.144.006-.185.047-.252-.053a1.322,1.322,0,0,1-.072-.346,6.2,6.2,0,0,0-1.83-3.166,8,8,0,0,0-4.8-2.271,7,7,0,0,0-2.885.393,11.365,11.365,0,0,0-1.4.6c-.137.069-.58.4-.717.382s-.456-.4-.579-.5a8.484,8.484,0,0,0-5.3-1.613c-2.141.016-4.2.123-5.986,1.428a12.022,12.022,0,0,0-1.081.9q-.271.251-.522.522c-.1.11-.2.222-.292.336-.16.195-.134.259-.358.123a4.455,4.455,0,0,0-2.858-.643,6.4,6.4,0,0,0-1.725.487c-.187.08-.621.4-.821.4a4.158,4.158,0,0,1-.83-.368,6.8,6.8,0,0,0-3.445-.314,8.889,8.889,0,0,0-3.38,1.329,4.529,4.529,0,0,0-1.259,1.139,7.468,7.468,0,0,1-.448.6c-.1.111-.291.224-.344.363a7.467,7.467,0,0,0-1.433-.632,3.533,3.533,0,0,0-2.017.077,8.009,8.009,0,0,0-3.178,2.259,9.417,9.417,0,0,0-1.617,2.416,3.059,3.059,0,0,1-.194.436c-.11.16-.184.163-.384.233a6.194,6.194,0,0,0-2.641,1.768,6.072,6.072,0,0,0-1.357,2.9,1.529,1.529,0,0,1-.055.357c-.051.046-.254.026-.332.035a7.048,7.048,0,0,0-.793.14,6.568,6.568,0,0,0-1.4.5,7.291,7.291,0,0,0-3.576,4.265,8.652,8.652,0,0,0,.135,5.928,5.716,5.716,0,0,0,.441.868c.1.169.139.169.071.348-.077.2-.216.39-.3.583a8.358,8.358,0,0,0-.632,1.981,9.275,9.275,0,0,0-.109,3.428,4.929,4.929,0,0,0,.523,1.5,4.119,4.119,0,0,0,.464.673,4.2,4.2,0,0,0,.289.312,2.093,2.093,0,0,1,.183.169c.12.154.145.027.084.254q-.179.479-.4.938c-.124.318-.236.639-.338.965a14.249,14.249,0,0,0-.492,2.011,6.309,6.309,0,0,0,.446,3.906,3.883,3.883,0,0,0,1.109,1.311,4.068,4.068,0,0,0,.726.441c.132.063.3.09.36.217s-.031.408-.054.562a9.352,9.352,0,0,0,.11,4.033,5.567,5.567,0,0,0,2.209,2.965,6.874,6.874,0,0,0,6.872.195,7.2,7.2,0,0,0,1.533-1.055c1.177,1.584,3.6,1.534,5.319,1.083a7.643,7.643,0,0,0,4.85-4,3.233,3.233,0,0,0,4.573.06,3.267,3.267,0,0,0,.565-.735,4.308,4.308,0,0,0,.434-1.412c.035-.257.013-.516.039-.77a3.919,3.919,0,0,1,.375-.954,5.284,5.284,0,0,0,.4-1.9,9.846,9.846,0,0,0-.073-1.021,3.461,3.461,0,0,1,.1-.9,4.1,4.1,0,0,1-1.738-.217,3.421,3.421,0,0,1-1.343-.945,7.831,7.831,0,0,1-1.689-3.158c-.763-2.5-.451-5.5,2.065-6.875,1.172-.639,4.683-.637,6.079-.322,1.468.333,3.132,3.57,3.214,3.875.05.189.025.422.2.548.38.276,1.009-.2,1.289-.44a5.085,5.085,0,0,0,1.123-1.5,18.608,18.608,0,0,0,1.548-3.8c.286-1.008.469-2.055.843-3.041a4.649,4.649,0,0,1,1.871-2.414,16.448,16.448,0,0,1,3.219-1.3,8,8,0,0,0,2.977-1.635,4.067,4.067,0,0,0,.512-.57c.117-.163.233-.476.41-.58.277-.161.682.258.921.409a10.666,10.666,0,0,1,2.962,2.94,18.343,18.343,0,0,1,1.966,3.5,10.121,10.121,0,0,0,1.323,2.924,5.582,5.582,0,0,0,3.328.252,4.211,4.211,0,0,0,1.815-1.572,2.448,2.448,0,0,0,.2-1.6c-.064-.323-.195-.624-.265-.941a2.985,2.985,0,0,0-.244-.762A1.881,1.881,0,0,0,2529.9,957a5.508,5.508,0,0,0,1.265-1.714,7.376,7.376,0,0,0,.656-2.235,2.721,2.721,0,0,0-.363-1.741,4.6,4.6,0,0,0-1.478-1.238,9.691,9.691,0,0,0,2.07-2.254A7.039,7.039,0,0,0,2533.279,942.091Z" transform="translate(-2468.169 -932.098)"/></g><g transform="translate(53.208 154.585)"><path class="n" d="M2546.348,1156.978l-15-71.566h-48.922l27.047,71.566Z" transform="translate(-2471.334 -1085.407)"/><path class="o" d="M2507.8,1156.978c7.422-22.415,16.279-50.864,22.142-71.571l-58.057.005c-.283,23.6-.271,52.133-.458,71.566Z" transform="translate(-2471.426 -1085.407)"/></g><g transform="translate(0 57.617)"><path class="f" d="M2558.8,1074.187l28.542,20.959a76.835,76.835,0,0,1,19.4,7.8c1.227,1.118,2.709,3.382-2.379,2.991s-10.459-.574-11.16,1.162,2.376,3.812.958,6.151q-1.419,2.341-13.411-11.743l-28.264-11.721Zm-109.589.723,18.7.074q-17.316,55.9-18.7,59.333c-2.07,5.131,2.311,12.946,4.184,17.141-6.1,2.731-5.452-7.382-13.15-3.8-7.027,3.269-12.372,9.192-20.49,4.183-1-.616-2.093-2.934.55-4.746,6.583-4.514,16.071-12.416,17.353-15.016Q2440.281,1126.753,2449.211,1074.91Z" transform="translate(-2418.657 -988.532)"/><path class="p" d="M2501.658,997.1l7.738-1.328c28.708,24.8,40.5,72.443,75.688,97.681l-8.469,10.495C2515.568,1096.394,2500.437,1038.281,2501.658,997.1Z" transform="translate(-2417.967 -989.185)"/><path class="l" d="M2468.209,1094.365h68.465c3.126,0,2.539-4.517,2.086-6.8-5.219-26.307-25.594-54.665-25.594-92.113l-19.75-3.1C2477.082,1018.628,2471.434,1050.971,2468.209,1094.365Z" transform="translate(-2418.245 -989.214)"/><path class="q" d="M2469.018,1018.206a11.291,11.291,0,0,1-6.813-5.769c-7.218-13.024-4.611-20.195,3.1-22.552s14.593,2.5,26.882,2.5a12.326,12.326,0,0,1,1.837.126l6.182.353q26.6,90.17,14.675,120.319H2461a183.74,183.74,0,0,1-9.166,18.791h-14.682Q2435.078,1064.952,2469.018,1018.206Z" transform="translate(-2418.504 -989.24)"/><path class="r" d="M2472.533,1081.541q2.541,21.269,8.263,30.873h-20Q2466.385,1099.387,2472.533,1081.541Z" transform="translate(-2418.306 -988.471)"/></g></g></g></svg>