<svg xmlns="http://www.w3.org/2000/svg" xmlns:xlink="http://www.w3.org/1999/xlink" width="171" height="49" viewBox="0 0 171 49">
  <defs>
    <linearGradient id="linear-gradient" x1="0.915" y1="6.225" x2="-0.383" y2="5.556" gradientUnits="objectBoundingBox">
      <stop offset="0" stop-color="#00a0ff"/>
      <stop offset="0.007" stop-color="#00a1ff"/>
      <stop offset="0.26" stop-color="#00beff"/>
      <stop offset="0.512" stop-color="#00d2ff"/>
      <stop offset="0.76" stop-color="#00dfff"/>
      <stop offset="1" stop-color="#00e3ff"/>
    </linearGradient>
    <linearGradient id="linear-gradient-2" x1="1.076" y1="15.958" x2="-1.305" y2="15.958" gradientUnits="objectBoundingBox">
      <stop offset="0" stop-color="#ffe000"/>
      <stop offset="0.409" stop-color="#ffbd00"/>
      <stop offset="0.775" stop-color="orange"/>
      <stop offset="1" stop-color="#ff9c00"/>
    </linearGradient>
    <linearGradient id="linear-gradient-3" x1="0.862" y1="10.105" x2="-0.501" y2="8.335" gradientUnits="objectBoundingBox">
      <stop offset="0" stop-color="#ff3a44"/>
      <stop offset="1" stop-color="#c31162"/>
    </linearGradient>
    <linearGradient id="linear-gradient-4" x1="-0.188" y1="12.825" x2="0.421" y2="12.035" gradientUnits="objectBoundingBox">
      <stop offset="0" stop-color="#32a071"/>
      <stop offset="0.068" stop-color="#2da771"/>
      <stop offset="0.476" stop-color="#15cf74"/>
      <stop offset="0.801" stop-color="#06e775"/>
      <stop offset="1" stop-color="#00f076"/>
    </linearGradient>
  </defs>
  <g id="Group_3219" data-name="Group 3219" transform="translate(0.035 0.255)">
    <rect id="Rectangle_1953" data-name="Rectangle 1953" width="171" height="49" rx="5" transform="translate(-0.035 -0.255)"/>
    <g id="Group_2353" data-name="Group 2353" transform="translate(52.009 7.907)">
      <path id="Path_11307" data-name="Path 11307" d="M53.134,26a3.419,3.419,0,0,1-.94,2.528,3.671,3.671,0,0,1-2.782,1.121,3.979,3.979,0,0,1-2.787-6.774,3.81,3.81,0,0,1,2.787-1.137,3.921,3.921,0,0,1,1.555.317,3.116,3.116,0,0,1,1.184.847l-.665.665a2.562,2.562,0,0,0-2.074-.9A2.929,2.929,0,0,0,46.47,25.7a2.979,2.979,0,0,0,5.057,2.18,2.388,2.388,0,0,0,.635-1.535h-2.75v-.909h3.671A3.228,3.228,0,0,1,53.134,26Z" transform="translate(-45.477 -21.741)" fill="#fff" stroke="#fff" stroke-miterlimit="10" stroke-width="0.2"/>
      <path id="Path_11308" data-name="Path 11308" d="M57.072,22.805h-3.45v2.4h3.11v.909h-3.11v2.4h3.45v.93H52.65V21.875h4.422Z" transform="translate(-43.596 -21.706)" fill="#fff" stroke="#fff" stroke-miterlimit="10" stroke-width="0.2"/>
      <path id="Path_11309" data-name="Path 11309" d="M60.046,29.448h-.974V22.805H56.957v-.93h5.2v.93H60.046Z" transform="translate(-42.466 -21.706)" fill="#fff" stroke="#fff" stroke-miterlimit="10" stroke-width="0.2"/>
      <path id="Path_11310" data-name="Path 11310" d="M64.063,29.448V21.875h.972v7.573Z" transform="translate(-40.603 -21.706)" fill="#fff" stroke="#fff" stroke-miterlimit="10" stroke-width="0.2"/>
      <path id="Path_11311" data-name="Path 11311" d="M68.895,29.448h-.973V22.805H65.806v-.93h5.2v.93H68.895Z" transform="translate(-40.146 -21.706)" fill="#fff" stroke="#fff" stroke-miterlimit="10" stroke-width="0.2"/>
      <path id="Path_11312" data-name="Path 11312" d="M79.119,28.505a3.933,3.933,0,0,1-5.553,0,4.092,4.092,0,0,1,0-5.617,3.92,3.92,0,0,1,5.548.005,4.079,4.079,0,0,1,.005,5.612Zm-4.834-.635a2.913,2.913,0,0,0,4.115,0,3.227,3.227,0,0,0,0-4.347,2.913,2.913,0,0,0-4.115,0,3.23,3.23,0,0,0,0,4.347Z" transform="translate(-38.403 -21.741)" fill="#fff" stroke="#fff" stroke-miterlimit="10" stroke-width="0.2"/>
      <path id="Path_11313" data-name="Path 11313" d="M79.7,29.448V21.875h1.185l3.681,5.891h.042l-.042-1.459V21.875h.973v7.573H84.524l-3.851-6.177h-.042l.042,1.46v4.717Z" transform="translate(-36.502 -21.706)" fill="#fff" stroke="#fff" stroke-miterlimit="10" stroke-width="0.2"/>
    </g>
    <path id="Path_11314" data-name="Path 11314" d="M79.366,37.861a5.368,5.368,0,1,0,5.389,5.368A5.291,5.291,0,0,0,79.366,37.861Zm0,8.621A3.262,3.262,0,1,1,82.4,43.229,3.106,3.106,0,0,1,79.366,46.482ZM67.611,37.861A5.368,5.368,0,1,0,73,43.229,5.292,5.292,0,0,0,67.611,37.861Zm0,8.621a3.262,3.262,0,1,1,3.029-3.253A3.106,3.106,0,0,1,67.611,46.482ZM53.627,39.508v2.277h5.449a4.753,4.753,0,0,1-1.24,2.867,5.58,5.58,0,0,1-4.21,1.667,6.06,6.06,0,0,1,0-12.119,5.806,5.806,0,0,1,4.107,1.627l1.607-1.607a7.946,7.946,0,0,0-5.714-2.3,8.339,8.339,0,1,0,0,16.676,7.619,7.619,0,0,0,5.815-2.339,7.525,7.525,0,0,0,1.973-5.328,7.357,7.357,0,0,0-.122-1.423Zm57.19,1.768a4.99,4.99,0,0,0-4.6-3.416,5.1,5.1,0,0,0-5.063,5.368,5.253,5.253,0,0,0,5.328,5.368,5.339,5.339,0,0,0,4.473-2.379L109.129,45a3.067,3.067,0,0,1-2.643,1.484,2.732,2.732,0,0,1-2.6-1.626l7.178-2.97Zm-7.321,1.79a2.945,2.945,0,0,1,2.806-3.132,2.077,2.077,0,0,1,1.993,1.139ZM97.66,48.272h2.358V32.491H97.66ZM93.8,39.06h-.081a3.721,3.721,0,0,0-2.826-1.2,5.373,5.373,0,0,0,0,10.737,3.657,3.657,0,0,0,2.826-1.221H93.8v.774c0,2.054-1.1,3.152-2.867,3.152a2.971,2.971,0,0,1-2.7-1.912l-2.054.855a5.116,5.116,0,0,0,4.759,3.172c2.766,0,5.1-1.627,5.1-5.592v-9.64H93.8Zm-2.7,7.422a3.265,3.265,0,0,1,0-6.507,3.025,3.025,0,0,1,2.867,3.274A3,3,0,0,1,91.091,46.482Zm30.775-13.99h-5.643V48.272h2.354V42.294h3.289a4.908,4.908,0,1,0,0-9.8Zm.061,7.605h-3.35V34.689h3.35a2.7,2.7,0,1,1,0,5.409Zm14.556-2.266a4.424,4.424,0,0,0-4.2,2.415l2.092.873a2.231,2.231,0,0,1,2.152-1.157A2.268,2.268,0,0,1,139,41.993v.162a5.21,5.21,0,0,0-2.456-.608c-2.253,0-4.548,1.238-4.548,3.552a3.646,3.646,0,0,0,3.918,3.472,3.323,3.323,0,0,0,3.005-1.544H139v1.218h2.273V42.2C141.273,39.395,139.183,37.832,136.483,37.832ZM136.2,46.48c-.772,0-1.848-.385-1.848-1.339,0-1.218,1.339-1.685,2.5-1.685a4.2,4.2,0,0,1,2.152.528A2.855,2.855,0,0,1,136.2,46.48Zm13.357-8.3-2.7,6.841h-.081l-2.8-6.841h-2.537l4.2,9.562-2.4,5.319H145.7l6.477-14.881Zm-21.215,10.1H130.7V32.493h-2.355Z" transform="translate(6.451 -11.164)" fill="#fff"/>
    <g id="Group_2355" data-name="Group 2355" transform="translate(12.401 8.253)">
      <path id="Path_11315" data-name="Path 11315" d="M14.681,22.432a2.533,2.533,0,0,0-.583,1.773V52.121a2.531,2.531,0,0,0,.583,1.773l.093.091L30.413,38.348v-.369L14.775,22.34Z" transform="translate(-14.098 -21.93)" fill="url(#linear-gradient)"/>
      <path id="Path_11316" data-name="Path 11316" d="M32.236,41.4l-5.213-5.216v-.369L32.237,30.6l.117.068,6.176,3.509c1.763,1,1.763,2.642,0,3.644l-6.176,3.509Z" transform="translate(-10.708 -19.764)" fill="url(#linear-gradient-2)"/>
      <path id="Path_11317" data-name="Path 11317" d="M35.623,40.208l-5.332-5.332L14.56,50.607a2.054,2.054,0,0,0,2.624.077L35.623,40.208" transform="translate(-13.977 -18.643)" fill="url(#linear-gradient-3)"/>
      <path id="Path_11318" data-name="Path 11318" d="M35.623,32.917,17.184,22.44a2.054,2.054,0,0,0-2.624.077L30.291,38.249Z" transform="translate(-13.977 -22.015)" fill="url(#linear-gradient-4)"/>
      <g id="Group_2354" data-name="Group 2354" transform="translate(0 21.448)">
        <path id="Path_11319" data-name="Path 11319" d="M35.506,39.007,17.184,49.417a2.1,2.1,0,0,1-2.53.014h0l-.095.093h0l.093.092h0a2.1,2.1,0,0,0,2.53-.014L35.623,39.124Z" transform="translate(-13.977 -39.007)" opacity="0.2" style="isolation: isolate"/>
        <path id="Path_11320" data-name="Path 11320" d="M14.681,47.561a2.531,2.531,0,0,1-.583-1.773v.186a2.528,2.528,0,0,0,.583,1.772l.095-.093Z" transform="translate(-14.098 -37.229)" opacity="0.12" style="isolation: isolate"/>
      </g>
      <path id="Path_11321" data-name="Path 11321" d="M37.448,36.514,31.154,40.09l.117.117L37.448,36.7a2.216,2.216,0,0,0,1.323-1.823h0A2.349,2.349,0,0,1,37.448,36.514Z" transform="translate(-9.625 -18.643)" opacity="0.12" style="isolation: isolate"/>
      <path id="Path_11322" data-name="Path 11322" d="M17.305,22.625,41.92,36.61a2.349,2.349,0,0,1,1.323,1.638h0a2.212,2.212,0,0,0-1.323-1.823L17.305,22.44c-1.765-1-3.207-.169-3.207,1.85v.186C14.1,22.455,15.541,21.622,17.305,22.625Z" transform="translate(-14.098 -22.015)" fill="#fff" opacity="0.25" style="isolation: isolate"/>
    </g>
  </g>
</svg>
