<svg xmlns="http://www.w3.org/2000/svg" width="35" height="35" viewBox="0 0 35 35"><defs><style>.a{fill:#2033a0}.b{fill:#fff}</style></defs><g transform="translate(0)"><circle cx="17.5" cy="17.5" r="17.5" class="a"/><path d="M7.026,19.009" class="a" transform="translate(1.113 3.552)"/></g><path d="M833.744,572.05a5.385,5.385,0,0,0-4.291-4.856c-.419-.084-.838-.084-1.256-.126a1.228,1.228,0,0,1-1.088-1.3,1.13,1.13,0,0,1,.356-.8,1.245,1.245,0,0,1,2.05,1.3c.838,0,1.7.021,2.533,0v-.042h.024a3.73,3.73,0,0,0-3.14-4.1c-.042,0-.084-.021-.146-.021v-.816c.251.042.5.084.754.146a4.581,4.581,0,0,1,3.372,4.271.992.992,0,0,0,.021.251.381.381,0,0,0,.335.293.43.43,0,0,0,.356-.1.306.306,0,0,0,.126-.188c0-.021.021-.021.021-.042a.393.393,0,0,0,.042-.146v-.106a3.381,3.381,0,0,1-.042-.461,5.51,5.51,0,0,0-4.5-4.732c-.251-.042-.523-.062-.8-.084a.6.6,0,0,0-.356.084.338.338,0,0,1-.213-.083v2.533a3.285,3.285,0,0,1,1.9.419,2.887,2.887,0,0,1,1.36,1.968v.1c-.8-.063-.733.084-.858-.272a2.074,2.074,0,0,0-2.114-1.4,2.242,2.242,0,0,0-1.17.458c-.021,0-.021.021-.042.021-.021.021-.062.042-.084.084a2.185,2.185,0,0,0-.647,1.134,2.085,2.085,0,0,0,1.675,2.448c.272.042.544.021.8.063a4.523,4.523,0,0,1,3.535,2.24,4.329,4.329,0,0,1,.586,1.675.168.168,0,0,1-.01.108.171.171,0,0,1-.074.08H832.4a.623.623,0,0,1-.356-.251.39.39,0,0,1,.042-.146,3.866,3.866,0,0,0-3.644-2.91,3.046,3.046,0,0,1-2.887-1.987,2.3,2.3,0,0,1-.126-.544v-.084c.1-.712-.314-.879-1.193-.586h-.084c-.5-.146-.858-.209-1.068-.042a.5.5,0,0,0-.209.314v.063c0,.146.042.272.042.4a5.385,5.385,0,0,0,4.291,4.856c.419.084.838.084,1.256.126a1.228,1.228,0,0,1,1.088,1.3,1.127,1.127,0,0,1-.1.433,1.115,1.115,0,0,1-.258.362,1.245,1.245,0,0,1-2.051-1.3c-.838,0-1.7-.021-2.533,0v.042h-.021a3.728,3.728,0,0,0,3.14,4.1c.042,0,.084.021.146.021v.816c-.251-.042-.5-.084-.754-.146a4.568,4.568,0,0,1-3.349-4.271,1.02,1.02,0,0,0-.021-.251.38.38,0,0,0-.334-.292.431.431,0,0,0-.19.012.424.424,0,0,0-.166.092.3.3,0,0,0-.126.188c0,.021-.021.021-.021.042a.173.173,0,0,0-.037.069.179.179,0,0,0,0,.078v.1a3.415,3.415,0,0,1,.042.461,5.4,5.4,0,0,0,4.48,4.752c.251.042.523.063.8.084a.6.6,0,0,0,.356-.084.34.34,0,0,1,.209.084V575.42a3.281,3.281,0,0,1-1.9-.419,2.888,2.888,0,0,1-1.36-1.968v-.1c.8.063.733-.084.858.272a2.074,2.074,0,0,0,2.114,1.4,2.238,2.238,0,0,0,1.172-.461c.021,0,.021-.021.042-.021.021-.021.063-.042.084-.084a2.183,2.183,0,0,0,.649-1.13,2.084,2.084,0,0,0-1.675-2.448c-.272-.042-.544-.021-.8-.063a4.5,4.5,0,0,1-3.5-2.219,4.33,4.33,0,0,1-.586-1.675.167.167,0,0,1,.01-.108.169.169,0,0,1,.074-.08h.356a.629.629,0,0,1,.356.251.4.4,0,0,1-.042.146,3.865,3.865,0,0,0,3.644,2.91,3.047,3.047,0,0,1,2.884,1.986,2.308,2.308,0,0,1,.126.544v.084c-.1.712.314.879,1.193.586h.084c.5.146.858.209,1.068.042a.5.5,0,0,0,.209-.314v-.062C833.785,572.322,833.764,572.175,833.744,572.05Z" class="b" transform="translate(-810.278 -550.448)"/></svg>