<svg xmlns="http://www.w3.org/2000/svg" xmlns:xlink="http://www.w3.org/1999/xlink" width="960.213" height="839.025" viewBox="0 0 960.213 839.025"><defs><linearGradient id="linear-gradient" x1=".5" x2=".5" y2="1" gradientUnits="objectBoundingBox"><stop offset="0" stop-color="#283fc3"/><stop offset="1" stop-color="#142588"/></linearGradient><linearGradient id="linear-gradient-3" x1="1" x2=".176" y1=".423" y2=".423" gradientUnits="objectBoundingBox"><stop offset="0" stop-color="#142588"/><stop offset="1" stop-color="#283fc3"/></linearGradient><linearGradient id="linear-gradient-4" x1="1" x2="0" y1=".381" y2=".381" xlink:href="#linear-gradient-3"/></defs><g id="Background" transform="translate(958.268 1269.883) rotate(180)"><path id="Path_5" fill="url(#linear-gradient)" d="M1191.1,549.191S922.874,385.393,633.075,448.85C481.531,482.033,378.1,443.4,312.837,398.227c-1.295-.9-80.745,4.68-80.745,4.68v827.665l960.117-.208Z" data-name="Path 5" opacity=".2" transform="translate(-233.998 39.169)"/><path id="Path_4" fill="url(#linear-gradient)" d="M1191.512,391.729c-11.541-2.755-167.593-36.579-405.484,95.02C559.55,612.035,278.39,447.067,231.449,417.333c-.082.039-.01,794.083,0,794.019,0,0,960.18.174,960.174.148S1191.521,391.771,1191.512,391.729Z" data-name="Path 4" opacity=".4" transform="translate(-233.355 58.287)"/><path id="Path_1" fill="url(#linear-gradient-3)" d="M232.086,385.032c78.867-9.017,184.98-2.943,312.963,43.669,319.445,116.343,615.476,83,647.04,79.017-.01.064-.1,705.2-.113,705.246l-959.891-.187S232.071,385,232.086,385.032Z" data-name="Path 1" opacity=".7" transform="translate(-233.992 56.918)"/><path id="Path_2" fill="url(#linear-gradient-4)" d="M211.947,473.84c22.446-18.353,176.569-127.766,485.376-15.179,308.132,112.34,451.7,118.405,474.616,118.51,0,.078-.23,670.151-.23,670.151l-959.762-.217S212.035,473.816,211.947,473.84Z" data-name="Path 2" opacity=".7" transform="translate(-213.853 22.381)"/></g></svg>