<svg xmlns="http://www.w3.org/2000/svg" xmlns:xlink="http://www.w3.org/1999/xlink" width="776.687" height="452.867" viewBox="0 0 776.687 452.867"><defs><style>.a{fill:#89c5cc;}.b{fill:#b28b67;}.c{fill:#2f3676;}.d{fill:#e4e4e4;}.e,.n,.o{fill:#ff276a;}.e{opacity:0.141;}.f,.k,.p{fill:#fff;}.g{fill:#edf0ff;}.h{fill:#2033a0;}.i,.j,.l,.m{fill:#d2d8f8;}.i,.k,.l,.n{font-size:20px;}.i,.k{font-family:CerebriSans-Book, Cerebri Sans;}.j,.p{fill-rule:evenodd;}.l,.n{font-family:CerebriSans-Regular, Cerebri Sans;}.q{fill:#191847;}.r{fill:#c5cfd6;}.s{fill:rgba(0,0,0,0.1);}.t{fill:#7282d0;}.u{fill:#8d9ce8;}.v{fill:#2026a2;}.w{fill:#f2f2f2;}.x{fill:#263bb4;}.y{clip-path:url(#c);}.z{fill:rgba(0,0,0,0.2);}.aa{fill:#997659;}.ab{fill:#5c63ab;}.ac{fill:#1f28cf;}.ad{filter:url(#a);}</style><filter id="a" x="31.742" y="0" width="673" height="390" filterUnits="userSpaceOnUse"><feOffset dx="3.742" dy="17.607" input="SourceAlpha"/><feGaussianBlur stdDeviation="19" result="b"/><feFlood flood-color="#ccccdf" flood-opacity="0.4"/><feComposite operator="in" in2="b"/><feComposite in="SourceGraphic"/></filter><clipPath id="c"><path class="a" d="M3.152,5.553c-.366.123,0-1.453.876-2.029C6.715,1.757,14.714-.859,20.183.276a27.805,27.805,0,0,1,11.16,5.1,20.4,20.4,0,0,1,5.973,9.456c.981,3.567,1.352,8.53,0,11.641-1.61,3.706-7.31,7.7-7.461,8.23-.172.605.5,2.97.995,5.462a42.26,42.26,0,0,1,0,9.871c-.429,1.654-2.732,2.467-3.736,2.586-5.551.661-9.575,7.55-11.25,9.313,0,0-11.182,11.222-15.608,9.761-.777-.256.387-9.552,1.164-13.537S9.814,47.067,10.3,44.724a34.856,34.856,0,0,0,.365-3.893c.718-4.95.595-5.353,1.643-7.37s1.86-2.136,1.608-2.723C12.687,27.867,8.73,19.082,7.832,16.21c-1.07-3.424-.564-2.3-1.668-5.711C5.676,8.988,5.054,4.914,3.152,5.553Z" transform="translate(0)"/></clipPath></defs><g transform="translate(-241 -1418.607)"><path class="b" d="M71.266,126.16c-13.1-10.682-8.1-104.361-8.973-105.54C61.71,19.834,0,7.251,0,7.251L1.777,0S73.965,3.569,78.171,8.927C84.193,16.6,93.044,94.744,93.044,94.744Z" transform="matrix(-0.574, -0.819, 0.819, -0.574, 892.742, 1717.463)"/><path class="c" d="M0,13.145,3.13,1.467C39-2.66,62.653,2.435,70.976,10.353S85.888,95.936,85.888,95.936l-23.3,33.273C31.4,105.68,50.01,28.633,49.213,26.87S29.5,23.717,0,13.145Z" transform="matrix(-0.574, -0.819, 0.819, -0.574, 886.082, 1712.146)"/><g transform="translate(905.393 1719.944) rotate(160)"><path class="d" d="M2.942,10.5a1.315,1.315,0,0,1-1.687-.887L0,5.192A42.254,42.254,0,0,1,.593,0h37.1s1.446,4.781-1.669,5.162-5.176.688-5.176.688L13.6,13.537a.658.658,0,0,1-.876-.35L11.618,10.5A14.908,14.908,0,0,0,6.93,9.153Z" transform="translate(0 0)"/></g><circle class="e" cx="16" cy="16" r="16" transform="translate(393 1655)"/><circle class="e" cx="11" cy="11" r="11" transform="translate(398 1660)"/><g transform="translate(326.4 1457.135)"><g class="ad" transform="matrix(1, 0, 0, 1, -85.4, -38.53)"><rect class="f" width="559" height="276" rx="31" transform="translate(85 39.39)"/></g></g><g transform="translate(355.834 1532.392)"><rect class="g" width="504.522" height="49.261" rx="4" transform="translate(0 0)"/><g transform="translate(95.22 4.647)"><g transform="translate(158.006)"><rect class="h" width="247" height="40" rx="2" transform="translate(-0.059 -0.038)"/></g><g transform="translate(0 9.294)"><g transform="translate(0 0)"><text class="i" transform="translate(21.101 0.054)"><tspan x="2.146" y="19">Cash</tspan></text><path class="j" d="M8.672,11.1a.907.907,0,0,0,.1-.294v-.247a.858.858,0,0,0-.032-.131l.032-.025v-.094a6.661,6.661,0,0,1-3.955,1.127A6.633,6.633,0,0,1,.863,10.3v.346h0c0,.586.586,1.013,1.051,1.253a6.84,6.84,0,0,0,3.4.606,3.515,3.515,0,0,1,1-.742,6.751,6.751,0,0,1,2.343-.667Zm9.8,2.608a1.668,1.668,0,0,1,0,.339v.067h0a2.588,2.588,0,0,1-1.513,1.77,6.855,6.855,0,0,1-2.5.677v1.078a1.666,1.666,0,0,1,0,.171,2.4,2.4,0,0,1-1.523,2,7.324,7.324,0,0,1-3.3.724,7.324,7.324,0,0,1-3.307-.719A2.514,2.514,0,0,1,4.823,18h0v-.742a7.327,7.327,0,0,1-3.3-.719,2.388,2.388,0,0,1-1.523-2V2.715a2.4,2.4,0,0,1,1.523-2A7.324,7.324,0,0,1,4.83,0,7.324,7.324,0,0,1,8.138.715,2.35,2.35,0,0,1,9.65,2.891v1.73a1.671,1.671,0,0,1,0,.339V6.324a3.925,3.925,0,0,1,.695-.455,7.324,7.324,0,0,1,3.307-.719,7.324,7.324,0,0,1,3.307.719,2.35,2.35,0,0,1,1.513,2.175v1.73a1.668,1.668,0,0,1,0,.339v1.624a1.668,1.668,0,0,1,0,.339V13.7Zm-4.014,1.978a5.9,5.9,0,0,0,2.1-.578c.42-.22.964-.608,1.041-1.107V13.75a.85.85,0,0,0-.032-.131l.032-.025V13.5a6.108,6.108,0,0,1-3.139,1.09v1.08Zm0-1.96a5.893,5.893,0,0,0,2.1-.578c.42-.22.964-.608,1.041-1.107V11.79a.85.85,0,0,0-.032-.131l.032-.025v-.1a6.334,6.334,0,0,1-3.525,1.117,1.817,1.817,0,0,1,.4,1.058ZM17.6,10.072V9.824a.853.853,0,0,0-.032-.131l.032-.025V9.461a6.661,6.661,0,0,1-3.955,1.127A6.633,6.633,0,0,1,9.687,9.454v.462h0a1.519,1.519,0,0,0,.9,1.172,6.751,6.751,0,0,1,2.343.667h0c.227.02.46.03.7.03a6.442,6.442,0,0,0,2.929-.606c.42-.22.964-.608,1.041-1.107Zm0-2.081V7.874h0c0-.455-.4-.89-1.051-1.236a6.442,6.442,0,0,0-2.9-.62,6.442,6.442,0,0,0-2.892.628c-1.4.729-1.4,1.73,0,2.457a6.442,6.442,0,0,0,2.9.62,6.442,6.442,0,0,0,2.907-.62c.593-.309.989-.7,1.041-1.112ZM4.847,13.406a1.664,1.664,0,0,0-.04.363h0v.793a6.442,6.442,0,0,1-2.882-.618C1.461,13.7.865,13.278.875,12.692h0v-.418A6.558,6.558,0,0,0,4.847,13.406Zm-.04,2.032A6.553,6.553,0,0,1,.875,14.3v.208h0c0,.586.586,1.013,1.051,1.253a6.439,6.439,0,0,0,2.882.62v-.944ZM13.6,17.856h0v-.161a.845.845,0,0,0-.032-.131l.032-.025v-.1a3.992,3.992,0,0,1-.638.408,7.324,7.324,0,0,1-3.317.722,7.324,7.324,0,0,1-3.307-.719,3.98,3.98,0,0,1-.648-.415v.356h0c0,.586.586,1.013,1.051,1.253a6.442,6.442,0,0,0,2.9.613,6.442,6.442,0,0,0,2.9-.63c.442-.23,1.021-.648,1.048-1.184Zm0-1.889V15.72a.85.85,0,0,0-.032-.131l.032-.025v-.208a3.99,3.99,0,0,1-.638.408,7.324,7.324,0,0,1-3.317.732,7.324,7.324,0,0,1-3.307-.719,3.982,3.982,0,0,1-.648-.418v.457h0c0,.586.586,1.013,1.051,1.253a6.442,6.442,0,0,0,2.9.625,6.442,6.442,0,0,0,2.9-.618c.42-.22.964-.608,1.041-1.107Zm0-2.081A1.741,1.741,0,0,1,12.555,15a6.442,6.442,0,0,1-2.914.62,6.442,6.442,0,0,1-2.9-.62c-.648-.339-1.051-.774-1.051-1.236s.4-.89,1.051-1.236a6.442,6.442,0,0,1,2.9-.606,6.442,6.442,0,0,1,2.9.62c.648.339,1.051.774,1.051,1.236h0v.116ZM.89,8.695V8.351A6.626,6.626,0,0,0,4.845,9.486,6.691,6.691,0,0,0,8.8,8.358V8.45l-.032.025a.858.858,0,0,1,.032.131v.247c-.077.494-.62.89-1.041,1.107a6.442,6.442,0,0,1-2.9.62,6.442,6.442,0,0,1-2.929-.63C1.461,9.7.865,9.283.875,8.7Zm0-1.96h0c0,.586.586,1.013,1.051,1.253a6.442,6.442,0,0,0,2.9.62,6.442,6.442,0,0,0,2.9-.62c.42-.22.964-.608,1.041-1.107V6.633A.858.858,0,0,0,8.758,6.5l.032-.025v-.1A6.661,6.661,0,0,1,4.835,7.508,6.633,6.633,0,0,1,.88,6.374v.349ZM8.8,4.915V4.693a.858.858,0,0,0-.032-.131L8.8,4.537V4.329a6.835,6.835,0,0,1-3.97,1.1A6.658,6.658,0,0,1,.875,4.3v.462h0c0,.586.586,1.013,1.051,1.253a6.442,6.442,0,0,0,2.9.63,6.442,6.442,0,0,0,2.9-.618c.42-.22.964-.608,1.041-1.107Zm0-2.081V2.715h0c0-.455-.4-.89-1.051-1.236A6.442,6.442,0,0,0,4.83.871a6.442,6.442,0,0,0-2.9.62C1.278,1.83.875,2.265.875,2.715s.4.89,1.051,1.236a6.442,6.442,0,0,0,2.9.618,6.442,6.442,0,0,0,2.9-.618A1.754,1.754,0,0,0,8.775,2.836Z" transform="translate(0 0.005)"/></g></g></g><g transform="translate(337.827 14.871)"><text class="k" transform="translate(21.34 -0.262)"><tspan x="0" y="19">Crypto</tspan></text><path class="f" d="M1017.505,612.286s0-.009,0-.013,0-.018,0-.027,0-.015,0-.023,0-.019-.005-.029l-.006-.024-.008-.022-.011-.027c0-.008-.008-.016-.013-.024l0-.01-.007-.009-.014-.022-.018-.022-.016-.019-.016-.017-.021-.019-.02-.016-.021-.014-.011-.008-7.969-4.6-.013-.006-.021-.011-.026-.01-.026-.009-.022-.006-.026-.005-.028,0h-.076l-.028,0-.025,0-.022.006-.026.009-.024.01-.023.011-.012.006-7.969,4.6h0l0,0a.374.374,0,0,0-.073.056l-.018.019a.39.39,0,0,0-.043.056l-.013.022a.382.382,0,0,0-.035.084h0a.391.391,0,0,0-.012.093s0,.007,0,.01v9.2s0,.009,0,.013,0,.017,0,.025,0,.018,0,.027a.244.244,0,0,0,0,.026l.006.022.009.025a.257.257,0,0,0,.01.025c0,.008.007.015.011.022s0,.008.005.012l.007.008.015.023a.36.36,0,0,0,.025.031c.006.007.011.015.018.021l.007.006c.009.008.019.016.029.024a.371.371,0,0,0,.033.024l.011.008,7.969,4.6a.4.4,0,0,0,.1.04.39.39,0,0,0,.1.013h0a.377.377,0,0,0,.076-.01l.025,0c.012,0,.024-.01.036-.015a.386.386,0,0,0,.059-.024h0l7.969-4.6.011-.008a.365.365,0,0,0,.033-.024.374.374,0,0,0,.029-.024h0l.007-.006c.007-.006.011-.014.018-.021a.382.382,0,0,0,.025-.031c.005-.007.01-.015.015-.023l.007-.008.005-.012.011-.022c0-.008.007-.017.01-.025s.006-.017.009-.025l.006-.022c0-.008,0-.017,0-.026s0-.018,0-.027,0-.017,0-.025,0-.008,0-.013Zm-3.931,1.576-4.038-2.32V608.37l6.78,3.914Zm-4.829-2.319-4.028,2.325-2.753-1.583,6.78-3.914Zm-4.038,8.365,2.873,1.659a.4.4,0,1,0,.4-.686l-2.873-1.659v-3.016a.4.4,0,0,0-.792,0v3.016l-2.744,1.581V612.97l2.873,1.652a.394.394,0,0,0,.147.085l4.158,2.391v4.733a.393.393,0,0,0,.011.091.385.385,0,0,0-.011.091V625.4l-6.781-3.915Zm4.434-3.5-3.63-2.087,3.6-2.077c.011,0,.021,0,.033,0a.317.317,0,0,0,.034,0l3.606,2.072Zm.384,5.509a.4.4,0,0,0,.011-.091V617.1l4.233-2.434h0l2.943-1.693V620.8l-2.744-1.581v-3.016a.4.4,0,0,0-.792,0v3.016l-2.873,1.659a.4.4,0,0,0,.4.686l2.873-1.659,2.743,1.58-6.781,3.915V622.01A.389.389,0,0,0,1009.525,621.92Z" transform="translate(-1000.776 -606.966)"/></g></g><g transform="translate(355.834 1635.617)"><g transform="translate(197.774)"><text class="l"><tspan x="1.55" y="19">Cash Pickup</tspan></text><ellipse class="m" cx="8" cy="8.5" rx="8" ry="8.5" transform="translate(49.392 27.382)"/></g><text class="n"><tspan x="34.14" y="19">Bank </tspan></text><path class="o" d="M8.365,0A8.365,8.365,0,1,1,0,8.365,8.365,8.365,0,0,1,8.365,0Z" transform="translate(45.031 26.896)"/><g transform="translate(49.678 0)"><g transform="translate(346.683)"><text class="l" transform="translate(0)"><tspan x="40.341" y="19">Bill </tspan></text><circle class="m" cx="8" cy="8" r="8" transform="translate(46.806 27.382)"/></g><path class="p" d="M420.111,299.772a.651.651,0,0,1-.92.009l-.009-.009-2.317-2.384a.679.679,0,0,1,0-.953.65.65,0,0,1,.92-.009l.009.009,1.839,1.9,4.156-4.242a.65.65,0,0,1,.92-.009l.009.009a.679.679,0,0,1,0,.953Z" transform="translate(-416.669 -261.431)"/></g></g><g transform="translate(241 1655.322)"><g transform="translate(68.779)"><g transform="translate(0 1.614)"><path class="b" d="M0,46,4.918,21.733A17.664,17.664,0,0,1,.629,9.468C1.523-4.017,19.255-1.051,22.7,5.756s3.04,24.071-1.418,25.287c-1.778.485-5.565-.7-9.42-3.163L14.286,46Z" transform="translate(0.221 0.063)"/></g><path class="q" d="M11.9,28.771c-.981-2.991-1.354-11.6-1.445-14.147a3.69,3.69,0,0,0-2.989,6.3c-.845,1.2-1.791,2.462-2.876,3.759C.515,22.211.332,13.976,0,5.91,1.1,2.509,5.393,1.686,8.337.844A12.9,12.9,0,0,1,16.089.394c4.1.355,6.919.805,7.956,1.555,0,3.916-1.038,6.958-7.457,6.856a11.9,11.9,0,0,0-4.054,4.189c.013.186.867,11.792,4.436,11.792,3.6,0,6.65-2.306,8.228-2.306,1.151,0,.894,1.454.131,2.531-.629.89-3.694,1.747-3.694,3.126,0,.778.772.777,1.444.775.518,0,.977,0,.977.354,0,1.352.425,3.9-1.9,3.9C19.8,33.163,13.057,32.3,11.9,28.771Z" transform="translate(0.381 0)"/></g><g transform="translate(0 93.63)"><g transform="translate(0 24.048)"><g transform="translate(31.353)"><path class="r" d="M15.747,0h44.04l5.771,70.848H0Z"/><path class="s" d="M15.747,0H29.291L37.4,70.848H0Z"/></g></g><path class="b" d="M32.568,80.875C32,73.647,30.937,48.625,32,37.043c.448-4.889.931-9.54,1.405-13.671C23.223,41.722,6.565,68.566,6.565,68.566L0,65.559S7.733,40.023,12.682,29.5C18.331,17.5,23.628,7.212,25.857,3.59c3.507-5.7,9.611-3.709,12.837-.261,4.7-2.826,12.573.8,12.568,4.846-.016,12.092-11.027,69.085-11.6,72.687a3.905,3.905,0,0,1-3.918,3.071A3.048,3.048,0,0,1,32.568,80.875Z" transform="translate(102.778 8.53)"/><path class="t" d="M0,63.876,2.876,5.895c2.1-10.025,19.9-5.358,19.9.015-.008,12.2-7.292,54.332-7.294,57.966Z" transform="translate(125.094 4.612) rotate(20)"/><g transform="translate(107.914 57.381) rotate(30)"><path class="d" d="M4.474,5.033A2,2,0,0,0,1.908,6.381L0,13.106A64.242,64.242,0,0,0,.9,21H57.3s2.2-7.268-2.538-7.848-7.87-1.047-7.87-1.047L20.68.419a1,1,0,0,0-1.332.532L17.663,5.039s-4.385,2.046-7.127,2.046Z" transform="translate(1 19)"/></g><g transform="translate(132 72.048)"><path class="d" d="M2.55,3.018a1.14,1.14,0,0,0-1.462.77L0,7.63a36.785,36.785,0,0,0,.514,4.51H32.666s1.253-4.153-1.447-4.484-4.486-.6-4.486-.6L11.789.382a.57.57,0,0,0-.759.3l-.961,2.335A12.9,12.9,0,0,1,6.007,4.19Z" transform="translate(0.57 10.714)"/></g><path class="u" d="M97.349,20.816c0,15.179-7.192,50.587-7.2,53.929l-15.475.012s3.4-47.39,2.409-47.9-40.5,3.954-52.354,3.954C7.643,30.811.574,20.009,0,0H33.854c6.893.739,42.847,8.008,56.2,10.506C95.77,11.576,97.349,16.635,97.349,20.816Z" transform="translate(58.27)"/></g><g transform="translate(52.071 21.089)"><path class="b" d="M18.007,69.089,0,61.605l4.02-9.959L22.2,65.03a48.883,48.883,0,0,1,12.362,4.979c.781.714,1.726,2.159-1.516,1.909s-6.663-.367-7.109.742,1.514,2.433.61,3.929a.43.43,0,0,1-.395.213Q24.557,76.8,18.007,69.089ZM5.929,13.464l21.608-6.5A48.923,48.923,0,0,1,38.943.064c1.039-.2,2.76-.082.61,2.362s-4.3,5.112-3.688,6.137,2.851.252,3.5,1.876q.647,1.624-11.116,2.326l-16.8,9.91Z" transform="translate(57.648)"/><path class="v" d="M7.691,0C22.046,15.313,39.549,25.309,63.417,34.181L58.124,44.8C33.5,42.456,20.337,40.59,10.009,25.257,7.417,21.408,2.778,8.169,0,1.293Z" transform="matrix(0.966, 0.259, -0.259, 0.966, 25.994, 13.614)"/><path class="w" d="M0,65.135H43.895S28.98,19.545,28.657,2.555c-.011-.577-1.075-1.6-1.546-1.462C21.947,2.555,16.06,0,16.06,0,5.654,16.774,2.055,37.427,0,65.135Z" transform="translate(5.741 12.127)"/><path class="x" d="M.81,84.336C-2.907,59.3,6.863,24.582,15.92,7.072a3.089,3.089,0,0,1,2.817-1.929h6.8l.009.027c2.291.019,4.842.11,7.624.2C45.667,5.783,62.829,6.2,82.085,0l2.325,11.64C66.616,23.11,48.6,32,32.811,30.734c6.855,29.473,6.539,53.6-8.6,53.6Z" transform="translate(0 6.984)"/></g></g><g transform="translate(913.16 1479.855)"><path class="b" d="M0,0,5.662,26.381C2.5,30.086.367,34.627.724,39.715,1.754,54.375,22.169,51.15,26.14,43.751s3.5-26.168-1.633-27.49c-2.047-.527-6.407.764-10.845,3.438L16.448,0Z" transform="translate(28.784 50.008) rotate(180)"/></g><g transform="translate(914.828 1478.031)"><path class="a" d="M3.152,5.553c-.366.123,0-1.453.876-2.029C6.715,1.757,14.714-.859,20.183.276a27.805,27.805,0,0,1,11.16,5.1,20.4,20.4,0,0,1,5.973,9.456c.981,3.567,1.352,8.53,0,11.641-1.61,3.706-7.31,7.7-7.461,8.23-.172.605.5,2.97.995,5.462a42.26,42.26,0,0,1,0,9.871c-.429,1.654-2.732,2.467-3.736,2.586-5.551.661-9.575,7.55-11.25,9.313,0,0-11.182,11.222-15.608,9.761-.777-.256.387-9.552,1.164-13.537S9.814,47.067,10.3,44.724a34.856,34.856,0,0,0,.365-3.893c.718-4.95.595-5.353,1.643-7.37s1.86-2.136,1.608-2.723C12.687,27.867,8.73,19.082,7.832,16.21c-1.07-3.424-.564-2.3-1.668-5.711C5.676,8.988,5.054,4.914,3.152,5.553Z" transform="translate(0)"/><g class="y"><path class="z" d="M3.82,10.461l.483.586C10.888,8.986,10.154,4.73,18.446.42L17.754,0C10.492,3,8.795,9.421,3.82,10.461ZM9.15,33.33l.527.043c1.017-7.713,1.314-12.119,6.615-20.555l-.564-.172C10.272,19.99,9.407,25.986,9.15,33.33ZM0,27.615l.471.227C2.711,22.408,3.733,19.2,9.989,14.8l-.483-.338C3.3,17.983,1.487,22.179,0,27.615Zm14.808-.991c-1.1,4.917-.122,9.545,1.05,11.058H16.6c-1.2-3.813-1.461-5.848-1.2-11.058Z" transform="translate(33.903 43.617) rotate(180)"/></g></g><path class="aa" d="M27.875,0,63.338,85.1l34.854,71.946H89.969L0,0Z" transform="translate(923.785 1576.139) rotate(17)"/><g transform="translate(936.326 1748.529) rotate(-2)"><path class="d" d="M36.555,3.22a1.371,1.371,0,0,1,1.758.924L39.62,8.751A43.991,43.991,0,0,1,39,14.159H.349s-1.507-4.979,1.74-5.376,5.393-.717,5.393-.717L25.448.06a.685.685,0,0,1,.913.365l1.155,2.8a15.538,15.538,0,0,0,4.884,1.4Z"/></g><path class="ab" d="M98.009,142.1l-18.272,3.425C65.609,124.764,6.483,39.631,0,0H40.678C62.327,28.649,84.542,120.995,98.009,142.1Z" transform="translate(920.949 1575.271) rotate(17)"/><path class="b" d="M37.057,66.324,9.993,64.572,13.97,52.319l22.352,7.033q13.969-2.36,13.649-.289c-.32,2.072-3.149,1.774-3.591,3.138s2.8,3.9,5.975,6.173,1.193,2.873-.077,2.924A58.827,58.827,0,0,1,37.057,66.324ZM0,16.156l25.971-7.8A58.893,58.893,0,0,1,39.681.077c1.25-.235,3.318-.1.733,2.833s-5.171,6.132-4.434,7.361,3.426.3,4.2,2.249q.778,1.946-13.361,2.791L6.628,27.2Z" transform="translate(900.051 1592.435) rotate(180)"/><path class="v" d="M9.245,53.678C26.487,35.327,47.517,23.353,76.2,12.733L69.829,0C40.234,2.786,24.413,5.012,12.011,23.392,8.9,28.005,3.334,43.878,0,52.121Z" transform="matrix(-0.966, 0.259, -0.259, -0.966, 947.936, 1568.418)"/><path class="w" d="M52.77,78.1H0S17.93,23.434,18.319,3.063c.013-.692,1.292-1.912,1.858-1.753C26.385,3.063,33.463,0,33.463,0,45.973,20.112,50.3,44.873,52.77,78.1Z" transform="translate(905.621 1514.793)"/><path class="ac" d="M22.525,94.951a3.711,3.711,0,0,1-3.386-2.313C8.25,71.644-3.494,30.02.974,0H29.111C46.739,0,47.645,27.153,40.19,60.981c16.9-2.155,37.17,3.32,57.719,11.1l.168,14.233C68.924,83.356,45.737,90.9,30.935,94.242l-.235.709Z" transform="translate(965.293 1609.744) rotate(180)"/></g></svg>