<svg xmlns="http://www.w3.org/2000/svg" width="363.562" height="264.78" viewBox="0 0 363.562 264.78"><defs><style>.a{fill:#eff1ff;}.b{fill:#f0f3f8;mix-blend-mode:multiply;isolation:isolate;}.c{fill:#d4a181;}.d{fill:#191847;}.e{fill:#ba8b72;}.f{fill:#e4e4e4;}.g{fill:#8460c7;}.h{fill:#af87fa;}.i{fill:#ff276a;}.j{fill:#b28b67;}.k{fill:#172788;}.l{fill:#997659;}.m{fill:#2f3676;}.n{fill:#5c63ab;}.o{fill:#dde3e9;}.p{fill:#2033a0;}.q{fill:#fff;fill-rule:evenodd;}</style></defs><g transform="translate(-778.289 -238.008)"><g transform="translate(778.289 238.008)"><g transform="translate(0)"><path class="a" d="M145.613,43.056c89.735-94.9,157.8,63.226,157.8,138.082S213.26,265.077,138.4,265.077s-144.884-3.4-144.884-78.256S55.878,137.954,145.613,43.056Z" transform="translate(16.076 -13.581)"/><path class="b" d="M59.833,43.866c89.735-94.9,117.23,86.474,218.137,131.949s-63.537,87.848-138.393,87.848S13.517,252.537,1.388,211.326-29.9,138.764,59.833,43.866Z" transform="translate(9.135 -12.167)"/><g transform="translate(225.808 21.064)"><g transform="translate(41.255 18.507) rotate(-26)"><g transform="translate(0 6.039)"><path class="c" d="M4.59,32.994l4.633-12.7c-3.331,1.151-6.409,1.391-7.7.754C-1.7,19.441.64,6.893,4.324,2.538S22.039-1.083,20.653,8.81a12.612,12.612,0,0,1-5.167,8.169l.042,18.34Z"/></g><path class="d" d="M9.611,25.282a12.52,12.52,0,0,1-1.667-3.757,2.568,2.568,0,0,0,2.038-.566,3.587,3.587,0,0,0,1.174-2.073A2.839,2.839,0,0,0,10.8,16.83,2.752,2.752,0,0,0,9,15.572a2.171,2.171,0,0,0-1.749.5,14.092,14.092,0,0,1,.285-2.594,9.834,9.834,0,0,1,.81-2.378A23.491,23.491,0,0,1,3.437,9.153,4.658,4.658,0,0,1,5.61.1h0A4.66,4.66,0,0,1,9.221,5.614v0l.4.084c.345.071.706.158,1.061.245A23.474,23.474,0,0,1,17.129,8.49a5.212,5.212,0,0,1,.826.582,3.729,3.729,0,0,1,.922,1,9.048,9.048,0,0,1,1.581,4.187c3.044-.815,6.39-1.076,12.831.293a7.532,7.532,0,0,1,2.687,1.092A5.228,5.228,0,0,1,37.6,17.383a5.544,5.544,0,0,1,.682,2.148,7.355,7.355,0,0,1-.131,2.327,9.142,9.142,0,0,1-2.8,4.848,5.649,5.649,0,0,1-4.957,1.515A8.163,8.163,0,0,1,26.228,25.8a27.616,27.616,0,0,1-3.046-4,28.365,28.365,0,0,0-2.81-3.732c-.028.183-.065.364-.1.538A14.207,14.207,0,0,1,17.1,25.1c-1.56,1.7-3.343,2.442-5.02,2.086A4.216,4.216,0,0,1,9.611,25.282Z" transform="translate(3.9)"/></g><g transform="translate(54.987 84.204)"><path class="e" d="M475.662-868.467c.61.622,1.243,1.216,1.863,1.832.876.875,1.735,1.768,2.592,2.663L519.851-906.4l-5.219-2-41.571,36.244A20.025,20.025,0,0,1,475.662-868.467Z" transform="translate(-455.023 936.589)"/><g transform="translate(55.71 22.605)"><path class="f" d="M510.258-905.686a10.544,10.544,0,0,1,2.758,2.076l.052,2.058v.015a.466.466,0,0,0,.491.44h0l13.35-.706s1.44.312,3.6.851,2.411-2.989,2.411-2.989l-24.527-9.4a29.942,29.942,0,0,0-1.707,3.278l-.292,3.244v.043a.932.932,0,0,0,.9.965h0Z" transform="translate(-506.39 913.34)"/></g><g transform="translate(23.382 11.622)"><path class="c" d="M480.09-873.465c.194.292.4.578.6.867,1.632,1.68,3.135,3.474,4.835,5.112.251.17.5.339.763.5.488.3.986.578,1.49.844.226.073.461.138.693.2a67.359,67.359,0,0,0,7.247-3.686q3.637-2.52,9.786-48.64l-4.521-1.056q-11.968,38.744-12.693,39.3c-.3.226-4.44,1.367-10.5,2.853C478.519-875.916,479.283-874.678,480.09-873.465Z" transform="translate(-477.789 923.544)"/><g transform="translate(20.985)"><path class="f" d="M500.2-916.808a9.224,9.224,0,0,1,2.733,1.3l.409,1.76v.016a.407.407,0,0,0,.5.288h0l11.342-2.96s1.293.02,3.242.1,1.546-2.993,1.546-2.993l-22.724-3.763a26.2,26.2,0,0,0-.891,3.121l.32,2.837a.127.127,0,0,0,.007.05.813.813,0,0,0,.937.666h0Z" transform="translate(-496.355 923.057)"/></g></g><path class="g" d="M498.878-893.791a128.527,128.527,0,0,1-14.468,7.5c-.9-.4-1.094-1.59-1.13-2.584-.175-5.674.887-11.086,1.859-16.641.315-1.8,2.835-18.887,3.351-18.887-2.783,0-6.811-2.385-9.406-3.292-5.189-1.817-10.585-3.371-15.6-5.645a5.029,5.029,0,0,0-.486,1.332c-1.311,4.99-3.029,10.04-3.964,15.113a135.154,135.154,0,0,0-1.356,14.92,147.88,147.88,0,0,0-.33,21.626c.565,7.3,3.113,14.53,9,19.242,7.943,6.362,17.847-.071,24.013-5.806,7.618-7.094,23.079-21.111,27.44-30.564a49.513,49.513,0,0,1-5.858-4.182C510.7-900.85,500.15-894.557,498.878-893.791Z" transform="translate(-457.102 933.339)"/><path class="h" d="M506.893-906.62l-7.248-1.985q-1.921,5.269-3.53,9.552-1.675-10.9-4.38-29.629l-29.024-.461c.452.006,3.1,15.371,3.445,16.94,1.057,4.86,2.178,9.7,3.411,14.514a147.727,147.727,0,0,0,6.506,20.628c2.834,6.747,7.536,12.806,14.606,15.424a10.832,10.832,0,0,0,8.327-.026c3.974-1.9,6.134-6.853,7.113-10.9a55.134,55.134,0,0,0,1.277-8.8c.288-3.817.327-7.651.248-11.476C507.614-894.261,507.742-906.388,506.893-906.62Z" transform="translate(-456.372 933.886)"/></g><g transform="translate(0 0.255)"><path class="c" d="M546.2-991.027a3.145,3.145,0,0,1-.026.546c-2.374-.308-6.927-1.329-9.177.469-1.5,1.2-28,18.677-28,18.677l-2.427-7.98s25.328-14.021,27.589-16.124c1.105-1.03,3.632-6.942,4.9-10.9.51-1.589,1.83-1.389,2.287-.982,3.709,3.3,1.551,6.855.969,10.851a2.75,2.75,0,0,0,1.921,3.375C545.2-992.653,546.146-992.275,546.2-991.027Zm-129.471,2.276q-7.892-2.8-8.261-4.015a.344.344,0,0,1,.059-.33c.875-1.13,2.456-.012,3.165-.678s-.373-3.244-1.509-5.651.244-2.1,1.017-1.714a40.032,40.032,0,0,1,7.4,7.994l15.5,10-6.414,5.967L416.732-988.76Z" transform="translate(-408.454 1007.611)"/><path class="i" d="M414.934-989.532l6.825-5.1q.575.554,1.152,1.1a2.092,2.092,0,0,1,1.048-1.516,2.1,2.1,0,0,1,2.852.8,15.973,15.973,0,0,1,2.066,5.938c14.141,11.552,29.088,22.945,44.8,22.417l-1.087,5.274c-5.33.781-2.141,46.443-6.842,45.019-1.017-.309-.168-40.131-1.316-40.584C449.786-961.956,424.807-976.507,414.934-989.532Z" transform="translate(-407.609 1009.212)"/><path class="d" d="M470.52-970.7s-4.966,1.646-7.194.942c2.307,13.061-.136,27.692-4.225,47.8-.262,1.292.475,5.721,1.535,5.736,12.842.181,34.058-6.017,34.058-6.017C488.962-944.154,482.035-958.854,470.52-970.7Z" transform="translate(-401.862 1012.42)"/><path class="i" d="M525.3-872.176c-.617.423-1.074.127-1.856.011a44.279,44.279,0,0,0-10.627-.223c-6.647.626-13.071,2.54-19.415,4.53-7.206,2.261-13.848,4.414-19.842,4.146-14.054-36.56-.669-84.642-5.792-104.677l5.217-.921s27.181-11.145,41.171-21.293c1.017,0,.339-3.373,1.314-3.069a19.529,19.529,0,0,0,2.762.478l3.011-1.619,4.045,6.877s-41.1,27.85-44.946,30.111c.8,5.2,11.55,28.62,13.366,33.836q.344.988.758,1.979a2.1,2.1,0,0,1,2.088,1.374l.478,1.311c.432,1.183-.128,1.829-1.1,2.313,2.632,8.129,4.024,16.936,10.155,23.118,3.4,3.429,6.2,7.376,9.185,11.155a68.159,68.159,0,0,0,4.958,5.745c1.438,1.453,4.336,3.016,5.127,4.777C525.338-872.2,525.319-872.188,525.3-872.176Z" transform="translate(-400.838 1009.278)"/><path d="M476.579-964.385,473.2-958.82l4.995,3.576-9.6,20.051,7.271-19.677L470.8-958.4l3.8-6.3-3.652-6.859Z" transform="translate(-400.618 1012.309)"/><path d="M475.161-913.925a1.865,1.865,0,0,1-1.512,2.161h0a1.867,1.867,0,0,1-2.161-1.512h0A1.864,1.864,0,0,1,473-915.438h0a1.864,1.864,0,0,1,2.162,1.51v0Zm-1.4-10.625a1.865,1.865,0,0,1-1.512,2.161h0a1.867,1.867,0,0,1-2.161-1.512,1.864,1.864,0,0,1,1.512-2.161h0a1.865,1.865,0,0,1,2.161,1.511Zm.432-10.95a1.865,1.865,0,0,1-1.512,2.161h0a1.867,1.867,0,0,1-2.161-1.512h0a1.866,1.866,0,0,1,1.512-2.161,1.865,1.865,0,0,1,2.161,1.511Z" transform="translate(-400.428 1016.805)"/></g></g><g transform="translate(5.768 94.446)"><g transform="translate(0 0)"><g transform="translate(75.095 0)"><g transform="matrix(0.966, -0.259, 0.259, 0.966, 0.488, 7.096)"><path class="j" d="M0,33.932l3.837-17.9A12.6,12.6,0,0,1,.491,6.984c.7-9.947,14.534-7.759,17.225-2.738S20.088,22,16.61,22.9c-1.387.358-4.342-.519-7.35-2.333l1.888,13.366Z" transform="translate(0 0)"/></g><path class="d" d="M3.805,18.615A8.514,8.514,0,0,1,.132,12.757,9.692,9.692,0,0,1,.349,8.586,10.711,10.711,0,0,1,1.367,6.132C3.075-.9,10.139-.269,15.425.363,18,.671,20.152.979,21.059.4c.6,3.8-1.347,6.856-8.21,6.262C11.357,7.5,10.28,9.07,8.967,11.179A2.789,2.789,0,0,0,6,15.771c-.716,1.011-1.433,1.941-2.2,2.844h0Z" transform="matrix(0.966, -0.259, 0.259, 0.966, 0, 5.477)"/></g><path class="j" d="M-680.22-587.946c.391-.522,1.731-1.008,2.6.546,2.164,3.874,6.054,9.525,7.423,10.368,2.812,1.722,31.043,9.308,31.043,9.308l-.995,10.344s-30.05-12.435-31.87-13.375c-2.734-1.408-7.281.618-9.7,1.44-.581-1.7.424-2.375,1.433-3.119,1.077-.794,2.161-1.671,1.341-3.962-1.049-2.933-2.911-5.45-2.656-8.222A6.456,6.456,0,0,1-680.22-587.946Zm150.362-.092-13.779,9.961-5.542-7.528,18.231-7.4a42.679,42.679,0,0,1,9.34-6.909c.887-.256,2.39-.3.723,2s-3.318,4.781-2.7,5.62,2.5-.015,3.191,1.339a.376.376,0,0,1-.023.39Q-521.148-589.387-529.857-588.038Z" transform="translate(681.894 602.621)"/><path class="k" d="M-550.178-559.639l4.3-.738c15.95,13.775,20.551,41.728,20.151,61.718l-8,2C-567.638-500.854-550.854-536.76-550.178-559.639Z" transform="translate(636.764 588.524)"/><g transform="translate(74.693 69.399)"><path class="l" d="M-563.3-492.7l66.492,85.027,4.852-.7-26.707-39.495-28.187-47.21Z" transform="translate(565.048 495.914)"/><g transform="translate(66.712 79.854)"><path class="f" d="M-461.905-363.731a.818.818,0,0,0-.581,1l.012.039.87,2.72a26.125,26.125,0,0,0,2.09,2.484l19.2-12.742s-.893-2.971-2.637-2.1-2.916,1.422-2.916,1.422l-11.564,1.943a.409.409,0,0,0-.335.47l0,.012.35,1.773a9.263,9.263,0,0,1-1.964,2.306Z" transform="translate(462.513 372.489)"/></g><path class="m" d="M-542.011-496.377l-24,3.471c7.208,22.841,49.363,68.05,59.472,79.1l10.489-3.581C-505.8-428.7-526.791-481.312-542.011-496.377Z" transform="translate(566.013 496.377)"/></g><g transform="translate(13.063 76.348)"><path class="l" d="M-580.749-484.127l-29.062,46.676-27.438,38.991,4.839.792,68.064-83.774Z" transform="translate(652.963 485.074)"/><g transform="translate(0 78.668)"><path class="f" d="M-642.675-355.145a9.266,9.266,0,0,1-1.921-2.343l.383-1.766,0-.012a.408.408,0,0,0-.326-.476l-11.526-2.159s-1.161-.57-2.888-1.475-2.676,2.048-2.676,2.048l18.96,13.1a26.271,26.271,0,0,0,2.136-2.444l.92-2.7c0-.013.009-.026.012-.039a.817.817,0,0,0-.561-1.01Z" transform="translate(661.628 363.548)"/></g><path class="n" d="M-632.142-407.476l10.421,3.775c10.313-10.86,53.3-55.276,60.934-77.979L-584.72-485.6C-600.218-470.818-622.186-418.6-632.142-407.476Z" transform="translate(651.148 485.596)"/></g><path class="o" d="M-576.639-506.665H-538.6c1.74,0,1.41-2.51,1.16-3.779-2.9-14.617-14.221-30.372-14.221-51.18l-10.972-1.721C-571.708-548.748-574.849-530.779-576.639-506.665Z" transform="translate(644.483 589.579)"/><path class="p" d="M-656.757-563.771c21.7-2.826,44.935,6.732,45.729,6.554-2.021.454,2.088,5.877,1.106,4.053-4.01-7.237-2.562-11.222,1.724-12.531s8.109,1.388,14.938,1.388a5.39,5.39,0,0,1,.814.058l3.642.208s14.783,50.1,8.154,66.855h-30.068c-3.88-16.066,8.43-40.931,6.566-37.554,0,0-37.428-5.609-56.333-21.655Z" transform="translate(674.285 590.542)"/><path class="k" d="M-530.327-547.17l-7.849-21.688c18.8-9.532,54.2-20.639,56.261-20.358l.2,8.168C-508.663-554.438-519.858-552.146-530.327-547.17Z" transform="translate(630.811 598.776)"/></g></g></g><g transform="translate(-48.318 109.039)"><circle class="i" cx="23" cy="23" r="23" transform="translate(211.029 33.953)"/><path class="q" d="M427.1,311.7a1.972,1.972,0,0,1-2.789.028l-.028-.028-7.024-7.227a2.058,2.058,0,0,1,0-2.888,1.972,1.972,0,0,1,2.789-.028l.028.028,5.576,5.773,12.6-12.86a1.972,1.972,0,0,1,2.789-.028l.028.028a2.058,2.058,0,0,1,0,2.888Z" transform="translate(-194.228 -245.907)"/></g></g></g></svg>