<svg id="Group_3544" data-name="Group 3544" xmlns="http://www.w3.org/2000/svg" xmlns:xlink="http://www.w3.org/1999/xlink" width="34.198" height="25.666" viewBox="0 0 34.198 25.666">
  <defs>
    <linearGradient id="linear-gradient" x1="-0.749" y1="0.885" x2="1.828" y2="0.885" gradientUnits="objectBoundingBox">
      <stop offset="0" stop-color="#007940"/>
      <stop offset="0.228" stop-color="#00873f"/>
      <stop offset="0.743" stop-color="#40a737"/>
      <stop offset="1" stop-color="#5cb531"/>
    </linearGradient>
    <linearGradient id="linear-gradient-2" x1="-0.058" y1="0.541" x2="0.831" y2="0.541" xlink:href="#linear-gradient"/>
    <linearGradient id="linear-gradient-3" x1="-0.818" y1="1.102" x2="1.995" y2="1.102" xlink:href="#linear-gradient"/>
    <linearGradient id="linear-gradient-4" x1="0.191" y1="0.541" x2="1.094" y2="0.541" gradientUnits="objectBoundingBox">
      <stop offset="0" stop-color="#1f286f"/>
      <stop offset="0.475" stop-color="#004e94"/>
      <stop offset="0.826" stop-color="#0066b1"/>
      <stop offset="1" stop-color="#006fbc"/>
    </linearGradient>
    <linearGradient id="linear-gradient-5" x1="0.059" y1="0.54" x2="0.937" y2="0.54" gradientUnits="objectBoundingBox">
      <stop offset="0" stop-color="#6c2c2f"/>
      <stop offset="0.174" stop-color="#882730"/>
      <stop offset="0.573" stop-color="#be1833"/>
      <stop offset="0.859" stop-color="#dc0436"/>
      <stop offset="1" stop-color="#e60039"/>
    </linearGradient>
  </defs>
  <g id="g6327" transform="translate(23.645 0)">
    <path id="path6338" d="M234.976,135.045h2.468c.071,0,.235-.024.306-.024a1.1,1.1,0,0,0,.87-1.1,1.141,1.141,0,0,0-.87-1.1,1.241,1.241,0,0,0-.306-.024h-2.468Z" transform="translate(-232.861 -119.462)" fill="url(#linear-gradient)"/>
    <path id="path6349" d="M222.884,29.509a4.278,4.278,0,0,0-4.278,4.278v4.442h6.04a2.418,2.418,0,0,1,.423.023c1.363.071,2.374.776,2.374,2a2,2,0,0,1-1.951,1.951v.047c1.387.094,2.444.87,2.444,2.068,0,1.293-1.175,2.139-2.726,2.139h-6.628v8.7h6.275a4.278,4.278,0,0,0,4.278-4.278V29.509Z" transform="translate(-218.582 -29.509)" fill="url(#linear-gradient-2)"/>
    <path id="path6360" d="M238.314,107.957a1,1,0,0,0-.87-1.011c-.047,0-.165-.024-.235-.024h-2.233v2.068h2.233a.655.655,0,0,0,.235-.023A1,1,0,0,0,238.314,107.957Z" transform="translate(-232.861 -96.934)" fill="url(#linear-gradient-3)"/>
  </g>
  <path id="path6371" d="M39.639,29.509a4.278,4.278,0,0,0-4.278,4.278V44.339a8.459,8.459,0,0,0,3.69.964,2.047,2.047,0,0,0,2.28-2.115V38.205H45v4.959c0,1.927-1.2,3.5-5.265,3.5a18.043,18.043,0,0,1-4.4-.541v9h6.275a4.278,4.278,0,0,0,4.278-4.278V29.509H39.639Z" transform="translate(-35.337 -29.509)" fill="url(#linear-gradient-4)"/>
  <path id="path6384" d="M131.42,29.509a4.278,4.278,0,0,0-4.278,4.278V39.38c1.081-.917,2.962-1.5,5.994-1.363a19.072,19.072,0,0,1,3.361.517v1.81a8.136,8.136,0,0,0-3.244-.94c-2.3-.165-3.69.964-3.69,2.938,0,2,1.387,3.126,3.69,2.938a8.536,8.536,0,0,0,3.244-.94v1.81a18.617,18.617,0,0,1-3.361.517c-3.032.141-4.912-.447-5.994-1.363v9.872h6.276A4.278,4.278,0,0,0,137.7,50.9V29.509Z" transform="translate(-115.296 -29.509)" fill="url(#linear-gradient-5)"/>
</svg>
