<svg xmlns="http://www.w3.org/2000/svg" xmlns:xlink="http://www.w3.org/1999/xlink" width="205.612" height="81.549" viewBox="0 0 205.612 81.549"><defs><style>.a{fill:#fff;}.b{fill:#ff276a;}.c{fill:#2033a0;}.d{filter:url(#a);}</style><filter id="a" x="0" y="0" width="82.81" height="81.549" filterUnits="userSpaceOnUse"><feOffset dx="2" dy="5" input="SourceAlpha"/><feGaussianBlur stdDeviation="5.5" result="b"/><feFlood flood-color="#2033a0" flood-opacity="0.169"/><feComposite operator="in" in2="b"/><feComposite in="SourceGraphic"/></filter></defs><g transform="translate(-19928.299 19600.501)"><g class="d" transform="matrix(1, 0, 0, 1, 19928.3, -19600.5)"><path class="a" d="M710.928,443.706h26.36a11.724,11.724,0,0,1,11.724,11.722v25.1a11.724,11.724,0,0,1-11.724,11.722h-26.36A11.725,11.725,0,0,1,699.2,480.533v-25.1a11.725,11.725,0,0,1,11.726-11.722" transform="translate(-684.7 -432.21)"/></g><path class="b" d="M719.923,461.7a.752.752,0,0,0-.146-.015,1.876,1.876,0,1,1,1.875-1.875.84.84,0,0,0,.832.8h2.843a.8.8,0,0,0,.794-.792,6.321,6.321,0,0,0-5.545-6.291v-1.288a7.664,7.664,0,0,1,6.827,7.578.793.793,0,0,0,1.587,0,9.237,9.237,0,0,0-9.2-9.208.854.854,0,0,0-.086,0,.791.791,0,0,0-.715.792.418.418,0,0,0,0,.059v2.724a.761.761,0,0,0,0,.08.8.8,0,0,0,.794.8,4.757,4.757,0,0,1,4.691,3.961h-1.331a3.46,3.46,0,1,0-3.526,4.245.884.884,0,0,0,.16.017,7.657,7.657,0,0,1,7.581,6.837h-1.29a6.317,6.317,0,0,0-6.289-5.557,4.768,4.768,0,0,1-4.75-4.763.8.8,0,0,0-.8-.8H711.4a.78.78,0,0,0-.316.068.8.8,0,0,0-.515.741,9.26,9.26,0,0,0,9.06,9.206.677.677,0,0,0,.149.014,1.876,1.876,0,1,1-1.877,1.876.8.8,0,0,0-.792-.794h-2.879a.8.8,0,0,0-.794.794,6.32,6.32,0,0,0,5.548,6.287v1.289a7.666,7.666,0,0,1-6.831-7.579.793.793,0,1,0-1.586,0,9.234,9.234,0,0,0,9.2,9.214.788.788,0,0,0,.788-.7.736.736,0,0,0,.008-.112v-2.848a.8.8,0,0,0-.794-.792,4.76,4.76,0,0,1-4.691-3.961h1.319a3.46,3.46,0,1,0,3.528-4.245.688.688,0,0,0-.159-.017,7.658,7.658,0,0,1-7.583-6.838h1.291a6.317,6.317,0,0,0,6.289,5.558,4.764,4.764,0,0,1,4.751,4.766.8.8,0,0,0,.794.793h2.839a.844.844,0,0,0,.827-.808,9.262,9.262,0,0,0-9.061-9.206" transform="translate(19247.924 -20030.082)"/><g transform="translate(20005.844 -19579.021)"><path class="c" d="M756.726,482.425a13.65,13.65,0,0,1-7.851-2.164,8.667,8.667,0,0,1-3.817-6.059l6.068-1.391A5.139,5.139,0,0,0,753,476.384a6.194,6.194,0,0,0,3.963,1.244,5.117,5.117,0,0,0,3.093-.871,2.935,2.935,0,0,0,1.174-2.574,2.747,2.747,0,0,0-1-2.1,6.54,6.54,0,0,0-1.988-1.281q-.989-.385-3.183-1.048c-.2-.066-.338-.112-.43-.134q-1.119-.352-1.8-.589t-1.694-.655a11.248,11.248,0,0,1-1.645-.822,12.553,12.553,0,0,1-1.361-1.018,5.406,5.406,0,0,1-1.135-1.3,6.925,6.925,0,0,1-.685-1.626,7.209,7.209,0,0,1-.274-2.016,7.57,7.57,0,0,1,1.322-4.453,8.1,8.1,0,0,1,3.562-2.841,12.991,12.991,0,0,1,5.1-.949,15.989,15.989,0,0,1,3.69.412,12.769,12.769,0,0,1,3.3,1.262,8.073,8.073,0,0,1,2.633,2.328,8.771,8.771,0,0,1,1.5,3.438l-5.678,1.409a4.6,4.6,0,0,0-5.091-4.053h0a5.582,5.582,0,0,0-3.151.823,2.785,2.785,0,0,0-1.234,2.487q0,1.547,2.056,2.5a30.486,30.486,0,0,0,3.937,1.352c.77.235,1.4.431,1.879.589s1.091.384,1.82.683a12.876,12.876,0,0,1,1.782.872,13.262,13.262,0,0,1,1.489,1.088,5.819,5.819,0,0,1,1.262,1.409,7.667,7.667,0,0,1,.774,1.752,7.378,7.378,0,0,1,.313,2.183,8.547,8.547,0,0,1-.57,3.192,6.942,6.942,0,0,1-1.555,2.407,9.051,9.051,0,0,1-2.341,1.654,11.377,11.377,0,0,1-2.877.979,16.749,16.749,0,0,1-3.232.3" transform="translate(-745.058 -453.35)"/><path class="c" d="M776.385,458.781h5.775L769.74,488.393h-5.718l4.6-10.293-8.286-19.306h6.148l4.8,13.233Z" transform="translate(-736.286 -450.231)"/><path class="c" d="M792.616,473.6a18.826,18.826,0,0,0,.49,4.914v.548h-5.268l-.45-2.194a6.523,6.523,0,0,1-2.819,1.939,10.345,10.345,0,0,1-3.642.647,9.39,9.39,0,0,1-1.878-.178,6.4,6.4,0,0,1-1.7-.593,5.185,5.185,0,0,1-1.4-1.048,4.547,4.547,0,0,1-.937-1.606,6.389,6.389,0,0,1-.354-2.183,6.106,6.106,0,0,1,.373-2.18,5.114,5.114,0,0,1,.979-1.637,5.942,5.942,0,0,1,1.587-1.193,11.966,11.966,0,0,1,2-.861,23.888,23.888,0,0,1,2.389-.628l3.309-.743a3.624,3.624,0,0,0,1.5-.637,1.267,1.267,0,0,0,.441-1.008,2.076,2.076,0,0,0-.989-1.939,4.643,4.643,0,0,0-2.4-.589q-3.464,0-3.935,3.074l-4.994-.9a6.776,6.776,0,0,1,2.92-4.592,11.61,11.61,0,0,1,6.324-1.476q8.458,0,8.459,7.264Zm-9.928,2.035a4.533,4.533,0,0,0,3.485-1.457,6.134,6.134,0,0,0,1.35-4.318l-4.777,1.351a5.648,5.648,0,0,0-2,.822,1.7,1.7,0,0,0-.7,1.45,1.878,1.878,0,0,0,.745,1.6,3.076,3.076,0,0,0,1.9.559Z" transform="translate(-728.063 -450.38)"/><path class="c" d="M794.954,462.061a6.536,6.536,0,0,1,2.644-2.418,8.053,8.053,0,0,1,3.935-1.007v5.032a7.636,7.636,0,0,0-4.813,1.212,5.3,5.3,0,0,0-1.486,4.308V479h-5.679V458.864h5.4Z" transform="translate(-719.515 -450.315)"/><path class="c" d="M811.072,458.536a9.8,9.8,0,0,1,3.759.724,9.391,9.391,0,0,1,3.084,2.038A9.2,9.2,0,0,1,820,464.617a13.118,13.118,0,0,1,0,8.829,9.2,9.2,0,0,1-2.084,3.32,9.407,9.407,0,0,1-3.084,2.035,9.825,9.825,0,0,1-3.759.726,8.791,8.791,0,0,1-3.642-.745,5.707,5.707,0,0,1-2.525-2.114v12.179h-5.638V458.922h5.346l.157,2.7a5.51,5.51,0,0,1,2.514-2.284,8.673,8.673,0,0,1,3.789-.806M809.8,474.844a5.064,5.064,0,0,0,3.807-1.576,6.683,6.683,0,0,0,0-8.48,5.389,5.389,0,0,0-7.622,0l-.023.025a6.568,6.568,0,0,0,0,8.42,5.079,5.079,0,0,0,3.838,1.607Z" transform="translate(-713.939 -450.372)"/><path class="c" d="M832.657,473.6a18.77,18.77,0,0,0,.488,4.914v.548h-5.267l-.45-2.194a6.519,6.519,0,0,1-2.821,1.939,10.368,10.368,0,0,1-3.639.647,9.421,9.421,0,0,1-1.881-.178,6.459,6.459,0,0,1-1.693-.593,5.217,5.217,0,0,1-1.4-1.048,4.568,4.568,0,0,1-.935-1.606,6.347,6.347,0,0,1-.354-2.183,6.059,6.059,0,0,1,.375-2.18,5.064,5.064,0,0,1,.977-1.637,5.958,5.958,0,0,1,1.585-1.193,12.043,12.043,0,0,1,2-.861,24.108,24.108,0,0,1,2.389-.628l3.307-.743a3.63,3.63,0,0,0,1.5-.637,1.268,1.268,0,0,0,.442-1.008,2.079,2.079,0,0,0-.989-1.939,4.647,4.647,0,0,0-2.408-.589q-3.461,0-3.935,3.074l-4.99-.9a6.758,6.758,0,0,1,2.915-4.592,11.619,11.619,0,0,1,6.326-1.476q8.457,0,8.457,7.264Zm-9.927,2.035a4.539,4.539,0,0,0,3.487-1.457,6.157,6.157,0,0,0,1.349-4.318l-4.777,1.351a5.618,5.618,0,0,0-2,.822,1.7,1.7,0,0,0-.7,1.45,1.877,1.877,0,0,0,.743,1.6,3.074,3.074,0,0,0,1.9.559Z" transform="translate(-705.077 -450.38)"/></g></g></svg>