<svg xmlns="http://www.w3.org/2000/svg" width="16.554" height="16.774" viewBox="0 0 16.554 16.774"><defs><style>.a{fill:#2033a0;}</style></defs><g transform="translate(0 16.774) rotate(-90)"><path class="a" d="M15.266,0V4.773a.364.364,0,0,1-.335.363H1.842a.365.365,0,0,1-.335-.363V0H0V4.773a1.883,1.883,0,0,0,1.842,1.87H14.932a1.864,1.864,0,0,0,1.842-1.87V0Z" transform="translate(0 9.911)"/><path class="a" d="M3.423,6.871a.665.665,0,0,1-.5-.213L.2,3.905a.694.694,0,0,1,0-.979L2.926.2a.711.711,0,0,1,.993,0,.711.711,0,0,1,0,.993L2.387,2.728h9.08a.7.7,0,0,1,0,1.39H2.373L3.919,5.679a.709.709,0,0,1,.2.5.688.688,0,0,1-.213.5A.676.676,0,0,1,3.423,6.871Z" transform="translate(12.09 0) rotate(90)"/></g></svg>