<svg xmlns="http://www.w3.org/2000/svg" xmlns:xlink="http://www.w3.org/1999/xlink" width="51" height="51" viewBox="0 0 51 51"><defs><style>.a{fill:#fff}.b{fill:#ff276a}.c{filter:url(#a)}</style><filter id="a" width="51" height="51" x="0" y="0" filterUnits="userSpaceOnUse"><feOffset dy="3" input="SourceAlpha"/><feGaussianBlur result="b" stdDeviation="3"/><feFlood flood-opacity=".161"/><feComposite in2="b" operator="in"/><feComposite in="SourceGraphic"/></filter></defs><g><g class="c" transform="translate(9 6) matrix(1, 0, 0, 1, -9, -6)"><rect width="33" height="33" class="a" rx="4" transform="translate(9 6)"/></g><g><g><path d="M8.206,10.012A.529.529,0,0,0,8.1,10,1.905,1.905,0,1,1,10,8.095h0a.5.5,0,0,0,.48.5.428.428,0,0,0,.057,0H13.1a.5.5,0,0,0,.5-.5,5.515,5.515,0,0,0-5-5.485V1.021A7.1,7.1,0,0,1,15.191,8.1a.5.5,0,0,0,1,0A8.107,8.107,0,0,0,8.105,0H8.1a.32.32,0,0,0-.05,0A.5.5,0,0,0,7.6.5a.462.462,0,0,0,0,.053V3.038a.466.466,0,0,0,0,.05.5.5,0,0,0,.5.5,4.512,4.512,0,0,1,4.476,4H10.958A2.908,2.908,0,1,0,7.98,11a.518.518,0,0,0,.116.014,7.1,7.1,0,0,1,7.076,6.6H13.58A5.515,5.515,0,0,0,8.1,12.6h0a4.509,4.509,0,0,1-4.5-4.5V8.083a.5.5,0,0,0-.5-.5H.535a.5.5,0,0,0-.21.047A.5.5,0,0,0,0,8.1,8.1,8.1,0,0,0,7.986,16.19a.493.493,0,0,0,.11.013,1.905,1.905,0,1,1-1.905,1.905h0a.5.5,0,0,0-.5-.5h-2.6a.5.5,0,0,0-.5.5A5.515,5.515,0,0,0,7.6,23.591v1.592A7.105,7.105,0,0,1,1,18.106a.5.5,0,0,0-1,0,8.106,8.106,0,0,0,8.1,8.1.5.5,0,0,0,.5-.451.516.516,0,0,0,.006-.069V23.195a.474.474,0,0,0,0-.06v-.024a.5.5,0,0,0-.5-.5,4.512,4.512,0,0,1-4.477-4H5.233a2.908,2.908,0,1,0,2.978-3.4.49.49,0,0,0-.116-.014,7.1,7.1,0,0,1-7.076-6.6H2.611A5.515,5.515,0,0,0,8.095,13.6h0a4.509,4.509,0,0,1,4.5,4.5v.013a.5.5,0,0,0,.5.5h2.559a.541.541,0,0,0,.534-.514A8.106,8.106,0,0,0,8.206,10.012Z" class="b" transform="translate(9 6) translate(8.798 3.651) translate(0 0)"/></g></g></g></svg>