<svg xmlns="http://www.w3.org/2000/svg" id="Maestro_2016" width="21.393" height="16.645" viewBox="0 0 21.393 16.645"><g id="Group_3542" data-name="Group 3542" transform="translate(0 0)"><g id="Group_3537" data-name="Group 3537" transform="translate(20.625 10.452)"><path id="Path_12083" fill="#0099df" d="M-4.643-2.138V-2.4h-.068l-.078.178L-4.867-2.4h-.068v.26h.048v-.2l.073.169h.05l.073-.169v.2Zm-.429,0v-.215h.087V-2.4h-.221v.044h.087v.215Z" data-name="Path 12083" transform="translate(5.207 2.397)"/></g><path id="Path_12084" fill="#6c6bbd" d="M3577.722,2158.1h-5.856v-10.524h5.856Z" data-name="Path 12084" transform="translate(-3564.098 -2146.14)"/><g id="Group_3538" data-name="Group 3538" transform="translate(0 0)"><path id="Path_12085" fill="#eb001b" d="M-68.12-55.116a6.682,6.682,0,0,1,2.556-5.262A6.664,6.664,0,0,0-69.7-61.809a6.692,6.692,0,0,0-6.692,6.693A6.692,6.692,0,0,0-69.7-48.423a6.664,6.664,0,0,0,4.136-1.431,6.682,6.682,0,0,1-2.556-5.262" data-name="Path 12085" transform="translate(76.392 61.809)"/></g><g id="Group_3539" data-name="Group 3539" transform="translate(10.564 0)"><path id="Path_12086" fill="#0099df" d="M-89.173-55.116a6.692,6.692,0,0,1-6.692,6.693A6.666,6.666,0,0,1-100-49.854a6.681,6.681,0,0,0,2.556-5.262A6.681,6.681,0,0,0-100-60.378a6.666,6.666,0,0,1,4.136-1.431,6.692,6.692,0,0,1,6.692,6.693" data-name="Path 12086" transform="translate(100.001 61.809)"/></g><g id="Group_3540" data-name="Group 3540" transform="translate(3.405 14.233)"><path id="Path_12087" fill="#231f20" d="M-100.41-4.072a.825.825,0,0,1,.275.049l-.119.364A.626.626,0,0,0-100.5-3.7c-.253,0-.379.163-.379.457v1h-.387V-4.027h.383v.216a.525.525,0,0,1,.469-.26m-1.429.4h-.632v.8c0,.178.063.3.257.3a.712.712,0,0,0,.342-.1l.111.331a.907.907,0,0,1-.483.138c-.457,0-.617-.246-.617-.658v-.81h-.361v-.353h.361v-.539h.39v.539h.632Zm-4.948.379a.458.458,0,0,1,.472-.431.441.441,0,0,1,.45.431Zm1.324.156a.852.852,0,0,0-.844-.933.868.868,0,0,0-.885.933.876.876,0,0,0,.911.933,1.08,1.08,0,0,0,.729-.249l-.19-.286a.845.845,0,0,1-.517.186.494.494,0,0,1-.531-.435h1.32c0-.049.008-.1.008-.149m1.7-.435a1.14,1.14,0,0,0-.554-.153c-.212,0-.338.078-.338.209s.134.152.3.174l.182.026c.387.056.621.22.621.532,0,.338-.3.58-.81.58a1.282,1.282,0,0,1-.77-.231l.182-.3a.948.948,0,0,0,.591.186c.264,0,.405-.078.405-.216,0-.1-.1-.156-.312-.186l-.182-.026c-.4-.056-.614-.234-.614-.524,0-.353.29-.569.74-.569a1.328,1.328,0,0,1,.725.186ZM-99-3.7a.586.586,0,0,0-.222.042.532.532,0,0,0-.177.117.545.545,0,0,0-.117.181.611.611,0,0,0-.043.232.61.61,0,0,0,.043.232.545.545,0,0,0,.117.181.532.532,0,0,0,.177.117A.578.578,0,0,0-99-2.561a.576.576,0,0,0,.222-.042A.532.532,0,0,0-98.6-2.72a.541.541,0,0,0,.119-.181.61.61,0,0,0,.043-.232.611.611,0,0,0-.043-.232.541.541,0,0,0-.119-.181.532.532,0,0,0-.178-.117A.584.584,0,0,0-99-3.7m0-.367A1,1,0,0,1-98.614-4a.93.93,0,0,1,.3.2.9.9,0,0,1,.2.3.945.945,0,0,1,.073.373.945.945,0,0,1-.073.373.906.906,0,0,1-.2.3.937.937,0,0,1-.3.2A1.009,1.009,0,0,1-99-2.194a1.009,1.009,0,0,1-.383-.071.927.927,0,0,1-.3-.2.917.917,0,0,1-.2-.3.945.945,0,0,1-.073-.373.945.945,0,0,1,.073-.373.915.915,0,0,1,.2-.3.92.92,0,0,1,.3-.2A1,1,0,0,1-99-4.072m-10.049.933a.533.533,0,0,1,.539-.569.533.533,0,0,1,.535.569.532.532,0,0,1-.535.568.533.533,0,0,1-.539-.568m1.439,0v-.888h-.386v.216a.674.674,0,0,0-.561-.26.89.89,0,0,0-.888.933.89.89,0,0,0,.888.933.674.674,0,0,0,.561-.26v.216h.386Zm-2.178.888V-3.365a.662.662,0,0,0-.7-.706.688.688,0,0,0-.625.316.653.653,0,0,0-.588-.316.588.588,0,0,0-.52.264v-.219h-.386V-2.25h.39v-.985a.416.416,0,0,1,.435-.472c.257,0,.387.167.387.468v.989h.39v-.985a.419.419,0,0,1,.435-.472c.264,0,.391.167.391.468v.989Z" data-name="Path 12087" transform="translate(112.603 4.566)"/></g><g id="Group_3541" data-name="Group 3541" transform="translate(18.11 16.291)"><path id="Path_12088" fill="#231f20" d="M-1.24-1.027v.044h.04a.04.04,0,0,0,.022-.006.019.019,0,0,0,.009-.017.018.018,0,0,0-.009-.016A.036.036,0,0,0-1.2-1.027Zm.041-.031a.075.075,0,0,1,.049.014.047.047,0,0,1,.017.038.044.044,0,0,1-.014.034.068.068,0,0,1-.039.016l.054.062h-.042l-.05-.061H-1.24v.061h-.035v-.164Zm-.011.22a.129.129,0,0,0,.053-.011.14.14,0,0,0,.043-.029.137.137,0,0,0,.029-.044.14.14,0,0,0,.011-.054.14.14,0,0,0-.011-.054.142.142,0,0,0-.029-.044A.132.132,0,0,0-1.157-1.1a.129.129,0,0,0-.053-.011.135.135,0,0,0-.054.011.131.131,0,0,0-.044.029.133.133,0,0,0-.029.044.133.133,0,0,0-.011.054.133.133,0,0,0,.011.054.129.129,0,0,0,.029.044.139.139,0,0,0,.044.029.135.135,0,0,0,.054.011m0-.314a.173.173,0,0,1,.07.014.175.175,0,0,1,.057.038.173.173,0,0,1,.038.056.169.169,0,0,1,.014.069.169.169,0,0,1-.014.069.176.176,0,0,1-.038.056.184.184,0,0,1-.057.038A.173.173,0,0,1-1.21-.8a.179.179,0,0,1-.071-.014.179.179,0,0,1-.057-.038.176.176,0,0,1-.038-.056.169.169,0,0,1-.014-.069.169.169,0,0,1,.014-.069A.173.173,0,0,1-1.339-1.1a.171.171,0,0,1,.057-.038.179.179,0,0,1,.071-.014" data-name="Path 12088" transform="translate(1.391 1.151)"/></g></g></svg>