<svg id="Group_3543" data-name="Group 3543" xmlns="http://www.w3.org/2000/svg" width="21.393" height="16.639" viewBox="0 0 21.393 16.639">
  <path id="Path_12089" data-name="Path 12089" d="M23.974,94.321v-1.1a.654.654,0,0,0-.69-.7.679.679,0,0,0-.617.312.645.645,0,0,0-.58-.312.58.58,0,0,0-.514.261v-.217H21.19v1.756h.386v-.966a.411.411,0,0,1,.43-.466c.253,0,.382.165.382.463v.977h.386v-.973a.413.413,0,0,1,.43-.466c.261,0,.386.165.386.463v.977Zm5.706-1.756h-.628v-.533h-.386v.533h-.349v.349h.356v.808c0,.408.158.65.61.65a.9.9,0,0,0,.477-.136l-.11-.327a.7.7,0,0,1-.338.1c-.184,0-.253-.118-.253-.294v-.8h.624Zm3.258-.044a.518.518,0,0,0-.463.257v-.213H32.1v1.756h.382v-.984c0-.29.125-.452.367-.452a.622.622,0,0,1,.239.044l.118-.367a.817.817,0,0,0-.272-.048Zm-4.925.184a1.313,1.313,0,0,0-.716-.184c-.444,0-.735.213-.735.562,0,.286.213.463.606.518l.184.026c.209.029.309.084.309.184,0,.136-.14.213-.4.213a.935.935,0,0,1-.584-.184l-.184.3a1.267,1.267,0,0,0,.76.228c.507,0,.8-.239.8-.573s-.231-.47-.613-.525l-.184-.026c-.165-.022-.3-.055-.3-.173s.125-.206.334-.206a1.131,1.131,0,0,1,.551.151Zm10.231-.184a.518.518,0,0,0-.463.257v-.213H37.4v1.756h.382v-.984c0-.29.125-.452.367-.452a.622.622,0,0,1,.239.044l.118-.367a.817.817,0,0,0-.272-.048Zm-4.922.918a.887.887,0,0,0,.937.918.918.918,0,0,0,.632-.209l-.184-.309a.771.771,0,0,1-.459.158.564.564,0,0,1,0-1.124.771.771,0,0,1,.459.158l.184-.309a.918.918,0,0,0-.632-.209.887.887,0,0,0-.937.918Zm3.577,0v-.874h-.382v.213a.667.667,0,0,0-.551-.257.918.918,0,1,0,0,1.836.667.667,0,0,0,.551-.257v.213H36.9Zm-1.421,0a.527.527,0,1,1,.143.4A.531.531,0,0,1,35.477,93.439Zm-4.609-.918a.918.918,0,1,0,.026,1.836,1.067,1.067,0,0,0,.729-.239l-.184-.283a.836.836,0,0,1-.511.184.487.487,0,0,1-.525-.43h1.3v-.147a.835.835,0,0,0-.834-.918Zm0,.342a.435.435,0,0,1,.444.426h-.918a.452.452,0,0,1,.466-.426Zm9.569.58V91.86H40.07v.918a.667.667,0,0,0-.551-.257.918.918,0,1,0,0,1.836.667.667,0,0,0,.551-.257v.213h.367Zm.637.623a.177.177,0,0,1,.165.1.171.171,0,0,1,0,.136.175.175,0,0,1-.1.092.173.173,0,0,1-.07.015.184.184,0,0,1-.165-.107.173.173,0,0,1,0-.136.178.178,0,0,1,.171-.1Zm0,.31a.131.131,0,0,0,.053-.011.138.138,0,0,0,.042-.029.132.132,0,0,0-.042-.213.132.132,0,0,0-.053-.011.137.137,0,0,0-.053.011.134.134,0,0,0-.044.029.133.133,0,0,0,.1.224Zm.011-.219a.073.073,0,0,1,.048.015.046.046,0,0,1,.017.039.044.044,0,0,1-.013.033.064.064,0,0,1-.039.017l.053.061h-.042l-.05-.061h-.017v.061h-.035v-.162Zm-.04.031v.044h.04a.038.038,0,0,0,.022,0,71.587,71.587,0,0,1,0-.033.039.039,0,0,0-.022,0Zm-2.02-.746a.527.527,0,1,1,.143.4A.531.531,0,0,1,39.025,93.443Zm-12.9,0v-.878h-.382v.213a.667.667,0,0,0-.551-.257.918.918,0,1,0,0,1.836.667.667,0,0,0,.551-.257v.213h.382Zm-1.421,0a.521.521,0,1,1,.141.4.531.531,0,0,1-.141-.4Z" transform="translate(-20.082 -77.774)" fill="#231f20"/>
  <g id="_Group_" data-name="&lt;Group&gt;" transform="translate(0 0)">
    <rect id="Rectangle_2310" data-name="Rectangle 2310" width="5.785" height="10.396" transform="translate(7.804 1.414)" fill="#ff5f00"/>
    <path id="_Path_" data-name="&lt;Path&gt;" d="M23.326,21.766a6.6,6.6,0,0,1,2.525-5.2,6.611,6.611,0,1,0,0,10.4A6.6,6.6,0,0,1,23.326,21.766Z" transform="translate(-15.155 -15.154)" fill="#eb001b"/>
    <path id="Path_12081" data-name="Path 12081" d="M84.1,21.763a6.611,6.611,0,0,1-10.7,5.2,6.611,6.611,0,0,0,0-10.4,6.611,6.611,0,0,1,10.7,5.2Z" transform="translate(-62.704 -15.151)" fill="#f79e1b"/>
    <path id="Path_12082" data-name="Path 12082" d="M127.622,72.317V72.1h.086V72.06h-.219V72.1h.094v.213Zm.424,0V72.06h-.066l-.077.184-.077-.184h-.059v.257h.048v-.193l.072.167h.05l.072-.167v.195Z" transform="translate(-106.861 -61.609)" fill="#f79e1b"/>
  </g>
</svg>
