<svg xmlns="http://www.w3.org/2000/svg" width="133.058" height="132.449" viewBox="0 0 133.058 132.449"><defs><style>.a{fill:#9da8b6}</style></defs><g transform="translate(208.858 23.154)"><path d="M-176.856,88.063a1.55,1.55,0,0,0,1,.645,1.518,1.518,0,0,0,1.165-.252l42.27-29.321.1-.033,48.493-16.866a1.561,1.561,0,0,0,.962-1.986l-18.219-52.376a1.563,1.563,0,0,0-1.986-.961l-4.181,1.455-7.525-10.851a1.563,1.563,0,0,0-2.171-.394L-159.22,6.448l-48.589,16.9a1.548,1.548,0,0,0-.892.794,1.547,1.547,0,0,0-.069,1.192v0l18.218,52.368a1.563,1.563,0,0,0,1.986.962l4.184-1.456Zm1.672-3.06-6.137-8.855,37.92-13.191Zm58.73-104.423,6.141,8.852L-148.236,2.638ZM-205.31,25.786-103.519-9.631l17.193,49.423-101.8,35.417Z" class="a"/><path d="M-197,31.031l12.145,34.923a1.536,1.536,0,0,0,1.473,1.037h0a1.541,1.541,0,0,0,.511-.087L-95.59,36.539a1.548,1.548,0,0,0,.892-.794,1.554,1.554,0,0,0,.069-1.191L-106.777-.361a1.552,1.552,0,0,0-.794-.891,1.568,1.568,0,0,0-.678-.156,1.552,1.552,0,0,0-.514.088l-87.28,30.365A1.561,1.561,0,0,0-197,31.031Zm87.793-28.892L-98.091,34.1l-84.334,29.34-11.12-31.966Z" class="a"/><path d="M-145.817,21.989h-.009A10.816,10.816,0,0,0-156.619,32.8a10.8,10.8,0,0,0,.6,3.539,10.768,10.768,0,0,0,10.212,7.253,10.728,10.728,0,0,0,7.636-3.17,10.724,10.724,0,0,0,3.157-7.641A10.815,10.815,0,0,0-145.817,21.989Zm2.37,17.992a7.619,7.619,0,0,1-2.45.406,7.591,7.591,0,0,1-3.374-.794,7.578,7.578,0,0,1-3.844-4.393,7.579,7.579,0,0,1,.36-5.765,7.633,7.633,0,0,1,4.415-3.9l.006,0a7.635,7.635,0,0,1,9.667,4.781A7.634,7.634,0,0,1-143.447,39.981Z" class="a"/><rect width="3.5" height="3.5" class="a" transform="translate(-199.857 8.847)"/><rect width="3.5" height="12.5" class="a" transform="translate(-208.857 1.847)"/><path d="M-181.936-18.83a31.4,31.4,0,0,0-11.7-3.712q-.722-.057-1.361-.056c-4.321,0-5.978,1.84-6.592,3.011l-4.315,8.176c-2.57,4.879,4.124,11.772,11.728,15.779l.016.009a30.139,30.139,0,0,0,13.107,3.777A6.863,6.863,0,0,0-174.5,5.067l4.279-8.122c.679-1.288,1.312-4.071-2.072-8.254A31.365,31.365,0,0,0-181.936-18.83Zm4.642,22.5a2.344,2.344,0,0,1-1.473,1.049,8.084,8.084,0,0,1-2.353.3,26.342,26.342,0,0,1-11.6-3.412C-200-2.229-204.3-7.76-203.146-9.956h0l1.983-3.759.7,1.074a16.094,16.094,0,0,0,.946,1.311,31.321,31.321,0,0,0,9.641,7.518,31.38,31.38,0,0,0,11.7,3.724c.476.039.991.046,1.387.056a.87.87,0,0,0,.122-.008l1.441-.19Zm4.308-8.175c-.452.856-1.9,1.343-3.882,1.343-.346,0-.709-.015-1.087-.045a28.6,28.6,0,0,1-10.464-3.368,28.558,28.558,0,0,1-8.657-6.7c-1.646-2.025-2.3-3.834-1.759-4.86v0c.449-.854,1.861-1.343,3.875-1.343.34,0,.7.014,1.1.046a28.586,28.586,0,0,1,10.471,3.376,28.5,28.5,0,0,1,8.654,6.7C-173.121-7.36-172.456-5.508-172.986-4.5Z" class="a"/><path d="M-122.678,88.22l-.28-.7-3.469-7.767h0c-1.093-2.444-3.909-3.464-7.417-3.464a31.748,31.748,0,0,0-12.236,2.944,31.642,31.642,0,0,0-10.37,7.13c-1.785,2-3.643,4.977-2.357,7.858l3.77,8.44c.577,1.295,2.317,3.467,7.484,3.467h.3a31.316,31.316,0,0,0,11.861-2.93,31.7,31.7,0,0,0,10.384-7.135c1.639-1.83,3.339-4.494,2.609-7.149l-.28-.7-1.4.624Zm-33.269,4.735h0c-.508-1.134.345-2.96,2.339-5.009A29.08,29.08,0,0,1-144.8,82.09a27.591,27.591,0,0,1,10.906-2.672h0c2.488,0,4.167.586,4.634,1.607,1.014,2.274-3.637,7.512-11.147,10.868a28.252,28.252,0,0,1-10.974,2.66C-153.791,94.553-155.486,93.985-155.947,92.955Zm30.367-1.679c-.787,2.068-3.578,5.044-8.2,7.623h.188l-1.831.86c-.371.183-.754.362-1.145.538l-.065.03a28.6,28.6,0,0,1-10.644,2.682l-.262,0c-2.43,0-4.187-.612-4.638-1.618l-1.72-3.834,1.266.1c.407.033.825.051,1.253.051a31.35,31.35,0,0,0,12.218-2.962,29.9,29.9,0,0,0,11.212-8.138l.771-.9,1.678,3.758A2.343,2.343,0,0,1-125.58,91.276Z" class="a"/><path d="M-75.861,94.092h0c.423-2.644-1.377-5.038-4.313-6.957A31.761,31.761,0,0,0-92.027,82.9a31.648,31.648,0,0,0-12.582.3c-2.585.692-5.772,2.172-6.271,5.288l-1.463,9.127c-.225,1.4.043,4.17,4.369,7l.251.164a31.319,31.319,0,0,0,11.531,4.037,31.731,31.731,0,0,0,12.6-.292c2.373-.635,5.253-1.935,6.094-4.557l.148-.735m-30.439-14.24h0c.2-1.227,1.908-2.289,4.7-2.913a29.07,29.07,0,0,1,10.579-.081,27.577,27.577,0,0,1,10.591,3.731h0c2.082,1.361,3.167,2.771,3,3.881-.4,2.458-7.154,4.3-15.276,3a28.245,28.245,0,0,1-10.641-3.776C-106.862,91.506-107.97,90.1-107.793,88.989ZM-81.455,104.2c-1.79,1.3-5.754,2.265-11.033,1.9l.157.1-2-.282q-.617-.075-1.253-.176l-.071-.01a28.594,28.594,0,0,1-10.377-3.578l-.22-.142c-2.035-1.33-3.17-2.8-3-3.892l.658-4.15,1,.779c.323.251.663.495,1.021.729a31.364,31.364,0,0,0,11.848,4.205A29.91,29.91,0,0,0-80.886,99l1.139-.333-.652,4.064A2.343,2.343,0,0,1-81.455,104.2Z" class="a"/><rect width="3.5" height="19.5" class="a" transform="translate(-95.857 52.847)"/><rect width="3.5" height="9.5" class="a" transform="translate(-104.857 57.847)"/></g></svg>