<svg xmlns="http://www.w3.org/2000/svg" width="181.676" height="95.076" viewBox="0 0 181.676 95.076">
  <g id="Group_4495" data-name="Group 4495" transform="translate(-147 -295.245)">
    <g id="Group_4575" data-name="Group 4575" transform="translate(147 295.245)">
      <g id="Group_4574" data-name="Group 4574" transform="translate(0)">
        <path id="Path_12251" data-name="Path 12251" d="M21.885,22A12.078,12.078,0,0,0,10,34.256v70.511a12.124,12.124,0,0,0,11.885,12.309H133.938a12.124,12.124,0,0,0,11.884-12.309V34.256A12.078,12.078,0,0,0,133.938,22Zm0,3.4H133.938a8.266,8.266,0,0,1,5.518,2.175L83.27,80.945a7.46,7.46,0,0,1-10.611-.053L16.367,27.572A8.259,8.259,0,0,1,21.885,25.4Zm-7.533,4.934L56.317,70.122,15.57,110.762a9.214,9.214,0,0,1-2.175-5.995V34.256a9.025,9.025,0,0,1,.956-3.927Zm127.122,0a9.048,9.048,0,0,1,.954,3.927v70.511a9.214,9.214,0,0,1-2.175,5.995L99.611,70.069l41.862-39.74ZM97.171,72.4l40.322,40.428a8.1,8.1,0,0,1-3.555.849H21.885a8.1,8.1,0,0,1-3.555-.849L58.759,72.457,70.324,83.385a11.027,11.027,0,0,0,15.28,0Z" transform="translate(-10 -22)" fill="#2033a0"/>
      </g>
      <rect id="Rectangle_2528" data-name="Rectangle 2528" width="92.9" height="43.051" rx="3" transform="translate(88.776 26.635)" fill="#ff276a"/>
      <text id="NEW" transform="translate(95.573 58.635)" fill="#fff" font-size="33" font-family="CerebriSans-Medium, Cerebri Sans" font-weight="500"><tspan x="0" y="0">NEW</tspan></text>
    </g>
  </g>
</svg>
