<svg xmlns="http://www.w3.org/2000/svg" width="50.186" height="69.049" viewBox="0 0 50.186 69.049">
  <g id="Group_4831" data-name="Group 4831" transform="translate(-934.482 -337.656)">
    <path id="Path_12322" data-name="Path 12322" d="M193.832,100.547v24.088A18.168,18.168,0,0,0,211.95,142.75H225.9a18.164,18.164,0,0,0,18.118-18.113v-24.09a6.52,6.52,0,0,0-6.455-6.5l-.993-.007V91.346a17.645,17.645,0,1,0-35.29,0v2.691l-.993.007A6.52,6.52,0,0,0,193.832,100.547Zm11.645-7.5v-1.7a13.446,13.446,0,1,1,26.891,0v2.7H205.477Zm-7.448,7.5a2.31,2.31,0,0,1,2.306-2.306h37.181a2.309,2.309,0,0,1,2.3,2.306v24.088A13.949,13.949,0,0,1,225.9,138.563H211.947a13.955,13.955,0,0,1-13.918-13.916Z" transform="translate(740.65 263.955)" fill="#2033a0"/>
    <g id="Ellipse_1420" data-name="Ellipse 1420" transform="translate(951 370)" fill="none" stroke="#2033a0" stroke-width="4">
      <circle cx="8.5" cy="8.5" r="8.5" stroke="none"/>
      <circle cx="8.5" cy="8.5" r="6.5" fill="none"/>
    </g>
  </g>
</svg>
