<svg xmlns="http://www.w3.org/2000/svg" xmlns:xlink="http://www.w3.org/1999/xlink" width="554" height="533" viewBox="0 0 554 533"><defs><style>.a,.b,.m{fill:none;}.a,.b{stroke:rgba(255,39,106,0.22);}.a{stroke-width:2px;}.c,.i{fill:#2033a0;}.c{font-size:15px;font-family:CerebriSans-Medium, Cerebri Sans;font-weight:500;}.d,.k{fill:#fff;}.e{fill:#fab5ca;}.f{fill:#ffdbe6;}.g{fill:#ffedf2;}.h{fill:#2b3eaf;}.j{fill:#ff276a;}.k{fill-rule:evenodd;}.l{stroke:none;}.n{filter:url(#k);}.o{filter:url(#i);}.p{filter:url(#g);}.q{filter:url(#e);}.r{filter:url(#c);}.s{filter:url(#a);}</style><filter id="a" x="50" y="47" width="192" height="192" filterUnits="userSpaceOnUse"><feOffset dy="22" input="SourceAlpha"/><feGaussianBlur stdDeviation="15.5" result="b"/><feFlood flood-color="#2033a0" flood-opacity="0.102"/><feComposite operator="in" in2="b"/><feComposite in="SourceGraphic"/></filter><filter id="c" x="318" y="308" width="192" height="192" filterUnits="userSpaceOnUse"><feOffset dy="22" input="SourceAlpha"/><feGaussianBlur stdDeviation="15.5" result="d"/><feFlood flood-color="#2033a0" flood-opacity="0.102"/><feComposite operator="in" in2="d"/><feComposite in="SourceGraphic"/></filter><filter id="e" x="124" y="341" width="192" height="192" filterUnits="userSpaceOnUse"><feOffset dy="22" input="SourceAlpha"/><feGaussianBlur stdDeviation="15.5" result="f"/><feFlood flood-color="#2033a0" flood-opacity="0.102"/><feComposite operator="in" in2="f"/><feComposite in="SourceGraphic"/></filter><filter id="g" x="0" y="219" width="192" height="192" filterUnits="userSpaceOnUse"><feOffset dy="22" input="SourceAlpha"/><feGaussianBlur stdDeviation="15.5" result="h"/><feFlood flood-color="#2033a0" flood-opacity="0.102"/><feComposite operator="in" in2="h"/><feComposite in="SourceGraphic"/></filter><filter id="i" x="362" y="137" width="192" height="192" filterUnits="userSpaceOnUse"><feOffset dy="22" input="SourceAlpha"/><feGaussianBlur stdDeviation="15.5" result="j"/><feFlood flood-color="#2033a0" flood-opacity="0.102"/><feComposite operator="in" in2="j"/><feComposite in="SourceGraphic"/></filter><filter id="k" x="256" y="0" width="192" height="192" filterUnits="userSpaceOnUse"><feOffset dy="22" input="SourceAlpha"/><feGaussianBlur stdDeviation="15.5" result="l"/><feFlood flood-color="#2033a0" flood-opacity="0.102"/><feComposite operator="in" in2="l"/><feComposite in="SourceGraphic"/></filter></defs><g transform="translate(-373.5 -2298.5)"><g class="a" transform="translate(437 2323)"><circle class="l" cx="216" cy="216" r="216"/><circle class="m" cx="216" cy="216" r="215"/></g><g class="b" transform="translate(515 2401)"><circle class="l" cx="138" cy="138" r="138"/><circle class="m" cx="138" cy="138" r="137.5"/></g><g transform="translate(67 -32)"><text class="c" transform="translate(422 2511)"><tspan x="1.297" y="15">Crypto</tspan></text><g class="s" transform="matrix(1, 0, 0, 1, 306.5, 2330.5)"><rect class="d" width="99" height="99" rx="22" transform="translate(96.5 71.5)"/></g><g transform="translate(160 1780)"><path class="e" d="M2714.5,3643.269l11.959-6V3623.28l-11.959,6.441Z" transform="translate(-2424.016 -2956.376)"/><path class="f" d="M2726.459,3643.269l-11.959-6V3623.28l11.959,6.441Z" transform="translate(-2436.146 -2956.376)"/><path class="g" d="M2704.924,3609.969l-11.387,7.054,11.387,6.887,11.626-6.887Z" transform="translate(-2414.61 -2950.404)"/><path class="h" d="M1046.728,621.013c0-.012,0-.023,0-.035a.676.676,0,0,0,0-.073c0-.021-.006-.042-.009-.064s-.008-.052-.015-.079-.011-.044-.017-.065-.014-.039-.021-.059-.019-.05-.03-.074a.64.64,0,0,0-.034-.067.217.217,0,0,0-.011-.027c-.005-.01-.013-.017-.018-.026s-.025-.041-.039-.061-.033-.041-.05-.061a.674.674,0,0,0-.044-.051c-.015-.016-.029-.031-.045-.046s-.039-.034-.058-.051-.036-.03-.056-.043-.038-.026-.058-.038-.019-.015-.03-.021L1024.3,607.435c-.012-.006-.023-.01-.035-.016l-.058-.029a.7.7,0,0,0-.07-.028.527.527,0,0,0-.071-.024.461.461,0,0,0-.059-.016c-.023-.006-.047-.01-.071-.014l-.076-.011c-.023,0-.046,0-.069,0s-.022,0-.034,0-.023,0-.035,0-.047,0-.07,0l-.076.011c-.023,0-.046.008-.068.013s-.042.01-.062.017l-.072.024c-.023.008-.045.017-.066.027s-.042.021-.063.031-.022.009-.032.015l-21.889,12.637h0l0,0a1.037,1.037,0,0,0-.2.155.7.7,0,0,0-.048.052,1.062,1.062,0,0,0-.117.153c-.013.02-.025.039-.037.06a1.06,1.06,0,0,0-.1.232v0a1.067,1.067,0,0,0-.034.254c0,.01,0,.019,0,.029v25.275c0,.011,0,.023,0,.035a.687.687,0,0,0,0,.069c0,.024.007.049.011.073a.587.587,0,0,0,.014.072c0,.02.01.04.016.06s.016.047.025.07a.682.682,0,0,0,.028.069c.009.021.02.041.031.062s.008.022.014.032.013.015.018.023.026.042.04.063a.952.952,0,0,0,.07.085c.017.019.031.04.049.057l.02.017c.025.023.053.045.08.066a1,1,0,0,0,.091.066.373.373,0,0,0,.03.023l21.889,12.638a1.1,1.1,0,0,0,.265.109,1.072,1.072,0,0,0,.277.036h0a1.05,1.05,0,0,0,.209-.028c.022,0,.046,0,.068-.008s.066-.028.1-.041a1.076,1.076,0,0,0,.163-.067l.005,0,21.889-12.638a.292.292,0,0,0,.03-.023.989.989,0,0,0,.092-.066,1.024,1.024,0,0,0,.08-.066h0a.185.185,0,0,1,.02-.016c.018-.018.031-.039.049-.058a.947.947,0,0,0,.069-.085c.015-.02.027-.041.041-.063s.013-.015.018-.023.008-.021.014-.032.021-.04.031-.062.019-.045.028-.069.017-.047.024-.07.012-.04.016-.06.009-.048.014-.072.009-.049.011-.073a.653.653,0,0,0,0-.069c0-.011,0-.023,0-.035Zm-10.8,4.33-11.091-6.372v-8.712l18.624,10.752Zm-13.265-6.371-11.063,6.387-7.561-4.347,18.624-10.752Zm-11.092,22.977,7.892,4.557a1.087,1.087,0,1,0,1.087-1.883l-7.891-4.557v-8.283a1.087,1.087,0,0,0-2.174,0v8.283l-7.536,4.342V622.893l7.89,4.536a1.088,1.088,0,0,0,.4.233l11.42,6.566v13a1.083,1.083,0,0,0,.031.25,1.062,1.062,0,0,0-.031.249v9.317l-18.625-10.753Zm12.179-9.6-9.971-5.733,9.881-5.705c.029,0,.059.008.09.008a.874.874,0,0,0,.093-.009l9.9,5.69Zm1.056,15.131a1.084,1.084,0,0,0,.032-.25v-13l11.626-6.685,0,0,8.085-4.649v21.516l-7.536-4.342v-8.283a1.087,1.087,0,0,0-2.174,0v8.284l-7.891,4.556a1.087,1.087,0,0,0,1.087,1.883l7.892-4.557,7.533,4.341-18.625,10.753v-9.317A1.062,1.062,0,0,0,1024.807,647.476Z" transform="translate(-733.481 40.164)"/></g></g><g transform="translate(-99 102)"><text class="c" transform="translate(825 2635)"><tspan x="14.94" y="15">Bank Transfer</tspan></text><g class="r" transform="matrix(1, 0, 0, 1, 472.5, 2196.5)"><rect class="d" width="99" height="99" rx="22" transform="translate(364.5 332.5)"/></g><g transform="translate(0.348 -0.667)"><path class="f" d="M5.5,0h0A5.5,5.5,0,0,1,11,5.5V16a0,0,0,0,1,0,0H0a0,0,0,0,1,0,0V5.5A5.5,5.5,0,0,1,5.5,0Z" transform="translate(872 2577)"/><path class="f" d="M5.5,0h0A5.5,5.5,0,0,1,11,5.5V16a0,0,0,0,1,0,0H0a0,0,0,0,1,0,0V5.5A5.5,5.5,0,0,1,5.5,0Z" transform="translate(890 2577)"/><g transform="translate(861.652 2557.667)"><path class="i" d="M24.706,0,0,9.676v1.956l1.441,2.882h46.53l1.441-2.882V9.676Zm22.03,12.456H2.676l-.618-1.338v-.1L24.706,2.162l22.647,8.853Z"/><path class="i" d="M39.388,34.6V21.218c0-2.368-2.985-4.118-6.794-4.118-3.912,0-6.794,1.75-6.794,4.118V34.6h2.059V21.218c0-.824,1.853-2.059,4.735-2.059s4.735,1.235,4.735,2.059V34.6Z" transform="translate(0.759 0.503)"/><path class="i" d="M22.691,34.6V21.218c0-2.368-2.985-4.118-6.794-4.118S9,18.85,9,21.218V34.6h2.059V21.218c0-.824,1.853-2.059,4.735-2.059s4.735,1.235,4.735,2.059V34.6Z" transform="translate(0.265 0.503)"/><path class="i" d="M45.236,16.541l-2.059,1.029V35.688H6.118V17.571L4.059,16.541V15.1H2v2.676l2.059,1.029V35.688H2v2.059H47.294V35.688H45.236V18.806l2.059-1.029V15.1H45.236Z" transform="translate(0.059 0.444)"/><rect class="i" width="45.294" height="2.059" transform="translate(2.059 40.25)"/></g></g></g><g transform="translate(-293 309)"><text class="c" transform="translate(837 2454)"><tspan x="2.065" y="15">Swift Transfer</tspan></text><g class="q" transform="matrix(1, 0, 0, 1, 666.5, 1989.5)"><rect class="d" width="99" height="99" rx="22" transform="translate(170.5 365.5)"/></g><g transform="translate(-0.227 -1)"><path class="f" d="M22393,1206a22.364,22.364,0,0,1-7.785-1.375,20.275,20.275,0,0,1-6.357-3.75,17.454,17.454,0,0,1-4.287-5.562,15.529,15.529,0,0,1,0-13.625,17.453,17.453,0,0,1,4.287-5.562,20.279,20.279,0,0,1,6.357-3.75A22.364,22.364,0,0,1,22393,1171c.414,0,.834.011,1.248.034-3.045.273-5.879,2.211-7.982,5.457a23.69,23.69,0,0,0,0,24.018c2.1,3.245,4.938,5.183,7.982,5.457C22393.822,1205.988,22393.4,1206,22393,1206Z" transform="translate(-21504 1217)"/><g transform="translate(857.227 2377)"><path class="i" d="M28.243,8.7H27.157C16.979,8.956,8.7,16.893,8.7,26.622A17.749,17.749,0,0,0,14.264,39.3a19.521,19.521,0,0,0,12.757,5.249h1.357C38.558,44.16,46.7,36.351,46.7,26.622a17.749,17.749,0,0,0-5.564-12.673A19.587,19.587,0,0,0,28.243,8.7ZM41.815,18.941H36.386a23.389,23.389,0,0,0-1.629-4.608c-.407-.768-.814-1.408-1.221-2.048a15.962,15.962,0,0,1,5.7,3.456A19.355,19.355,0,0,1,41.815,18.941Zm2.171,7.681a12.512,12.512,0,0,1-.543,3.84H36.929a36.521,36.521,0,0,0,.271-3.84,31.375,31.375,0,0,0-.407-5.121h6.243A13.222,13.222,0,0,1,43.986,26.622Zm-32.572,0a15.677,15.677,0,0,1,.95-5.121h6.243a31.375,31.375,0,0,0-.407,5.121,36.522,36.522,0,0,0,.271,3.84H11.957A18.707,18.707,0,0,1,11.414,26.622Zm9.5,0a30.257,30.257,0,0,1,.407-5.121h5.021v8.961H21.186A36.52,36.52,0,0,1,20.914,26.622Zm8.143-14.978a8.345,8.345,0,0,1,3.121,3.712,22.515,22.515,0,0,1,1.357,3.584H29.057Zm-2.714,0v7.3H21.864C22.95,15.229,24.579,12.54,26.343,11.644Zm0,21.378V41.6a9.3,9.3,0,0,1-3.121-3.712,23.159,23.159,0,0,1-1.629-4.865ZM29.057,41.6V33.023h4.75C32.857,37.5,30.957,40.575,29.057,41.6Zm0-11.137V21.5h5.021a31.374,31.374,0,0,1,.407,5.121,36.519,36.519,0,0,1-.271,3.84ZM22,12.284a20.6,20.6,0,0,0-2.85,6.657H13.721A15.5,15.5,0,0,1,22,12.284ZM12.907,33.023h5.836a23.486,23.486,0,0,0,1.9,5.889c.407.768.814,1.408,1.221,2.048a15.962,15.962,0,0,1-5.7-3.456A15.507,15.507,0,0,1,12.907,33.023Zm20.629,7.937a23.1,23.1,0,0,0,3.121-7.937h5.836A15.679,15.679,0,0,1,33.536,40.959Z" transform="translate(1.92 1.92)"/><path class="i" d="M24.525,7.324,22.939,5.737h.732A21.918,21.918,0,0,1,44.544,20.751l2.319-.732A24.412,24.412,0,0,0,23.671,3.3h-.732l1.587-1.587L22.816,0,18.3,4.516l4.516,4.516Z" transform="translate(7.86)"/><path class="i" d="M9.033,27.813,7.324,26.1,5.737,27.691v-.732A22.083,22.083,0,0,1,21.85,5.719L21.24,3.4A24.573,24.573,0,0,0,3.3,26.959v.732L1.709,26.1,0,27.813,4.516,32.33Z" transform="translate(0 0.75)"/><path class="i" d="M27.325,42.048l1.587,1.587H26.959A22.194,22.194,0,0,1,5.719,27.4L3.4,28.132A24.43,24.43,0,0,0,26.959,46.076h1.953l-1.587,1.587,1.709,1.709,4.516-4.516-4.516-4.516Z" transform="translate(0.75 7.711)"/><path class="i" d="M49.151,21.816,44.635,17.3l-4.516,4.516,1.709,1.709,1.587-1.587v1.953A21.918,21.918,0,0,1,28.4,44.765l.732,2.319A24.3,24.3,0,0,0,45.855,23.892V21.939l1.587,1.587Z" transform="translate(10.089 5.483)"/></g></g></g><g transform="translate(-255 -95)"><text class="c" transform="translate(663 2736)"><tspan x="7.022" y="15">Skarpa account</tspan></text><g class="p" transform="matrix(1, 0, 0, 1, 628.5, 2393.5)"><rect class="d" width="99" height="99" rx="22" transform="translate(46.5 243.5)"/></g><g transform="translate(707.469 2656.999)"><g transform="translate(-0.001 0.001)"><path class="i" d="M18.475,22.54a1.192,1.192,0,0,0-.248-.027,4.289,4.289,0,1,1,4.289-4.289h0a1.129,1.129,0,0,0,1.08,1.129.963.963,0,0,0,.129.008H29.5a1.129,1.129,0,0,0,1.129-1.129A12.416,12.416,0,0,0,19.362,5.883V2.3A15.992,15.992,0,0,1,34.2,18.227a1.129,1.129,0,0,0,2.257,0A18.251,18.251,0,0,0,18.248,0h-.015a.72.72,0,0,0-.113.006A1.129,1.129,0,0,0,17.1,1.134a1.04,1.04,0,0,0,.007.119V6.84a1.049,1.049,0,0,0-.007.113,1.129,1.129,0,0,0,1.129,1.129A10.158,10.158,0,0,1,28.31,17.1H24.671a6.546,6.546,0,1,0-6.706,7.66,1.166,1.166,0,0,0,.261.032,15.988,15.988,0,0,1,15.93,14.868H30.574A12.416,12.416,0,0,0,18.23,28.366h0A10.15,10.15,0,0,1,8.09,18.227V18.2a1.129,1.129,0,0,0-1.129-1.129H1.205a1.12,1.12,0,0,0-.473.1A1.129,1.129,0,0,0,0,18.227,18.247,18.247,0,0,0,17.979,36.449a1.11,1.11,0,0,0,.247.028,4.289,4.289,0,1,1-4.289,4.289h0a1.129,1.129,0,0,0-1.129-1.129H6.962a1.129,1.129,0,0,0-1.129,1.129A12.416,12.416,0,0,0,17.108,53.112V56.7A16,16,0,0,1,2.257,40.763a1.129,1.129,0,0,0-2.257,0A18.25,18.25,0,0,0,18.226,58.989a1.129,1.129,0,0,0,1.129-1.016,1.162,1.162,0,0,0,.012-.155v-5.6a1.066,1.066,0,0,0-.009-.135v-.053A1.129,1.129,0,0,0,18.23,50.9,10.158,10.158,0,0,1,8.149,41.89h3.633a6.546,6.546,0,1,0,6.7-7.663,1.1,1.1,0,0,0-.261-.032A15.987,15.987,0,0,1,2.3,19.326H5.878a12.416,12.416,0,0,0,12.346,11.3h0a10.151,10.151,0,0,1,10.14,10.14v.028a1.129,1.129,0,0,0,1.129,1.129h5.762a1.219,1.219,0,0,0,1.2-1.157A18.25,18.25,0,0,0,18.475,22.54Z"/></g></g></g><g transform="translate(-225 137)"><text class="c" transform="translate(1006 2425)"><tspan x="3.281" y="15">Skarpa wallet</tspan></text><g transform="translate(554 -280)"><g class="o" transform="matrix(1, 0, 0, 1, 44.5, 2441.5)"><rect class="i" width="99" height="99" rx="22" transform="translate(408.5 161.5)"/></g><g transform="translate(484 2622.999)"><g transform="translate(-0.001 0.001)"><path class="d" d="M18.475,22.54a1.192,1.192,0,0,0-.248-.027,4.289,4.289,0,1,1,4.289-4.289h0a1.129,1.129,0,0,0,1.08,1.129.963.963,0,0,0,.129.008H29.5a1.129,1.129,0,0,0,1.129-1.129A12.416,12.416,0,0,0,19.362,5.883V2.3A15.992,15.992,0,0,1,34.2,18.227a1.129,1.129,0,0,0,2.257,0A18.251,18.251,0,0,0,18.248,0h-.015a.72.72,0,0,0-.113.006A1.129,1.129,0,0,0,17.1,1.134a1.04,1.04,0,0,0,.007.119V6.84a1.049,1.049,0,0,0-.007.113,1.129,1.129,0,0,0,1.129,1.129A10.158,10.158,0,0,1,28.31,17.1H24.671a6.546,6.546,0,1,0-6.706,7.66,1.166,1.166,0,0,0,.261.032,15.988,15.988,0,0,1,15.93,14.868H30.574A12.416,12.416,0,0,0,18.23,28.366h0A10.15,10.15,0,0,1,8.09,18.227V18.2a1.129,1.129,0,0,0-1.129-1.129H1.205a1.12,1.12,0,0,0-.473.1A1.129,1.129,0,0,0,0,18.227,18.247,18.247,0,0,0,17.979,36.449a1.11,1.11,0,0,0,.247.028,4.289,4.289,0,1,1-4.289,4.289h0a1.129,1.129,0,0,0-1.129-1.129H6.962a1.129,1.129,0,0,0-1.129,1.129A12.416,12.416,0,0,0,17.108,53.112V56.7A16,16,0,0,1,2.257,40.763a1.129,1.129,0,0,0-2.257,0A18.25,18.25,0,0,0,18.226,58.989a1.129,1.129,0,0,0,1.129-1.016,1.162,1.162,0,0,0,.012-.155v-5.6a1.066,1.066,0,0,0-.009-.135v-.053A1.129,1.129,0,0,0,18.23,50.9,10.158,10.158,0,0,1,8.149,41.89h3.633a6.546,6.546,0,1,0,6.7-7.663,1.1,1.1,0,0,0-.261-.032A15.987,15.987,0,0,1,2.3,19.326H5.878a12.416,12.416,0,0,0,12.346,11.3h0a10.151,10.151,0,0,1,10.14,10.14v.028a1.129,1.129,0,0,0,1.129,1.129h5.762a1.219,1.219,0,0,0,1.2-1.157A18.25,18.25,0,0,0,18.475,22.54Z"/></g></g></g></g><g transform="translate(74 45)"><text class="c" transform="translate(578 2382)"><tspan x="5.066" y="15">Debit / Credit Card</tspan></text><g class="n" transform="matrix(1, 0, 0, 1, 299.5, 2253.5)"><rect class="d" width="99" height="99" rx="22" transform="translate(302.5 24.5)"/></g><rect class="f" width="44" height="7" transform="translate(624 2308)"/><ellipse class="f" cx="4.5" cy="4" rx="4.5" ry="4" transform="translate(664 2329)"/><g transform="translate(624 2302)"><path class="i" d="M2.326,26.745V15.117h40.7v3.489h2.326V3.489A3.426,3.426,0,0,0,41.862,0H3.489A3.426,3.426,0,0,0,0,3.489V26.745a3.426,3.426,0,0,0,3.489,3.489H9.3V27.908H3.489A1.1,1.1,0,0,1,2.326,26.745Zm0-13.954V8.14h40.7v4.651ZM3.489,2.326H41.862a1.1,1.1,0,0,1,1.163,1.163V5.814H2.326V3.489A1.1,1.1,0,0,1,3.489,2.326Z"/><path class="i" d="M50.862,17H12.489A3.426,3.426,0,0,0,9,20.489V43.745a3.426,3.426,0,0,0,3.489,3.489H50.862a3.426,3.426,0,0,0,3.489-3.489V20.489A3.426,3.426,0,0,0,50.862,17Zm1.163,26.745a1.1,1.1,0,0,1-1.163,1.163H12.489a1.1,1.1,0,0,1-1.163-1.163V20.489a1.1,1.1,0,0,1,1.163-1.163H50.862a1.1,1.1,0,0,1,1.163,1.163Z" transform="translate(1.465 2.768)"/><rect class="i" width="5.814" height="2.326" transform="translate(16.28 39.536)"/><rect class="i" width="5.814" height="2.326" transform="translate(25.582 39.536)"/><rect class="i" width="5.814" height="2.326" transform="translate(34.885 39.536)"/><rect class="i" width="5.814" height="2.326" transform="translate(44.188 39.536)"/><path class="i" d="M39.4,22H38.233a5.233,5.233,0,0,0,0,10.466H39.4A5.233,5.233,0,0,0,39.4,22Zm0,8.14H38.233a2.907,2.907,0,1,1,0-5.814H39.4a2.907,2.907,0,1,1,0,5.814Z" transform="translate(5.374 3.582)"/></g></g><g class="b" transform="translate(594 2480)"><circle class="l" cx="59" cy="59" r="59"/><circle class="m" cx="59" cy="59" r="58.5"/></g><g class="a" transform="translate(561 2447)"><circle class="l" cx="92" cy="92" r="92"/><circle class="m" cx="92" cy="92" r="91"/></g><g transform="translate(582.97 2487.104)"><path class="j" d="M24.527,0A24.527,24.527,0,1,1,0,24.527,24.527,24.527,0,0,1,24.527,0Z" transform="translate(45.031 26.896)"/><path class="k" d="M426.76,311.113a1.907,1.907,0,0,1-2.7.027l-.027-.027-6.794-6.99a1.991,1.991,0,0,1,0-2.793,1.907,1.907,0,0,1,2.7-.027l.027.027,5.393,5.584,12.184-12.438a1.907,1.907,0,0,1,2.7-.027l.027.027a1.99,1.99,0,0,1,0,2.793Z" transform="translate(-358.011 -250.656)"/></g></g></svg>