<svg xmlns="http://www.w3.org/2000/svg" width="203.125" height="188.136" viewBox="0 0 203.125 188.136"><g id="Group_4766" data-name="Group 4766" transform="translate(-79.629 -239.864)"><g id="Group_2567" data-name="Group 2567" transform="translate(-3495.119 -226.068)"><g id="Group_2450" data-name="Group 2450" transform="translate(3588.7 465.932)" style="isolation:isolate"><g id="Group_2440" data-name="Group 2440" transform="translate(0.51 148.964)"><g id="Group_2438" data-name="Group 2438" opacity=".3" transform="translate(0 7.011)"><path id="Path_11348" fill="#fff" d="M3595.78,1325.163h-2.915a1.366,1.366,0,0,1,0-2.732h2.915a1.366,1.366,0,0,1,0,2.732Z" data-name="Path 11348" transform="translate(-3591.5 -1322.432)"/><path id="Path_11349" fill="#fff" d="M3656.143,1325.163h-3.278a1.366,1.366,0,0,1,0-2.732h3.278a1.366,1.366,0,0,1,0,2.732Z" data-name="Path 11349" transform="translate(-3640.573 -1322.432)"/></g><g id="Group_2439" data-name="Group 2439" transform="translate(7.011)"><path id="Path_11350" fill="#fff" d="M3631.365,1351.577a1.366,1.366,0,0,1-1.366-1.366V1347.3a1.366,1.366,0,1,1,2.731,0v2.914A1.366,1.366,0,0,1,3631.365,1351.577Z" data-name="Path 11350" opacity=".3" transform="translate(-3630 -1334.641)"/><path id="Path_11351" fill="#fff" d="M3631.365,1289.941a1.366,1.366,0,0,1-1.366-1.366V1285.3a1.366,1.366,0,1,1,2.731,0v3.278A1.366,1.366,0,0,1,3631.365,1289.941Z" data-name="Path 11351" opacity=".3" transform="translate(-3630 -1283.932)"/></g></g><g id="Group_2443" data-name="Group 2443" opacity=".3" transform="translate(172.238 87.048)"><g id="Group_2441" data-name="Group 2441" transform="translate(0 7.011)"><path id="Path_11352" fill="#fff" d="M4538.779,985.163h-2.914a1.366,1.366,0,0,1,0-2.732h2.914a1.366,1.366,0,0,1,0,2.732Z" data-name="Path 11352" transform="translate(-4534.5 -982.432)"/><path id="Path_11353" fill="#fff" d="M4599.144,985.163h-3.278a1.366,1.366,0,0,1,0-2.732h3.278a1.366,1.366,0,0,1,0,2.732Z" data-name="Path 11353" transform="translate(-4583.573 -982.432)"/></g><g id="Group_2442" data-name="Group 2442" transform="translate(7.011)"><path id="Path_11354" fill="#fff" d="M4574.366,1011.577a1.365,1.365,0,0,1-1.366-1.366V1007.3a1.365,1.365,0,1,1,2.731,0v2.914A1.365,1.365,0,0,1,4574.366,1011.577Z" data-name="Path 11354" transform="translate(-4573 -994.641)"/><path id="Path_11355" fill="#fff" d="M4574.366,949.941a1.365,1.365,0,0,1-1.366-1.366V945.3a1.365,1.365,0,1,1,2.731,0v3.278A1.365,1.365,0,0,1,4574.366,949.941Z" data-name="Path 11355" transform="translate(-4573 -943.932)"/></g></g><g id="Group_2446" data-name="Group 2446" opacity=".3" transform="translate(54.596)"><g id="Group_2444" data-name="Group 2444" transform="translate(0 7.011)"><path id="Path_11356" fill="#fff" d="M3892.779,507.164h-2.914a1.366,1.366,0,0,1,0-2.732h2.914a1.366,1.366,0,0,1,0,2.732Z" data-name="Path 11356" transform="translate(-3888.5 -504.432)"/><path id="Path_11357" fill="#fff" d="M3953.144,507.164h-3.278a1.366,1.366,0,0,1,0-2.732h3.278a1.366,1.366,0,0,1,0,2.732Z" data-name="Path 11357" transform="translate(-3937.573 -504.432)"/></g><g id="Group_2445" data-name="Group 2445" transform="translate(7.011)"><path id="Path_11358" fill="#fff" d="M3928.365,533.577a1.366,1.366,0,0,1-1.365-1.366V529.3a1.365,1.365,0,1,1,2.731,0v2.914A1.365,1.365,0,0,1,3928.365,533.577Z" data-name="Path 11358" transform="translate(-3927 -516.641)"/><path id="Path_11359" fill="#fff" d="M3928.365,471.941a1.366,1.366,0,0,1-1.365-1.366V467.3a1.365,1.365,0,1,1,2.731,0v3.278A1.365,1.365,0,0,1,3928.365,471.941Z" data-name="Path 11359" transform="translate(-3927 -465.932)"/></g></g><g id="Group_2449" data-name="Group 2449" opacity=".3" transform="translate(168.414 137.492)"><g id="Group_2447" data-name="Group 2447" transform="translate(0 7.011)"><path id="Path_11360" fill="#fff" d="M4517.779,1262.163h-2.914a1.366,1.366,0,0,1,0-2.731h2.914a1.366,1.366,0,0,1,0,2.731Z" data-name="Path 11360" transform="translate(-4513.5 -1259.432)"/><path id="Path_11361" fill="#fff" d="M4578.143,1262.163h-3.277a1.366,1.366,0,1,1,0-2.731h3.277a1.366,1.366,0,1,1,0,2.731Z" data-name="Path 11361" transform="translate(-4562.573 -1259.432)"/></g><g id="Group_2448" data-name="Group 2448" transform="translate(7.011)"><path id="Path_11362" fill="#fff" d="M4553.365,1288.577a1.365,1.365,0,0,1-1.365-1.366V1284.3a1.365,1.365,0,1,1,2.73,0v2.914A1.365,1.365,0,0,1,4553.365,1288.577Z" data-name="Path 11362" transform="translate(-4552 -1271.641)"/><path id="Path_11363" fill="#fff" d="M4553.365,1226.941a1.365,1.365,0,0,1-1.365-1.366V1222.3a1.365,1.365,0,1,1,2.73,0v3.278A1.365,1.365,0,0,1,4553.365,1226.941Z" data-name="Path 11363" transform="translate(-4552 -1220.932)"/></g></g><path id="Path_11364" fill="#fff" d="M3593.127,1102.977a4.427,4.427,0,1,1,4.427-4.427A4.432,4.432,0,0,1,3593.127,1102.977Zm0-6.122a1.7,1.7,0,1,0,1.695,1.695A1.7,1.7,0,0,0,3593.127,1096.855Z" data-name="Path 11364" opacity=".915" transform="translate(-3588.699 -979.724)"/><path id="Path_11365" fill="#fff" d="M4116.4,555.468a4.427,4.427,0,1,1,4.427-4.427A4.432,4.432,0,0,1,4116.4,555.468Zm0-6.122a1.7,1.7,0,1,0,1.7,1.7A1.7,1.7,0,0,0,4116.4,549.346Z" data-name="Path 11365" transform="translate(-4016.684 -531.921)"/><path id="Path_11366" fill="#fff" d="M4437.4,1304.468a4.427,4.427,0,1,1,4.427-4.427A4.432,4.432,0,0,1,4437.4,1304.468Zm0-6.122a1.7,1.7,0,1,0,1.7,1.7A1.7,1.7,0,0,0,4437.4,1298.346Z" data-name="Path 11366" opacity=".3" transform="translate(-4279.227 -1144.522)"/><path id="Path_11367" fill="#fff" d="M3809.94,1386.095a83.8,83.8,0,0,1-56.907-22.2,1.366,1.366,0,0,1,1.851-2.01,81.225,81.225,0,0,0,107.274,2.494,1.366,1.366,0,0,1,1.755,2.093,83.711,83.711,0,0,1-53.974,19.62Z" data-name="Path 11367" transform="translate(-3722.748 -1198.432)"/><path id="Path_11368" fill="#fff" d="M4332.308,682.252a1.367,1.367,0,0,1-1.263-.845,81.62,81.62,0,0,0-32.6-38.261,1.366,1.366,0,1,1,1.434-2.326,84.365,84.365,0,0,1,33.689,39.544,1.367,1.367,0,0,1-1.262,1.888Z" data-name="Path 11368" transform="translate(-4168.665 -608.805)"/><path id="Path_11369" fill="#fff" d="M3607.366,703.656a1.366,1.366,0,0,1-1.366-1.366,84.05,84.05,0,0,1,43.982-73.9,1.366,1.366,0,0,1,1.3,2.4,81.319,81.319,0,0,0-42.555,71.5A1.366,1.366,0,0,1,3607.366,703.656Z" data-name="Path 11369" transform="translate(-3602.849 -598.671)"/></g><g id="Group_2918" data-name="Group 2918" transform="translate(3648.816 543.874)" style="isolation:isolate"><path id="Path_11806" fill="#fff" d="M40.6,0H7.026A7,7,0,0,0,0,7.026V48.949a2.349,2.349,0,0,0,2.342,2.342A2.479,2.479,0,0,0,3.9,50.666l5.465-5.074,5.621,5.074a2.375,2.375,0,0,0,3.123,0l5.7-5.074,5.621,5.074a2.375,2.375,0,0,0,3.123,0l5.621-5.074,5.465,5.074a2.321,2.321,0,0,0,1.561.625l.937-.234a2.293,2.293,0,0,0,1.405-2.108V7.026A7.082,7.082,0,0,0,40.6,0Zm2.342,27.012V43.562l-3.123-2.889a2.375,2.375,0,0,0-3.123,0l-5.621,5.074-5.7-5.074a2.375,2.375,0,0,0-3.123,0l-5.621,5.074-5.621-5.074a2.375,2.375,0,0,0-3.123,0L4.762,43.562V7.026A2.3,2.3,0,0,1,7.1,4.684H40.674a2.3,2.3,0,0,1,2.342,2.342l-.078,19.986Z" data-name="Path 11806"/><path id="Path_11807" fill="#fff" d="M36.8,30.3H17.442a2.342,2.342,0,0,0,0,4.684H36.8a2.342,2.342,0,1,0,0-4.684Z" data-name="Path 11807" transform="translate(-3.312 -6.645)"/><path id="Path_11808" fill="#fff" d="M17.842,21.393a2.3,2.3,0,0,0,2.342-2.342V13.742a2.342,2.342,0,1,0-4.684,0v5.309A2.3,2.3,0,0,0,17.842,21.393Z" data-name="Path 11808" transform="translate(-3.399 -2.5)"/><path id="Path_11809" fill="#fff" d="M29.842,21.393a2.3,2.3,0,0,0,2.342-2.342V13.742a2.342,2.342,0,0,0-4.684,0v5.309A2.3,2.3,0,0,0,29.842,21.393Z" data-name="Path 11809" transform="translate(-6.031 -2.5)"/><path id="Path_11810" fill="#fff" d="M41.842,21.393a2.3,2.3,0,0,0,2.342-2.342V13.742a2.342,2.342,0,1,0-4.684,0v5.309A2.3,2.3,0,0,0,41.842,21.393Z" data-name="Path 11810" transform="translate(-8.663 -2.5)"/><path id="Path_11811" fill="#fff" d="M36.8,41.3H17.442a2.342,2.342,0,0,0,0,4.684H36.8a2.342,2.342,0,1,0,0-4.684Z" data-name="Path 11811" transform="translate(-3.312 -9.058)"/></g></g><g id="humaaans_standing-2" data-name="humaaans/standing-2" transform="translate(27.674 238.387)"><g id="humaaan-8" transform="translate(51.956 48.265)"><g id="Head_Front_Short-Beard" data-name="Head/Front/Short-Beard" transform="translate(42.254)"><g id="Head" transform="translate(0.04 0.705)"><path id="Path_11803" fill="#57331f" fill-rule="evenodd" d="M2.944,12.288A9.652,9.652,0,0,1,.377,5.353C.911-2.271,11.525-.594,13.59,3.254s1.819,13.61-.849,14.3c-1.064.274-3.331-.4-5.638-1.788L8.551,26.008H0Z" data-name="Path 11803"/></g><path id="Hair" fill="#191847" fill-rule="evenodd" d="M63.77,37.166Q64.261,44,66.368,44c2.107,0,3.894-1.337,4.818-1.337.674,0,.523.843.077,1.468-.368.516-2.163,1.013-2.163,1.813s1.418.181,1.418.655c0,.784.249,2.259-1.112,2.259-1.378,0-5.329-.5-6.006-2.547q-.655-1.98-.848-8.2A2.16,2.16,0,0,0,62.3,38.1,2.138,2.138,0,0,0,60.8,41.763c-.495.7-1.049,1.427-1.684,2.18-2.386-1.432-4.157-5.623-1.824-9.649a5.279,5.279,0,0,1,3.829-3.515,6.2,6.2,0,0,1,4.07-.3,13.243,13.243,0,0,1,5.149,1.372c0,2.271-.44,2.945-4.2,2.886A6.934,6.934,0,0,0,63.77,37.166Z" transform="translate(-56.2 -30.265)"/></g><g id="Bottom_Standing_Baggy-Pants" data-name="Bottom/Standing/Baggy-Pants" transform="translate(0 56.197)"><path id="Leg" fill="#3d2216" fill-rule="evenodd" d="M139.748,0l17.487,44.26,11.728,37.418h4.631L155.664,0Z" transform="translate(-98.141)"/><path id="Leg-2" fill="#57331f" fill-rule="evenodd" d="M65.283,0c-.186,15.553-2.9,36.493-3.336,37.462q-.434.969-29.955,24.658l3.19,3.414q34.833-20.31,36.445-23.019C73.238,39.806,78.486,14.879,82.7,0Z" data-name="Leg" transform="translate(-27.197)"/><g id="Accessories_Shoe_Flat-Sneaker" data-name="Accessories/Shoe/Flat-Sneaker" transform="matrix(0.643, 0.766, -0.766, 0.643, 5.641, 59.133)"><path id="shoe" fill="#e4e4e4" fill-rule="evenodd" d="M.6,2.163A7.65,7.65,0,0,0,0,4.551,17.877,17.877,0,0,0,.321,7.364H20.416q.783-2.59-.9-2.8t-2.8-.373L7.368.031a.356.356,0,0,0-.47.18l0,.009-.6,1.456a6.407,6.407,0,0,1-2.539.729,5.75,5.75,0,0,1-2.192-.641h0a.713.713,0,0,0-.945.351Q.607,2.139.6,2.163Z" transform="translate(0 0)"/></g><g id="Accessories_Shoe_Flat-Sneaker-2" data-name="Accessories/Shoe/Flat-Sneaker" transform="translate(68.328 77.787)"><path id="shoe-2" fill="#e4e4e4" fill-rule="evenodd" d="M1.641,22.324a7.65,7.65,0,0,0-.6,2.388,17.877,17.877,0,0,0,.321,2.813H21.459q.783-2.59-.9-2.8t-2.8-.373l-9.34-4.164a.356.356,0,0,0-.47.18l0,.009-.6,1.456a6.407,6.407,0,0,1-2.539.729A5.75,5.75,0,0,1,2.6,21.926h0a.713.713,0,0,0-.945.351Q1.65,22.3,1.641,22.324Z" data-name="shoe" transform="translate(-1.043 -20.161)"/></g><path id="Pant" fill="#69a1ac" fill-rule="evenodd" d="M147.141,77.823l22.02-2.39L152.842,0H133.119Z" transform="translate(-93.777 0)"/><path id="Pant-2" fill="#89c5cc" fill-rule="evenodd" d="M45.324,56.613l14.444,17.1q22.82-24.923,26.608-32.525T93.186,0h-22.2q-1.651,29.545-2.226,30.92T45.324,56.613Z" data-name="Pant" transform="translate(-35.974)"/></g><g id="Body_Turtle-Neck" data-name="Body/Turtle-Neck" transform="translate(9.593 17.152)"><path id="Skin" fill="#57331f" fill-rule="evenodd" d="M86.293,79.254,96.385,89.1a30.592,30.592,0,0,1,7.218,4.149c.422.509.881,1.484-1.1,1.047s-4.092-.806-4.465-.16.726,1.634.037,2.479q-.689.845-4.637-5.373l-10.5-6.188ZM36.94,70.343l7.8.029q-8.913,28.877-9.463,30.239c-.824,2.043.92,5.155,1.666,6.827-2.43,1.087-2.171-2.939-5.236-1.513-2.8,1.3-4.926,3.66-8.158,1.666-.4-.245-.833-1.168.219-1.89,2.621-1.8,6.4-4.943,6.909-5.979Q31.723,97.6,36.94,70.343Z" transform="translate(-23.113 -44.627)"/><path id="Clothes-Back" fill="#191847" fill-rule="evenodd" d="M0,.795,3.023,0C9.353,16.667,35.213,26.143,37.3,32.4c.764,2.294-.818,3.626.115,4.263l-3.734,3.269c-.744-.729-2.06.839-5.159.094S1.77,21.031,0,.795Z" transform="translate(37.668 2.793) rotate(5)"/><path id="Clothes-Front" fill="#2f3676" fill-rule="evenodd" d="M78.28.932c-.355,22.713,12.774,28.506,9.85,37.618C85.715,46.074,62.6,54.162,58.6,46.787a23.046,23.046,0,0,1-2.437-10.522q-1.534,4.524-2.426,7.789c-1.026,3.755-5,4.352-5,5.8l-5.241-1.447c.355-1.965-2.115-2.922-1.453-7.313Q46.491,11.584,65.963-1.687L66.1-3.608A1.425,1.425,0,0,1,67.618-4.93l9.6.671a1.425,1.425,0,0,1,1.322,1.521Z" transform="translate(-35.499 4.934)"/></g></g></g></g></svg>