<svg id="noun_receipt_2078055" xmlns="http://www.w3.org/2000/svg" width="21.219" height="27.285" viewBox="0 0 21.219 27.285">
  <g id="Group_3911" data-name="Group 3911" transform="translate(0 0)">
    <path id="Path_12119" data-name="Path 12119" d="M14.824,4A.909.909,0,0,0,14,4.907V30.37a.909.909,0,0,0,1.554.644l1.781-1.781,1.781,1.781a.909.909,0,0,0,1.288,0l1.781-1.781,1.781,1.781a.909.909,0,0,0,1.288,0l1.781-1.781,1.781,1.781a.909.909,0,0,0,1.288,0l1.781-1.781,1.781,1.781a.909.909,0,0,0,1.554-.644V4.907A.909.909,0,0,0,34.31,4h-19.4q-.043,0-.085,0Zm.995,1.819H33.4V28.172l-.871-.871a.909.909,0,0,0-1.288,0L29.46,29.082,27.679,27.3a.909.909,0,0,0-1.288,0l-1.781,1.781L22.829,27.3a.909.909,0,0,0-1.288,0l-1.781,1.781L17.979,27.3a.909.909,0,0,0-1.288,0l-.871.871Zm2.728,4.537a.909.909,0,1,0,0,1.819H30.672a.909.909,0,1,0,0-1.819Zm0,4.244a.909.909,0,1,0,0,1.819H30.672a.909.909,0,1,0,0-1.819Zm0,4.244a.909.909,0,1,0,0,1.819h6.063a.909.909,0,1,0,0-1.819Z" transform="translate(-14 -3.997)" fill="#08a2f4"/>
  </g>
</svg>
