<svg id="Group_3210" data-name="Group 3210" xmlns="http://www.w3.org/2000/svg" width="66.775" height="16.285" viewBox="0 0 66.775 16.285">
  <path id="Path_11963" data-name="Path 11963" d="M-996.913-34.4c-.986,0-1.972-.014-2.958-.013-.431,0-.619-.194-.551-.624q1.029-6.491,2.059-12.983c.114-.717.307-.875,1.036-.866,2.027.024,4.054.03,6.079.109a4.387,4.387,0,0,1,1.6.439,2.793,2.793,0,0,1,1.707,2.653c.008.332-.006.664-.01,1a1.225,1.225,0,0,0-.2.372,4.562,4.562,0,0,1-3.505,4.137,16.994,16.994,0,0,1-3.364.316c-.819.047-1.079.258-1.2,1.073C-996.444-37.328-996.682-35.866-996.913-34.4Z" transform="translate(1000.436 48.89)" fill="#051e81"/>
  <path id="Path_11964" data-name="Path 11964" d="M-823.787-16.613c.89.051,1.792.031,2.668.17a2.314,2.314,0,0,1,2.1,2.724,3.839,3.839,0,0,1-4.189,3.956h-.223c-1.626,0-1.417-.111-1.675,1.435-.076.458-.16.915-.214,1.375a.635.635,0,0,1-.23.491.634.634,0,0,1-.525.134,12.23,12.23,0,0,0-1.228,0c-.519.036-.649-.187-.569-.668.332-2.017.642-4.038.961-6.057.154-.973.317-1.944.458-2.918a.608.608,0,0,1,.214-.466.608.608,0,0,1,.494-.136c.651.017,1.3,0,1.955,0Zm-.787,4.88a15.79,15.79,0,0,0,1.837-.2,1.318,1.318,0,0,0,.969-1.338c.044-.448,0-.93-.48-1.069a7.367,7.367,0,0,0-1.632-.187c-.095-.005-.265.168-.285.28C-824.312-13.45-824.428-12.651-824.574-11.733Z" transform="translate(847.186 20.222)" fill="#051e81"/>
  <path id="Path_11965" data-name="Path 11965" d="M-588.02-16.585a23.242,23.242,0,0,1,2.5.133,2.4,2.4,0,0,1,2.224,3.044,4.564,4.564,0,0,1-.916,2.358,3.816,3.816,0,0,1-2.912,1.313,12.452,12.452,0,0,1-1.34.008.658.658,0,0,0-.548.145.658.658,0,0,0-.232.518c-.1.736-.237,1.466-.338,2.2-.055.4-.226.6-.654.579a11.719,11.719,0,0,0-1.34,0c-.522.033-.65-.193-.569-.672.284-1.741.555-3.484.828-5.227.187-1.193.387-2.385.548-3.582.075-.56.3-.83.9-.79s1.228.009,1.842.009Zm-.794,4.888a16.03,16.03,0,0,0,1.929-.267,1.38,1.38,0,0,0,.864-1.479c-.006-.427-.148-.814-.581-.914a7.273,7.273,0,0,0-1.487-.138.472.472,0,0,0-.324.307C-588.562-13.408-588.672-12.621-588.814-11.7Z" transform="translate(637.818 20.197)" fill="#049edc"/>
  <path id="Path_11966" data-name="Path 11966" d="M-970.247-1.037c.23-1.463.469-2.923.689-4.387.122-.815.383-1.025,1.2-1.073a17,17,0,0,0,3.364-.316,4.561,4.561,0,0,0,3.505-4.137,1.223,1.223,0,0,1,.2-.372,2.128,2.128,0,0,1,1.2,1.449A4.92,4.92,0,0,1-963.335-4a10.242,10.242,0,0,1-1.984.248c-.72.045-.876.149-.984.849q-.221,1.431-.447,2.86c-.1.651-.268.793-.909.8q-1.032.006-2.065,0c-.674,0-.751-.095-.655-.743C-970.328-.338-970.29-.689-970.247-1.037Z" transform="translate(973.769 15.523)" fill="#049edc"/>
  <path id="Path_11967" data-name="Path 11967" d="M-747.8,19.1a3.984,3.984,0,0,1-2.65.975,2.678,2.678,0,0,1-2.718-2.385A4.072,4.072,0,0,1-752,14.115a4.072,4.072,0,0,1,3.6-1.1,7.426,7.426,0,0,1,1.375.557c.1-.656.7-.47,1.206-.47,1.446,0,1.34-.156,1.118,1.271-.254,1.634-.522,3.267-.765,4.9a.644.644,0,0,1-.219.493.644.644,0,0,1-.518.153c-.335-.008-.671-.012-1.005,0C-747.662,19.944-748.049,19.91-747.8,19.1Zm-1.518-.878a1.989,1.989,0,0,0,1.437-.571,1.989,1.989,0,0,0,.593-1.428,1.375,1.375,0,0,0-.429-1.053,1.375,1.375,0,0,0-1.075-.37,1.992,1.992,0,0,0-1.436.573,1.993,1.993,0,0,0-.593,1.428,1.365,1.365,0,0,0,.426,1.056,1.365,1.365,0,0,0,1.078.366Z" transform="translate(780.863 -6.031)" fill="#051e81"/>
  <path id="Path_11968" data-name="Path 11968" d="M-511.154,13.413c.06-.471.431-.532.882-.5a7.574,7.574,0,0,0,1,0c.476-.027.631.176.554.639-.25,1.5-.481,3-.719,4.505-.058.366-.12.732-.17,1.1a.628.628,0,0,1-.219.467.628.628,0,0,1-.5.145c-.335-.007-.671-.022-1,0-.482.037-.806-.076-.723-.73a3.973,3.973,0,0,1-2.377.876,2.7,2.7,0,0,1-2.914-2.713,4.06,4.06,0,0,1,1.351-3.425,4.06,4.06,0,0,1,3.563-.925,7.183,7.183,0,0,1,1.267.552Zm-1.752,1.237a1.992,1.992,0,0,0-1.436.564,1.992,1.992,0,0,0-.6,1.421,1.334,1.334,0,0,0,.4,1.037,1.334,1.334,0,0,0,1.047.373,1.987,1.987,0,0,0,1.448-.534,1.987,1.987,0,0,0,.628-1.41,1.382,1.382,0,0,0-.415-1.061A1.382,1.382,0,0,0-512.906,14.651Z" transform="translate(571.368 -5.871)" fill="#049edc"/>
  <path id="Path_11969" data-name="Path 11969" d="M-664.073,18.066c.8-1.18,1.544-2.245,2.254-3.329a.96.96,0,0,1,.965-.5c.406.032.819-.006,1.227.015.151.008.4.065.427.151a.671.671,0,0,1-.112.492c-.728,1.077-1.472,2.143-2.214,3.211-1.112,1.6-2.24,3.194-3.332,4.809a1.038,1.038,0,0,1-1.059.536c-.369-.036-.744.009-1.115-.014a2.273,2.273,0,0,1-.5-.148,2.115,2.115,0,0,1,.182-.543c.448-.661.908-1.315,1.388-1.953a.819.819,0,0,0,.133-.866c-.584-1.642-1.138-3.3-1.7-4.946-.218-.639-.161-.74.488-.731,2.193.031,1.666-.322,2.314,1.683C-664.516,16.6-664.318,17.27-664.073,18.066Z" transform="translate(704.862 -7.171)" fill="#051e81"/>
  <path id="Path_11970" data-name="Path 11970" d="M-436.235-6.081c-1.15,0-1.146,0-.964-1.135.457-2.857.917-5.714,1.355-8.574.064-.416.222-.582.645-.553s.854.01,1.28.006c.341,0,.474.158.42.489q-.724,4.592-1.444,9.184a.613.613,0,0,1-.214.439.613.613,0,0,1-.467.144Z" transform="translate(500.262 19.985)" fill="#049edc"/>
</svg>
