<svg xmlns="http://www.w3.org/2000/svg" width="74.932" height="74.535" viewBox="0 0 74.932 74.535"><defs><style>.a{fill:#ff8c19}</style></defs><path d="M72.752,9.469a2.308,2.308,0,0,0-3.86-1.1L64.954,12.3A37.454,37.454,0,0,0,13.438,66.656c.473.473.945.866,1.339,1.339a3.946,3.946,0,0,0,2.678,1.024,4.069,4.069,0,0,0,2.993-1.339,4,4,0,0,0-.315-5.671l-1.1-1.024A29.469,29.469,0,0,1,59.282,17.976L54.95,22.308a2.308,2.308,0,0,0,1.1,3.86l18.432,4.49a2.369,2.369,0,0,0,2.836-2.836Z" class="a" transform="translate(-2.45 -2.676)"/><path d="M62.151,48.176l-9.216-5.829V27.617a4.017,4.017,0,1,0-8.034,0V44.474a4,4,0,0,0,1.89,3.387l11.028,7.01a4.175,4.175,0,0,0,2.127.63,3.918,3.918,0,0,0,3.387-1.89A3.812,3.812,0,0,0,62.151,48.176Z" class="a" transform="translate(-11.462 -7.118)"/><path d="M38.482,86.117l-1.5-.473a3.985,3.985,0,1,0-2.521,7.562,17.1,17.1,0,0,0,1.89.551,4.61,4.61,0,0,0,1.024.158,4.021,4.021,0,0,0,3.86-2.993A3.85,3.85,0,0,0,38.482,86.117Z" class="a" transform="translate(-8.668 -20.246)"/><path d="M56.251,86.782l-1.575.236a4.013,4.013,0,0,0-3.387,4.569,4.114,4.114,0,0,0,3.938,3.466,1.958,1.958,0,0,0,.63-.079c.63-.079,1.339-.236,1.969-.315a4.028,4.028,0,0,0,3.151-4.726A4.133,4.133,0,0,0,56.251,86.782Z" class="a" transform="translate(-12.81 -20.518)"/><path d="M72.408,79.37l-1.26.945a4.021,4.021,0,0,0-.945,5.593,4.028,4.028,0,0,0,5.593,1.024c.551-.394,1.1-.788,1.575-1.182A4.014,4.014,0,0,0,78,80.079,3.923,3.923,0,0,0,72.408,79.37Z" class="a" transform="translate(-16.678 -18.777)"/></svg>