<svg xmlns="http://www.w3.org/2000/svg" width="101.42" height="140.7" viewBox="0 0 101.42 140.7"><g id="Group_4834" data-name="Group 4834" transform="translate(-1052.999 -435.587)"><g id="Group_4796" data-name="Group 4796" transform="translate(887 307.588)"><g id="Group_4748" data-name="Group 4748" transform="translate(165.999 127.999)"><rect id="Rectangle_2580" width="18.937" height="2.524" fill="#2033a0" data-name="Rectangle 2580" transform="translate(39.389 9.474)"/><path id="Path_12321" fill="#2033a0" d="M177.567,47.944a1.746,1.746,0,0,1-1.233-2.981,1.744,1.744,0,0,1,2.977,1.233A1.748,1.748,0,0,1,177.567,47.944Z" data-name="Path 12321" transform="translate(-146.516 -36.103)"/><path id="Path_12322" fill="#ff276a" d="M193.832,94.031v18.241a13.758,13.758,0,0,0,13.72,13.718h10.564a13.755,13.755,0,0,0,13.72-13.716V94.031a4.937,4.937,0,0,0-4.888-4.924L226.2,89.1V87.063a13.362,13.362,0,0,0-26.724,0V89.1l-.752.006A4.937,4.937,0,0,0,193.832,94.031Zm8.818-5.682V87.063a10.182,10.182,0,0,1,20.364,0v2.044H202.65Zm-5.64,5.682a1.749,1.749,0,0,1,1.746-1.746h28.156a1.749,1.749,0,0,1,1.744,1.746v18.241a10.563,10.563,0,0,1-10.538,10.547H207.55a10.567,10.567,0,0,1-10.54-10.538Z" data-name="Path 12322" transform="translate(-130.417 -9.956)"/><path id="Path_12323" fill="#2033a0" d="M186.344,103.067h-.006a6,6,0,1,0,.006,0Zm0,9.248h0a3.25,3.25,0,1,1,3.252-3.248A3.223,3.223,0,0,1,186.338,112.315Z" data-name="Path 12323" transform="translate(-142.481 16.296)"/><path id="Path_12324" fill="#2033a0" d="M167.654,180.744h69.232c3.481,0,7.3-4.171,7.3-7.97v-9.763a1.48,1.48,0,0,0-1.485-1.377,1.5,1.5,0,0,0-1.491,1.415v9.725c0,2.087-2.18,4.992-4.328,4.992H167.654c-2.146,0-4.328-2.905-4.328-4.992V155.3h57.8a1.5,1.5,0,0,0,1.36-1.576,1.493,1.493,0,0,0-1.4-1.4l-6.032,0h-.119l-.03-.009h-8.061l-.758.019h-42.76V62.484h77.861v10.1a.937.937,0,0,1,.023.125l0,14.934V96.56a1.483,1.483,0,0,0,1.487,1.377,1.5,1.5,0,0,0,1.491-1.415l0-45.1-.034-.758V46.593a5.993,5.993,0,0,0-5.424-6.527c-.136-.011-.271-.017-.409-.019H167.654l-.216,0a7.135,7.135,0,0,0-7.089,6.6l0,126.128C160.351,176.574,164.173,180.744,167.654,180.744ZM163.326,58.751V46.525l.013-.068a4.186,4.186,0,0,1,4.119-3.439c.08,0,.159,0,.239.008l70.641,0c2.841,0,2.841,2.593,2.841,3.57l-.008,12.157v.758H163.326Z" data-name="Path 12324" transform="translate(-160.349 -40.044)"/><path id="Path_12325" fill="#ff276a" d="M172.888,66.685a2.669,2.669,0,1,0,2.669,2.669A2.671,2.671,0,0,0,172.888,66.685Z" data-name="Path 12325" transform="translate(-151.526 -16.228)"/><path id="Path_12326" fill="#ff276a" d="M183.743,66.685a2.669,2.669,0,1,0,2.669,2.669A2.671,2.671,0,0,0,183.743,66.685Z" data-name="Path 12326" transform="translate(-141.822 -16.228)"/><path id="Path_12327" fill="#ff276a" d="M194.6,66.685a2.669,2.669,0,1,0,2.669,2.669A2.671,2.671,0,0,0,194.6,66.685Z" data-name="Path 12327" transform="translate(-132.117 -16.228)"/></g></g></g></svg>