<svg xmlns="http://www.w3.org/2000/svg" width="28.515" height="24.331" viewBox="0 0 28.515 24.331"><g id="noun_people_2961557_2_" data-name="noun_people_2961557 (2)" transform="translate(-23.78 -95.443)"><g id="Group_4600" data-name="Group 4600" transform="translate(27.601 95.443)"><g id="Group_4599" data-name="Group 4599" transform="translate(0 0)"><path id="Path_12268" fill="#2033a0" d="M164.818,101.423a5.434,5.434,0,0,1-.047.689c.012-.079.02-.155.032-.234a5.161,5.161,0,0,1-.35,1.288l.088-.21a5.136,5.136,0,0,1-.456.847c-.047.07-.093.137-.143.2-.108.152.129-.158.032-.041l-.073.091c-.1.123-.21.239-.321.353s-.231.219-.353.321c-.029.023-.058.05-.091.073-.12.1.172-.129.055-.044-.067.05-.134.1-.2.143a5.145,5.145,0,0,1-.864.467l.21-.088a5.2,5.2,0,0,1-1.288.35l.234-.032a5.187,5.187,0,0,1-1.378,0l.234.032a5.162,5.162,0,0,1-1.288-.35l.21.088a5.139,5.139,0,0,1-.847-.456c-.07-.047-.137-.093-.2-.143-.152-.108.158.129.041.032l-.091-.073c-.123-.1-.239-.21-.353-.321s-.219-.231-.321-.353c-.023-.029-.05-.058-.073-.091-.1-.12.129.172.044.055-.05-.067-.1-.134-.143-.2a5.142,5.142,0,0,1-.467-.864l.088.21a5.2,5.2,0,0,1-.35-1.288c.012.079.02.155.032.234a5.186,5.186,0,0,1,0-1.378c-.012.079-.02.155-.032.234a5.162,5.162,0,0,1,.35-1.288l-.088.21a5.133,5.133,0,0,1,.456-.847c.047-.07.093-.137.143-.2.108-.152-.128.158-.032.041l.073-.091c.1-.123.21-.239.321-.353s.231-.219.353-.321c.029-.023.058-.05.091-.073.12-.1-.172.128-.055.044.067-.05.134-.1.2-.143a5.145,5.145,0,0,1,.864-.467l-.21.088a5.2,5.2,0,0,1,1.288-.35l-.234.032a5.185,5.185,0,0,1,1.378,0l-.234-.032a5.161,5.161,0,0,1,1.288.35l-.21-.088a5.133,5.133,0,0,1,.847.456c.07.047.137.093.2.143.152.108-.158-.128-.041-.032l.091.073c.123.1.239.21.353.321s.219.231.321.353c.023.029.05.058.073.091.1.12-.129-.172-.044-.055.05.067.1.134.143.2a5.146,5.146,0,0,1,.467.864l-.088-.21a5.2,5.2,0,0,1,.35,1.288c-.012-.079-.02-.155-.032-.234a6.073,6.073,0,0,1,.047.689.876.876,0,0,0,1.752,0A5.935,5.935,0,0,0,165.487,98a6.162,6.162,0,0,0-2.906-2.211,6,6,0,0,0-6.571,1.79,6.153,6.153,0,0,0-1.39,3.437,5.963,5.963,0,0,0,3.437,5.829,6.155,6.155,0,0,0,3.764.432,5.992,5.992,0,0,0,4.655-4.851,6.788,6.788,0,0,0,.088-1,.873.873,0,1,0-1.746,0Z" data-name="Path 12268" transform="translate(-154.603 -95.443)"/></g></g><g id="Group_4602" data-name="Group 4602" transform="translate(40.504 98.938)"><g id="Group_4601" data-name="Group 4601" transform="translate(0 0)"><path id="Path_12269" fill="#2033a0" d="M603.728,219.66a3.791,3.791,0,0,1-.032.485c.012-.079.021-.155.032-.234a3.615,3.615,0,0,1-.26.943l.088-.21a4.132,4.132,0,0,1-.318.593c-.032.047-.067.093-.1.14-.067.1.067-.085.067-.085s-.05.061-.061.073c-.073.088-.149.172-.231.254s-.155.149-.24.219l-.073.061c-.076.064.169-.123.088-.067l-.14.1a3.7,3.7,0,0,1-.608.33l.21-.088a3.8,3.8,0,0,1-.943.26l.234-.032a3.868,3.868,0,0,1-.972,0l.234.032a3.616,3.616,0,0,1-.943-.26l.21.088a4.117,4.117,0,0,1-.593-.318c-.047-.032-.094-.067-.14-.1-.1-.067.085.067.085.067s-.062-.05-.073-.061c-.087-.073-.172-.149-.254-.231s-.149-.155-.219-.239c-.02-.023-.041-.05-.061-.073-.064-.076.123.169.067.088-.032-.047-.067-.093-.1-.14a3.706,3.706,0,0,1-.33-.607l.088.21a3.8,3.8,0,0,1-.26-.943c.012.079.02.155.032.234a3.876,3.876,0,0,1,0-.972c-.012.079-.02.155-.032.234a3.614,3.614,0,0,1,.26-.943l-.088.21a4.134,4.134,0,0,1,.318-.593c.032-.047.067-.093.1-.14.067-.1-.067.085-.067.085s.05-.061.061-.073c.073-.088.149-.172.231-.254s.155-.149.24-.219l.073-.061c.076-.064-.169.123-.088.067.047-.032.093-.067.14-.1a3.708,3.708,0,0,1,.607-.33l-.21.088a3.8,3.8,0,0,1,.943-.26l-.234.032a3.871,3.871,0,0,1,.972,0l-.234-.032a3.612,3.612,0,0,1,.943.26l-.21-.088a4.14,4.14,0,0,1,.593.318c.047.032.093.067.14.1.1.067-.084-.067-.084-.067s.061.05.073.061c.088.073.172.149.254.231s.149.155.219.239c.02.023.041.05.061.073.064.076-.123-.169-.067-.088.032.047.067.093.1.14a3.707,3.707,0,0,1,.33.607l-.088-.21a3.8,3.8,0,0,1,.26.943c-.012-.079-.02-.155-.032-.234a3.908,3.908,0,0,1,.032.488.876.876,0,1,0,1.752,0,4.5,4.5,0,0,0-.806-2.573,4.713,4.713,0,0,0-2.219-1.7,4.531,4.531,0,0,0-4.947,1.338,4.664,4.664,0,0,0-1.069,2.628,4.509,4.509,0,0,0,2.57,4.392,4.707,4.707,0,0,0,2.9.339,4.53,4.53,0,0,0,3.5-3.63,5.632,5.632,0,0,0,.076-.8.878.878,0,0,0-1.755,0Z" data-name="Path 12269" transform="translate(-596.425 -215.131)"/></g></g><g id="Group_4604" data-name="Group 4604" transform="translate(23.78 108.572)"><g id="Group_4603" data-name="Group 4603" transform="translate(0)"><path id="Path_12270" fill="#2033a0" d="M41.639,552.094v.9a8.791,8.791,0,0,1-.012.961c.012-.079.02-.155.032-.234a1.7,1.7,0,0,1-.114.418l.088-.21a1.878,1.878,0,0,1-.128.24c-.117.178.117-.128.023-.023-.029.032-.058.067-.091.1s-.067.061-.1.091c-.111.1.2-.128.038-.032-.085.05-.166.1-.254.14l.21-.088a1.7,1.7,0,0,1-.418.114l.234-.032a5.049,5.049,0,0,1-.558.012H28c-.581,0-1.162.006-1.743,0-.073,0-.146-.006-.216-.012l.234.032a1.7,1.7,0,0,1-.418-.114l.21.088a1.883,1.883,0,0,1-.239-.128c-.178-.117.128.117.023.023-.032-.029-.067-.058-.1-.091s-.061-.067-.091-.1c-.1-.111.128.2.032.038-.05-.085-.1-.167-.14-.254l.088.21a1.7,1.7,0,0,1-.114-.418c.012.079.02.155.032.234a28.912,28.912,0,0,1,.041-2.672c-.012.079-.02.155-.032.234A6.179,6.179,0,0,1,26,549.924l-.088.21a6.547,6.547,0,0,1,.569-1.054c.058-.085.117-.169.178-.251.038-.053.14-.166-.044.055.032-.038.064-.079.1-.12.126-.152.26-.3.4-.441a5.713,5.713,0,0,1,.441-.4c.029-.023.085-.088.12-.1-.044.009-.187.143-.055.044.082-.061.166-.12.251-.178a6.13,6.13,0,0,1,1.054-.569l-.21.088a6.412,6.412,0,0,1,1.595-.435l-.234.032a19.736,19.736,0,0,1,2.494-.053H35.8a10.225,10.225,0,0,1,1.338.056l-.234-.032a6.41,6.41,0,0,1,1.562.426l-.21-.088a6.5,6.5,0,0,1,1.11.607c.076.053.152.108.228.164.134.1-.172-.137-.015-.009.041.032.079.064.117.1.143.123.283.251.418.388s.26.277.38.423c.026.035.053.07.082.1-.187-.219-.044-.058-.006,0s.1.143.152.216a6.142,6.142,0,0,1,.564,1.048l-.088-.21a6.274,6.274,0,0,1,.423,1.557c-.012-.079-.02-.155-.032-.234a7.854,7.854,0,0,1,.053.83.876.876,0,1,0,1.752,0A7.05,7.05,0,0,0,42.08,548a7.291,7.291,0,0,0-3.639-2.669,8.225,8.225,0,0,0-2.57-.333H31.409a9.593,9.593,0,0,0-2.123.181,7.182,7.182,0,0,0-5.251,5.049,10.321,10.321,0,0,0-.248,2.777,9.294,9.294,0,0,0,.012.946,2.474,2.474,0,0,0,1.305,1.969,2.63,2.63,0,0,0,1.18.28H40.628a2.945,2.945,0,0,0,1.554-.336,2.494,2.494,0,0,0,1.215-2.056c.012-.295,0-.593,0-.891v-.829a.887.887,0,0,0-.876-.876A.9.9,0,0,0,41.639,552.094Z" data-name="Path 12270" transform="translate(-23.78 -545)"/></g></g><g id="Group_4606" data-name="Group 4606" transform="translate(39.301 108.577)"><g id="Group_4605" data-name="Group 4605"><path id="Path_12271" fill="#2033a0" d="M566.5,550.989a6.618,6.618,0,0,1-.012.762c.012-.079.021-.155.032-.234a1.369,1.369,0,0,1-.079.3l.088-.21a1.161,1.161,0,0,1-.108.2c-.053.079-.111.091.047-.053-.026.026-.05.058-.079.085-.012.012-.076.082-.085.079s.213-.149.052-.047a1.707,1.707,0,0,1-.2.108l.21-.088a1.356,1.356,0,0,1-.3.079l.233-.032a7.884,7.884,0,0,1-.87.012h-6.95l.876.876a9.576,9.576,0,0,0-.193-2.2,6.887,6.887,0,0,0-1.224-2.587,7.262,7.262,0,0,0-1.177-1.235v1.238c.105-.1.216-.193.327-.286.076-.064-.187.137-.05.038.023-.018.05-.035.073-.055.061-.044.126-.088.19-.129a4.882,4.882,0,0,1,.771-.409l-.21.088a5.067,5.067,0,0,1,1.218-.336l-.234.032a12.311,12.311,0,0,1,1.606-.047h1.816a6.263,6.263,0,0,1,.844.044l-.234-.032a4.907,4.907,0,0,1,1.25.342l-.21-.088a5.35,5.35,0,0,1,.815.438l.19.132c.134.1-.012-.035-.055-.044.026.006.067.053.091.073.123.1.242.21.356.321s.213.222.31.339c.023.029.047.061.073.09.061.07-.146-.2-.044-.056l.134.187a4.974,4.974,0,0,1,.45.832l-.088-.21a5.023,5.023,0,0,1,.342,1.25c-.012-.079-.02-.155-.032-.234a4.994,4.994,0,0,1,.047.654.876.876,0,0,0,1.752,0,5.892,5.892,0,0,0-1.305-3.645,5.747,5.747,0,0,0-3.02-1.957,8.978,8.978,0,0,0-2.3-.19h-2.047a5.887,5.887,0,0,0-4.062,1.615.878.878,0,0,0,0,1.238,6.811,6.811,0,0,1,.567.514c.088.088.169.181.251.275.044.05.085.1.125.152a.617.617,0,0,0,.056.067c.061.076-.14-.187-.044-.055a6.5,6.5,0,0,1,.765,1.335l-.088-.21a6.277,6.277,0,0,1,.424,1.556c-.012-.079-.02-.155-.032-.234a10.374,10.374,0,0,1,.056,1.381.888.888,0,0,0,.876.876h3.569c1.346,0,2.7,0,4.042,0a2.191,2.191,0,0,0,1.811-.946,2.89,2.89,0,0,0,.359-1.779.886.886,0,0,0-.876-.876A.9.9,0,0,0,566.5,550.989Z" data-name="Path 12271" transform="translate(-555.253 -545.198)"/></g></g></g></svg>