<svg xmlns="http://www.w3.org/2000/svg" id="Group_3492" width="25.088" height="24.759" data-name="Group 3492" viewBox="0 0 25.088 24.759"><g id="Group_2917" data-name="Group 2917" transform="translate(0 0)"><path id="Path_11804" fill="#35edd1" d="M22.834,34.2v7.138a.545.545,0,0,1-.5.543H2.755a.547.547,0,0,1-.5-.543V34.2H0v7.138a2.816,2.816,0,0,0,2.755,2.8H22.333a2.788,2.788,0,0,0,2.755-2.8V34.2Z" data-name="Path 11804" transform="translate(0 -19.376)"/><path id="Path_11805" fill="#35edd1" d="M13.071,10.276a1,1,0,0,0,.743-.318l4.074-4.117a1.037,1.037,0,0,0,0-1.464L13.814.3a1.063,1.063,0,0,0-1.485,0,1.063,1.063,0,0,0,0,1.485L14.62,4.079H1.04a1.04,1.04,0,1,0,0,2.08h13.6L12.329,8.493a1.06,1.06,0,0,0-.3.743,1.03,1.03,0,0,0,.318.743A1.01,1.01,0,0,0,13.071,10.276Z" data-name="Path 11805" transform="translate(18.083) rotate(90)"/></g></svg>