<svg xmlns="http://www.w3.org/2000/svg" width="175.198" height="188.422" viewBox="0 0 175.198 188.422"><g id="Group_4765" data-name="Group 4765" transform="translate(-100.049 -257)"><g id="Group_2550" data-name="Group 2550" transform="translate(878.225 -3732.037)"><g id="Group_2546" data-name="Group 2546" transform="translate(-778.176 3989.037)"><g id="Group_2538" data-name="Group 2538" transform="translate(0 109.014)"><g id="Group_2536" data-name="Group 2536" transform="translate(0 6.949)"><path id="Path_11523" fill="#fff" d="M-773.935,4634.245h-2.888a1.353,1.353,0,0,1-1.354-1.354,1.354,1.354,0,0,1,1.354-1.354h2.888a1.354,1.354,0,0,1,1.354,1.354A1.353,1.353,0,0,1-773.935,4634.245Z" data-name="Path 11523" transform="translate(778.176 -4631.538)"/><path id="Path_11524" fill="#fff" d="M-713.574,4634.245h-3.249a1.353,1.353,0,0,1-1.354-1.354,1.354,1.354,0,0,1,1.354-1.354h3.249a1.354,1.354,0,0,1,1.354,1.354A1.353,1.353,0,0,1-713.574,4634.245Z" data-name="Path 11524" transform="translate(729.005 -4631.538)"/></g><g id="Group_2537" data-name="Group 2537" transform="translate(6.949)"><path id="Path_11525" fill="#fff" d="M-738.322,4660.632a1.354,1.354,0,0,1-1.354-1.354v-2.887a1.354,1.354,0,0,1,1.354-1.354,1.354,1.354,0,0,1,1.354,1.354v2.887A1.354,1.354,0,0,1-738.322,4660.632Z" data-name="Path 11525" transform="translate(739.676 -4643.847)"/><path id="Path_11526" fill="#fff" d="M-738.322,4598.993a1.353,1.353,0,0,1-1.354-1.353v-3.25a1.353,1.353,0,0,1,1.354-1.353,1.353,1.353,0,0,1,1.354,1.353v3.25A1.353,1.353,0,0,1-738.322,4598.993Z" data-name="Path 11526" transform="translate(739.676 -4593.038)"/></g></g><g id="Group_2541" data-name="Group 2541" opacity=".3" transform="translate(152.331 150.165)"><g id="Group_2539" data-name="Group 2539" transform="translate(0 6.949)"><path id="Path_11527" fill="#fff" d="M70.065,4862.245H67.178a1.354,1.354,0,0,1,0-2.708h2.888a1.354,1.354,0,0,1,0,2.708Z" data-name="Path 11527" transform="translate(-65.824 -4859.537)"/><path id="Path_11528" fill="#fff" d="M130.426,4862.245h-3.249a1.354,1.354,0,0,1,0-2.708h3.249a1.354,1.354,0,0,1,0,2.708Z" data-name="Path 11528" transform="translate(-114.995 -4859.537)"/></g><g id="Group_2540" data-name="Group 2540" transform="translate(6.949)"><path id="Path_11529" fill="#fff" d="M105.678,4888.632a1.353,1.353,0,0,1-1.354-1.353v-2.888a1.354,1.354,0,0,1,2.707,0v2.888A1.353,1.353,0,0,1,105.678,4888.632Z" data-name="Path 11529" transform="translate(-104.324 -4871.848)"/><path id="Path_11530" fill="#fff" d="M105.678,4826.993a1.353,1.353,0,0,1-1.354-1.353v-3.249a1.354,1.354,0,1,1,2.707,0v3.249A1.353,1.353,0,0,1,105.678,4826.993Z" data-name="Path 11530" transform="translate(-104.324 -4821.038)"/></g></g><g id="Group_2544" data-name="Group 2544" transform="translate(156.301)"><g id="Group_2542" data-name="Group 2542" transform="translate(0 6.949)"><path id="Path_11531" fill="#fff" d="M92.065,4030.245H89.178a1.354,1.354,0,1,1,0-2.707h2.888a1.354,1.354,0,1,1,0,2.707Z" data-name="Path 11531" transform="translate(-87.824 -4027.538)"/><path id="Path_11532" fill="#fff" d="M152.426,4030.245h-3.249a1.354,1.354,0,1,1,0-2.707h3.249a1.354,1.354,0,1,1,0,2.707Z" data-name="Path 11532" transform="translate(-136.995 -4027.538)"/></g><g id="Group_2543" data-name="Group 2543" transform="translate(6.949)"><path id="Path_11533" fill="#fff" d="M127.678,4056.633a1.353,1.353,0,0,1-1.354-1.354v-2.888a1.354,1.354,0,0,1,2.707,0v2.888A1.353,1.353,0,0,1,127.678,4056.633Z" data-name="Path 11533" transform="translate(-126.324 -4039.847)"/><path id="Path_11534" fill="#fff" d="M127.678,3994.993a1.354,1.354,0,0,1-1.354-1.354v-3.248a1.354,1.354,0,1,1,2.707,0v3.248A1.354,1.354,0,0,1,127.678,3994.993Z" data-name="Path 11534" transform="translate(-126.324 -3989.037)"/></g></g><path id="Path_11535" fill="#fff" d="M-663.544,4779.679a4.392,4.392,0,0,1-4.387-4.388,4.392,4.392,0,0,1,4.387-4.386,4.392,4.392,0,0,1,4.388,4.386A4.392,4.392,0,0,1-663.544,4779.679Zm0-6.066a1.681,1.681,0,0,0-1.68,1.679,1.682,1.682,0,0,0,1.68,1.681,1.682,1.682,0,0,0,1.68-1.681A1.681,1.681,0,0,0-663.544,4773.613Z" data-name="Path 11535" opacity=".3" transform="translate(687.829 -4629.789)"/><g id="Group_2545" data-name="Group 2545" transform="translate(4.055 3.213)"><path id="Path_11536" fill="#fff" d="M-426.5,4013.332a1.354,1.354,0,0,1-1.292-.953,1.353,1.353,0,0,1,.891-1.694,85.594,85.594,0,0,1,25.446-3.847,85.964,85.964,0,0,1,20.077,2.369,1.353,1.353,0,0,1,1,1.633,1.352,1.352,0,0,1-1.633,1,83.28,83.28,0,0,0-19.444-2.294,82.882,82.882,0,0,0-24.642,3.725A1.358,1.358,0,0,1-426.5,4013.332Z" data-name="Path 11536" transform="translate(487.028 -4006.837)"/><path id="Path_11537" fill="#fff" d="M-608.019,4120.392a1.353,1.353,0,0,1-.985-.426,1.353,1.353,0,0,1,.055-1.913c1.339-1.265,2.736-2.5,4.153-3.674a1.353,1.353,0,0,1,1.906.176,1.355,1.355,0,0,1-.178,1.907c-1.372,1.137-2.726,2.335-4.022,3.559A1.343,1.343,0,0,1-608.019,4120.392Z" data-name="Path 11537" transform="translate(635.785 -4094.713)"/><path id="Path_11538" fill="#fff" d="M-753.683,4298.512a1.354,1.354,0,0,1-1.341-1.183,86.724,86.724,0,0,1-.685-10.881,86.693,86.693,0,0,1,.679-10.827,84.687,84.687,0,0,1,10.406-31.322,1.353,1.353,0,0,1,1.845-.511,1.354,1.354,0,0,1,.51,1.846,81.991,81.991,0,0,0-10.075,30.326,83.964,83.964,0,0,0-.657,10.488,83.981,83.981,0,0,0,.664,10.54,1.353,1.353,0,0,1-1.172,1.514A1.207,1.207,0,0,1-753.683,4298.512Z" data-name="Path 11538" transform="translate(755.71 -4200.877)"/><path id="Path_11539" fill="#fff" d="M-563.153,4852.107a1.338,1.338,0,0,1-.676-.182,85.927,85.927,0,0,1-9.478-6.353,1.352,1.352,0,0,1-.245-1.9,1.353,1.353,0,0,1,1.9-.245,83.409,83.409,0,0,0,9.179,6.151,1.354,1.354,0,0,1,.5,1.85A1.354,1.354,0,0,1-563.153,4852.107Z" data-name="Path 11539" transform="translate(606.66 -4692.206)"/><path id="Path_11540" fill="#fff" d="M-388.251,4929.427a85.831,85.831,0,0,1-22.49-2.986,1.354,1.354,0,0,1-.951-1.661,1.353,1.353,0,0,1,1.661-.952,83.087,83.087,0,0,0,21.781,2.892,83.5,83.5,0,0,0,17.724-1.9,1.352,1.352,0,0,1,1.611,1.033,1.353,1.353,0,0,1-1.034,1.611A86.1,86.1,0,0,1-388.251,4929.427Z" data-name="Path 11540" transform="translate(473.822 -4758.284)"/><path id="Path_11541" fill="#fff" d="M-59.015,4865.937a1.354,1.354,0,0,1-1.181-.69,1.353,1.353,0,0,1,.515-1.843c2.024-1.14,4.024-2.381,5.946-3.689a1.353,1.353,0,0,1,1.881.356,1.353,1.353,0,0,1-.358,1.88c-1.985,1.353-4.051,2.633-6.141,3.811A1.34,1.34,0,0,1-59.015,4865.937Z" data-name="Path 11541" transform="translate(185.87 -4705.588)"/><path id="Path_11542" fill="#fff" d="M58.457,4622.955a1.354,1.354,0,0,1-1-2.262,82.942,82.942,0,0,0,19.059-35.982,1.354,1.354,0,0,1,2.631.637,85.652,85.652,0,0,1-19.682,37.162A1.353,1.353,0,0,1,58.457,4622.955Z" data-name="Path 11542" transform="translate(89.598 -4479.564)"/><path id="Path_11543" fill="#fff" d="M173.8,4413.73a1.354,1.354,0,0,1-1.354-1.354c0-2.493-.112-5.009-.333-7.479-.181-2.018-.438-4.055-.766-6.052a1.354,1.354,0,1,1,2.672-.438c.338,2.062.6,4.166.791,6.25.228,2.548.343,5.146.343,7.718A1.353,1.353,0,0,1,173.8,4413.73Z" data-name="Path 11543" transform="translate(-4.013 -4326.804)"/></g></g></g><g id="Group_3013" data-name="Group 3013" transform="translate(-198.822 1.982)"><path id="Path_11848" fill="#fff" d="M408.832,334.14V319.508a19.509,19.509,0,0,0-39.017,0V334.14a7.325,7.325,0,0,0-7.316,7.315v29.262a7.325,7.325,0,0,0,7.316,7.317h39.017a7.324,7.324,0,0,0,7.316-7.317V341.455A7.324,7.324,0,0,0,408.832,334.14Zm-34.14-14.632a14.632,14.632,0,1,1,29.263,0V334.14H374.692Zm36.578,51.209a2.441,2.441,0,0,1-2.438,2.439H369.815a2.441,2.441,0,0,1-2.438-2.439V341.455a2.441,2.441,0,0,1,2.438-2.439h39.017a2.441,2.441,0,0,1,2.438,2.439Z" data-name="Path 11848" transform="translate(0)"/><path id="Path_11849" fill="#fff" d="M479.879,537.5a4.863,4.863,0,0,0-2.439,9.078v5.554a2.439,2.439,0,0,0,4.877,0v-5.554a4.863,4.863,0,0,0-2.438-9.078Z" data-name="Path 11849" transform="translate(-90.555 -191.168)"/></g><g id="humaaans_sitting-2" data-name="humaaans/sitting-2" transform="translate(167.961 276.027)"><g id="A-Human_Sitting" data-name="A-Human/Sitting" transform="translate(101.124 169.395) rotate(180)"><g id="Head_Front_Rad" data-name="Head/Front/Rad" transform="translate(9.911 124.791)"><g id="Head" transform="translate(8.52)"><path id="Path_2" fill="#b28b67" fill-rule="evenodd" d="M4.141,19.3A13.577,13.577,0,0,0,.53,29.055c.753,10.725,15.682,8.366,18.587,2.953S21.675,12.863,17.922,11.9c-1.5-.386-4.686.559-7.931,2.515L12.028,0H0Z" data-name="Path 2"/></g><path id="hair" fill="#191847" fill-rule="evenodd" d="M29.271,11.979a3.759,3.759,0,0,0,.784-1.456,14.729,14.729,0,0,0,.5-1.654,3.642,3.642,0,0,0-.549-3.3A3.783,3.783,0,0,0,27.5,4.485a4.6,4.6,0,0,0-1.777.225c-.566.186-1.054.557-1.6.787a7.17,7.17,0,0,0-.845-3.523A3.512,3.512,0,0,0,20.663.267a5.186,5.186,0,0,0-3.186.642c-.248.134-.493.274-.728.433a2.04,2.04,0,0,1-.632.347c-.257.06-.385-.088-.552-.276a4.194,4.194,0,0,0-.651-.586A3.832,3.832,0,0,0,11.328.212,3.332,3.332,0,0,0,9.866,1.269c-.334.438-.571,1.132-1.032,1.436-.2.129-.333-.042-.511-.169-.267-.19-.522-.4-.792-.586A3.629,3.629,0,0,0,6.3,1.394c-.645-.149-1.536-.114-1.72.73a3.485,3.485,0,0,0,.006.976c.031.439.063.877.1,1.316a9.5,9.5,0,0,0,.128.981,1.435,1.435,0,0,1,.064.673c-.093.218-.524.094-.708.1a2.8,2.8,0,0,0-1.064.234,1.145,1.145,0,0,0-.644.6,1.071,1.071,0,0,0-.018.56,1.671,1.671,0,0,1-.034.575c-.488-.24-2.18-.774-2.392.1A1.369,1.369,0,0,0,.231,9.1a7.507,7.507,0,0,0,.788,1.2,10.731,10.731,0,0,0,2.1,2.037,1.376,1.376,0,0,0-.359,2.3,1.705,1.705,0,0,0,1.252.363,2.769,2.769,0,0,1,.518-.041,1.238,1.238,0,0,0,.235.079A6.98,6.98,0,0,0,6.685,14.8a6.333,6.333,0,0,0,2.929-1.532.9.9,0,0,1,.677-.311c.252,0,.5.072.751.078a5.408,5.408,0,0,0,1.885-.525,7.111,7.111,0,0,0,.617,2.507c.279.613.861.7,1.432.756,1.829.172,3.664-.02,5.494-.017-1.772.4-3.6.566-5.36,1.037-.794.213-.188.748.152,1.119a6.45,6.45,0,0,1,1.263,2.165,3.82,3.82,0,0,1,3.757-1.528,2.681,2.681,0,0,1,1.6,3.871,4.959,4.959,0,0,1-2.4,1.537,8.586,8.586,0,0,1,1.2,2.526,1.807,1.807,0,0,0,.9,1.032,1.052,1.052,0,0,1,.475.189c.157.162.194.343.394.482a2.222,2.222,0,0,0,2.753-.212,1.8,1.8,0,0,0-.061-2.356c.851-.355,2.4-.811,2.063-2.136,1.844-.122,6.32-3.113,3.846-5.3,1.358-.768,2.606-2.643,1.733-4.3a4.2,4.2,0,0,0-3.516-1.91" transform="translate(33.077 44.604) rotate(180)"/></g><g id="Bottom_Sitting_Skinny-Jeans-1" data-name="Bottom/Sitting/Skinny-Jeans-1" transform="translate(6.403)"><path id="Skin" fill="#b28b67" fill-rule="evenodd" d="M34.018,70.7c4.128,2.479,11.054-.706,11.049-4.251-.014-10.607-9.694-60.6-10.2-63.758s-5.92-3.995-6.235-.01c-.5,6.34-1.434,28.288-.5,38.447.385,4.193.8,8.187,1.208,11.75Q21.719,39.121,5.772,13.48L0,16.117q6.8,22.4,11.149,31.627c4.966,10.533,9.623,19.553,11.583,22.73C25.816,75.472,31.182,73.728,34.018,70.7Z" transform="translate(39.129 2.089)"/><path id="LegLower" fill="#b7b7b7" fill-rule="evenodd" d="M0,0,2.565,50.873c1.849,8.8,17.494,4.714,17.488,0C20.038,40.171,13.609,3.2,13.6.01Z" transform="translate(39.542 26.499) rotate(-20)"/><g id="Accessories_Shoe_Flat-Sneaker" data-name="Accessories/Shoe/Flat-Sneaker" transform="matrix(0.866, -0.5, 0.5, 0.866, 34.055, 15.25)"><path id="shoe" fill="#e4e4e4" fill-rule="evenodd" d="M.841,7.316A10.761,10.761,0,0,1,0,3.956,25.147,25.147,0,0,1,.452,0H28.719q1.1,3.643-1.272,3.933T23.5,4.458L10.364,10.315a.5.5,0,0,1-.662-.254L9.7,10.048,8.852,8A9.013,9.013,0,0,0,5.281,6.974a8.088,8.088,0,0,0-3.083.9h0A1,1,0,0,1,.869,7.382Q.854,7.35.841,7.316Z" transform="translate(0 0)"/></g><g id="Accessories_Shoe_Flat-Sneaker-2" data-name="Accessories/Shoe/Flat-Sneaker" transform="translate(65.653)"><path id="shoe-2" fill="#e4e4e4" fill-rule="evenodd" d="M.841,7.316A10.761,10.761,0,0,1,0,3.956,25.147,25.147,0,0,1,.452,0H28.718q1.1,3.643-1.272,3.933T23.5,4.458L10.364,10.315a.5.5,0,0,1-.662-.254L9.7,10.048,8.852,8A9.013,9.013,0,0,0,5.281,6.974a8.088,8.088,0,0,0-3.083.9h0A1,1,0,0,1,.869,7.382Q.854,7.35.841,7.316Z" data-name="shoe" transform="translate(0)"/></g><path id="Leg-and-Butt" fill="#e6e6e6" fill-rule="evenodd" d="M85.585,47.314C85.585,34,79.261,2.942,79.257.01L65.653,0q2.987,41.568,2.118,42.016c-.869.448-35.608-3.468-46.027-3.468C6.72,38.548.5,48.022,0,65.573H29.762c6.06-.648,37.669-7.024,49.408-9.216C84.2,55.419,85.585,50.982,85.585,47.314Z" transform="translate(0 17.621)"/></g><g id="Body_Pointing-Forward" data-name="Body/Pointing-Forward" transform="translate(0 63.231)"><path id="Skin-2" fill="#997659" fill-rule="evenodd" d="M0,15.707l17.4,9.527a43.032,43.032,0,0,0,8.55,8c.858.358,2.358.575.955-1.915s-2.767-5.173-2.052-5.94,2.5.3,3.35-.97q.853-1.275-9.135-4.027L6.424,8.812ZM27.244,7.668l7.641,4.2q1.608,6.119,3.845,6.158c1.145.533-.849-4.622,1.322-4.175s7.471,4.389,8.385,3.588c1.351-1.184.146-4.82-1.273-6.628-2.653-3.38-4.849-4.536-10.278-6.05A29.844,29.844,0,0,1,27.68,0Z" data-name="Skin" transform="translate(40.802 35.479)"/><path id="Sleeve" fill="#d90e4d" fill-rule="evenodd" d="M2.759,12.208A42.743,42.743,0,0,1,26.437,15.4l2.175-8.032C21.777,2.44,12.709-1.061,5.48.293A6.642,6.642,0,0,0,2.759,12.208Z" transform="translate(31.515 40.818) rotate(9)"/><path id="Clothes" fill="#ff276a" fill-rule="evenodd" d="M40.535,41.132q9.7-2.42,32.542,5.707,5.665-11.72,5.238-16.711c-13.062-6.823-24.257-9.865-33.48-10.066A31.74,31.74,0,0,0,42.223,4.624c-4.6-9.782-31.538-.723-40.6-2.506-5.672,18.42,5.295,25.906,5.3,37.692.01,12.907,10.374,32.775,11.9,32.775H32.736C33.5,62.728,37.365,51.864,40.535,41.132Z" transform="translate(0 0)"/></g></g></g></g></svg>