<svg xmlns="http://www.w3.org/2000/svg" width="29.353" height="38.02" viewBox="0 0 29.353 38.02">
  <g id="Group_1186" data-name="Group 1186" transform="translate(0.1 37.92) rotate(-90)">
    <path id="Path_1306" data-name="Path 1306" d="M3.94,0V2.364H.788V3.94H3.94v6.3H5.515V1.576h26V17.334h-26v-3.94H6.3V11.819H0v1.576H3.94V18.91H33.092V0Z" transform="translate(4.727 5.515)" fill="#00baff" stroke="#00c4ff" stroke-width="0.2"/>
    <path id="Path_1307" data-name="Path 1307" d="M2.364,0V.788c0,1.1-.473,1.576-1.576,1.576H0v7.879H.788a1.448,1.448,0,0,1,1.576,1.576v.788H19.7v-.788a1.58,1.58,0,0,1,1.576-1.576h.788V2.364h-.788A1.448,1.448,0,0,1,19.7.788V0ZM20.486,3.861V8.746A3.333,3.333,0,0,0,18.2,11.031H3.861A2.854,2.854,0,0,0,1.576,8.746V3.861A2.674,2.674,0,0,0,3.861,1.576H18.2A2.854,2.854,0,0,0,20.486,3.861Z" transform="translate(12.607 8.667)" fill="#00baff" stroke="#00c4ff" stroke-width="0.2"/>
    <rect id="Rectangle_1507" data-name="Rectangle 1507" width="1.576" height="1.576" transform="translate(16.546 14.182)" fill="#00baff" stroke="#00c4ff" stroke-width="0.2"/>
    <rect id="Rectangle_1508" data-name="Rectangle 1508" width="1.576" height="1.576" transform="translate(29.153 14.182)" fill="#00baff" stroke="#00c4ff" stroke-width="0.2"/>
    <path id="Path_1308" data-name="Path 1308" d="M3.94,0A3.9,3.9,0,0,0,0,3.94a3.9,3.9,0,0,0,3.94,3.94,3.9,3.9,0,0,0,3.94-3.94A3.9,3.9,0,0,0,3.94,0Zm0,6.3A2.322,2.322,0,0,1,1.576,3.94,2.322,2.322,0,0,1,3.94,1.576,2.322,2.322,0,0,1,6.3,3.94,2.322,2.322,0,0,1,3.94,6.3Z" transform="translate(19.698 11.031)" fill="#00baff" stroke="#00c4ff" stroke-width="0.2"/>
    <rect id="Rectangle_1509" data-name="Rectangle 1509" width="1.576" height="1.576" transform="translate(2.364 7.879)" fill="#00baff" stroke="#00c4ff" stroke-width="0.2"/>
    <rect id="Rectangle_1510" data-name="Rectangle 1510" width="7.091" height="1.576" transform="translate(0 12.607)" fill="#00baff" stroke="#00c4ff" stroke-width="0.2"/>
    <rect id="Rectangle_1511" data-name="Rectangle 1511" width="6.303" height="1.576" transform="translate(22.062 0)" fill="#00baff" stroke="#00c4ff" stroke-width="0.2"/>
    <rect id="Rectangle_1512" data-name="Rectangle 1512" width="11.031" height="1.576" transform="translate(14.97 27.577)" fill="#00baff" stroke="#00c4ff" stroke-width="0.2"/>
    <rect id="Rectangle_1513" data-name="Rectangle 1513" width="1.576" height="1.576" transform="translate(18.91 0)" fill="#00baff" stroke="#00c4ff" stroke-width="0.2"/>
    <rect id="Rectangle_1514" data-name="Rectangle 1514" width="1.576" height="1.576" transform="translate(15.758 0)" fill="#00baff" stroke="#00c4ff" stroke-width="0.2"/>
    <rect id="Rectangle_1515" data-name="Rectangle 1515" width="1.576" height="1.576" transform="translate(12.607 0)" fill="#00baff" stroke="#00c4ff" stroke-width="0.2"/>
  </g>
</svg>
