<svg xmlns="http://www.w3.org/2000/svg" width="43" height="43" viewBox="0 0 43 43"><defs><style>.a{fill:#dcd9ff;}.b{fill:#a7a3d9;}</style></defs><g transform="translate(-15.001 -23)"><g transform="translate(15.173 23)"><circle class="a" cx="21.5" cy="21.5" r="21.5" transform="translate(-0.172)"/></g><path class="b" d="M454.225,354.659H430.6a1.512,1.512,0,0,0-1.517,1.5v14.518a1.513,1.513,0,0,0,1.517,1.5h23.622a1.512,1.512,0,0,0,1.517-1.5V356.158A1.512,1.512,0,0,0,454.225,354.659Zm-22.739,15.962,6.171-6.1,3.493,3.452a1.806,1.806,0,0,0,2.531,0l3.493-3.452,6.172,6.1Zm10.928-3.679h0a.216.216,0,0,1-.153-.062l-.041-.04-10.746-10.626h21.88l-10.788,10.665A.214.214,0,0,1,442.415,366.942Zm-5.876-3.52-5.88,5.813V357.608Zm11.749,0,5.882-5.814v11.627Z" transform="translate(-405.821 -318.659)"/></g></svg>