<svg xmlns="http://www.w3.org/2000/svg" width="43" height="43" viewBox="0 0 43 43"><defs><style>.a{fill:#ece3ff;}.b{fill:#a881ff;}</style></defs><path class="a" d="M21.5,0A21.5,21.5,0,1,1,0,21.5,21.5,21.5,0,0,1,21.5,0Z"/><g transform="translate(11.126 10)"><path class="b" d="M427.48,353.312h-.37v-5.683a2.455,2.455,0,0,0-2.462-2.433H412.956a2.455,2.455,0,0,0-2.461,2.433v5.681h-.37a2.188,2.188,0,0,0-2.19,2.166v5.236a2.188,2.188,0,0,0,2.191,2.165h.369v5.158a2.454,2.454,0,0,0,2.461,2.432h11.691a2.453,2.453,0,0,0,2.462-2.432v-5.156h.37a2.19,2.19,0,0,0,2.19-2.166v-5.236A2.189,2.189,0,0,0,427.48,353.312Zm-1.772,14.725a1.056,1.056,0,0,1-1.062,1.049h-11.69a1.056,1.056,0,0,1-1.061-1.049v-5.158h13.811ZM414.528,348.1a1.581,1.581,0,0,0,1.118.469h6.286a1.582,1.582,0,0,0,1.6-1.55v-.439h1.118a1.056,1.056,0,0,1,1.062,1.049v5.681H411.9v-5.682a1.056,1.056,0,0,1,1.061-1.049h1.119v.411A1.542,1.542,0,0,0,414.528,348.1Zm7.6-1.1a.176.176,0,0,1-.049.127.181.181,0,0,1-.119.057h-6.3a.186.186,0,0,1-.129-.049.175.175,0,0,1-.056-.124v-.433h6.652Zm6.141,13.71a.789.789,0,0,1-.79.783H410.127a.789.789,0,0,1-.792-.783v-5.235a.789.789,0,0,1,.791-.783h17.351a.789.789,0,0,1,.791.783Z" transform="translate(-407.935 -345.196)"/><path class="b" d="M415.19,357.292h-.576l.283-.485a.681.681,0,0,0,.092-.521.7.7,0,0,0-.837-.526.724.724,0,0,0-.464.346l-.286.492-.286-.493a.705.705,0,0,0-.956-.253.689.689,0,0,0-.328.42.681.681,0,0,0,.071.525l.287.495h-.575a.692.692,0,1,0,0,1.384h.576l-.283.486a.69.69,0,0,0,.582,1.061.748.748,0,0,0,.626-.36l.286-.492.291.5a.693.693,0,0,0,.435.309.7.7,0,0,0,.529-.087.692.692,0,0,0,.244-.92l-.287-.495h.575a.693.693,0,1,0,0-1.385Z" transform="translate(-407.901 -345.196)"/><path class="b" d="M420.5,357.292h-.575l.282-.485a.695.695,0,0,0-.742-1.047.717.717,0,0,0-.464.346l-.286.492-.287-.493a.707.707,0,0,0-.957-.253.69.69,0,0,0-.257.945l.287.495h-.574a.692.692,0,1,0,0,1.384h.574l-.281.486a.688.688,0,0,0,.215.955.716.716,0,0,0,.992-.254l.287-.492.281.483a.694.694,0,0,0,.411.34.726.726,0,0,0,.21.032.713.713,0,0,0,.325-.079.687.687,0,0,0,.343-.407.706.706,0,0,0-.072-.568l-.287-.495h.574a.693.693,0,1,0,0-1.385Z" transform="translate(-407.84 -345.196)"/><path class="b" d="M425.919,357.3l-.689-.011.292-.5a.691.691,0,0,0-.288-.938.712.712,0,0,0-.929.253l-.286.492-.281-.484a.7.7,0,0,0-.412-.339.71.71,0,0,0-.534.047.7.7,0,0,0-.271.975l.287.494h-.574a.693.693,0,1,0,0,1.386h.574l-.281.484a.681.681,0,0,0-.093.523.688.688,0,0,0,.309.434.716.716,0,0,0,.991-.255l.286-.492.282.483a.69.69,0,0,0,.412.34.714.714,0,0,0,.209.032.691.691,0,0,0,.6-1.054l-.288-.494h.575a.692.692,0,0,0,.113-1.376Z" transform="translate(-407.779 -345.196)"/></g></svg>