<svg xmlns="http://www.w3.org/2000/svg" width="43" height="43" viewBox="0 0 43 43"><defs><style>.a{fill:#e6d2f8}.b{fill:#c8a7e5}</style></defs><g><g transform="translate(-15.001 -23) translate(15.173 23)"><circle cx="21.5" cy="21.5" r="21.5" class="a" transform="translate(-0.172)"/></g><g><path d="M43.237,36.784V32a8.512,8.512,0,0,0-5.253-7.84,3.362,3.362,0,0,0-6.712,0A8.512,8.512,0,0,0,26.02,32v4.783a2.7,2.7,0,0,0,.214,5.389h4.405a3.99,3.99,0,0,0,7.979,0h4.405a2.7,2.7,0,0,0,.214-5.389Zm-8.609,7.258a1.879,1.879,0,0,1-1.89-1.868h3.779A1.879,1.879,0,0,1,34.629,44.042ZM43.023,40.1H26.234a.623.623,0,1,1,0-1.246,1.88,1.88,0,0,0,1.889-1.869V32a6.444,6.444,0,0,1,4.52-6.129l.729-.231V24.318a1.26,1.26,0,0,1,2.52,0v1.324l.729.231A6.445,6.445,0,0,1,41.138,32v4.982a1.877,1.877,0,0,0,1.889,1.869.623.623,0,1,1,0,1.246Z" class="b" transform="translate(-15.001 -23) translate(25.221 31.647) translate(-23.5 -21)"/></g></g></svg>