<svg xmlns="http://www.w3.org/2000/svg" width="43" height="43" viewBox="0 0 43 43"><defs><style>.a{fill:#e6eaff;}.b,.c{fill:#8b9bfc;stroke:#8b9bfc;}.b{stroke-width:0.2px;}.c{stroke-width:0.4px;}</style></defs><circle class="a" cx="21.5" cy="21.5" r="21.5"/><path class="b" d="M243.769,86.333H219.231A2.233,2.233,0,0,1,217,84.1V69.231A2.233,2.233,0,0,1,219.231,67h24.538A2.233,2.233,0,0,1,246,69.231V84.1A2.233,2.233,0,0,1,243.769,86.333ZM219.231,68.487a.745.745,0,0,0-.744.744V84.1a.745.745,0,0,0,.744.744h24.538a.744.744,0,0,0,.744-.744V69.231a.744.744,0,0,0-.744-.744Z" transform="translate(-210 -55)"/><rect class="c" width="3" height="1" transform="translate(11 24.667)"/><rect class="c" width="3" height="1" transform="translate(17 24.667)"/><rect class="c" width="3" height="1" transform="translate(23 24.667)"/><rect class="c" width="3" height="1" transform="translate(29 24.667)"/><path class="b" d="M245.09,78.692h-.744a3.346,3.346,0,1,1,0-6.692h.744a3.346,3.346,0,1,1,0,6.692Zm-.744-5.205a1.859,1.859,0,0,0,0,3.718h.744a1.859,1.859,0,0,0,0-3.718Z" transform="translate(-216.154 -56.282)"/></svg>