<svg xmlns="http://www.w3.org/2000/svg" width="43" height="43" viewBox="0 0 43 43"><defs><style>.a{fill:#d8deff;}.b{fill:#b5c0ff;}</style></defs><g transform="translate(0.172)"><circle class="a" cx="21.5" cy="21.5" r="21.5" transform="translate(-0.172)"/><g transform="translate(13.149 11)"><path class="b" d="M284.375,142.2h-1.509a4.967,4.967,0,1,0-9.924,0h-1.634a2.547,2.547,0,0,0-2.558,2.529v10.692a2.547,2.547,0,0,0,2.558,2.529h13.067a2.547,2.547,0,0,0,2.558-2.529V144.724A2.547,2.547,0,0,0,284.375,142.2Zm-6.471-3.133a3.1,3.1,0,0,1,3.008,3.133H274.9A3.1,3.1,0,0,1,277.9,139.062Zm6.944,16.354a.471.471,0,0,1-.473.468H271.308a.471.471,0,0,1-.473-.468V144.724a.471.471,0,0,1,.473-.468h13.067a.471.471,0,0,1,.473.468Z" transform="translate(-268.75 -137)"/><path class="b" d="M338.795,253a3.5,3.5,0,1,0,3.545,3.5A3.529,3.529,0,0,0,338.795,253Zm0,4.948a1.443,1.443,0,1,1,1.46-1.443A1.453,1.453,0,0,1,338.795,257.948Z" transform="translate(-329.703 -243.435)"/></g></g></svg>