<svg xmlns="http://www.w3.org/2000/svg" width="43" height="43" viewBox="0 0 43 43"><defs><style>.a{fill:#ffd9e5;}.b{fill:#f46a95;}</style></defs><path class="a" d="M21.5,0A21.5,21.5,0,1,1,0,21.5,21.5,21.5,0,0,1,21.5,0Z"/><path class="b" d="M25.457,6.336H20.643a4.52,4.52,0,0,0,.364-.309A3.09,3.09,0,0,0,21.189,1.6,2.888,2.888,0,0,0,19.133.778a3.474,3.474,0,0,0-2.42,1,7.545,7.545,0,0,0-1.093,1.544,5.691,5.691,0,0,0-1.093-1.544,3.474,3.474,0,0,0-2.421-1,2.844,2.844,0,0,0-2.056.823,3.135,3.135,0,0,0,.182,4.426,4.525,4.525,0,0,0,.364.309H5.781A.779.779,0,0,0,5,7.108v5.584a.779.779,0,0,0,.781.772h.13V22.7a.779.779,0,0,0,.781.772H24.573a.779.779,0,0,0,.781-.772V13.438h.13a.779.779,0,0,0,.781-.772V7.108A.839.839,0,0,0,25.457,6.336ZM14.838,21.9H7.446V13.438h7.392Zm0-9.984h-8.3V7.88h8.3Zm0-5.867a.381.381,0,0,1-.078.206.659.659,0,0,1-.364.077h0a5.772,5.772,0,0,1-3.1-1.389,1.6,1.6,0,0,1-.182-2.264,1.411,1.411,0,0,1,.963-.386,1.934,1.934,0,0,1,1.327.566A5.827,5.827,0,0,1,14.838,5.8ZM16.374,5.8a5.825,5.825,0,0,1,1.431-2.933A1.933,1.933,0,0,1,19.133,2.3a1.263,1.263,0,0,1,.963.386,1.618,1.618,0,0,1-.182,2.264,5.588,5.588,0,0,1-3.1,1.389.743.743,0,0,1-.364-.077.29.29,0,0,1-.078-.206ZM23.792,21.9H16.4V13.438h7.392Zm.885-9.984H16.4V7.88h8.3v4.04Z" transform="translate(6.126 9.222)"/></svg>