<svg xmlns="http://www.w3.org/2000/svg" width="43.495" height="43.495" viewBox="0 0 43.495 43.495"><defs><style>.a{fill:#f7ebff;}.b{fill:#cc95f1;}</style></defs><path class="a" d="M21.747,0A21.747,21.747,0,1,1,0,21.747,21.747,21.747,0,0,1,21.747,0Z"/><g transform="translate(10.2 10.084)"><path class="b" d="M36.131,35.082a1.189,1.189,0,0,0-.53-.991,1.719,1.719,0,0,1,1.013-3.143,1.751,1.751,0,0,1,1.667,1.734,1.716,1.716,0,0,1-.758,1.412,1.186,1.186,0,0,0,.654,2.175,1.707,1.707,0,0,1,1.7,1.7v.233a.619.619,0,0,0,1.238,0v-.228a2.947,2.947,0,0,0-2.784-2.943,2.957,2.957,0,1,0-3.552,0A2.947,2.947,0,0,0,32,37.973v.991a.619.619,0,0,0,1.238,0v-.991a1.707,1.707,0,0,1,1.7-1.7A1.189,1.189,0,0,0,36.131,35.082Z" transform="translate(-24.468 -22.569)"/><path class="b" d="M24.318,14.145a10.54,10.54,0,0,0,.062-1.072,10.75,10.75,0,0,0-1.286-5.088A2.346,2.346,0,0,0,20.122,4.5,10.779,10.779,0,0,0,13.994,2.32a2.348,2.348,0,0,0-4.515.812A10.831,10.831,0,0,0,4.664,7.11,2.643,2.643,0,0,0,2.93,12.017c-.035.354-.059.708-.059,1.055a10.75,10.75,0,0,0,1.271,5.063,2.346,2.346,0,0,0,2.945,3.487,10.777,10.777,0,0,0,6.172,2.2,2.346,2.346,0,0,0,4.483-.812,10.829,10.829,0,0,0,4.845-4,2.643,2.643,0,0,0,1.734-4.875ZM21.209,5.476a1.108,1.108,0,1,1-.787.324,1.112,1.112,0,0,1,.787-.324ZM11.825,2.1a1.112,1.112,0,1,1-1.112,1.112A1.112,1.112,0,0,1,11.825,2.1ZM2.814,9.719A1.407,1.407,0,1,1,4.22,11.128,1.407,1.407,0,0,1,2.814,9.719Zm3.2,10.931a1.112,1.112,0,1,1,1.112-1.112A1.112,1.112,0,0,1,6.009,20.649ZM15.4,23.975a1.112,1.112,0,1,1,1.112-1.112A1.112,1.112,0,0,1,15.4,23.975Zm2.081-2.2a2.348,2.348,0,0,0-4.411.8,9.536,9.536,0,0,1-5.063-1.813,2.346,2.346,0,0,0-2.891-3.4,9.516,9.516,0,0,1-1.023-4.292c0-.012,0-.027,0-.04a11.039,11.039,0,0,0,3.047,3.076A.619.619,0,1,0,7.857,15.1a9.546,9.546,0,0,1-2.8-2.871A2.64,2.64,0,0,0,6.442,8.277a9.869,9.869,0,0,1,4.478-.406.623.623,0,0,0,.131-1.238,11.389,11.389,0,0,0-4.78.381,9.586,9.586,0,0,1,3.5-2.643,2.346,2.346,0,0,0,4.372-.8,9.541,9.541,0,0,1,5.06,1.786,2.348,2.348,0,0,0,2.9,3.393,9.516,9.516,0,0,1,1.035,4.317v.188a12.583,12.583,0,0,0-5.078-4.446.619.619,0,0,0-.577,1.095,11.424,11.424,0,0,1,4.59,3.993,2.638,2.638,0,0,0-1.367,3.913c-1.952.78-5.058.644-8.2-.4a.619.619,0,0,0-.391,1.174,17.861,17.861,0,0,0,5.551.968,9.685,9.685,0,0,0,3.4-.545,9.59,9.59,0,0,1-3.582,2.767Zm5.449-3.963a3.125,3.125,0,1,1,.01,0Z" transform="translate(-1.59 -0.871)"/></g></svg>