<svg xmlns="http://www.w3.org/2000/svg" width="43" height="43" viewBox="0 0 43 43"><defs><style>.a{fill:#dbe0ff;}.b{fill:#a2ace8;}</style></defs><circle class="a" cx="21.5" cy="21.5" r="21.5"/><g transform="translate(-884.916 -146.597)"><path class="b" d="M916.726,158.443a.915.915,0,0,0-.89-.846h-4.769a.869.869,0,0,0-.857.858v17.382a.869.869,0,0,0,.858.857h4.8a.87.87,0,0,0,.858-.858Zm-1.752.87v15.665H911.9V159.313Z"/><path class="b" d="M907.723,161.813h-4.807a.867.867,0,0,0-.857.858v13.165a.867.867,0,0,0,.858.857h4.8a.868.868,0,0,0,.857-.858v-13.17A.89.89,0,0,0,907.723,161.813Zm-.857,1.716v11.448h-3.079V163.529Z"/><path class="b" d="M899.575,166.03h-4.8a.869.869,0,0,0-.857.858v8.949a.869.869,0,0,0,.858.857h4.8a.87.87,0,0,0,.858-.858v-8.949A.87.87,0,0,0,899.575,166.03Zm-.851,1.716v7.232h-3.079v-7.232Z"/></g></svg>