<svg xmlns="http://www.w3.org/2000/svg" width="43.495" height="43.495" viewBox="0 0 43.495 43.495"><defs><style>.a{fill:#e2d8ff;}.b{fill:#a791e5;}</style></defs><path class="a" d="M21.747,0A21.747,21.747,0,1,1,0,21.747,21.747,21.747,0,0,1,21.747,0Z"/><g transform="translate(8.637 10.585)"><path class="b" d="M47.189,42.531a6.443,6.443,0,0,1-6.771-10.1.644.644,0,0,0-.644-1.012,7.731,7.731,0,1,0,8.086,12.119.644.644,0,0,0-.644-1.011Zm-5.483,2.79a6.443,6.443,0,0,1-3.273-11.99,7.648,7.648,0,0,0-.593,2.97,7.731,7.731,0,0,0,7.731,7.731A6.372,6.372,0,0,1,41.706,45.32Z" transform="translate(-33.93 -24.185)"/><g transform="translate(8.163)"><path class="b" d="M18.627,22.254A3.627,3.627,0,1,0,15,18.627a3.627,3.627,0,0,0,3.627,3.627Zm0-5.8a2.176,2.176,0,1,1-2.176,2.176A2.176,2.176,0,0,1,18.627,16.451Z" transform="translate(-9.922 -9.922)"/><path class="b" d="M19.725,11.627a.725.725,0,0,0,.725-.725V8.725a.725.725,0,0,0-1.451,0V10.9A.725.725,0,0,0,19.725,11.627Z" transform="translate(-11.02 -8)"/><path class="b" d="M12.992,13.965a.725.725,0,0,0,1.023-1.023L12.477,11.4a.725.725,0,0,0-1.023,1.023Z" transform="translate(-8.901 -8.887)"/><path class="b" d="M8.725,20.451H10.9A.725.725,0,1,0,10.9,19H8.725a.725.725,0,0,0,0,1.451Z" transform="translate(-8 -11.02)"/><path class="b" d="M12.962,24.934l-1.538,1.538a.725.725,0,1,0,1.023,1.023l1.538-1.538a.725.725,0,0,0-1.023-1.023Z" transform="translate(-8.871 -12.602)"/><path class="b" d="M19.725,27a.725.725,0,0,0-.725.725V29.9a.725.725,0,0,0,1.451,0V27.725A.725.725,0,0,0,19.725,27Z" transform="translate(-11.02 -13.217)"/><path class="b" d="M25.907,24.934a.725.725,0,0,0-1.023,1.023l1.538,1.538a.725.725,0,0,0,1.023-1.023Z" transform="translate(-12.588 -12.602)"/><path class="b" d="M27,19.725a.725.725,0,0,0,.725.725H29.9A.725.725,0,0,0,29.9,19H27.725A.725.725,0,0,0,27,19.725Z" transform="translate(-13.217 -11.02)"/><path class="b" d="M25.387,14.225a.725.725,0,0,0,.515-.21l1.538-1.538a.725.725,0,0,0-1.023-1.023l-1.538,1.538a.725.725,0,0,0,.515,1.24Z" transform="translate(-12.576 -8.9)"/></g></g></svg>