<svg xmlns="http://www.w3.org/2000/svg" width="43" height="43" viewBox="0 0 43 43"><defs><style>.a{fill:#ffd9e5}.b{fill:#f46a95;stroke:#f46a95;stroke-width:.3px}</style></defs><circle cx="21.5" cy="21.5" r="21.5" class="a"/><path d="M8.134,4.406,18.52.129a.652.652,0,0,1,.535,0L29.442,4.482a.734.734,0,0,1,.535.687c0,2.52,0,4.506.076,6.034.076,3.819.153,5.8-.687,7.485-1.3,2.673-7.332,6.034-10.158,7.943a.811.811,0,0,1-.916-.076c-2.826-1.909-8.783-5.193-10.082-7.867-.84-1.68-.84-3.666-.687-7.485,0-1.528.076-3.513.076-6.034A.92.92,0,0,1,8.134,4.406ZM18.75,1.656,9.126,5.7c0,2.139-.077,3.972-.077,5.575C8.9,14.793,8.9,16.626,9.508,18c1.146,2.139,6.8,5.423,9.242,7.027,2.444-1.6,8.172-4.888,9.241-7.027.687-1.375.611-3.208.535-6.721-.076-1.6-.076-3.437-.076-5.575Z" class="b" transform="translate(2.555 7.928)"/><path d="M37.192,41.7a.756.756,0,0,1,1.069-1.069l1.146,1.146,3.437-3.437a.831.831,0,0,1,1.146,0,.918.918,0,0,1,0,1.069l-3.972,3.972a.831.831,0,0,1-1.146,0Z" class="b" transform="translate(-19.095 -19.97)"/></svg>