<svg xmlns="http://www.w3.org/2000/svg" width="184.115" height="202.38" viewBox="0 0 184.115 202.38"><g id="Group_6193" data-name="Group 6193" transform="translate(-161.442 -119.007)"><g id="Group_6197" data-name="Group 6197" transform="translate(161.442 119.007)"><g id="Group_6193-2" data-name="Group 6193"><path id="Path_14036" fill="#b7c2ce" d="M596.162,483.916c.088-1.79.719-2.721,2.166-2.986a6.1,6.1,0,0,1,1.592.123c.689.759,1.467,1.471,1.355,2.642a2.448,2.448,0,0,1-2.235,2.512C597.375,486.292,596.55,485.636,596.162,483.916Z" data-name="Path 14036" transform="translate(-438.526 -349.674)"/><path id="Path_14037" fill="#b7c2ce" d="M256.364,119.009a3.964,3.964,0,0,1,4.077,3.619,1.589,1.589,0,0,1-.538,1.318,2.169,2.169,0,0,1-1.724.008,4.456,4.456,0,0,1-2.427-4.12Z" data-name="Path 14037" transform="translate(-221.553 -119.007)"/><path id="Path_14038" fill="#b7c2ce" d="M659.767,217.143a10.83,10.83,0,0,1,.847-2.379c.338-.534,1.087-1.2,1.592-1.154.96.09,1.031,1.192.95,1.909a7.838,7.838,0,0,1-.917,2.786c-.24.442-.945.632-1.44.936-.283-.541-.576-1.077-.842-1.626a1.036,1.036,0,0,1-.008-.41Z" data-name="Path 14038" transform="translate(-479.067 -179.304)"/><path id="Path_14039" fill="#b7c2ce" d="M625.374,279.341a2.059,2.059,0,0,1-2.148-2.883,10.43,10.43,0,0,1,.488-1.115c.771-.488,1.5-.653,2.184.173a2.744,2.744,0,0,1,.113,3.167A5.493,5.493,0,0,1,625.374,279.341Z" data-name="Path 14039" transform="translate(-455.687 -218.394)"/><path id="Path_14040" fill="#b7c2ce" d="M176.047,244.994h.676l.887,1.188a9.992,9.992,0,0,0,6.2,5.7l-1.727,2.72a47.768,47.768,0,0,1-5.254-3.827,10.781,10.781,0,0,1-1.935-3.547C174.4,246.107,175.343,245.577,176.047,244.994Z" data-name="Path 14040" transform="translate(-169.93 -199.309)"/><path id="Path_14041" fill="#b7c2ce" d="M431.112,421.056a2.22,2.22,0,0,1-2.3-2.265,1.946,1.946,0,0,1,1.947-2.089,2.575,2.575,0,0,1,2.411,2.49A1.938,1.938,0,0,1,431.112,421.056Z" data-name="Path 14041" transform="translate(-331.858 -308.753)"/><path id="Path_14042" fill="#b7c2ce" d="M290.462,485.535a17.146,17.146,0,0,1-.635,2.333c-.352.826-1.015.85-1.435.08a6.24,6.24,0,0,1-.368-5.258,1.214,1.214,0,0,1,.857-.709c.282,0,.714.407.825.724C290.028,483.63,290.223,484.6,290.462,485.535Z" data-name="Path 14042" transform="translate(-241.862 -350.361)"/><path id="Path_14043" fill="#b7c2ce" d="M164.734,277.2c-.013,1.144-.793,2.162-1.653,2.158a1.984,1.984,0,0,1-1.638-2.147c.036-1.163.8-2.186,1.642-2.191S164.747,276.116,164.734,277.2Z" data-name="Path 14043" transform="translate(-161.442 -218.449)"/><path id="Path_14044" fill="#b7c2ce" d="M281.526,411.4a.733.733,0,0,1,0,.206c-.161.527-.328,1.052-.494,1.577-.4-.418-.959-.771-1.161-1.269a8.793,8.793,0,0,1-.63-2.691,4.523,4.523,0,0,1,.565-1.616c.409.359,1,.642,1.186,1.093a17.021,17.021,0,0,1,.654,2.673Z" data-name="Path 14044" transform="translate(-236.522 -302.955)"/><path id="Path_14045" fill="#b7c2ce" d="M240.743,451.345h.308c.741,0,1.675.046,1.731.885.059.9-.906,1.117-1.654,1.159a8.878,8.878,0,0,1-2.324-.191,1.047,1.047,0,0,1-.63-.793c0-.259.376-.645.668-.75a13.274,13.274,0,0,1,1.882-.409Z" data-name="Path 14045" transform="translate(-210.35 -330.771)"/><path id="Path_14046" fill="#b7c2ce" d="M480.238,229.543a8.426,8.426,0,0,1,.9-1.479,1.25,1.25,0,0,1,1.024-.313,4.376,4.376,0,0,1,2.778,2.315c.874,1.532.937,2.238.614,5.247a2.331,2.331,0,0,0,.991-2.932c-.524-2.034-1.177-4.036-1.652-6.08a6.208,6.208,0,0,1,1.46-5.782c.478-.542.872-.608,1.31.02s.886,1.221,1.309,1.8c-.474.667-1.163,1.229-1.281,1.893a12.951,12.951,0,0,0-.032,3.545c.139,1.364.59,2.7.684,4.063a4.059,4.059,0,0,1-3.478,4.641,4.49,4.49,0,0,0-2.831,1.56,5.013,5.013,0,0,1-2.833,1.5c-2.724.506-5.285-.476-8.071-1.254l2.187-3.009c.321.286.559.511.81.721,1.855,1.549,3.91,2.487,6.376,1.861a6.4,6.4,0,0,0,1.562-.927q.106-.463.21-.927a6.136,6.136,0,0,0-3.946-4.072l.039.014-.122-.183-1.955-.508a.391.391,0,0,1,0-.1c.668-2.279,1.055-2.453,3.26-1.481.156.069.322.114.484.17l1.817,1.8,1.659,4.046c1.137-1.532.38-3.728-1.549-4.989Z" data-name="Path 14046" transform="translate(-358.832 -183.436)"/><path id="Path_14047" fill="#b7c2ce" d="M572.92,220.389l1.321-.778.653.117c.862,2.012.486,3.368-1.486,4.733a11.36,11.36,0,0,1-2.587,1.219c-1.446.527-2.926.962-4.5,1.47l-.886-2.959a10.345,10.345,0,0,0,6.24-2.352A12.75,12.75,0,0,0,572.92,220.389Z" data-name="Path 14047" transform="translate(-418.941 -183.131)"/><path id="Path_14048" fill="#b7c2ce" d="M594.068,402.831a1.628,1.628,0,0,1,.451,1.753A9.627,9.627,0,0,1,587.273,412c-.221-1.095-.474-2.181-.624-3.282-.02-.145.465-.476.75-.526a5.855,5.855,0,0,0,4.805-4.875l.862-.883Z" data-name="Path 14048" transform="translate(-432.462 -299.66)"/><path id="Path_14049" fill="#b7c2ce" d="M486.353,291.794a1.2,1.2,0,0,1-1.343,1.331,4.27,4.27,0,0,1-3.731-3.674,1.245,1.245,0,0,1,1.348-1.366C484.227,288.01,486.372,290.171,486.353,291.794Z" data-name="Path 14049" transform="translate(-365.301 -226.774)"/><path id="Path_14050" fill="#b7c2ce" d="M562.723,301.8a9.177,9.177,0,0,1,1.234-1.953,1.74,1.74,0,0,1,1.533-.293c.348.136.642.835.665,1.3a2.771,2.771,0,0,1-1.839,2.894C563,303.745,562.881,302.759,562.723,301.8Z" data-name="Path 14050" transform="translate(-417.212 -234.043)"/></g><g id="Group_6194" data-name="Group 6194" transform="translate(33.026 6.383)"><path id="Path_14051" fill="#2033a0" d="M255.063,507.579a7.534,7.534,0,0,0,3.781,3.284,19.613,19.613,0,0,0,3.428.925L261.3,514.7c-2.729-2.026-6.219-2.723-8.261-5.591l-.519-1.033,1-1.191.626-.335Z" data-name="Path 14051" transform="translate(-252.52 -372.402)"/><path id="Path_14052" fill="#2033a0" d="M258.215,242.177a1.254,1.254,0,0,1-1.8,1.289,4.555,4.555,0,0,1-2.739-3.834,1.264,1.264,0,0,1,1.815-1.292A4.517,4.517,0,0,1,258.215,242.177Z" data-name="Path 14052" transform="translate(-253.254 -201.387)"/><path id="Path_14053" fill="#2033a0" d="M299.828,293.215a1.181,1.181,0,0,1-1.285-1.368,4.436,4.436,0,0,1,3.65-3.553,1.218,1.218,0,0,1,1.338,1.34A4.311,4.311,0,0,1,299.828,293.215Z" data-name="Path 14053" transform="translate(-281.852 -233.291)"/><path id="Path_14054" fill="#2033a0" d="M468.74,378.05c.842,1.765-.915,6.026-2.529,6.277C465.6,382.487,467.04,378.826,468.74,378.05Z" data-name="Path 14054" transform="translate(-388.631 -290.5)"/><path id="Path_14055" fill="#2033a0" d="M539.741,453.16c.342-1.7,3.1-4.136,4.837-4.336C544.539,450.318,541.644,452.955,539.741,453.16Z" data-name="Path 14055" transform="translate(-435.59 -335.611)"/><path id="Path_14056" fill="#2033a0" d="M471.779,139.922a11.246,11.246,0,0,1-.934-1.7c-.388-1.112.24-1.83,1.365-1.547a4.751,4.751,0,0,1,3.406,3.172,1.176,1.176,0,0,1-.6,1.579C473.651,141.542,472.732,140.7,471.779,139.922Z" data-name="Path 14056" transform="translate(-391.603 -136.611)"/></g><path id="Path_14057" fill="#fefefe" d="M188.465,367.967l-.15-.282.493.033Z" data-name="Path 14057" transform="translate(-178.57 -277.511)"/><g id="Group_6195" data-name="Group 6195" transform="translate(8.903 48.333)"><path id="Path_14058" fill="#e5e9f2" d="M185.994,456.719a1.564,1.564,0,0,1,.091-.6c.388-.837.735-1.763,1.906-1.73,1.155.032,1.53.895,1.808,1.806.531,1.741-.556,3.458-2.113,3.375C186.644,459.518,185.981,458.484,185.994,456.719Z" data-name="Path 14058" transform="translate(-185.994 -381.109)"/><path id="Path_14059" fill="#e5e9f2" d="M223.291,303.342a2.966,2.966,0,0,1-1.906-3.333,1.181,1.181,0,0,1,2.123-.58,9.129,9.129,0,0,1,1.2,2.292C224.783,303.007,224.491,303.342,223.291,303.342Z" data-name="Path 14059" transform="translate(-208.509 -282.035)"/><path id="Path_14060" fill="#e5e9f2" d="M490.876,252.479l-.122-.183Z" data-name="Path 14060" transform="translate(-380.243 -252.296)"/></g><g id="Group_6196" data-name="Group 6196" transform="translate(0.994 29.706)"><path id="Path_14061" fill="#9da8b6" d="M588.147,206.828l-.828.994-.653-.117-1.321.778a1.374,1.374,0,0,1-.049-1.918c.495-.725.978-1.457,1.466-2.187a14.1,14.1,0,0,1,7.067-3.448c-.065,1.3-.127,2.521-.193,3.831A5.026,5.026,0,0,0,588.147,206.828Z" data-name="Path 14061" transform="translate(-432.361 -200.93)"/><path id="Path_14062" fill="#9da8b6" d="M169.306,230.054l-1.749-3.225-3.374-1.949.807-3.326a16.391,16.391,0,0,1,4.591,3.478c.656,1.441,1.334,2.872,1.958,4.326a1.364,1.364,0,0,1-.67,1.883l-.887-1.188Z" data-name="Path 14062" transform="translate(-164.183 -214.075)"/><path id="Path_14063" fill="#9da8b6" d="M181.875,342.6a1.934,1.934,0,0,0,2.056,1.085c1.5-.23,2.968-.6,4.46-.862a28.47,28.47,0,0,1,4.085-.57,5.564,5.564,0,0,1,4.627,2.486l-2.563,1.716c-1.425-2.429-3.7-1.884-5.892-1.634-.891.1-1.771.3-2.661.407-2.843.355-4.717-1-5.151-3.809a3.84,3.84,0,0,0-1.39-2.683c-1.512-1.254-1.654-3.173-1.325-4.978.355-1.951.984-3.852,1.52-5.873l2.737,2.277c-3.183,3.513-3.974,7.011-1.919,8.647.071-.326.136-.62.2-.914a6.274,6.274,0,0,1,2.136-3.576,4.077,4.077,0,0,1,5.249-.189.912.912,0,0,1,.247.777c-.177.727-.453,1.429-.717,2.218a9.537,9.537,0,0,0,1.327.948c.964.483.788,1.143.412,1.882-.977,1.919-4.015,3.14-6.4,2.571-.234-.056-.467-.115-.7-.173l-.493-.033Zm-.4-2.317c.423.271.769.662,1.162.716,1.735.24,3-.606,4.281-2.077a6.579,6.579,0,0,0-1.621.02C184.092,339.306,182.912,339.768,181.478,340.279Zm-.066-1.179c1.53-.171,3.654-1.987,4.4-3.763A7.069,7.069,0,0,0,181.412,339.1Z" data-name="Path 14063" transform="translate(-172.974 -281.847)"/><path id="Path_14064" fill="#9da8b6" d="M245.882,495l-.913-1.033-.626.335c-.314-.41-.652-.8-.937-1.233a5.188,5.188,0,0,0-5.291-2.417v-3.84c3.541,1.109,6.583,2.676,8.149,6.225C246.611,493.82,246.681,494.476,245.882,495Z" data-name="Path 14064" transform="translate(-211.307 -383.147)"/><path id="Path_14065" fill="#9da8b6" d="M277.834,337.309c-.009,1.241-.745,2.171-1.72,2.175a1.967,1.967,0,0,1-1.753-2.152,1.791,1.791,0,1,1,3.473-.023Z" data-name="Path 14065" transform="translate(-234.409 -286.442)"/><path id="Path_14066" fill="#9da8b6" d="M226.758,308.206c1.2,0,1.492-.335,1.413-1.621.4.2.956.288,1.167.608a2.788,2.788,0,0,1,.105,3.109c-.209.343-.936.767-1.117.655A4.7,4.7,0,0,1,226.9,309.5C226.693,309.173,226.8,308.645,226.758,308.206Z" data-name="Path 14066" transform="translate(-204.067 -268.273)"/><path id="Path_14067" fill="#9da8b6" d="M602.567,389.3l-1-.395-.862.883c-.746-.376-.841-.936-.612-1.708a6.965,6.965,0,0,1,3.479-4.416c1.394-.745,2.729-1.6,4.179-2.46l1.534,2.676A10.257,10.257,0,0,0,602.567,389.3Z" data-name="Path 14067" transform="translate(-441.954 -315.832)"/><path id="Path_14068" fill="#9da8b6" d="M491.274,255.644q-.105.463-.21.927a20.562,20.562,0,0,1-3.718-1.369,4.154,4.154,0,0,1-2.056-4.307l1.955.508.122.183-.039-.015A7.512,7.512,0,0,0,491.274,255.644Z" data-name="Path 14068" transform="translate(-368.826 -232.777)"/><path id="Path_14069" fill="#9da8b6" d="M559.967,305.875c.158.954.277,1.94,1.593,1.947a8.785,8.785,0,0,1-.719,2.187c-.555.857-1.561.7-2.086-.2A2.891,2.891,0,0,1,559.967,305.875Z" data-name="Path 14069" transform="translate(-415.45 -267.82)"/><path id="Path_14070" fill="#9da8b6" d="M497.511,248.261l-1.817-1.8.2-.3,1.726,1.16Z" data-name="Path 14070" transform="translate(-375.483 -229.758)"/></g></g><g id="Group_6199" data-name="Group 6199" transform="translate(185.304 166.942)"><g id="Group_6198" data-name="Group 6198" transform="translate(103.264 0)"><path id="Skin" fill="#b28b67" d="M512.023,276.177l8.2-13.451c.631-1.657.34-3.826.783-5.571.269-1.059.386-3.386,1.087-4.119.5-.526,1.375-.09,1.994-.551.534-.4.865-1.074,1.553-1.248.826-.21,1.582.486,2.152,1.12l1.362,1.514a2.256,2.256,0,0,1,.806,1.726,2.083,2.083,0,0,1-.332.749c-.759,1.216-1.687,2.254-2.462,3.458a41.326,41.326,0,0,1-2.784,3.824l-6.027,17.629Z" transform="translate(-512.023 -251.199)"/><path id="Path_14071" fill="#7c5b40" d="M545.471,265.856a9.553,9.553,0,0,1-1.043-2.194c-.215-.862.65-.173.955,0a13.159,13.159,0,0,0,1.827.907,1.674,1.674,0,0,0,.588.127,1.826,1.826,0,0,0,1.111-.612.794.794,0,0,0,.254-.338,2.821,2.821,0,0,1-2.987.325.937.937,0,0,0-.469-.127c-.318.035-.482.4-.507.723A2.084,2.084,0,0,0,545.471,265.856Z" data-name="Path 14071" transform="translate(-532.656 -258.872)"/></g><g id="Bottom_Standing_Skinny_Jeans_Walk" data-name="Bottom Standing Skinny Jeans Walk" transform="translate(43.598 85.844)"><path id="Leg" fill="#2033a0" d="M374.967,514.474l48.633-8.485L419.98,545.8l8.6.453s13.573-36.42,6.786-51.577c-2.941-6.568-9.35-6.286-17.9-6.738-5.175-.274-47.255,7.288-47.255,7.288Z" transform="translate(-361.967 -487.933)"/><path id="Leg-2" fill="#3646aa" d="M366.823,529.894a24.559,24.559,0,0,0,11.22-1.466c3.711-1.318,7.367-2.805,10.973-4.386,1.3-.569,3.4-2.031,4.668-2.233-6.5,1.035-34.281,22.608-34.281,22.608l4.285,5.763S447.1,515.926,406.1,508.067c-7.49-1.435-15.816-.848-23.364-.487a181.512,181.512,0,0,0-20.428,2.1c-3.543.575-5.5.922-6.363,4.694a13.078,13.078,0,0,0,1.432,9.435A12.407,12.407,0,0,0,366.823,529.894Z" transform="translate(-352.667 -500.182)"/><g id="Left_Shoe" data-name="Left Shoe" transform="translate(0 43.916)"><path id="Shoe" fill="#191847" d="M347.48,615.827l6.5-6.784,7.078,6.163c1.953,7.922,8.156,17.174,8.156,17.174l-1.174,1.348-12.807-11.151-3.794-4.489-.587.674Z" transform="translate(-347.48 -609.043)"/></g><g id="Right_Shoe" data-name="Right Shoe" transform="translate(56.982 57.735)"><path id="Shoe-2" fill="#191847" d="M504.622,656.1l.877-8.947,8.968.45c6.154,4.8,16.291,8.1,16.291,8.1l-.086,1.708-16.228-.815-5.509-1.133-.043.854Z" transform="translate(-504.622 -647.151)"/></g></g><g id="Head_Front_Caesar" data-name="Head Front Caesar" transform="translate(46.95 20.35)"><g id="Head" transform="translate(1.376 1.28)"><path id="Head-2" fill="#b28b67" d="M368.135,347.179l-1.459-18.672a12.882,12.882,0,0,1-5.924-7.893c-2.22-9.956,12-11.852,16.1-7.716s7.51,16.717,4.359,18.612c-1.257.756-4.412.76-7.893-.14l5.753,12.554Z" transform="translate(-360.518 -310.847)"/></g><path id="Combined_Shape" fill="#191847" d="M364.344,326.982h0a2.8,2.8,0,0,1-1.824-.484,9.94,9.94,0,0,1-2.124-1.743,14.525,14.525,0,0,1-3.323-5.532,7.914,7.914,0,0,1,.854-6.516,11.5,11.5,0,0,1,6.73-4.673,16.148,16.148,0,0,1,3.862-.7,8.4,8.4,0,0,1,2.835.317,4.185,4.185,0,0,1,2.863,2.5c-2.06,1.284-5.857,2.741-11.608,4.453-.431.128-.88.262-1.337.392l.136.456,5.6-1.172,1.725,2.463c-.071.016-.144.034-.216.055a2.9,2.9,0,0,0-1.568,1.161,6.238,6.238,0,0,0-.87,1.987,2.286,2.286,0,0,0-1.362-.024,2.337,2.337,0,0,0-1.4,1.185,2.4,2.4,0,0,0-.2,1.772A2.835,2.835,0,0,0,365.255,325C365.043,326.14,364.761,326.751,364.344,326.982Z" data-name="Combined Shape" transform="translate(-356.725 -307.318)"/></g><path id="Skin-2" fill="#b28b67" d="M239,291.391l-6.116-17.6a41.393,41.393,0,0,1-2.8-3.811c-.782-1.2-1.715-2.233-2.48-3.446a2.087,2.087,0,0,1-.336-.747,2.256,2.256,0,0,1,.8-1.73l1.354-1.521c.567-.637,1.319-1.336,2.146-1.131.689.171,1.024.846,1.559,1.241.621.458,1.491.017,2,.541.7.729.833,3.055,1.107,4.113.452,1.744.172,3.914.811,5.568l8.267,13.409Z" data-name="Skin" transform="translate(-227.248 -257.682)"/><path id="Shirt" fill="#f2f2f2" d="M360.1,426.378l35.982-6.787s-18.36-30.211-20.911-42.28a1.567,1.567,0,0,0-1.464-.8c-4.036,1.841-9.206.929-9.206.929C358.223,391.009,358.05,406.295,360.1,426.378Z" transform="translate(-311.18 -331.049)"/><path id="Path_14072" fill="#ff276a" d="M403.709,321.221c1.72,1.81,31.562-9.184,31.562-9.184l13.089-23.56,6.283,1.57s-9.162,29.58-10.209,31.413-29.319,14.921-29.319,17.015,10.471,22.512,13.874,23.559l-6.806,2.88L405.167,326.7A28.666,28.666,0,0,1,403.709,321.221Z" data-name="Path 14072" transform="translate(-339.722 -274.959)"/><path id="Path_14073" fill="#ff276a" d="M311.191,365.352a78.729,78.729,0,0,0-5.621-16.9c-2.3-5.3-3.627-11.178-6.584-16.288-3.814-6.591-4.75-4.652-11.358-4.118-.144.012-.292.012-.437.018,0,0-24.337-7.033-24.494-7.821s-12.763-22.69-13.551-22.533-5.515,2.364-5.515,2.364,9.8,31.27,12.477,32.058,26.531,16.187,26.531,16.187c-.449,3.051-1.343,6.394-1.465,8.2-.681,10.122-.283,20.833,3.283,30.438l19.186-3.619C312.3,381.714,312.486,372.356,311.191,365.352Z" data-name="Path 14073" transform="translate(-237.69 -280.847)"/></g></g></svg>