<svg id="Lock" xmlns="http://www.w3.org/2000/svg" width="68.25" height="68.25" viewBox="0 0 68.25 68.25">
  <g id="Group_16" data-name="Group 16" transform="translate(0 0)">
    <path id="Path_21" data-name="Path 21" d="M34.125,0A33.929,33.929,0,0,0,0,34.125,33.929,33.929,0,0,0,34.125,68.25,33.929,33.929,0,0,0,68.25,34.125,33.929,33.929,0,0,0,34.125,0ZM53.9,23.461,29.084,49.249c-.388.388-.582.388-1.163.388a2.079,2.079,0,0,1-1.163-.388L14.736,36.258l-.388-.388a1.425,1.425,0,0,1-.388-1.163,2.756,2.756,0,0,1,.388-1.163l2.133-2.133a1.522,1.522,0,0,1,2.133,0l.194.194,8.531,9.113a.727.727,0,0,0,1.163,0L49.249,19.2h.194a1.522,1.522,0,0,1,2.133,0l2.133,2.133a1.383,1.383,0,0,1,.194,2.133Zm0,0" transform="translate(0 0)" fill="#ff276a"/>
  </g>
</svg>
