<svg id="Group_3197" data-name="Group 3197" xmlns="http://www.w3.org/2000/svg" width="65.695" height="63.303" viewBox="0 0 65.695 63.303">
  <path id="Path_1383" data-name="Path 1383" d="M30.373,8.7h-1.2C17.881,8.984,8.7,17.786,8.7,28.575a19.682,19.682,0,0,0,6.171,14.054,21.648,21.648,0,0,0,14.147,5.82h1.505c11.288-.426,20.318-9.086,20.318-19.875A19.683,19.683,0,0,0,44.67,14.52,21.721,21.721,0,0,0,30.373,8.7Zm15.05,11.357H39.4A25.937,25.937,0,0,0,37.6,14.946c-.452-.852-.9-1.562-1.355-2.271a17.7,17.7,0,0,1,6.321,3.833A21.464,21.464,0,0,1,45.423,20.057Zm2.408,8.518a13.876,13.876,0,0,1-.6,4.259H40a40.5,40.5,0,0,0,.3-4.259,34.794,34.794,0,0,0-.452-5.678h6.923A14.662,14.662,0,0,1,47.831,28.575Zm-36.121,0A17.385,17.385,0,0,1,12.764,22.9h6.923a34.794,34.794,0,0,0-.452,5.678,40.5,40.5,0,0,0,.3,4.259H12.312A20.746,20.746,0,0,1,11.71,28.575Zm10.535,0A33.554,33.554,0,0,1,22.7,22.9h5.569v9.937H22.546A40.5,40.5,0,0,1,22.245,28.575Zm9.03-16.609a9.254,9.254,0,0,1,3.462,4.117,24.968,24.968,0,0,1,1.505,3.975H31.276Zm-3.01,0v8.092H23.3C24.5,15.94,26.309,12.959,28.265,11.965Zm0,23.708v9.511A10.313,10.313,0,0,1,24.8,41.067,25.682,25.682,0,0,1,23,35.673Zm3.01,9.511V35.673h5.268C35.49,40.641,33.383,44.048,31.276,45.184Zm0-12.351V22.9h5.569a34.793,34.793,0,0,1,.452,5.678,40.5,40.5,0,0,1-.3,4.259ZM23.449,12.675a22.844,22.844,0,0,0-3.161,7.382h-6.02A17.186,17.186,0,0,1,23.449,12.675Zm-10.084,23h6.472a26.045,26.045,0,0,0,2.107,6.53c.452.852.9,1.562,1.355,2.271a17.7,17.7,0,0,1-6.321-3.833A17.2,17.2,0,0,1,13.366,35.673Zm22.877,8.8a25.617,25.617,0,0,0,3.462-8.8h6.472A17.387,17.387,0,0,1,36.242,44.474Z" transform="translate(3.077 3.077)" fill="#ff276a"/>
  <path id="Path_1384" data-name="Path 1384" d="M25.2,8.122l-1.76-1.76h.812A24.306,24.306,0,0,1,47.4,23.012l2.572-.812A27.072,27.072,0,0,0,24.256,3.655h-.812L25.2,1.9,23.309,0,18.3,5.009l5.009,5.009Z" transform="translate(10.71)" fill="#ff276a"/>
  <path id="Path_1385" data-name="Path 1385" d="M10.017,30.473l-1.9-1.9-1.76,1.76v-.812A24.49,24.49,0,0,1,24.231,5.972L23.554,3.4a27.25,27.25,0,0,0-19.9,26.126v.812L1.9,28.578,0,30.473l5.009,5.009Z" transform="translate(0 1.202)" fill="#ff276a"/>
  <path id="Path_1386" data-name="Path 1386" d="M29.932,43.644l1.76,1.76H29.526a24.612,24.612,0,0,1-23.554-18L3.4,28.212a27.092,27.092,0,0,0,26.126,19.9h2.166l-1.76,1.76,1.9,1.9,5.009-5.009-5.009-5.009Z" transform="translate(1.202 11.537)" fill="#ff276a"/>
  <path id="Path_1387" data-name="Path 1387" d="M51.412,22.309,46.4,17.3,41.4,22.309l1.9,1.9,1.76-1.76V24.61A24.306,24.306,0,0,1,28.4,47.757l.812,2.572A26.946,26.946,0,0,0,47.757,24.61V22.444l1.76,1.76Z" transform="translate(14.282 7.965)" fill="#ff276a"/>
</svg>
