<svg xmlns="http://www.w3.org/2000/svg" width="38.868" height="62.383" viewBox="0 0 38.868 62.383">
  <g id="Path_12338" data-name="Path 12338" transform="translate(-3342.291 -377.08)">
    <path id="Path_12340" data-name="Path 12340" d="M3362.021,400.665a1.6,1.6,0,0,0-.3-.028,4.136,4.136,0,1,1,4.132-4.141v0a1.547,1.547,0,0,0,1.49,1.538h6.161a1.542,1.542,0,0,0,1.534-1.538,13.282,13.282,0,0,0-11.773-13.227V380.23a16.433,16.433,0,0,1,14.816,16.251,1.547,1.547,0,0,0,1.434,1.627,1.7,1.7,0,0,0,1.108-.379,1.485,1.485,0,0,0,.519-1.042.667.667,0,0,0,0-.187,19.479,19.479,0,0,0-19.407-19.42h-.167a1.526,1.526,0,0,0-1.375,1.528v6.076a1.536,1.536,0,0,0,1.529,1.533,10.279,10.279,0,0,1,10.137,8.726h-3.113a7.2,7.2,0,1,0-7.388,8.708,1.531,1.531,0,0,0,.359.042,16.448,16.448,0,0,1,16.289,14.854h-3.042a13.282,13.282,0,0,0-13.247-11.806,10.284,10.284,0,0,1-10.255-10.283,1.534,1.534,0,0,0-1.532-1.538h-6.021a1.374,1.374,0,0,0-.618.135,1.537,1.537,0,0,0-1,1.4,19.5,19.5,0,0,0,19.088,19.411,1.648,1.648,0,0,0,.337.037,4.132,4.132,0,1,1-4.137,4.132,1.534,1.534,0,0,0-1.533-1.533h-6.117a1.537,1.537,0,0,0-1.534,1.533,13.287,13.287,0,0,0,11.8,13.237v3.047a16.459,16.459,0,0,1-14.835-16.261,1.535,1.535,0,0,0-1.435-1.626,1.585,1.585,0,0,0-1.112.383,1.542,1.542,0,0,0-.519,1.075v.145a19.483,19.483,0,0,0,19.42,19.425h0a1.531,1.531,0,0,0,1.528-1.4,1.144,1.144,0,0,0,0-.192V432.05a.892.892,0,0,0,0-.234,1.533,1.533,0,0,0-1.532-1.533,10.289,10.289,0,0,1-10.143-8.731h3.113a7.193,7.193,0,1,0,7.385-8.712,1.528,1.528,0,0,0-.355-.042,16.433,16.433,0,0,1-16.285-14.854h3.048a13.271,13.271,0,0,0,13.237,11.82,10.283,10.283,0,0,1,10.283,10.283,1.53,1.53,0,0,0,1.532,1.533h6.034a1.632,1.632,0,0,0,1.6-1.561A19.535,19.535,0,0,0,3362.021,400.665Z" transform="translate(-0.001 0)" fill="#2033a0"/>
  </g>
</svg>
