<svg xmlns="http://www.w3.org/2000/svg" width="44" height="44" viewBox="0 0 44 44"><defs><style>.a{fill:#fff;stroke:#c0ccda;}.b{fill:#2033a0;}.c{stroke:none;}.d{fill:none;}</style></defs><g transform="translate(-972 -238.896)"><g class="a" transform="translate(972 238.896)"><rect class="c" width="44" height="44" rx="9"/><rect class="d" x="0.5" y="0.5" width="43" height="43" rx="8.5"/></g><path class="b" d="M-1.478,47.822A5.131,5.131,0,0,1-6.54,43.465h1.554A3.59,3.59,0,0,0-.715,46.21,3.587,3.587,0,0,0,2.03,41.941,3.591,3.591,0,0,0-1.3,39.117a.733.733,0,0,0-.175-.021A8.2,8.2,0,0,1-9.6,31.682h1.521a6.618,6.618,0,0,0,6.606,5.9,5.132,5.132,0,0,1,5.132,5.132.763.763,0,0,0,.765.765H7.433a.815.815,0,0,0,.8-.779,9.751,9.751,0,0,0-9.555-9.657.784.784,0,0,0-.147-.014,2.062,2.062,0,0,1-2.067-2.062A2.065,2.065,0,0,1-1.473,28.9,2.068,2.068,0,0,1,.594,30.961a.77.77,0,0,0,.744.767H4.412a.771.771,0,0,0,.765-.767A6.632,6.632,0,0,0-.7,24.36V22.841A8.207,8.207,0,0,1,6.7,30.952a.768.768,0,0,0,.714.812.83.83,0,0,0,.553-.189.747.747,0,0,0,.261-.52.623.623,0,0,0,0-.093,9.727,9.727,0,0,0-9.688-9.692h-.082a.761.761,0,0,0-.686.763v3.033a.765.765,0,0,0,.763.765,5.132,5.132,0,0,1,5.057,4.355H2.035a3.591,3.591,0,0,0-4.269-2.753A3.591,3.591,0,0,0-4.986,31.7a3.588,3.588,0,0,0,3.333,2.83.787.787,0,0,0,.18.021,8.207,8.207,0,0,1,8.129,7.413H5.14a6.634,6.634,0,0,0-6.611-5.892,5.133,5.133,0,0,1-5.12-5.132.764.764,0,0,0-.76-.767h-3.009a.748.748,0,0,0-.308.068.77.77,0,0,0-.5.7,9.735,9.735,0,0,0,9.527,9.688.687.687,0,0,0,.168.019,2.061,2.061,0,0,1,2.06,2.064,2.06,2.06,0,0,1-2.064,2.06,2.062,2.062,0,0,1-2.06-2.062.764.764,0,0,0-.765-.765H-7.356a.77.77,0,0,0-.765.765,6.631,6.631,0,0,0,5.888,6.606v1.521a8.213,8.213,0,0,1-7.4-8.115.768.768,0,0,0-.716-.812.8.8,0,0,0-.555.191.78.78,0,0,0-.259.537v.072A9.722,9.722,0,0,0-1.476,52.4a.761.761,0,0,0,.763-.7.654.654,0,0,0,0-.1V48.7a.488.488,0,0,0,0-.117A.767.767,0,0,0-1.478,47.822Z" transform="translate(995.168 223.627)"/></g></svg>