<svg xmlns="http://www.w3.org/2000/svg" width="57" height="57" viewBox="0 0 57 57"><g id="Group_3202" data-name="Group 3202" transform="translate(0 -0.443)"><g id="Group_3201" data-name="Group 3201"><rect id="Rectangle_2165" width="57" height="57" fill="#2033a0" data-name="Rectangle 2165" rx="6" transform="translate(0 0.443)"/></g><g id="Path_12338" data-name="Path 12338" transform="translate(-3325.043 -366.686)"><path id="Path_12340" fill="#fff" d="M3353.785,390.82a.929.929,0,0,0-.174-.016,2.41,2.41,0,1,1,2.407-2.412v0a.9.9,0,0,0,.868.9h3.589a.9.9,0,0,0,.893-.9,7.737,7.737,0,0,0-6.859-7.706v-1.773a9.573,9.573,0,0,1,8.631,9.467.9.9,0,0,0,.836.948.988.988,0,0,0,.646-.221.865.865,0,0,0,.3-.607.388.388,0,0,0,0-.109,11.348,11.348,0,0,0-11.306-11.313h-.1a.888.888,0,0,0-.8.89v3.54a.9.9,0,0,0,.89.893,5.988,5.988,0,0,1,5.906,5.084H3357.7a4.193,4.193,0,1,0-4.3,5.073.89.89,0,0,0,.209.024,9.583,9.583,0,0,1,9.49,8.653h-1.773a7.737,7.737,0,0,0-7.717-6.878,5.991,5.991,0,0,1-5.974-5.99.894.894,0,0,0-.892-.9h-3.508a.8.8,0,0,0-.36.079.9.9,0,0,0-.582.817,11.363,11.363,0,0,0,11.12,11.308.956.956,0,0,0,.2.022,2.407,2.407,0,1,1-2.41,2.407.894.894,0,0,0-.893-.893h-3.563a.9.9,0,0,0-.894.893,7.741,7.741,0,0,0,6.873,7.711v1.775a9.588,9.588,0,0,1-8.642-9.473.9.9,0,0,0-.836-.947.922.922,0,0,0-.647.223.9.9,0,0,0-.3.626v.084a11.35,11.35,0,0,0,11.313,11.316h0a.892.892,0,0,0,.89-.817.657.657,0,0,0,0-.112V409.1a.489.489,0,0,0,0-.136.893.893,0,0,0-.892-.893,5.994,5.994,0,0,1-5.909-5.086h1.814a4.19,4.19,0,1,0,4.3-5.075.887.887,0,0,0-.206-.025,9.574,9.574,0,0,1-9.487-8.653h1.775a7.731,7.731,0,0,0,7.712,6.886,5.991,5.991,0,0,1,5.99,5.99.892.892,0,0,0,.893.893H3364a.951.951,0,0,0,.934-.909A11.38,11.38,0,0,0,3353.785,390.82Z" data-name="Path 12340" transform="translate(-0.001 0)"/></g></g></svg>