<svg xmlns="http://www.w3.org/2000/svg" width="36.553" height="11.807" viewBox="0 0 36.553 11.807">
  <path id="Path_12079" data-name="Path 12079" d="M251.538,230.218l-4.786,11.418H243.63l-2.355-9.112a1.248,1.248,0,0,0-.7-1,12.426,12.426,0,0,0-2.912-.973l.068-.331h5.026a1.379,1.379,0,0,1,1.362,1.164l1.245,6.608,3.072-7.772Zm12.235,7.691c.013-3.014-4.168-3.179-4.139-4.526.01-.408.4-.846,1.251-.957a5.579,5.579,0,0,1,2.915.511l.516-2.423a7.978,7.978,0,0,0-2.763-.505c-2.919,0-4.973,1.552-4.989,3.776-.019,1.643,1.467,2.558,2.583,3.107,1.153.56,1.54.917,1.533,1.419-.007.764-.919,1.1-1.766,1.117a6.165,6.165,0,0,1-3.034-.723l-.537,2.5a8.9,8.9,0,0,0,3.285.607c3.1,0,5.134-1.532,5.144-3.906m7.71,3.727h2.731l-2.386-11.418h-2.521a1.342,1.342,0,0,0-1.256.839l-4.432,10.579h3.1l.615-1.705h3.788Zm-3.3-4.045,1.555-4.288.895,4.288Zm-12.427-7.374-2.441,11.418h-2.953l2.441-11.418Z" transform="translate(-237.661 -230.01)" fill="#002463"/>
</svg>
