<svg xmlns="http://www.w3.org/2000/svg" width="29.723" height="22.835" viewBox="0 0 29.723 22.835"><defs><style>.a{fill:#2033a0;}</style></defs><g transform="translate(-7.074 -1.692)"><g transform="translate(7.074 1.692)"><g transform="translate(0 0)"><path class="a" d="M-10.644,39.721l-.915.006a1.24,1.24,0,0,1-1.23-1.235V21.643a1.239,1.239,0,0,1,1.229-1.236H.618a1.021,1.021,0,1,0,.129-1.579.985.985,0,0,0-.129.106H-11.561a2.711,2.711,0,0,0-2.7,2.709V38.492a2.713,2.713,0,0,0,2.7,2.7h.917a.737.737,0,0,0,.736-.737A.737.737,0,0,0-10.644,39.721Z" transform="translate(14.263 -18.65)"/><path class="a" d="M12.7,25.789h-.156v-4.2a2.713,2.713,0,0,0-2.7-2.7h-4.3a.737.737,0,1,0,0,1.473h4.3A1.24,1.24,0,0,1,11.082,21.6v4.193H4.693a4.2,4.2,0,0,0,0,8.41h6.38v4.239a1.24,1.24,0,0,1-1.236,1.236h-14.7a1.018,1.018,0,0,0-1.283-.106,1.008,1.008,0,0,0-.426.654,1.012,1.012,0,0,0,.161.764,1.022,1.022,0,0,0,.659.43,1.2,1.2,0,0,0,.186.015,1.014,1.014,0,0,0,.575-.177,1.191,1.191,0,0,0,.131-.107h14.7a2.711,2.711,0,0,0,2.7-2.7V34.2H12.7a1,1,0,0,0,1-1V26.789A1,1,0,0,0,12.7,25.789Zm-.7,6.8H9.49V30.133a1.141,1.141,0,0,0-1.139-1.139H6.8a1.918,1.918,0,1,0-2.347,2.771,1.889,1.889,0,0,0,1.463-.026,1.909,1.909,0,0,0,1.092-1.27H8.024v2.016h0v.107h-3.3A2.628,2.628,0,0,1,2.1,29.967a2.543,2.543,0,0,1,2.54-2.54h7.368ZM5.6,29.964a.447.447,0,1,1-.446-.446A.447.447,0,0,1,5.6,29.964Z" transform="translate(16.018 -18.595)"/><path class="a" d="M-6.064,35.254a2.7,2.7,0,0,1-2.666-2.3h.818a1.891,1.891,0,0,0,2.25,1.446,1.889,1.889,0,0,0,1.446-2.248,1.891,1.891,0,0,0-1.754-1.488.386.386,0,0,0-.092-.011,4.319,4.319,0,0,1-4.28-3.9h.8a3.486,3.486,0,0,0,3.479,3.107,2.7,2.7,0,0,1,2.7,2.7.4.4,0,0,0,.4.4h1.586a.429.429,0,0,0,.421-.41A5.136,5.136,0,0,0-5.982,27.47a.413.413,0,0,0-.077-.007,1.086,1.086,0,0,1-1.089-1.086,1.088,1.088,0,0,1,1.086-1.089,1.089,1.089,0,0,1,1.089,1.086.405.405,0,0,0,.392.4h1.619a.406.406,0,0,0,.4-.4A3.493,3.493,0,0,0-5.654,22.9v-.8a4.323,4.323,0,0,1,3.895,4.272.4.4,0,0,0,.376.428.437.437,0,0,0,.291-.1.393.393,0,0,0,.138-.274.328.328,0,0,0,0-.049,5.123,5.123,0,0,0-5.1-5.1H-6.1a.4.4,0,0,0-.361.4v1.6a.4.4,0,0,0,.4.4A2.7,2.7,0,0,1-3.4,25.965h-.818a1.892,1.892,0,0,0-2.248-1.45,1.891,1.891,0,0,0-1.45,2.248,1.89,1.89,0,0,0,1.756,1.49.415.415,0,0,0,.095.011,4.323,4.323,0,0,1,4.282,3.9h-.8a3.494,3.494,0,0,0-3.482-3.1,2.7,2.7,0,0,1-2.7-2.7.4.4,0,0,0-.4-.4h-1.585a.394.394,0,0,0-.162.036.406.406,0,0,0-.263.369,5.127,5.127,0,0,0,5.018,5.1.362.362,0,0,0,.088.01,1.086,1.086,0,0,1,1.085,1.087,1.085,1.085,0,0,1-1.087,1.085,1.086,1.086,0,0,1-1.085-1.086.4.4,0,0,0-.4-.4H-9.16a.406.406,0,0,0-.4.4,3.493,3.493,0,0,0,3.1,3.479v.8a4.326,4.326,0,0,1-3.9-4.274.4.4,0,0,0-.377-.428.423.423,0,0,0-.292.1.411.411,0,0,0-.136.283v.038a5.121,5.121,0,0,0,5.1,5.106.4.4,0,0,0,.4-.369.345.345,0,0,0,0-.05v-1.53a.257.257,0,0,0,0-.061A.4.4,0,0,0-6.064,35.254Z" transform="translate(14.971 -18.051)"/></g></g></g></svg>