<svg xmlns="http://www.w3.org/2000/svg" xmlns:xlink="http://www.w3.org/1999/xlink" width="242.463" height="135" viewBox="0 0 242.463 135"><defs><style>.a{fill:#102181;}.b{fill:#fff;stroke:rgba(0,0,0,0);stroke-miterlimit:10;opacity:0.047;}.c{filter:url(#a);}</style><filter id="a" x="0" y="0" width="242.463" height="135" filterUnits="userSpaceOnUse"><feOffset dy="3" input="SourceAlpha"/><feGaussianBlur stdDeviation="3" result="b"/><feFlood flood-opacity="0.102"/><feComposite operator="in" in2="b"/><feComposite in="SourceGraphic"/></filter></defs><g transform="translate(9 6)"><g class="c" transform="matrix(1, 0, 0, 1, -9, -6)"><rect class="a" width="224.463" height="117" rx="4" transform="translate(9 6)"/></g><path class="b" d="M170.54,117c3.38-1.606,6.81-5.411,10.242-11.376v1.245c-2.911,4.9-5.836,8.286-8.743,10.131Zm-8.743,0a16.535,16.535,0,0,1-2.966-2.545c-10.171-10.841-17.707-41.906-19.633-65.628-.555-6.8,3.615-10.987,12.391-12.434,6.955-1.148,17.079-.486,29.193,1.779v.743a118.645,118.645,0,0,0-21.327-2.324v-.236h0v.236c-9.51,0-15.664,2-18.291,5.946a9.54,9.54,0,0,0-1.4,6.209C141.914,75.207,151.049,110.98,163.3,117Zm-19,0C129.446,98.14,119.858,65.266,117.9,41.2c-.779-9.588,5.324-15.523,18.144-17.642,12.005-1.98,28.29-.315,44.733,3.047V27.3A170.854,170.854,0,0,0,147.7,23.478v-.255h0v.255c-14.154,0-23.307,2.965-27.205,8.817a13.551,13.551,0,0,0-2.021,8.82,188.142,188.142,0,0,0,15.414,58.736,101.622,101.622,0,0,0,9.7,17.147ZM0,0H176.781a4,4,0,0,1,3.967,3.483C154.116,4.562,125.52,4.876,97.535,60.589c-9.645,19.2-20.233,42.757-30.827,44.523a18.169,18.169,0,0,1-2.984.248C38.169,105.362,13.458,51.358,0,0ZM159.731,99.937c-9.672-10.31-16.83-33.416-18.161-49.8-.477-5.884,3.246-9.522,11.074-10.813,7.535-1.242,17.83-.125,28.138,2.051v.72a105.844,105.844,0,0,0-21.062-2.519v-.242l0,.242c-8.421,0-14.09,1.827-16.393,5.283a7.867,7.867,0,0,0-1.187,5.194,113.769,113.769,0,0,0,9.33,35.543C157,97.7,163.4,104.368,169.476,104.368c3.938,0,7.733-2.748,11.3-8.18v1.155c-3.121,4.539-6.427,7.119-9.854,7.684a8.734,8.734,0,0,1-1.458.121C166.248,105.149,162.977,103.4,159.731,99.937Zm6.693-5.289c-6.184-6.593-10.766-25.468-11.939-39.882-.341-4.191,2.21-6.767,7.583-7.654,2.495-.412,8.262-.806,18.713,1.235V49.1A73.971,73.971,0,0,0,166.85,47.53c-5.725,0-9.42,1.193-10.984,3.542a5.48,5.48,0,0,0-.812,3.61c1.422,17.507,7.878,41.76,16.3,41.76,2.791,0,5.672-2.621,8.565-7.791q.423-.756.864-1.473v1.228q-.206.351-.407.711c-2.73,4.879-5.492,7.58-8.2,8.03a5,5,0,0,1-.814.066A6.891,6.891,0,0,1,166.424,94.648Z" transform="translate(44.266)"/></g></svg>