<svg xmlns="http://www.w3.org/2000/svg" width="25.579" height="25.579" viewBox="0 0 25.579 25.579"><defs><style>.a{fill:#ff8c19;}.b{fill:#fff;}</style></defs><g transform="translate(-383.322 -259.876)"><path class="a" d="M396.111,259.876a12.789,12.789,0,1,1-12.789,12.789A12.789,12.789,0,0,1,396.111,259.876Z"/><g transform="translate(394.765 266.944)"><path class="b" d="M418.463,294.074a1.1,1.1,0,0,1-.8-.337,1.091,1.091,0,0,1-.341-.805,1.111,1.111,0,0,1,.337-.815,1.144,1.144,0,1,1,.805,1.956Zm-.745-3.957-.138-9.24h1.767l-.129,9.24Z" transform="translate(-417.322 -280.877)"/></g></g></svg>